<?xml version="1.0" encoding="utf-8"?>
<!-- Generator: Adobe Illustrator 24.0.1, SVG Export Plug-In . SVG Version: 6.00 Build 0)  -->
<svg version="1.1" id="Layer_3" xmlns="http://www.w3.org/2000/svg" xmlns:xlink="http://www.w3.org/1999/xlink" x="0px" y="0px"
	 viewBox="0 0 383 200.3" style="enable-background:new 0 0 383 200.3;" xml:space="preserve">
<style type="text/css">
	.st0{fill:#EEEFED;}
	.st1{opacity:0.13;}
	.st2{fill:none;stroke:#999999;stroke-width:0.2348;stroke-miterlimit:10;}
	.st3{fill:#EEEFED;stroke:#999999;stroke-width:0.2348;stroke-miterlimit:10;}
	.st4{fill:#CCCCCC;stroke:#999999;stroke-width:0.2348;stroke-miterlimit:10;}
	.st5{fill:none;stroke:#999999;stroke-width:0.2348;stroke-miterlimit:10;stroke-dasharray:1.8784;}
	.st6{fill:none;stroke:#000000;stroke-width:1.2;stroke-miterlimit:10;}
	.st7{fill:#E72B78;}
	.st8{fill:#F9B443;}
	.st9{fill:none;stroke:#000000;stroke-width:1.414;stroke-miterlimit:10;}
	.st10{fill:#FFFFFF;}
	.st11{fill:#FFFFFF;stroke:#000000;stroke-width:0.6858;stroke-miterlimit:10;}
	.st12{opacity:0.91;}
	.st13{fill:#FF3369;}
	.st14{fill:#FFAE00;}
	.st15{fill:#723F33;}
	.st16{opacity:0.28;fill:#542C1C;enable-background:new    ;}
	.st17{opacity:0.6;fill:#603826;enable-background:new    ;}
	.st18{fill:#603826;}
	.st19{opacity:0.4;fill:#603826;enable-background:new    ;}
	.st20{fill:#F4F4F4;}
	.st21{fill:#DBDDDC;}
	.st22{fill:#B2B2B2;}
	.st23{fill:#E09220;}
	.st24{opacity:0.28;fill:#603826;enable-background:new    ;}
	.st25{fill:#C40E50;}
	.st26{fill:#FFFFFF;stroke:#000000;stroke-width:0.9534;stroke-miterlimit:10;}
	.st27{clip-path:url(#XMLID_5_);}
	.st28{clip-path:url(#XMLID_40_);}
	.st29{fill:#FFB53F;}
	.st30{fill:none;stroke:url(#SVGID_1_);stroke-width:0.3757;stroke-miterlimit:10;}
	.st31{fill:#0E0E0E;}
	.st32{font-family:'Exo2-Regular';}
	.st33{font-size:8.3271px;}
	.st34{font-family:'Exo2-Bold';}
	.st35{font-size:8.9649px;}
	.st36{font-family:'Exo2-Black';}
	.st37{font-size:4.116px;}
	.st38{fill:#010101;}
	.st39{fill:#E5E5E5;}
	.st40{fill:#EAEAEA;}
	.st41{fill:#E8E8E8;}
	.st42{fill:#FFFFFF;stroke:#000000;stroke-width:0.327;stroke-miterlimit:10;}
	.st43{opacity:0.44;}
	.st44{fill:#EA9628;}
	.st45{fill:#0D48CC;}
	.st46{fill:#AA0550;}
	.st47{fill:#BC1B5C;}
	.st48{fill:#DD891B;}
	.st49{fill:#002A75;}
	.st50{fill:#06307A;}
	.st51{fill:#CCCCCC;}
	.st52{fill:#71399F;}
	.st53{fill:#03347A;}
	.st54{fill:none;stroke:#EEEFED;stroke-width:3.1536;stroke-miterlimit:10;}
	.st55{opacity:0.24;fill:#56330A;}
	.st56{stroke:#000000;stroke-width:2.0888;stroke-miterlimit:10;}
	.st57{fill:#EEEFED;stroke:#000000;stroke-width:2.0888;stroke-miterlimit:10;}
	.st58{stroke:#000000;stroke-width:1.7;stroke-miterlimit:10;}
	.st59{fill:#EEEFED;stroke:#000000;stroke-width:1.7;stroke-miterlimit:10;}
	.st60{stroke:#000000;stroke-width:1.3;stroke-miterlimit:10;}
	.st61{fill:#EEEFED;stroke:#000000;stroke-width:1.3;stroke-miterlimit:10;}
	.st62{stroke:#000000;stroke-width:2;stroke-miterlimit:10;}
	.st63{stroke:#000000;stroke-width:1.912;stroke-miterlimit:10;}
	.st64{fill:none;stroke:#000000;stroke-width:1.912;stroke-miterlimit:10;}
	.st65{clip-path:url(#XMLID_211_);}
	.st66{clip-path:url(#XMLID_212_);}
	.st67{fill:none;stroke:url(#SVGID_2_);stroke-width:0.2702;stroke-miterlimit:10;}
	.st68{stroke:#000000;stroke-width:0.5;stroke-miterlimit:10;}
	.st69{fill:#FFFFFF;stroke:#000000;stroke-width:0.8987;stroke-miterlimit:10;}
	.st70{stroke:#000000;stroke-width:1.2;stroke-miterlimit:10;}
	.st71{fill:#EEEFED;stroke:#000000;stroke-width:1.2;stroke-miterlimit:10;}
	.st72{fill:#EEEFED;stroke:#000000;stroke-width:2;stroke-miterlimit:10;}
	.st73{fill:#EEEFED;stroke:#000000;stroke-width:1.912;stroke-miterlimit:10;}
</style>
<path class="st0" d="M356.4,194.1H24.6c-10.6,0-19.3-8.7-19.3-19.3V25.6c0-10.6,8.7-19.3,19.3-19.3h331.9c10.6,0,19.3,8.7,19.3,19.3
	v149.1C375.8,185.4,367.1,194.1,356.4,194.1z"/>
<g>
	<rect x="61.7" y="91" width="136.5" height="5.9"/>
</g>
<polygon points="177.9,93.9 177.7,111.9 193.4,103 209,94.2 193.5,85.1 178,76 "/>
<path class="st1" d="M129.8,181.4H39.3c-3.6,0-6.6-3-6.6-6.6V40.7c0-3.6,3-6.6,6.6-6.6h90.4c3.6,0,6.6,3,6.6,6.6v134.1
	C136.4,178.4,133.4,181.4,129.8,181.4z"/>
<path class="st8" d="M119.7,172.5H29.2c-3.6,0-6.6-3-6.6-6.6V31.8c0-3.6,3-6.6,6.6-6.6h90.4c3.6,0,6.6,3,6.6,6.6v134.1
	C126.3,169.5,123.3,172.5,119.7,172.5z"/>
<path class="st7" d="M22.6,42.9V31.8c0-3.6,3-6.6,6.6-6.6h90.4c3.6,0,6.6,3,6.6,6.6v11.1"/>
<rect x="22.6" y="42.9" class="st10" width="103.7" height="70.5"/>
<text transform="matrix(1 0 0 1 27.996 57.1868)"><tspan x="0" y="0" class="st32 st33">suit: string</tspan><tspan x="0" y="10" class="st32 st33">rank: string</tspan><tspan x="0" y="20" class="st32 st33">value: integer</tspan></text>
<text transform="matrix(1 0 0 1 48.3035 37.5978)" class="st10 st34 st35">PlayingCard</text>
<g>
	
		<image style="overflow:visible;opacity:0.23;" width="74" height="72" xlink:href="25F71303C50CA101.png"  transform="matrix(1 0 0 1 248.6729 16.5989)">
	</image>
	<g>
		<g>
			<g>
				<defs>
					<path id="XMLID_87_" d="M288.2,33.2c0.6,0.1,1.2-0.4,1.2-0.9c0.1-0.6-0.4-1.1-0.9-1.2c0.1-0.6-0.4-1.1-0.9-1.2
						c-0.6-0.1-1.1,0.3-1.2,1l-0.2,2c0,0,0,0.1,0.1,0.1L288.2,33.2z"/>
				</defs>
				<clipPath id="XMLID_2_">
					<use xlink:href="#XMLID_87_"  style="overflow:visible;"/>
				</clipPath>
			</g>
			<g>
				<defs>
					<path id="XMLID_86_" d="M280,70.1c-0.7-0.1-1.2,0.4-1.2,1c-0.1,0.6,0.4,1.1,1,1.2c-0.1,0.6,0.4,1.1,1,1.2
						c0.6,0.1,1.1-0.4,1.2-1l0.2-2c0,0,0-0.1-0.1-0.1L280,70.1z"/>
				</defs>
				<clipPath id="XMLID_3_">
					<use xlink:href="#XMLID_86_"  style="overflow:visible;"/>
				</clipPath>
			</g>
			<g>
				<defs>
					<path id="XMLID_85_" d="M286.6,53.8c1.8,0.2,3.3-1,3.5-2.6c0.2-1.6-1-3.1-2.6-3.3c0.2-1.6-1-3.1-2.6-3.3
						c-1.7-0.2-3.1,1-3.4,2.8l-0.7,5.7c0,0.1,0.1,0.2,0.2,0.2L286.6,53.8z"/>
				</defs>
				<clipPath id="XMLID_4_">
					<use xlink:href="#XMLID_85_"  style="overflow:visible;"/>
				</clipPath>
			</g>
		</g>
		<g>
			<path class="st10" d="M275.6,77.3l-18.2-21.9c-0.7-0.9-0.6-2.2,0.3-2.9l32.4-26.9c0.9-0.7,2.2-0.6,2.9,0.3l18.2,21.9
				c0.7,0.9,0.6,2.2-0.3,2.9l-32.4,26.9C277.6,78.3,276.3,78.2,275.6,77.3z"/>
			<text transform="matrix(0.6387 0.7694 -0.7694 0.6387 288.4511 29.1718)" class="st36 st37">A</text>
			<g>
				<defs>
					<path id="XMLID_84_" d="M288.2,33.2c0.6,0.1,1.2-0.4,1.2-0.9c0.1-0.6-0.4-1.1-0.9-1.2c0.1-0.6-0.4-1.1-0.9-1.2
						c-0.6-0.1-1.1,0.3-1.2,1l-0.2,2c0,0,0,0.1,0.1,0.1L288.2,33.2z"/>
				</defs>
				<use xlink:href="#XMLID_84_"  style="overflow:visible;fill:#E72B78;"/>
				<clipPath id="XMLID_5_">
					<use xlink:href="#XMLID_84_"  style="overflow:visible;"/>
				</clipPath>
			</g>
			<text transform="matrix(-0.6387 -0.7694 0.7694 -0.6387 279.68 74.1629)" class="st36 st37">A</text>
			<g>
				<defs>
					<path id="XMLID_83_" d="M280,70.1c-0.7-0.1-1.2,0.4-1.2,1c-0.1,0.6,0.4,1.1,1,1.2c-0.1,0.6,0.4,1.1,1,1.2
						c0.6,0.1,1.1-0.4,1.2-1l0.2-2c0,0,0-0.1-0.1-0.1L280,70.1z"/>
				</defs>
				<use xlink:href="#XMLID_83_"  style="overflow:visible;fill:#E72B78;"/>
				<clipPath id="XMLID_40_">
					<use xlink:href="#XMLID_83_"  style="overflow:visible;"/>
				</clipPath>
			</g>
			<g>
				<defs>
					<path id="XMLID_82_" d="M286.6,53.8c1.8,0.2,3.3-1,3.5-2.6c0.2-1.6-1-3.1-2.6-3.3c0.2-1.6-1-3.1-2.6-3.3
						c-1.7-0.2-3.1,1-3.4,2.8l-0.7,5.7c0,0.1,0.1,0.2,0.2,0.2L286.6,53.8z"/>
				</defs>
				<use xlink:href="#XMLID_82_"  style="overflow:visible;fill:#E72B78;"/>
				<clipPath id="XMLID_41_">
					<use xlink:href="#XMLID_82_"  style="overflow:visible;"/>
				</clipPath>
			</g>
		</g>
		<g>
			<g>
				<defs>
					<path id="XMLID_81_" d="M288.2,33.2c0.6,0.1,1.2-0.4,1.2-0.9c0.1-0.6-0.4-1.1-0.9-1.2c0.1-0.6-0.4-1.1-0.9-1.2
						c-0.6-0.1-1.1,0.3-1.2,1l-0.2,2c0,0,0,0.1,0.1,0.1L288.2,33.2z"/>
				</defs>
				<clipPath id="XMLID_42_">
					<use xlink:href="#XMLID_81_"  style="overflow:visible;"/>
				</clipPath>
			</g>
			<g>
				<defs>
					<path id="XMLID_78_" d="M280,70.1c-0.7-0.1-1.2,0.4-1.2,1c-0.1,0.6,0.4,1.1,1,1.2c-0.1,0.6,0.4,1.1,1,1.2
						c0.6,0.1,1.1-0.4,1.2-1l0.2-2c0,0,0-0.1-0.1-0.1L280,70.1z"/>
				</defs>
				<clipPath id="XMLID_43_">
					<use xlink:href="#XMLID_78_"  style="overflow:visible;"/>
				</clipPath>
			</g>
			<g>
				<defs>
					<path id="XMLID_77_" d="M286.6,53.8c1.8,0.2,3.3-1,3.5-2.6c0.2-1.6-1-3.1-2.6-3.3c0.2-1.6-1-3.1-2.6-3.3
						c-1.7-0.2-3.1,1-3.4,2.8l-0.7,5.7c0,0.1,0.1,0.2,0.2,0.2L286.6,53.8z"/>
				</defs>
				<clipPath id="XMLID_44_">
					<use xlink:href="#XMLID_77_"  style="overflow:visible;"/>
				</clipPath>
			</g>
		</g>
	</g>
</g>
<g>
	
		<image style="overflow:visible;opacity:0.23;" width="66" height="73" xlink:href="25F71303C50CA103.png"  transform="matrix(1 0 0 1 236.6729 112.5989)">
	</image>
	<g>
		<g>
			<g>
				<defs>
					<path id="XMLID_95_" d="M252.5,139.2c0.3-0.6,0-1.2-0.6-1.5c-0.5-0.2-1.2,0-1.4,0.6c-0.5-0.2-1.2,0-1.4,0.6
						c-0.2,0.5,0,1.2,0.6,1.4l1.9,0.8c0,0,0.1,0,0.1,0L252.5,139.2z"/>
				</defs>
				<clipPath id="XMLID_45_">
					<use xlink:href="#XMLID_95_"  style="overflow:visible;"/>
				</clipPath>
			</g>
			<g>
				<defs>
					<path id="XMLID_94_" d="M285.6,157.3c-0.2,0.6,0,1.2,0.6,1.4c0.6,0.2,1.2-0.1,1.4-0.6c0.5,0.2,1.2,0,1.4-0.6
						c0.2-0.5,0-1.2-0.6-1.4l-1.9-0.8c0,0-0.1,0-0.1,0L285.6,157.3z"/>
				</defs>
				<clipPath id="XMLID_46_">
					<use xlink:href="#XMLID_94_"  style="overflow:visible;"/>
				</clipPath>
			</g>
			<g>
				<defs>
					<path id="XMLID_93_" d="M271.8,146.4c0.7-1.7,0-3.4-1.6-4.1c-1.5-0.6-3.3,0.1-3.9,1.6c-1.5-0.6-3.3,0.1-3.9,1.6
						c-0.7,1.5,0,3.3,1.7,4l5.3,2.2c0.1,0,0.2,0,0.3-0.1L271.8,146.4z"/>
				</defs>
				<clipPath id="XMLID_47_">
					<use xlink:href="#XMLID_93_"  style="overflow:visible;"/>
				</clipPath>
			</g>
		</g>
		<g>
			<path class="st10" d="M291.3,163.6l-26.1,11.3c-1.1,0.5-2.3,0-2.7-1.1l-16.7-38.7c-0.5-1.1,0-2.3,1.1-2.7l26.1-11.3
				c1.1-0.5,2.3,0,2.7,1.1l16.7,38.7C292.8,161.9,292.3,163.1,291.3,163.6z"/>
			<text transform="matrix(0.9176 -0.3975 0.3975 0.9176 248.7316 137.7266)" class="st36 st37">A</text>
			<g>
				<defs>
					<path id="XMLID_92_" d="M252.5,139.2c0.3-0.6,0-1.2-0.6-1.5c-0.5-0.2-1.2,0-1.4,0.6c-0.5-0.2-1.2,0-1.4,0.6
						c-0.2,0.5,0,1.2,0.6,1.4l1.9,0.8c0,0,0.1,0,0.1,0L252.5,139.2z"/>
				</defs>
				<use xlink:href="#XMLID_92_"  style="overflow:visible;fill:#010101;"/>
				<clipPath id="XMLID_48_">
					<use xlink:href="#XMLID_92_"  style="overflow:visible;"/>
				</clipPath>
			</g>
			<text transform="matrix(-0.9176 0.3975 -0.3975 -0.9176 289.4618 158.7551)" class="st36 st37">A</text>
			<g>
				<defs>
					<path id="XMLID_91_" d="M285.6,157.3c-0.2,0.6,0,1.2,0.6,1.4c0.6,0.2,1.2-0.1,1.4-0.6c0.5,0.2,1.2,0,1.4-0.6
						c0.2-0.5,0-1.2-0.6-1.4l-1.9-0.8c0,0-0.1,0-0.1,0L285.6,157.3z"/>
				</defs>
				<use xlink:href="#XMLID_91_"  style="overflow:visible;fill:#010101;"/>
				<clipPath id="XMLID_49_">
					<use xlink:href="#XMLID_91_"  style="overflow:visible;"/>
				</clipPath>
			</g>
			<g>
				<defs>
					<path id="XMLID_90_" d="M271.8,146.4c0.7-1.7,0-3.4-1.6-4.1c-1.5-0.6-3.3,0.1-3.9,1.6c-1.5-0.6-3.3,0.1-3.9,1.6
						c-0.7,1.5,0,3.3,1.7,4l5.3,2.2c0.1,0,0.2,0,0.3-0.1L271.8,146.4z"/>
				</defs>
				<use xlink:href="#XMLID_90_"  style="overflow:visible;fill:#010101;"/>
				<clipPath id="XMLID_61_">
					<use xlink:href="#XMLID_90_"  style="overflow:visible;"/>
				</clipPath>
			</g>
		</g>
		<g>
			<g>
				<defs>
					<path id="XMLID_89_" d="M252.5,139.2c0.3-0.6,0-1.2-0.6-1.5c-0.5-0.2-1.2,0-1.4,0.6c-0.5-0.2-1.2,0-1.4,0.6
						c-0.2,0.5,0,1.2,0.6,1.4l1.9,0.8c0,0,0.1,0,0.1,0L252.5,139.2z"/>
				</defs>
				<clipPath id="XMLID_62_">
					<use xlink:href="#XMLID_89_"  style="overflow:visible;"/>
				</clipPath>
			</g>
			<g>
				<defs>
					<path id="XMLID_88_" d="M285.6,157.3c-0.2,0.6,0,1.2,0.6,1.4c0.6,0.2,1.2-0.1,1.4-0.6c0.5,0.2,1.2,0,1.4-0.6
						c0.2-0.5,0-1.2-0.6-1.4l-1.9-0.8c0,0-0.1,0-0.1,0L285.6,157.3z"/>
				</defs>
				<clipPath id="XMLID_63_">
					<use xlink:href="#XMLID_88_"  style="overflow:visible;"/>
				</clipPath>
			</g>
			<g>
				<defs>
					<path id="XMLID_76_" d="M271.8,146.4c0.7-1.7,0-3.4-1.6-4.1c-1.5-0.6-3.3,0.1-3.9,1.6c-1.5-0.6-3.3,0.1-3.9,1.6
						c-0.7,1.5,0,3.3,1.7,4l5.3,2.2c0.1,0,0.2,0,0.3-0.1L271.8,146.4z"/>
				</defs>
				<clipPath id="XMLID_64_">
					<use xlink:href="#XMLID_76_"  style="overflow:visible;"/>
				</clipPath>
			</g>
		</g>
	</g>
</g>
<g>
	
		<image style="overflow:visible;opacity:0.23;" width="72" height="74" xlink:href="25F71303C50CA106.png"  transform="matrix(1 0 0 1 246.6729 37.5989)">
	</image>
	<g>
		<g>
			<g>
				<defs>
					<path id="XMLID_155_" d="M263.3,70.4c0.1-0.7-0.4-1.2-1-1.2c-0.6-0.1-1.1,0.4-1.2,1c-0.6-0.1-1.1,0.4-1.2,1
						c-0.1,0.6,0.4,1.1,1,1.2l2,0.2c0,0,0.1,0,0.1-0.1L263.3,70.4z"/>
				</defs>
				<clipPath id="XMLID_65_">
					<use xlink:href="#XMLID_155_"  style="overflow:visible;"/>
				</clipPath>
			</g>
			<g>
				<defs>
					<path id="XMLID_154_" d="M300.4,77.9c0,0.7,0.4,1.2,1,1.2c0.6,0,1.1-0.4,1.1-1c0.6,0,1.1-0.4,1.1-1c0-0.6-0.4-1.1-1-1.2l-2-0.2
						c0,0-0.1,0-0.1,0.1L300.4,77.9z"/>
				</defs>
				<clipPath id="XMLID_66_">
					<use xlink:href="#XMLID_154_"  style="overflow:visible;"/>
				</clipPath>
			</g>
			<g>
				<defs>
					<path id="XMLID_153_" d="M275.5,60.7c0.2-1.6-0.9-2.8-2.3-3c-1.4-0.1-2.7,0.9-2.8,2.3c-1.4-0.1-2.7,0.9-2.8,2.3
						c-0.1,1.4,0.9,2.7,2.5,2.9l4.9,0.5c0.1,0,0.2-0.1,0.2-0.2L275.5,60.7z"/>
				</defs>
				<clipPath id="XMLID_67_">
					<use xlink:href="#XMLID_153_"  style="overflow:visible;"/>
				</clipPath>
			</g>
			<g>
				<defs>
					<path id="XMLID_152_" d="M285.3,72c0.2-1.6-0.9-2.8-2.3-3c-1.4-0.1-2.7,0.9-2.8,2.3c-1.4-0.1-2.7,0.9-2.8,2.3
						c-0.1,1.4,0.9,2.7,2.5,2.9l4.9,0.5c0.1,0,0.2-0.1,0.2-0.2L285.3,72z"/>
				</defs>
				<clipPath id="XMLID_68_">
					<use xlink:href="#XMLID_152_"  style="overflow:visible;"/>
				</clipPath>
			</g>
			<g>
				<defs>
					<path id="XMLID_151_" d="M288.8,86.9c-0.2,1.6,0.9,2.8,2.3,3c1.4,0.1,2.7-0.9,2.8-2.3c1.4,0.1,2.7-0.9,2.8-2.3
						c0.1-1.4-0.9-2.7-2.5-2.9l-4.9-0.5c-0.1,0-0.2,0.1-0.2,0.2L288.8,86.9z"/>
				</defs>
				<clipPath id="XMLID_69_">
					<use xlink:href="#XMLID_151_"  style="overflow:visible;"/>
				</clipPath>
			</g>
		</g>
		<g>
			<path class="st10" d="M307.6,82.1l-21.5,18.6c-0.9,0.7-2.2,0.7-2.9-0.2l-27.5-31.9c-0.7-0.9-0.7-2.2,0.2-2.9l21.5-18.6
				c0.9-0.7,2.2-0.7,2.9,0.2l27.5,31.9C308.6,80.1,308.5,81.4,307.6,82.1z"/>
			<text transform="matrix(0.7571 -0.6533 0.6533 0.7571 259.2579 70.1021)" class="st36 st37">3</text>
			<g>
				<defs>
					<path id="XMLID_150_" d="M263.3,70.4c0.1-0.7-0.4-1.2-1-1.2c-0.6-0.1-1.1,0.4-1.2,1c-0.6-0.1-1.1,0.4-1.2,1
						c-0.1,0.6,0.4,1.1,1,1.2l2,0.2c0,0,0.1,0,0.1-0.1L263.3,70.4z"/>
				</defs>
				<use xlink:href="#XMLID_150_"  style="overflow:visible;"/>
				<clipPath id="XMLID_70_">
					<use xlink:href="#XMLID_150_"  style="overflow:visible;"/>
				</clipPath>
			</g>
			<text transform="matrix(-0.7571 0.6533 -0.6533 -0.7571 304.4083 78.0103)" class="st36 st37">3</text>
			<g>
				<defs>
					<path id="XMLID_149_" d="M300.4,77.9c0,0.7,0.4,1.2,1,1.2c0.6,0,1.1-0.4,1.1-1c0.6,0,1.1-0.4,1.1-1c0-0.6-0.4-1.1-1-1.2l-2-0.2
						c0,0-0.1,0-0.1,0.1L300.4,77.9z"/>
				</defs>
				<use xlink:href="#XMLID_149_"  style="overflow:visible;"/>
				<clipPath id="XMLID_71_">
					<use xlink:href="#XMLID_149_"  style="overflow:visible;"/>
				</clipPath>
			</g>
			<g>
				<defs>
					<path id="XMLID_148_" d="M275.5,60.7c0.2-1.6-0.9-2.8-2.3-3c-1.4-0.1-2.7,0.9-2.8,2.3c-1.4-0.1-2.7,0.9-2.8,2.3
						c-0.1,1.4,0.9,2.7,2.5,2.9l4.9,0.5c0.1,0,0.2-0.1,0.2-0.2L275.5,60.7z"/>
				</defs>
				<use xlink:href="#XMLID_148_"  style="overflow:visible;"/>
				<clipPath id="XMLID_72_">
					<use xlink:href="#XMLID_148_"  style="overflow:visible;"/>
				</clipPath>
			</g>
			<g>
				<defs>
					<path id="XMLID_147_" d="M285.3,72c0.2-1.6-0.9-2.8-2.3-3c-1.4-0.1-2.7,0.9-2.8,2.3c-1.4-0.1-2.7,0.9-2.8,2.3
						c-0.1,1.4,0.9,2.7,2.5,2.9l4.9,0.5c0.1,0,0.2-0.1,0.2-0.2L285.3,72z"/>
				</defs>
				<use xlink:href="#XMLID_147_"  style="overflow:visible;"/>
				<clipPath id="XMLID_73_">
					<use xlink:href="#XMLID_147_"  style="overflow:visible;"/>
				</clipPath>
			</g>
			<g>
				<defs>
					<path id="XMLID_146_" d="M288.8,86.9c-0.2,1.6,0.9,2.8,2.3,3c1.4,0.1,2.7-0.9,2.8-2.3c1.4,0.1,2.7-0.9,2.8-2.3
						c0.1-1.4-0.9-2.7-2.5-2.9l-4.9-0.5c-0.1,0-0.2,0.1-0.2,0.2L288.8,86.9z"/>
				</defs>
				<use xlink:href="#XMLID_146_"  style="overflow:visible;"/>
				<clipPath id="XMLID_74_">
					<use xlink:href="#XMLID_146_"  style="overflow:visible;"/>
				</clipPath>
			</g>
		</g>
		<g>
			<g>
				<defs>
					<path id="XMLID_145_" d="M263.3,70.4c0.1-0.7-0.4-1.2-1-1.2c-0.6-0.1-1.1,0.4-1.2,1c-0.6-0.1-1.1,0.4-1.2,1
						c-0.1,0.6,0.4,1.1,1,1.2l2,0.2c0,0,0.1,0,0.1-0.1L263.3,70.4z"/>
				</defs>
				<clipPath id="XMLID_75_">
					<use xlink:href="#XMLID_145_"  style="overflow:visible;"/>
				</clipPath>
			</g>
			<g>
				<defs>
					<path id="XMLID_144_" d="M300.4,77.9c0,0.7,0.4,1.2,1,1.2c0.6,0,1.1-0.4,1.1-1c0.6,0,1.1-0.4,1.1-1c0-0.6-0.4-1.1-1-1.2l-2-0.2
						c0,0-0.1,0-0.1,0.1L300.4,77.9z"/>
				</defs>
				<clipPath id="XMLID_96_">
					<use xlink:href="#XMLID_144_"  style="overflow:visible;"/>
				</clipPath>
			</g>
			<g>
				<defs>
					<path id="XMLID_143_" d="M275.5,60.7c0.2-1.6-0.9-2.8-2.3-3c-1.4-0.1-2.7,0.9-2.8,2.3c-1.4-0.1-2.7,0.9-2.8,2.3
						c-0.1,1.4,0.9,2.7,2.5,2.9l4.9,0.5c0.1,0,0.2-0.1,0.2-0.2L275.5,60.7z"/>
				</defs>
				<clipPath id="XMLID_97_">
					<use xlink:href="#XMLID_143_"  style="overflow:visible;"/>
				</clipPath>
			</g>
			<g>
				<defs>
					<path id="XMLID_142_" d="M285.3,72c0.2-1.6-0.9-2.8-2.3-3c-1.4-0.1-2.7,0.9-2.8,2.3c-1.4-0.1-2.7,0.9-2.8,2.3
						c-0.1,1.4,0.9,2.7,2.5,2.9l4.9,0.5c0.1,0,0.2-0.1,0.2-0.2L285.3,72z"/>
				</defs>
				<clipPath id="XMLID_98_">
					<use xlink:href="#XMLID_142_"  style="overflow:visible;"/>
				</clipPath>
			</g>
			<g>
				<defs>
					<path id="XMLID_141_" d="M288.8,86.9c-0.2,1.6,0.9,2.8,2.3,3c1.4,0.1,2.7-0.9,2.8-2.3c1.4,0.1,2.7-0.9,2.8-2.3
						c0.1-1.4-0.9-2.7-2.5-2.9l-4.9-0.5c-0.1,0-0.2,0.1-0.2,0.2L288.8,86.9z"/>
				</defs>
				<clipPath id="XMLID_99_">
					<use xlink:href="#XMLID_141_"  style="overflow:visible;"/>
				</clipPath>
			</g>
		</g>
	</g>
</g>
<g>
	
		<image style="overflow:visible;opacity:0.23;" width="63" height="72" xlink:href="25F71303C50CA107.png"  transform="matrix(1 0 0 1 273.6729 51.5989)">
	</image>
	<g>
		<g>
			<g>
				<defs>
					<path id="XMLID_118_" d="M298,69.1c0.6-0.3,0.8-0.9,0.6-1.5c-0.3-0.5-0.9-0.8-1.4-0.5c-0.3-0.5-0.9-0.8-1.4-0.5
						c-0.5,0.3-0.8,0.9-0.5,1.5l0.9,1.8c0,0,0.1,0.1,0.1,0L298,69.1z"/>
				</defs>
				<clipPath id="XMLID_100_">
					<use xlink:href="#XMLID_118_"  style="overflow:visible;"/>
				</clipPath>
			</g>
			<g>
				<defs>
					<path id="XMLID_117_" d="M310.5,104.7c-0.6,0.3-0.8,0.9-0.5,1.5c0.3,0.5,0.9,0.7,1.4,0.5c0.3,0.5,0.9,0.7,1.4,0.5
						c0.5-0.3,0.8-0.9,0.5-1.5l-0.9-1.8c0,0-0.1,0-0.1,0L310.5,104.7z"/>
				</defs>
				<clipPath id="XMLID_101_">
					<use xlink:href="#XMLID_117_"  style="overflow:visible;"/>
				</clipPath>
			</g>
			<g>
				<defs>
					<path id="XMLID_116_" d="M311.1,76.1c1.3-0.6,1.8-2,1.2-3.2c-0.6-1.2-1.9-1.7-3.1-1.1c-0.5-1.2-1.9-1.7-3.1-1.1
						c-1.2,0.5-1.7,1.9-1.1,3.2l1.9,4c0,0.1,0.1,0.1,0.2,0.1L311.1,76.1z"/>
				</defs>
				<clipPath id="XMLID_102_">
					<use xlink:href="#XMLID_116_"  style="overflow:visible;"/>
				</clipPath>
			</g>
			<g>
				<defs>
					<path id="XMLID_115_" d="M297.2,97.7c-1.3,0.6-1.8,2-1.2,3.2c0.6,1.2,1.9,1.7,3.1,1.1c0.5,1.2,1.9,1.7,3.1,1.1
						c1.2-0.5,1.7-1.9,1.1-3.2l-1.9-4c0-0.1-0.1-0.1-0.2-0.1L297.2,97.7z"/>
				</defs>
				<clipPath id="XMLID_103_">
					<use xlink:href="#XMLID_115_"  style="overflow:visible;"/>
				</clipPath>
			</g>
		</g>
		<g>
			<path class="st10" d="M310.6,113.2l-27-9c-1.1-0.4-1.7-1.5-1.3-2.6l13.3-40c0.4-1.1,1.5-1.7,2.6-1.3l27,9
				c1.1,0.4,1.7,1.5,1.3,2.6l-13.3,40C312.9,112.9,311.7,113.5,310.6,113.2z"/>
			<text transform="matrix(0.9486 0.3165 -0.3165 0.9486 296.2154 65.4934)" class="st36 st37">2</text>
			<g>
				<defs>
					<path id="XMLID_114_" d="M298,69.1c0.6-0.3,0.8-0.9,0.6-1.5c-0.3-0.5-0.9-0.8-1.4-0.5c-0.3-0.5-0.9-0.8-1.4-0.5
						c-0.5,0.3-0.8,0.9-0.5,1.5l0.9,1.8c0,0,0.1,0.1,0.1,0L298,69.1z"/>
				</defs>
				<use xlink:href="#XMLID_114_"  style="overflow:visible;fill:#E72B78;"/>
				<clipPath id="XMLID_104_">
					<use xlink:href="#XMLID_114_"  style="overflow:visible;"/>
				</clipPath>
			</g>
			<text transform="matrix(-0.9486 -0.3165 0.3165 -0.9486 312.5089 108.3379)" class="st36 st37">2</text>
			<g>
				<defs>
					<path id="XMLID_113_" d="M310.5,104.7c-0.6,0.3-0.8,0.9-0.5,1.5c0.3,0.5,0.9,0.7,1.4,0.5c0.3,0.5,0.9,0.7,1.4,0.5
						c0.5-0.3,0.8-0.9,0.5-1.5l-0.9-1.8c0,0-0.1,0-0.1,0L310.5,104.7z"/>
				</defs>
				<use xlink:href="#XMLID_113_"  style="overflow:visible;fill:#E72B78;"/>
				<clipPath id="XMLID_105_">
					<use xlink:href="#XMLID_113_"  style="overflow:visible;"/>
				</clipPath>
			</g>
			<g>
				<defs>
					<path id="XMLID_112_" d="M311.1,76.1c1.3-0.6,1.8-2,1.2-3.2c-0.6-1.2-1.9-1.7-3.1-1.1c-0.5-1.2-1.9-1.7-3.1-1.1
						c-1.2,0.5-1.7,1.9-1.1,3.2l1.9,4c0,0.1,0.1,0.1,0.2,0.1L311.1,76.1z"/>
				</defs>
				<use xlink:href="#XMLID_112_"  style="overflow:visible;fill:#E72B78;"/>
				<clipPath id="XMLID_130_">
					<use xlink:href="#XMLID_112_"  style="overflow:visible;"/>
				</clipPath>
			</g>
			<g>
				<defs>
					<path id="XMLID_111_" d="M297.2,97.7c-1.3,0.6-1.8,2-1.2,3.2c0.6,1.2,1.9,1.7,3.1,1.1c0.5,1.2,1.9,1.7,3.1,1.1
						c1.2-0.5,1.7-1.9,1.1-3.2l-1.9-4c0-0.1-0.1-0.1-0.2-0.1L297.2,97.7z"/>
				</defs>
				<use xlink:href="#XMLID_111_"  style="overflow:visible;fill:#E72B78;"/>
				<clipPath id="XMLID_131_">
					<use xlink:href="#XMLID_111_"  style="overflow:visible;"/>
				</clipPath>
			</g>
		</g>
		<g>
			<g>
				<defs>
					<path id="XMLID_110_" d="M298,69.1c0.6-0.3,0.8-0.9,0.6-1.5c-0.3-0.5-0.9-0.8-1.4-0.5c-0.3-0.5-0.9-0.8-1.4-0.5
						c-0.5,0.3-0.8,0.9-0.5,1.5l0.9,1.8c0,0,0.1,0.1,0.1,0L298,69.1z"/>
				</defs>
				<clipPath id="XMLID_132_">
					<use xlink:href="#XMLID_110_"  style="overflow:visible;"/>
				</clipPath>
			</g>
			<g>
				<defs>
					<path id="XMLID_109_" d="M310.5,104.7c-0.6,0.3-0.8,0.9-0.5,1.5c0.3,0.5,0.9,0.7,1.4,0.5c0.3,0.5,0.9,0.7,1.4,0.5
						c0.5-0.3,0.8-0.9,0.5-1.5l-0.9-1.8c0,0-0.1,0-0.1,0L310.5,104.7z"/>
				</defs>
				<clipPath id="XMLID_133_">
					<use xlink:href="#XMLID_109_"  style="overflow:visible;"/>
				</clipPath>
			</g>
			<g>
				<defs>
					<path id="XMLID_108_" d="M311.1,76.1c1.3-0.6,1.8-2,1.2-3.2c-0.6-1.2-1.9-1.7-3.1-1.1c-0.5-1.2-1.9-1.7-3.1-1.1
						c-1.2,0.5-1.7,1.9-1.1,3.2l1.9,4c0,0.1,0.1,0.1,0.2,0.1L311.1,76.1z"/>
				</defs>
				<clipPath id="XMLID_134_">
					<use xlink:href="#XMLID_108_"  style="overflow:visible;"/>
				</clipPath>
			</g>
			<g>
				<defs>
					<path id="XMLID_107_" d="M297.2,97.7c-1.3,0.6-1.8,2-1.2,3.2c0.6,1.2,1.9,1.7,3.1,1.1c0.5,1.2,1.9,1.7,3.1,1.1
						c1.2-0.5,1.7-1.9,1.1-3.2l-1.9-4c0-0.1-0.1-0.1-0.2-0.1L297.2,97.7z"/>
				</defs>
				<clipPath id="XMLID_135_">
					<use xlink:href="#XMLID_107_"  style="overflow:visible;"/>
				</clipPath>
			</g>
		</g>
	</g>
</g>
<g>
	
		<image style="overflow:visible;opacity:0.23;" width="74" height="70" xlink:href="25F71303C50CA102.png"  transform="matrix(1 0 0 1 285.6729 23.5989)">
	</image>
	<g>
		<g>
			<path class="st10" d="M310.7,82.6l-16.2-23.3c-0.7-0.9-0.4-2.2,0.5-2.9l34.6-24c0.9-0.7,2.2-0.4,2.9,0.5l16.2,23.3
				c0.7,0.9,0.4,2.2-0.5,2.9l-34.6,24C312.6,83.8,311.3,83.5,310.7,82.6z"/>
			<text transform="matrix(0.5705 0.8213 -0.8213 0.5705 327.6979 35.706)" class="st36 st37">4</text>
			<text transform="matrix(-0.5705 -0.8213 0.8213 -0.5705 315.1069 79.7804)" class="st36 st37">4</text>
			<rect x="321.3" y="45.3" transform="matrix(0.1774 -0.9841 0.9841 0.1774 219.1848 358.9587)" width="6.1" height="6.1"/>
			<rect x="328.7" y="56" transform="matrix(0.1774 -0.9841 0.9841 0.1774 214.7782 375.0409)" width="6.1" height="6.1"/>
			<rect x="308.9" y="53.9" transform="matrix(0.1774 -0.9841 0.9841 0.1774 200.6284 353.8741)" width="6.1" height="6.1"/>
			<rect x="316.4" y="64.6" transform="matrix(0.1774 -0.9841 0.9841 0.1774 196.2218 369.9563)" width="6.1" height="6.1"/>
			<rect x="325.1" y="37.2" transform="matrix(0.1774 -0.9841 0.9841 0.1774 230.5705 352.7679)" width="2.5" height="2.5"/>
			<rect x="315.1" y="75.9" transform="matrix(0.1774 -0.9841 0.9841 0.1774 184.3365 374.8087)" width="2.5" height="2.5"/>
		</g>
	</g>
</g>
<g>
	
		<image style="overflow:visible;opacity:0.23;" width="69" height="74" xlink:href="25F71303C50CA10D.png"  transform="matrix(1 0 0 1 266.6729 94.5989)">
	</image>
	<g>
		<g>
			<path class="st10" d="M324.1,143l-24.4,14.7c-1,0.6-2.3,0.3-2.9-0.7l-21.7-36.1c-0.6-1-0.3-2.3,0.7-2.9l24.4-14.7
				c1-0.6,2.3-0.3,2.9,0.7l21.7,36.1C325.4,141.2,325.1,142.5,324.1,143z"/>
			<text transform="matrix(0.8569 -0.5156 0.5156 0.8569 278.5092 123.0787)" class="st36 st37">A</text>
			<text transform="matrix(-0.8569 0.5156 -0.5156 -0.8569 321.6663 138.5246)" class="st36 st37">A</text>
			
				<rect x="287.8" y="124.2" transform="matrix(0.2413 -0.9704 0.9704 0.2413 97.2051 378.7877)" class="st7" width="6.1" height="6.1"/>
			
				<rect x="299" y="117.5" transform="matrix(0.2413 -0.9704 0.9704 0.2413 112.1604 384.5125)" class="st7" width="6.1" height="6.1"/>
			
				<rect x="295.6" y="137" transform="matrix(0.2413 -0.9704 0.9704 0.2413 90.5995 396.0438)" class="st7" width="6.1" height="6.1"/>
			
				<rect x="306.7" y="130.3" transform="matrix(0.2413 -0.9704 0.9704 0.2413 105.5548 401.7686)" class="st7" width="6.1" height="6.1"/>
			
				<rect x="279.9" y="123.4" transform="matrix(0.2413 -0.9704 0.9704 0.2413 92.3598 367.3237)" class="st7" width="2.5" height="2.5"/>
			
				<rect x="317.8" y="135.8" transform="matrix(0.2413 -0.9704 0.9704 0.2413 109.0739 413.5842)" class="st7" width="2.5" height="2.5"/>
		</g>
	</g>
</g>
<g>
	
		<image style="overflow:visible;opacity:0.23;" width="52" height="65" xlink:href="25F71303C50CA10E.png"  transform="matrix(1 0 0 1 244.6729 83.5989)">
	</image>
	<g>
		<g>
			<path class="st10" d="M283.6,138.5h-28.4c-1.1,0-2.1-0.9-2.1-2.1V94.3c0-1.1,0.9-2.1,2.1-2.1h28.4c1.1,0,2.1,0.9,2.1,2.1v42.1
				C285.7,137.6,284.8,138.5,283.6,138.5z"/>
			<text transform="matrix(1 0 0 1 254.8479 97.8532)" class="st36 st37">A</text>
			<text transform="matrix(-1 0 0 -1 283.8636 133.3385)" class="st36 st37">A</text>
			<rect x="267" y="98.2" transform="matrix(0.7071 -0.7071 0.7071 0.7071 7.5181 220.5768)" width="6.1" height="6.1"/>
			<rect x="267.1" y="111.3" transform="matrix(0.7071 -0.7071 0.7071 0.7071 -1.7252 224.4784)" width="6.1" height="6.1"/>
			<rect x="267" y="125.4" transform="matrix(0.7071 -0.7071 0.7071 0.7071 -11.7272 228.5485)" width="6.1" height="6.1"/>
			<rect x="255.1" y="99.3" transform="matrix(0.7071 -0.7071 0.7071 0.7071 3.992 210.6757)" width="2.5" height="2.5"/>
			<rect x="281.2" y="129.5" transform="matrix(0.7071 -0.7071 0.7071 0.7071 -9.7344 237.9815)" width="2.5" height="2.5"/>
		</g>
	</g>
</g>
<g>
	
		<image style="overflow:visible;opacity:0.23;" width="51" height="65" xlink:href="25F71303C50CA10F.png"  transform="matrix(1 0 0 1 224.6729 28.5989)">
	</image>
	<g>
		<g>
			<g>
				<defs>
					<path id="XMLID_169_" d="M237.4,45.1c0.5-0.5,0.5-1.1,0.1-1.6c-0.4-0.4-1.1-0.4-1.5,0c-0.4-0.4-1.1-0.4-1.5,0
						c-0.4,0.4-0.5,1.1,0,1.6l1.4,1.5c0,0,0.1,0,0.1,0L237.4,45.1z"/>
				</defs>
				<clipPath id="XMLID_136_">
					<use xlink:href="#XMLID_169_"  style="overflow:visible;"/>
				</clipPath>
			</g>
			<g>
				<defs>
					<path id="XMLID_168_" d="M260.5,75c-0.5,0.5-0.5,1.1,0,1.6c0.4,0.4,1.1,0.4,1.5,0c0.4,0.4,1.1,0.4,1.5,0c0.4-0.4,0.4-1.1,0-1.6
						l-1.4-1.5c0,0-0.1,0-0.1,0L260.5,75z"/>
				</defs>
				<clipPath id="XMLID_137_">
					<use xlink:href="#XMLID_168_"  style="overflow:visible;"/>
				</clipPath>
			</g>
			<g>
				<defs>
					<path id="XMLID_167_" d="M253,45.7c1.1-1.1,1.2-2.7,0.2-3.8c-1-1-2.6-1.1-3.7-0.1c-1-1-2.6-1.1-3.7-0.1c-1,1-1.1,2.6,0,3.8
						l3.4,3.6c0.1,0.1,0.2,0.1,0.2,0L253,45.7z"/>
				</defs>
				<clipPath id="XMLID_138_">
					<use xlink:href="#XMLID_167_"  style="overflow:visible;"/>
				</clipPath>
			</g>
			<g>
				<defs>
					<path id="XMLID_166_" d="M253,60.7c1.1-1.1,1.2-2.7,0.2-3.8c-1-1-2.6-1.1-3.7-0.1c-1-1-2.6-1.1-3.7-0.1c-1,1-1.1,2.6,0,3.8
						l3.4,3.6c0.1,0.1,0.2,0.1,0.2,0L253,60.7z"/>
				</defs>
				<clipPath id="XMLID_139_">
					<use xlink:href="#XMLID_166_"  style="overflow:visible;"/>
				</clipPath>
			</g>
			<g>
				<defs>
					<path id="XMLID_165_" d="M245.9,74.2c-1.1,1.1-1.2,2.7-0.2,3.8c1,1,2.6,1.1,3.7,0.1c1,1,2.6,1.1,3.7,0.1c1-1,1.1-2.6,0-3.8
						l-3.4-3.6c-0.1-0.1-0.2-0.1-0.2,0L245.9,74.2z"/>
				</defs>
				<clipPath id="XMLID_170_">
					<use xlink:href="#XMLID_165_"  style="overflow:visible;"/>
				</clipPath>
			</g>
		</g>
		<g>
			<path class="st10" d="M263.3,82.9h-28.4c-1.1,0-2.1-0.9-2.1-2.1V38.7c0-1.1,0.9-2.1,2.1-2.1h28.4c1.1,0,2.1,0.9,2.1,2.1v42.1
				C265.3,82,264.4,82.9,263.3,82.9z"/>
			<text transform="matrix(1 0 0 1 234.4639 42.2904)" class="st36 st37">3</text>
			<g>
				<defs>
					<path id="XMLID_164_" d="M237.4,45.1c0.5-0.5,0.5-1.1,0.1-1.6c-0.4-0.4-1.1-0.4-1.5,0c-0.4-0.4-1.1-0.4-1.5,0
						c-0.4,0.4-0.5,1.1,0,1.6l1.4,1.5c0,0,0.1,0,0.1,0L237.4,45.1z"/>
				</defs>
				<use xlink:href="#XMLID_164_"  style="overflow:visible;fill:#E72B78;"/>
				<clipPath id="XMLID_171_">
					<use xlink:href="#XMLID_164_"  style="overflow:visible;"/>
				</clipPath>
			</g>
			<text transform="matrix(-1 0 0 -1 263.4795 77.7757)" class="st36 st37">3</text>
			<g>
				<defs>
					<path id="XMLID_163_" d="M260.5,75c-0.5,0.5-0.5,1.1,0,1.6c0.4,0.4,1.1,0.4,1.5,0c0.4,0.4,1.1,0.4,1.5,0c0.4-0.4,0.4-1.1,0-1.6
						l-1.4-1.5c0,0-0.1,0-0.1,0L260.5,75z"/>
				</defs>
				<use xlink:href="#XMLID_163_"  style="overflow:visible;fill:#E72B78;"/>
				<clipPath id="XMLID_172_">
					<use xlink:href="#XMLID_163_"  style="overflow:visible;"/>
				</clipPath>
			</g>
			<g>
				<defs>
					<path id="XMLID_162_" d="M253,45.7c1.1-1.1,1.2-2.7,0.2-3.8c-1-1-2.6-1.1-3.7-0.1c-1-1-2.6-1.1-3.7-0.1c-1,1-1.1,2.6,0,3.8
						l3.4,3.6c0.1,0.1,0.2,0.1,0.2,0L253,45.7z"/>
				</defs>
				<use xlink:href="#XMLID_162_"  style="overflow:visible;fill:#E72B78;"/>
				<clipPath id="XMLID_173_">
					<use xlink:href="#XMLID_162_"  style="overflow:visible;"/>
				</clipPath>
			</g>
			<g>
				<defs>
					<path id="XMLID_161_" d="M253,60.7c1.1-1.1,1.2-2.7,0.2-3.8c-1-1-2.6-1.1-3.7-0.1c-1-1-2.6-1.1-3.7-0.1c-1,1-1.1,2.6,0,3.8
						l3.4,3.6c0.1,0.1,0.2,0.1,0.2,0L253,60.7z"/>
				</defs>
				<use xlink:href="#XMLID_161_"  style="overflow:visible;fill:#E72B78;"/>
				<clipPath id="XMLID_174_">
					<use xlink:href="#XMLID_161_"  style="overflow:visible;"/>
				</clipPath>
			</g>
			<g>
				<defs>
					<path id="XMLID_160_" d="M245.9,74.2c-1.1,1.1-1.2,2.7-0.2,3.8c1,1,2.6,1.1,3.7,0.1c1,1,2.6,1.1,3.7,0.1c1-1,1.1-2.6,0-3.8
						l-3.4-3.6c-0.1-0.1-0.2-0.1-0.2,0L245.9,74.2z"/>
				</defs>
				<use xlink:href="#XMLID_160_"  style="overflow:visible;fill:#E72B78;"/>
				<clipPath id="XMLID_175_">
					<use xlink:href="#XMLID_160_"  style="overflow:visible;"/>
				</clipPath>
			</g>
		</g>
		<g>
			<g>
				<defs>
					<path id="XMLID_159_" d="M237.4,45.1c0.5-0.5,0.5-1.1,0.1-1.6c-0.4-0.4-1.1-0.4-1.5,0c-0.4-0.4-1.1-0.4-1.5,0
						c-0.4,0.4-0.5,1.1,0,1.6l1.4,1.5c0,0,0.1,0,0.1,0L237.4,45.1z"/>
				</defs>
				<clipPath id="XMLID_176_">
					<use xlink:href="#XMLID_159_"  style="overflow:visible;"/>
				</clipPath>
			</g>
			<g>
				<defs>
					<path id="XMLID_158_" d="M260.5,75c-0.5,0.5-0.5,1.1,0,1.6c0.4,0.4,1.1,0.4,1.5,0c0.4,0.4,1.1,0.4,1.5,0c0.4-0.4,0.4-1.1,0-1.6
						l-1.4-1.5c0,0-0.1,0-0.1,0L260.5,75z"/>
				</defs>
				<clipPath id="XMLID_177_">
					<use xlink:href="#XMLID_158_"  style="overflow:visible;"/>
				</clipPath>
			</g>
			<g>
				<defs>
					<path id="XMLID_157_" d="M253,45.7c1.1-1.1,1.2-2.7,0.2-3.8c-1-1-2.6-1.1-3.7-0.1c-1-1-2.6-1.1-3.7-0.1c-1,1-1.1,2.6,0,3.8
						l3.4,3.6c0.1,0.1,0.2,0.1,0.2,0L253,45.7z"/>
				</defs>
				<clipPath id="XMLID_178_">
					<use xlink:href="#XMLID_157_"  style="overflow:visible;"/>
				</clipPath>
			</g>
			<g>
				<defs>
					<path id="XMLID_156_" d="M253,60.7c1.1-1.1,1.2-2.7,0.2-3.8c-1-1-2.6-1.1-3.7-0.1c-1-1-2.6-1.1-3.7-0.1c-1,1-1.1,2.6,0,3.8
						l3.4,3.6c0.1,0.1,0.2,0.1,0.2,0L253,60.7z"/>
				</defs>
				<clipPath id="XMLID_179_">
					<use xlink:href="#XMLID_156_"  style="overflow:visible;"/>
				</clipPath>
			</g>
			<g>
				<defs>
					<path id="XMLID_140_" d="M245.9,74.2c-1.1,1.1-1.2,2.7-0.2,3.8c1,1,2.6,1.1,3.7,0.1c1,1,2.6,1.1,3.7,0.1c1-1,1.1-2.6,0-3.8
						l-3.4-3.6c-0.1-0.1-0.2-0.1-0.2,0L245.9,74.2z"/>
				</defs>
				<clipPath id="XMLID_180_">
					<use xlink:href="#XMLID_140_"  style="overflow:visible;"/>
				</clipPath>
			</g>
		</g>
	</g>
</g>
<g>
	
		<image style="overflow:visible;opacity:0.23;" width="73" height="73" xlink:href="25F71303C50CA104.png"  transform="matrix(1 0 0 1 285.6729 77.5989)">
	</image>
	<g>
		<g>
			<path class="st10" d="M315.5,139.8l-20.3-19.9c-0.8-0.8-0.8-2.1,0-2.9l29.5-30c0.8-0.8,2.1-0.8,2.9,0l20.3,19.9
				c0.8,0.8,0.8,2.1,0,2.9l-29.5,30C317.7,140.6,316.4,140.6,315.5,139.8z"/>
			<text transform="matrix(0.7132 0.701 -0.701 0.7132 323.4824 90.6416)" class="st36 st37">A</text>
			<text transform="matrix(-0.7132 -0.701 0.701 -0.7132 319.3029 136.2882)" class="st36 st37">A</text>
			
				<rect x="328.9" y="100.6" transform="matrix(1 -8.657119e-03 8.657119e-03 1 -0.8851 2.8778)" class="st7" width="6.1" height="6.1"/>
			
				<rect x="319.8" y="110" transform="matrix(1 -8.657119e-03 8.657119e-03 1 -0.9669 2.7992)" class="st7" width="6.1" height="6.1"/>
			
				<rect x="309.9" y="120" transform="matrix(1 -8.657119e-03 8.657119e-03 1 -1.0539 2.7134)" class="st7" width="6.1" height="6.1"/>
			
				<rect x="321.4" y="92.3" transform="matrix(1 -8.657119e-03 8.657119e-03 1 -0.7979 2.797)" class="st7" width="2.5" height="2.5"/>
			
				<rect x="318.9" y="132.2" transform="matrix(1 -8.657119e-03 8.657119e-03 1 -1.143 2.7762)" class="st7" width="2.5" height="2.5"/>
		</g>
	</g>
</g>
<g>
	
		<image style="overflow:visible;opacity:0.23;" width="71" height="74" xlink:href="7CB5BF8B7AD3453A.png"  transform="matrix(1 0 0 1 199.6729 55.5989)">
	</image>
	<g>
		<g>
			<path class="st10" d="M259.4,102.2l-23.1,16.5c-0.9,0.7-2.2,0.4-2.9-0.5l-24.5-34.3c-0.7-0.9-0.4-2.2,0.5-2.9l23.1-16.5
				c0.9-0.7,2.2-0.4,2.9,0.5l24.5,34.3C260.6,100.2,260.3,101.5,259.4,102.2z"/>
			<text transform="matrix(0.8141 -0.5807 0.5807 0.8141 211.7506 85.0262)" class="st36 st37">6</text>
			<text transform="matrix(-0.8141 0.5807 -0.5807 -0.8141 257.1413 98.6914)" class="st36 st37">6</text>
			<g>
				<path class="st38" d="M217.3,87.1c0,0.1,0,0.2,0,0.3c0,0,0,0,0,0c0,0.1-0.1,0.3-0.2,0.4c-0.1,0.1-0.2,0.2-0.2,0.2
					c-0.1,0.1-0.2,0.1-0.3,0.2c-0.1,0-0.2,0.1-0.4,0.1c0.1,0.1,0.2,0.2,0.3,0.2c0.1,0.1,0.2,0.1,0.3,0.2c0,0,0,0,0.1,0
					c0,0,0.1,0,0.1,0c0.1,0,0.1,0,0.2,0.1c0,0,0,0,0,0.1c0,0,0,0-0.1,0c-0.1,0.1-0.2,0.1-0.3,0.2c0,0,0,0,0,0
					c-0.1,0.1-0.2,0.1-0.3,0.2c-0.1,0.1-0.2,0.1-0.3,0.2c0,0,0,0,0,0c0,0,0-0.1,0-0.1c0,0,0,0,0-0.1c0-0.1,0-0.1,0-0.2
					c0-0.1,0-0.2-0.1-0.4c0-0.1-0.1-0.2-0.1-0.3c-0.1,0.1-0.1,0.2-0.2,0.4c-0.1,0.1-0.2,0.2-0.3,0.2c-0.1,0.1-0.2,0.1-0.3,0.2
					c-0.1,0-0.2,0-0.3,0c-0.1,0-0.3-0.1-0.4-0.1c-0.1-0.1-0.2-0.2-0.2-0.2c-0.1-0.1-0.1-0.2-0.1-0.3c0-0.1,0-0.3-0.1-0.4
					c0,0,0-0.1,0-0.1c0-0.1,0-0.2,0-0.3c0-0.1,0-0.1,0-0.2c0-0.1,0-0.2,0-0.3c0-0.1,0-0.1,0-0.2c0-0.1,0-0.2,0-0.2
					c0-0.1,0-0.2,0-0.3c0-0.1,0-0.1,0-0.2c0,0,0-0.1,0-0.1c0,0,0-0.1,0-0.1c0,0,0,0,0,0l0,0c0-0.1,0-0.2,0-0.4c0-0.1,0-0.1,0.1-0.1
					c0,0,0.1,0,0.1,0.1c0,0,0,0,0,0c0.1,0.1,0.2,0.1,0.4,0.1c0.1,0,0.1,0,0.2,0.1l0,0c0,0,0,0,0,0c0.1,0,0.2,0.1,0.3,0.1
					c0.1,0,0.1,0,0.2,0c0.1,0,0.1,0,0.2,0c0.1,0,0.2,0,0.2,0c0.1,0,0.2,0,0.3,0c0.1,0,0.2,0.1,0.3,0.1c0,0,0.1,0,0.1,0
					c0.1,0.1,0.2,0.1,0.3,0.2c0.1,0.1,0.2,0.2,0.2,0.3C217.3,86.9,217.3,87,217.3,87.1z"/>
				<path class="st39" d="M217.1,88.9C217.1,88.9,217.2,88.8,217.1,88.9C217.2,88.9,217.2,88.9,217.1,88.9
					C217.1,88.9,217.1,88.9,217.1,88.9z"/>
				<path class="st39" d="M216.8,89.1C216.8,89.1,216.8,89.1,216.8,89.1C216.9,89.1,216.9,89.1,216.8,89.1
					C216.9,89.1,216.8,89.1,216.8,89.1z"/>
				<path class="st40" d="M217.3,87.4C217.3,87.4,217.3,87.4,217.3,87.4C217.4,87.4,217.4,87.4,217.3,87.4z"/>
				<polygon class="st40" points="217.4,87.3 217.4,87.3 217.4,87.3 				"/>
				<path class="st39" d="M216.2,89.4C216.2,89.4,216.2,89.4,216.2,89.4C216.2,89.4,216.2,89.4,216.2,89.4z"/>
				<path class="st40" d="M216.8,88.6C216.8,88.6,216.9,88.7,216.8,88.6C216.9,88.7,216.8,88.7,216.8,88.6z"/>
				<path class="st41" d="M214.2,86.1C214.2,86.1,214.2,86.1,214.2,86.1C214.2,86.1,214.2,86.1,214.2,86.1
					C214.2,86.1,214.2,86.1,214.2,86.1z"/>
			</g>
			<g>
				<path class="st38" d="M251.9,96.8c0-0.1,0-0.2,0-0.3c0,0,0,0,0,0c0-0.1,0.1-0.3,0.2-0.4c0.1-0.1,0.2-0.2,0.2-0.2
					c0.1-0.1,0.2-0.1,0.3-0.2c0.1,0,0.2-0.1,0.4-0.1c-0.1-0.1-0.2-0.2-0.3-0.2c-0.1-0.1-0.2-0.1-0.3-0.2c0,0,0,0-0.1,0
					c0,0-0.1,0-0.1,0c-0.1,0-0.1,0-0.2-0.1c0,0,0,0,0-0.1c0,0,0,0,0.1,0c0.1-0.1,0.2-0.1,0.3-0.2c0,0,0,0,0,0
					c0.1-0.1,0.2-0.1,0.3-0.2c0.1-0.1,0.2-0.1,0.3-0.2c0,0,0,0,0,0c0,0,0,0.1,0,0.1c0,0,0,0,0,0.1c0,0.1,0,0.1,0,0.2
					c0,0.1,0,0.2,0.1,0.4c0,0.1,0.1,0.2,0.1,0.3c0.1-0.1,0.1-0.2,0.2-0.4c0.1-0.1,0.2-0.2,0.3-0.2c0.1-0.1,0.2-0.1,0.3-0.2
					c0.1,0,0.2,0,0.3,0c0.1,0,0.3,0.1,0.4,0.1c0.1,0.1,0.2,0.2,0.2,0.2c0.1,0.1,0.1,0.2,0.1,0.3c0,0.1,0,0.3,0.1,0.4
					c0,0,0,0.1,0,0.1c0,0.1,0,0.2,0,0.3c0,0.1,0,0.1,0,0.2c0,0.1,0,0.2,0,0.3c0,0.1,0,0.1,0,0.2c0,0.1,0,0.2,0,0.2
					c0,0.1,0,0.2,0,0.3c0,0.1,0,0.1,0,0.2c0,0,0,0.1,0,0.1c0,0,0,0.1,0,0.1c0,0,0,0,0,0v0c0,0.1,0,0.2,0,0.4c0,0.1,0,0.1-0.1,0.1
					c0,0-0.1,0-0.1-0.1c0,0,0,0,0,0c-0.1-0.1-0.2-0.1-0.4-0.1c-0.1,0-0.1,0-0.2-0.1l0,0c0,0,0,0,0,0c-0.1,0-0.2-0.1-0.3-0.1
					c-0.1,0-0.1,0-0.2,0c-0.1,0-0.1,0-0.2,0c-0.1,0-0.2,0-0.2,0c-0.1,0-0.2,0-0.3,0c-0.1,0-0.2-0.1-0.3-0.1c0,0-0.1,0-0.1,0
					c-0.1-0.1-0.2-0.1-0.3-0.2c-0.1-0.1-0.2-0.2-0.2-0.3C252,97,252,96.9,251.9,96.8z"/>
				<path class="st39" d="M252.1,95C252.1,95,252.1,95.1,252.1,95C252.1,95,252.1,95,252.1,95C252.1,95,252.1,95,252.1,95z"/>
				<path class="st39" d="M252.4,94.8C252.4,94.8,252.4,94.8,252.4,94.8C252.4,94.8,252.4,94.8,252.4,94.8
					C252.4,94.8,252.4,94.8,252.4,94.8z"/>
				<path class="st40" d="M251.9,96.5C251.9,96.5,251.9,96.5,251.9,96.5C251.9,96.5,251.9,96.5,251.9,96.5z"/>
				<polygon class="st40" points="251.9,96.6 251.9,96.6 251.9,96.6 				"/>
				<path class="st39" d="M253,94.5C253.1,94.5,253.1,94.5,253,94.5C253,94.5,253,94.5,253,94.5z"/>
				<path class="st40" d="M252.4,95.2C252.4,95.3,252.4,95.2,252.4,95.2C252.4,95.2,252.4,95.2,252.4,95.2z"/>
				<path class="st41" d="M255,97.8C255,97.8,255.1,97.8,255,97.8C255.1,97.8,255,97.8,255,97.8C255,97.8,255,97.8,255,97.8z"/>
			</g>
			<g>
				<path class="st38" d="M226.8,84.8c0,0.2,0,0.4,0,0.6c0,0,0,0.1,0,0.1c-0.1,0.3-0.2,0.5-0.3,0.8c-0.2,0.2-0.3,0.4-0.5,0.5
					c-0.2,0.1-0.4,0.2-0.6,0.3c-0.2,0.1-0.5,0.1-0.7,0.2c0.2,0.2,0.4,0.3,0.6,0.4c0.2,0.1,0.3,0.3,0.5,0.3c0,0,0.1,0.1,0.1,0.1
					c0.1,0.1,0.2,0.1,0.3,0.1c0.1,0,0.3,0.1,0.4,0.1c0,0-0.1,0.1-0.1,0.1c-0.1,0-0.1,0-0.1,0.1c-0.2,0.1-0.4,0.3-0.6,0.4
					c0,0-0.1,0-0.1,0c-0.2,0.1-0.3,0.2-0.5,0.4c-0.2,0.1-0.4,0.3-0.6,0.4c0,0-0.1,0-0.1,0.1c0,0,0-0.1,0-0.2c0,0,0-0.1,0-0.1
					c0-0.2,0-0.3,0-0.5c0-0.3-0.1-0.5-0.2-0.7c0-0.2-0.1-0.4-0.2-0.7c-0.1,0.3-0.3,0.5-0.4,0.7c-0.2,0.2-0.3,0.3-0.5,0.5
					c-0.2,0.1-0.4,0.2-0.6,0.3c-0.2,0.1-0.5,0.1-0.7,0.1c-0.3,0-0.6-0.1-0.8-0.3c-0.2-0.1-0.4-0.3-0.5-0.5c-0.1-0.2-0.2-0.4-0.3-0.7
					c-0.1-0.3-0.1-0.5-0.1-0.8c0-0.1,0-0.1,0-0.2c0-0.2,0-0.4,0-0.7c0-0.1,0-0.3,0.1-0.4c0.1-0.2,0.1-0.4,0.1-0.6
					c0-0.1,0-0.3,0.1-0.4c0-0.2,0.1-0.3,0-0.5c0-0.2,0-0.4,0-0.5c0-0.1,0-0.2,0-0.3c0-0.1,0-0.2,0-0.2c0-0.1,0-0.2,0-0.3
					c0,0,0,0,0-0.1l0,0c0-0.3,0-0.5,0-0.8c0-0.2,0-0.2,0.2-0.1c0.1,0,0.2,0.1,0.3,0.1c0,0,0,0,0.1,0c0.2,0.1,0.5,0.2,0.8,0.3
					c0.1,0.1,0.2,0.1,0.4,0.1l0,0c0,0,0,0,0.1,0c0.2,0.1,0.4,0.1,0.5,0.1c0.2,0.1,0.3,0.1,0.5,0.1c0.1,0,0.3,0.1,0.4,0.1
					c0.2,0,0.3,0.1,0.5,0.1c0.2,0,0.3,0.1,0.5,0.1c0.2,0.1,0.4,0.1,0.6,0.2c0.1,0,0.2,0.1,0.2,0.1c0.2,0.1,0.4,0.2,0.7,0.4
					c0.2,0.2,0.3,0.3,0.5,0.5C226.7,84.3,226.8,84.6,226.8,84.8z"/>
				<path class="st39" d="M226.4,88.5c0,0,0.1-0.1,0.1-0.1C226.6,88.5,226.5,88.5,226.4,88.5C226.5,88.5,226.4,88.5,226.4,88.5z"/>
				<path class="st39" d="M225.8,89C225.8,88.9,225.8,88.9,225.8,89C225.9,88.9,225.9,88.9,225.8,89C225.9,89,225.8,89,225.8,89z"/>
				<path class="st40" d="M226.9,85.5C226.9,85.4,226.9,85.4,226.9,85.5C226.9,85.4,226.9,85.4,226.9,85.5z"/>
				<polygon class="st40" points="227,85.3 227,85.3 227,85.3 				"/>
				<path class="st39" d="M224.6,89.6c-0.1,0,0-0.1,0-0.1C224.6,89.5,224.6,89.6,224.6,89.6z"/>
				<path class="st40" d="M225.8,88c0.1,0,0.1,0,0.1,0.1C225.9,88.1,225.8,88.1,225.8,88z"/>
				<path class="st41" d="M220.5,82.9C220.4,82.9,220.4,82.9,220.5,82.9C220.4,82.8,220.4,82.8,220.5,82.9
					C220.5,82.8,220.5,82.9,220.5,82.9z"/>
			</g>
			<g>
				<path class="st38" d="M235.7,78.5c0,0.2,0,0.4,0,0.6c0,0,0,0.1,0,0.1c-0.1,0.3-0.2,0.5-0.3,0.8c-0.2,0.2-0.3,0.4-0.5,0.5
					c-0.2,0.1-0.4,0.2-0.6,0.3c-0.2,0.1-0.5,0.1-0.7,0.2c0.2,0.2,0.4,0.3,0.6,0.4c0.2,0.1,0.3,0.3,0.5,0.3c0,0,0.1,0.1,0.1,0.1
					c0.1,0.1,0.2,0.1,0.3,0.1c0.1,0,0.3,0.1,0.4,0.1c0,0-0.1,0.1-0.1,0.1c-0.1,0-0.1,0-0.1,0.1c-0.2,0.1-0.4,0.3-0.6,0.4
					c0,0-0.1,0-0.1,0c-0.2,0.1-0.3,0.2-0.5,0.4c-0.2,0.1-0.4,0.3-0.6,0.4c0,0-0.1,0-0.1,0.1c0,0,0-0.1,0-0.2c0,0,0-0.1,0-0.1
					c0-0.2,0-0.3,0-0.5c0-0.3-0.1-0.5-0.2-0.7c0-0.2-0.1-0.4-0.2-0.7c-0.1,0.3-0.3,0.5-0.4,0.7c-0.2,0.2-0.3,0.3-0.5,0.5
					c-0.2,0.1-0.4,0.2-0.6,0.3c-0.2,0.1-0.5,0.1-0.7,0.1c-0.3,0-0.6-0.1-0.8-0.3c-0.2-0.1-0.4-0.3-0.5-0.5c-0.1-0.2-0.2-0.4-0.3-0.7
					c-0.1-0.3-0.1-0.5-0.1-0.8c0-0.1,0-0.1,0-0.2c0-0.2,0-0.4,0-0.7c0-0.1,0-0.3,0.1-0.4c0.1-0.2,0.1-0.4,0.1-0.6
					c0-0.1,0-0.3,0.1-0.4c0-0.2,0.1-0.3,0-0.5c0-0.2,0-0.4,0-0.5c0-0.1,0-0.2,0-0.3c0-0.1,0-0.2,0-0.2c0-0.1,0-0.2,0-0.3
					c0,0,0,0,0-0.1l0,0c0-0.3,0-0.5,0-0.8c0-0.2,0-0.2,0.2-0.1c0.1,0,0.2,0.1,0.3,0.1c0,0,0,0,0.1,0c0.2,0.1,0.5,0.2,0.8,0.3
					c0.1,0.1,0.2,0.1,0.4,0.1l0,0c0,0,0,0,0.1,0c0.2,0.1,0.4,0.1,0.5,0.1c0.2,0.1,0.3,0.1,0.5,0.1c0.1,0,0.3,0.1,0.4,0.1
					c0.2,0,0.3,0.1,0.5,0.1c0.2,0,0.3,0.1,0.5,0.1c0.2,0.1,0.4,0.1,0.6,0.2c0.1,0,0.2,0.1,0.2,0.1c0.2,0.1,0.4,0.2,0.7,0.4
					c0.2,0.2,0.3,0.3,0.5,0.5C235.6,78,235.7,78.2,235.7,78.5z"/>
				<path class="st39" d="M235.3,82.2c0,0,0.1-0.1,0.1-0.1C235.5,82.1,235.4,82.2,235.3,82.2C235.4,82.2,235.3,82.2,235.3,82.2z"/>
				<path class="st39" d="M234.7,82.6C234.7,82.6,234.7,82.6,234.7,82.6C234.8,82.6,234.8,82.6,234.7,82.6
					C234.8,82.6,234.7,82.6,234.7,82.6z"/>
				<path class="st40" d="M235.8,79.1C235.8,79.1,235.8,79,235.8,79.1C235.8,79,235.8,79.1,235.8,79.1z"/>
				<polygon class="st40" points="235.9,78.9 235.9,78.9 235.9,78.9 				"/>
				<path class="st39" d="M233.5,83.3c-0.1,0,0-0.1,0-0.1C233.5,83.2,233.5,83.2,233.5,83.3z"/>
				<path class="st40" d="M234.7,81.7c0.1,0,0.1,0,0.1,0.1C234.8,81.7,234.7,81.7,234.7,81.7z"/>
				<path class="st41" d="M229.4,76.5C229.3,76.5,229.3,76.5,229.4,76.5C229.3,76.5,229.3,76.5,229.4,76.5
					C229.4,76.5,229.4,76.5,229.4,76.5z"/>
			</g>
			<g>
				<path class="st38" d="M233.2,93.8c0,0.2,0,0.4,0,0.6c0,0,0,0.1,0,0.1c-0.1,0.3-0.2,0.5-0.3,0.8c-0.2,0.2-0.3,0.4-0.5,0.5
					c-0.2,0.1-0.4,0.2-0.6,0.3c-0.2,0.1-0.5,0.1-0.7,0.2c0.2,0.2,0.4,0.3,0.6,0.4c0.2,0.1,0.3,0.3,0.5,0.3c0,0,0.1,0.1,0.1,0.1
					c0.1,0.1,0.2,0.1,0.3,0.1c0.1,0,0.3,0.1,0.4,0.1c0,0-0.1,0.1-0.1,0.1c-0.1,0-0.1,0-0.1,0.1c-0.2,0.1-0.4,0.3-0.6,0.4
					c0,0-0.1,0-0.1,0c-0.2,0.1-0.3,0.2-0.5,0.4c-0.2,0.1-0.4,0.3-0.6,0.4c0,0-0.1,0-0.1,0.1c0,0,0-0.1,0-0.2c0,0,0-0.1,0-0.1
					c0-0.2,0-0.3,0-0.5c0-0.3-0.1-0.5-0.2-0.7c0-0.2-0.1-0.4-0.2-0.7c-0.1,0.3-0.3,0.5-0.4,0.7c-0.2,0.2-0.3,0.3-0.5,0.5
					c-0.2,0.1-0.4,0.2-0.6,0.3c-0.2,0.1-0.5,0.1-0.7,0.1c-0.3,0-0.6-0.1-0.8-0.3c-0.2-0.1-0.4-0.3-0.5-0.5c-0.1-0.2-0.2-0.4-0.3-0.7
					c-0.1-0.3-0.1-0.5-0.1-0.8c0-0.1,0-0.1,0-0.2c0-0.2,0-0.4,0-0.7c0-0.1,0-0.3,0.1-0.4c0.1-0.2,0.1-0.4,0.1-0.6
					c0-0.1,0-0.3,0.1-0.4c0-0.2,0.1-0.3,0-0.5c0-0.2,0-0.4,0-0.5c0-0.1,0-0.2,0-0.3c0-0.1,0-0.2,0-0.2c0-0.1,0-0.2,0-0.3
					c0,0,0,0,0-0.1l0,0c0-0.3,0-0.5,0-0.8c0-0.2,0-0.2,0.2-0.1c0.1,0,0.2,0.1,0.3,0.1c0,0,0,0,0.1,0c0.2,0.1,0.5,0.2,0.8,0.3
					c0.1,0.1,0.2,0.1,0.4,0.1l0,0c0,0,0,0,0.1,0c0.2,0.1,0.4,0.1,0.5,0.1c0.2,0.1,0.3,0.1,0.5,0.1c0.1,0,0.3,0.1,0.4,0.1
					c0.2,0,0.3,0.1,0.5,0.1c0.2,0,0.3,0.1,0.5,0.1c0.2,0.1,0.4,0.1,0.6,0.2c0.1,0,0.2,0.1,0.2,0.1c0.2,0.1,0.4,0.2,0.7,0.4
					c0.2,0.2,0.3,0.3,0.5,0.5C233.1,93.3,233.2,93.5,233.2,93.8z"/>
				<path class="st39" d="M232.8,97.5c0,0,0.1-0.1,0.1-0.1C232.9,97.5,232.9,97.5,232.8,97.5C232.8,97.5,232.8,97.5,232.8,97.5z"/>
				<path class="st39" d="M232.2,97.9C232.2,97.9,232.2,97.9,232.2,97.9C232.3,97.9,232.3,97.9,232.2,97.9
					C232.3,97.9,232.2,97.9,232.2,97.9z"/>
				<path class="st40" d="M233.2,94.4C233.3,94.4,233.3,94.3,233.2,94.4C233.3,94.3,233.3,94.4,233.2,94.4z"/>
				<polygon class="st40" points="233.4,94.2 233.4,94.2 233.4,94.2 				"/>
				<path class="st39" d="M231,98.6c-0.1,0,0-0.1,0-0.1C231,98.5,231,98.5,231,98.6z"/>
				<path class="st40" d="M232.2,97c0.1,0,0.1,0,0.1,0.1C232.3,97.1,232.2,97,232.2,97z"/>
				<path class="st41" d="M226.8,91.8C226.8,91.8,226.8,91.8,226.8,91.8C226.8,91.8,226.8,91.8,226.8,91.8
					C226.8,91.8,226.8,91.8,226.8,91.8z"/>
			</g>
			<g>
				<path class="st38" d="M242.1,87.4c0,0.2,0,0.4,0,0.6c0,0,0,0.1,0,0.1c-0.1,0.3-0.2,0.5-0.3,0.8c-0.2,0.2-0.3,0.4-0.5,0.5
					c-0.2,0.1-0.4,0.2-0.6,0.3c-0.2,0.1-0.5,0.1-0.7,0.2c0.2,0.2,0.4,0.3,0.6,0.4c0.2,0.1,0.3,0.3,0.5,0.3c0,0,0.1,0.1,0.1,0.1
					c0.1,0.1,0.2,0.1,0.3,0.1c0.1,0,0.3,0.1,0.4,0.1c0,0-0.1,0.1-0.1,0.1c-0.1,0-0.1,0-0.1,0.1c-0.2,0.1-0.4,0.3-0.6,0.4
					c0,0-0.1,0-0.1,0c-0.2,0.1-0.3,0.2-0.5,0.4c-0.2,0.1-0.4,0.3-0.6,0.4c0,0-0.1,0-0.1,0.1c0,0,0-0.1,0-0.2c0,0,0-0.1,0-0.1
					c0-0.2,0-0.3,0-0.5c0-0.3-0.1-0.5-0.2-0.7c0-0.2-0.1-0.4-0.2-0.7c-0.1,0.3-0.3,0.5-0.4,0.7c-0.2,0.2-0.3,0.3-0.5,0.5
					c-0.2,0.1-0.4,0.2-0.6,0.3c-0.2,0.1-0.5,0.1-0.7,0.1c-0.3,0-0.6-0.1-0.8-0.3c-0.2-0.1-0.4-0.3-0.5-0.5c-0.1-0.2-0.2-0.4-0.3-0.7
					c-0.1-0.3-0.1-0.5-0.1-0.8c0-0.1,0-0.1,0-0.2c0-0.2,0-0.4,0-0.7c0-0.1,0-0.3,0.1-0.4c0.1-0.2,0.1-0.4,0.1-0.6
					c0-0.1,0-0.3,0.1-0.4c0-0.2,0.1-0.3,0-0.5c0-0.2,0-0.4,0-0.5c0-0.1,0-0.2,0-0.3c0-0.1,0-0.2,0-0.2c0-0.1,0-0.2,0-0.3
					c0,0,0,0,0-0.1l0,0c0-0.3,0-0.5,0-0.8c0-0.2,0-0.2,0.2-0.1c0.1,0,0.2,0.1,0.3,0.1c0,0,0,0,0.1,0c0.2,0.1,0.5,0.2,0.8,0.3
					c0.1,0.1,0.2,0.1,0.4,0.1l0,0c0,0,0,0,0.1,0c0.2,0.1,0.4,0.1,0.5,0.1c0.2,0.1,0.3,0.1,0.5,0.1c0.1,0,0.3,0.1,0.4,0.1
					c0.2,0,0.3,0.1,0.5,0.1c0.2,0,0.3,0.1,0.5,0.1c0.2,0.1,0.4,0.1,0.6,0.2c0.1,0,0.2,0.1,0.2,0.1c0.2,0.1,0.4,0.2,0.7,0.4
					c0.2,0.2,0.3,0.3,0.5,0.5C242,87,242.1,87.2,242.1,87.4z"/>
				<path class="st39" d="M241.7,91.1c0,0,0.1-0.1,0.1-0.1C241.8,91.1,241.8,91.1,241.7,91.1C241.7,91.1,241.7,91.1,241.7,91.1z"/>
				<path class="st39" d="M241.1,91.6C241.1,91.5,241.1,91.5,241.1,91.6C241.2,91.5,241.2,91.5,241.1,91.6
					C241.2,91.6,241.1,91.6,241.1,91.6z"/>
				<path class="st40" d="M242.2,88.1C242.2,88,242.2,88,242.2,88.1C242.2,88,242.2,88,242.2,88.1z"/>
				<polygon class="st40" points="242.3,87.9 242.3,87.9 242.3,87.9 				"/>
				<path class="st39" d="M239.9,92.2c-0.1,0,0-0.1,0-0.1C239.9,92.1,239.9,92.2,239.9,92.2z"/>
				<path class="st40" d="M241.1,90.6c0.1,0,0.1,0,0.1,0.1C241.2,90.7,241.1,90.7,241.1,90.6z"/>
				<path class="st41" d="M235.7,85.5C235.7,85.5,235.7,85.5,235.7,85.5C235.7,85.4,235.7,85.4,235.7,85.5
					C235.7,85.4,235.7,85.5,235.7,85.5z"/>
			</g>
			<g>
				<path class="st38" d="M241.4,98.7c0-0.2,0-0.4,0-0.6c0,0,0-0.1,0-0.1c0.1-0.3,0.2-0.5,0.3-0.8c0.2-0.2,0.3-0.4,0.5-0.5
					c0.2-0.1,0.4-0.2,0.6-0.3c0.2-0.1,0.5-0.1,0.7-0.2c-0.2-0.2-0.4-0.3-0.6-0.4c-0.2-0.1-0.3-0.3-0.5-0.3c0,0-0.1-0.1-0.1-0.1
					c-0.1-0.1-0.2-0.1-0.3-0.1c-0.1,0-0.3-0.1-0.4-0.1c0,0,0.1-0.1,0.1-0.1c0.1,0,0.1,0,0.1-0.1c0.2-0.1,0.4-0.3,0.6-0.4
					c0,0,0.1,0,0.1,0c0.2-0.1,0.3-0.2,0.5-0.4c0.2-0.1,0.4-0.3,0.6-0.4c0,0,0.1,0,0.1-0.1c0,0,0,0.1,0,0.2c0,0,0,0.1,0,0.1
					c0,0.2,0,0.3,0,0.5c0,0.3,0.1,0.5,0.2,0.7c0,0.2,0.1,0.4,0.2,0.7c0.1-0.3,0.3-0.5,0.4-0.7c0.2-0.2,0.3-0.3,0.5-0.5
					c0.2-0.1,0.4-0.2,0.6-0.3c0.2-0.1,0.5-0.1,0.7-0.1c0.3,0,0.6,0.1,0.8,0.3c0.2,0.1,0.4,0.3,0.5,0.5c0.1,0.2,0.2,0.4,0.3,0.7
					c0.1,0.3,0.1,0.5,0.1,0.8c0,0.1,0,0.1,0,0.2c0,0.2,0,0.4,0,0.7c0,0.1,0,0.3-0.1,0.4c-0.1,0.2-0.1,0.4-0.1,0.6
					c0,0.1,0,0.3-0.1,0.4c0,0.2-0.1,0.3,0,0.5c0,0.2,0,0.4,0,0.5c0,0.1,0,0.2,0,0.3c0,0.1,0,0.2,0,0.2c0,0.1,0,0.2,0,0.3
					c0,0,0,0,0,0.1l0,0c0,0.3,0,0.5,0,0.8c0,0.2,0,0.2-0.2,0.1c-0.1,0-0.2-0.1-0.3-0.1c0,0,0,0-0.1,0c-0.2-0.1-0.5-0.2-0.8-0.3
					c-0.1-0.1-0.2-0.1-0.4-0.1l0,0c0,0,0,0-0.1,0c-0.2-0.1-0.4-0.1-0.5-0.1c-0.2-0.1-0.3-0.1-0.5-0.1c-0.1,0-0.3-0.1-0.4-0.1
					c-0.2,0-0.3-0.1-0.5-0.1c-0.2,0-0.3-0.1-0.5-0.1c-0.2-0.1-0.4-0.1-0.6-0.2c-0.1,0-0.2-0.1-0.2-0.1c-0.2-0.1-0.4-0.2-0.7-0.4
					c-0.2-0.2-0.3-0.3-0.5-0.5C241.6,99.1,241.5,98.9,241.4,98.7z"/>
				<path class="st39" d="M241.8,95c0,0-0.1,0.1-0.1,0.1C241.7,95,241.7,95,241.8,95C241.8,94.9,241.8,94.9,241.8,95z"/>
				<path class="st39" d="M242.4,94.5C242.4,94.5,242.4,94.5,242.4,94.5C242.4,94.5,242.4,94.5,242.4,94.5
					C242.4,94.5,242.4,94.5,242.4,94.5z"/>
				<path class="st40" d="M241.4,98C241.4,98,241.4,98.1,241.4,98C241.4,98.1,241.3,98,241.4,98z"/>
				<polygon class="st40" points="241.3,98.2 241.3,98.2 241.3,98.2 				"/>
				<path class="st39" d="M243.7,93.8c0.1,0,0,0.1,0,0.1C243.7,93.9,243.7,93.9,243.7,93.8z"/>
				<path class="st40" d="M242.5,95.4c-0.1,0-0.1,0-0.1-0.1C242.4,95.4,242.4,95.4,242.5,95.4z"/>
				<path class="st41" d="M247.8,100.6C247.8,100.6,247.8,100.6,247.8,100.6C247.8,100.6,247.8,100.6,247.8,100.6
					C247.8,100.6,247.8,100.6,247.8,100.6z"/>
			</g>
			<g>
				<path class="st38" d="M232.5,105c0-0.2,0-0.4,0-0.6c0,0,0-0.1,0-0.1c0.1-0.3,0.2-0.5,0.3-0.8c0.2-0.2,0.3-0.4,0.5-0.5
					c0.2-0.1,0.4-0.2,0.6-0.3c0.2-0.1,0.5-0.1,0.7-0.2c-0.2-0.2-0.4-0.3-0.6-0.4c-0.2-0.1-0.3-0.3-0.5-0.3c0,0-0.1-0.1-0.1-0.1
					c-0.1-0.1-0.2-0.1-0.3-0.1c-0.1,0-0.3-0.1-0.4-0.1c0,0,0.1-0.1,0.1-0.1c0.1,0,0.1,0,0.1-0.1c0.2-0.1,0.4-0.3,0.6-0.4
					c0,0,0.1,0,0.1,0c0.2-0.1,0.3-0.2,0.5-0.4c0.2-0.1,0.4-0.3,0.6-0.4c0,0,0.1,0,0.1-0.1c0,0,0,0.1,0,0.2c0,0,0,0.1,0,0.1
					c0,0.2,0,0.3,0,0.5c0,0.3,0.1,0.5,0.2,0.7c0,0.2,0.1,0.4,0.2,0.7c0.1-0.3,0.3-0.5,0.4-0.7c0.2-0.2,0.3-0.3,0.5-0.5
					c0.2-0.1,0.4-0.2,0.6-0.3c0.2-0.1,0.5-0.1,0.7-0.1c0.3,0,0.6,0.1,0.8,0.3c0.2,0.1,0.4,0.3,0.5,0.5c0.1,0.2,0.2,0.4,0.3,0.7
					c0.1,0.3,0.1,0.5,0.1,0.8c0,0.1,0,0.1,0,0.2c0,0.2,0,0.4,0,0.7c0,0.1,0,0.3-0.1,0.4c-0.1,0.2-0.1,0.4-0.1,0.6
					c0,0.1,0,0.3-0.1,0.4c0,0.2-0.1,0.3,0,0.5c0,0.2,0,0.4,0,0.5c0,0.1,0,0.2,0,0.3c0,0.1,0,0.2,0,0.2c0,0.1,0,0.2,0,0.3
					c0,0,0,0,0,0.1l0,0c0,0.3,0,0.5,0,0.8c0,0.2,0,0.2-0.2,0.1c-0.1,0-0.2-0.1-0.3-0.1c0,0,0,0-0.1,0c-0.2-0.1-0.5-0.2-0.8-0.3
					c-0.1-0.1-0.2-0.1-0.4-0.1l0,0c0,0,0,0-0.1,0c-0.2-0.1-0.4-0.1-0.5-0.1c-0.2-0.1-0.3-0.1-0.5-0.1c-0.1,0-0.3-0.1-0.4-0.1
					c-0.2,0-0.3-0.1-0.5-0.1c-0.2,0-0.3-0.1-0.5-0.1c-0.2-0.1-0.4-0.1-0.6-0.2c-0.1,0-0.2-0.1-0.2-0.1c-0.2-0.1-0.4-0.2-0.7-0.4
					c-0.2-0.2-0.3-0.3-0.5-0.5C232.7,105.5,232.6,105.3,232.5,105z"/>
				<path class="st39" d="M232.9,101.3c0,0-0.1,0.1-0.1,0.1C232.8,101.3,232.8,101.3,232.9,101.3
					C232.9,101.3,232.9,101.3,232.9,101.3z"/>
				<path class="st39" d="M233.5,100.9C233.5,100.9,233.5,100.9,233.5,100.9C233.5,100.9,233.5,100.9,233.5,100.9
					C233.5,100.9,233.5,100.9,233.5,100.9z"/>
				<path class="st40" d="M232.5,104.4C232.5,104.4,232.5,104.4,232.5,104.4C232.5,104.4,232.4,104.4,232.5,104.4z"/>
				<polygon class="st40" points="232.4,104.6 232.4,104.6 232.4,104.5 				"/>
				<path class="st39" d="M234.8,100.2c0.1,0,0,0.1,0,0.1C234.8,100.3,234.8,100.2,234.8,100.2z"/>
				<path class="st40" d="M233.6,101.8c-0.1,0-0.1,0-0.1-0.1C233.5,101.7,233.5,101.7,233.6,101.8z"/>
				<path class="st41" d="M238.9,106.9C238.9,107,238.9,107,238.9,106.9C238.9,107,238.9,107,238.9,106.9
					C238.9,107,238.9,107,238.9,106.9z"/>
			</g>
		</g>
	</g>
</g>
<g>
	
		<image style="overflow:visible;opacity:0.23;" width="74" height="73" xlink:href="7CB5BF8B7AD3453D.png"  transform="matrix(1 0 0 1 196.6729 95.5989)">
	</image>
	<g>
		<g>
			<path class="st10" d="M225.4,157.4L206,136.7c-0.8-0.8-0.7-2.2,0.1-2.9l30.7-28.9c0.8-0.8,2.2-0.7,2.9,0.1l19.5,20.7
				c0.8,0.8,0.7,2.2-0.1,2.9l-30.7,28.9C227.6,158.2,226.2,158.2,225.4,157.4z"/>
			<text transform="matrix(0.6861 0.7275 -0.7275 0.6861 235.9514 107.8789)" class="st36 st37">5</text>
			<text transform="matrix(-0.6861 -0.7275 0.7275 -0.6861 228.5861 154.7065)" class="st36 st37">5</text>
			<g>
				<path class="st7" d="M234.7,113.6c-0.1,0-0.2,0-0.3,0.1c0,0,0,0,0,0c-0.1,0-0.3,0-0.4-0.1c-0.1-0.1-0.2-0.1-0.3-0.2
					c-0.1-0.1-0.1-0.2-0.2-0.3c0-0.1-0.1-0.2-0.1-0.3c-0.1,0.1-0.1,0.2-0.2,0.3c-0.1,0.1-0.1,0.2-0.1,0.3c0,0,0,0,0,0.1
					c0,0,0,0.1,0,0.2c0,0.1,0,0.1,0,0.2c0,0,0,0-0.1,0c0,0,0,0,0-0.1c-0.1-0.1-0.1-0.2-0.2-0.2c0,0,0,0,0,0
					c-0.1-0.1-0.1-0.2-0.2-0.2c-0.1-0.1-0.2-0.2-0.2-0.2c0,0,0,0,0,0c0,0,0.1,0,0.1,0c0,0,0,0,0.1,0c0.1,0,0.1,0,0.2,0
					c0.1,0,0.2-0.1,0.3-0.1c0.1,0,0.2-0.1,0.3-0.2c-0.1,0-0.3-0.1-0.4-0.2c-0.1-0.1-0.2-0.1-0.3-0.2c-0.1-0.1-0.1-0.2-0.2-0.3
					c0-0.1-0.1-0.2-0.1-0.3c0-0.1,0-0.3,0.1-0.4c0.1-0.1,0.1-0.2,0.2-0.3c0.1-0.1,0.2-0.1,0.3-0.2c0.1,0,0.2-0.1,0.4-0.1
					c0,0,0.1,0,0.1,0c0.1,0,0.2,0,0.3,0c0.1,0,0.1,0,0.2,0c0.1,0,0.2,0,0.3,0c0.1,0,0.1,0,0.2,0c0.1,0,0.2,0,0.2,0
					c0.1,0,0.2,0,0.3,0c0.1,0,0.1,0,0.2,0c0,0,0.1,0,0.1,0c0,0,0.1,0,0.1,0c0,0,0,0,0,0l0,0c0.1,0,0.2,0,0.4-0.1
					c0.1,0,0.1,0,0.1,0.1c0,0,0,0.1,0,0.1c0,0,0,0,0,0c0,0.1-0.1,0.3-0.1,0.4c0,0.1,0,0.1,0,0.2l0,0c0,0,0,0,0,0c0,0.1,0,0.2,0,0.3
					c0,0.1,0,0.2,0,0.2c0,0.1,0,0.1,0,0.2c0,0.1,0,0.2,0,0.2c0,0.1,0,0.2,0,0.3c0,0.1,0,0.2,0,0.3c0,0,0,0.1,0,0.1
					c0,0.1-0.1,0.2-0.1,0.3c-0.1,0.1-0.1,0.2-0.2,0.3C234.9,113.5,234.8,113.6,234.7,113.6z"/>
				<path class="st7" d="M232.9,113.7C232.9,113.7,232.9,113.7,232.9,113.7C232.9,113.7,232.9,113.7,232.9,113.7
					C232.9,113.7,232.9,113.7,232.9,113.7z"/>
				<path class="st7" d="M232.6,113.4C232.7,113.4,232.7,113.4,232.6,113.4C232.7,113.4,232.7,113.4,232.6,113.4
					C232.7,113.4,232.6,113.4,232.6,113.4z"/>
				<path class="st7" d="M234.4,113.7C234.4,113.7,234.4,113.7,234.4,113.7C234.4,113.7,234.4,113.7,234.4,113.7z"/>
				<polygon class="st7" points="234.5,113.7 234.5,113.7 234.5,113.7 				"/>
				<path class="st7" d="M232.2,112.9C232.3,112.8,232.3,112.8,232.2,112.9C232.3,112.9,232.3,112.9,232.2,112.9z"/>
				<path class="st7" d="M233.1,113.3C233.1,113.4,233.1,113.4,233.1,113.3C233.1,113.4,233.1,113.3,233.1,113.3z"/>
				<path class="st7" d="M235.2,110.4C235.2,110.4,235.2,110.4,235.2,110.4C235.2,110.4,235.2,110.4,235.2,110.4
					C235.2,110.4,235.2,110.4,235.2,110.4z"/>
			</g>
			<g>
				<path class="st7" d="M229.8,149.2c0.1,0,0.2,0,0.3-0.1c0,0,0,0,0,0c0.1,0,0.3,0,0.4,0.1c0.1,0.1,0.2,0.1,0.3,0.2
					c0.1,0.1,0.1,0.2,0.2,0.3c0,0.1,0.1,0.2,0.1,0.3c0.1-0.1,0.1-0.2,0.2-0.3c0.1-0.1,0.1-0.2,0.1-0.3c0,0,0,0,0-0.1
					c0,0,0-0.1,0-0.2c0-0.1,0-0.1,0-0.2c0,0,0,0,0.1,0c0,0,0,0,0,0.1c0.1,0.1,0.1,0.2,0.2,0.2c0,0,0,0,0,0c0.1,0.1,0.1,0.2,0.2,0.2
					c0.1,0.1,0.2,0.2,0.2,0.2c0,0,0,0,0,0c0,0-0.1,0-0.1,0c0,0,0,0-0.1,0c-0.1,0-0.1,0-0.2,0c-0.1,0-0.2,0.1-0.3,0.1
					c-0.1,0-0.2,0.1-0.3,0.2c0.1,0,0.3,0.1,0.4,0.2c0.1,0.1,0.2,0.1,0.3,0.2c0.1,0.1,0.1,0.2,0.2,0.3c0,0.1,0.1,0.2,0.1,0.3
					c0,0.1,0,0.3-0.1,0.4c-0.1,0.1-0.1,0.2-0.2,0.3c-0.1,0.1-0.2,0.1-0.3,0.2c-0.1,0-0.2,0.1-0.4,0.1c0,0-0.1,0-0.1,0
					c-0.1,0-0.2,0-0.3,0c-0.1,0-0.1,0-0.2,0c-0.1,0-0.2,0-0.3,0c-0.1,0-0.1,0-0.2,0c-0.1,0-0.2,0-0.2,0c-0.1,0-0.2,0-0.3,0
					c-0.1,0-0.1,0-0.2,0c0,0-0.1,0-0.1,0c0,0-0.1,0-0.1,0c0,0,0,0,0,0l0,0c-0.1,0-0.2,0-0.4,0.1c-0.1,0-0.1,0-0.1-0.1
					c0,0,0-0.1,0-0.1c0,0,0,0,0,0c0-0.1,0.1-0.3,0.1-0.4c0-0.1,0-0.1,0-0.2l0,0c0,0,0,0,0,0c0-0.1,0-0.2,0-0.3c0-0.1,0-0.2,0-0.2
					c0-0.1,0-0.1,0-0.2c0-0.1,0-0.2,0-0.2c0-0.1,0-0.2,0-0.3c0-0.1,0-0.2,0-0.3c0,0,0-0.1,0-0.1c0-0.1,0.1-0.2,0.1-0.3
					c0.1-0.1,0.1-0.2,0.2-0.3C229.6,149.3,229.7,149.3,229.8,149.2z"/>
				<path class="st7" d="M231.6,149.2C231.6,149.2,231.5,149.2,231.6,149.2C231.6,149.1,231.6,149.1,231.6,149.2
					C231.6,149.2,231.6,149.2,231.6,149.2z"/>
				<path class="st7" d="M231.8,149.5C231.8,149.5,231.8,149.4,231.8,149.5C231.8,149.4,231.8,149.4,231.8,149.5
					C231.8,149.4,231.8,149.4,231.8,149.5z"/>
				<path class="st7" d="M230.1,149.2C230.1,149.2,230,149.2,230.1,149.2C230,149.2,230.1,149.1,230.1,149.2z"/>
				<polygon class="st7" points="230,149.1 230,149.1 230,149.1 				"/>
				<path class="st7" d="M232.2,150C232.2,150.1,232.2,150,232.2,150C232.2,150,232.2,150,232.2,150z"/>
				<path class="st7" d="M231.4,149.5C231.4,149.5,231.4,149.5,231.4,149.5C231.4,149.5,231.4,149.5,231.4,149.5z"/>
				<path class="st7" d="M229.3,152.4C229.3,152.4,229.3,152.4,229.3,152.4C229.2,152.4,229.2,152.4,229.3,152.4
					C229.2,152.4,229.3,152.4,229.3,152.4z"/>
			</g>
			<g>
				<path class="st7" d="M238.3,122.7c-0.2,0.1-0.4,0.1-0.5,0.1c0,0-0.1,0-0.1,0c-0.3,0-0.6-0.1-0.8-0.2c-0.2-0.1-0.4-0.3-0.6-0.4
					c-0.2-0.2-0.3-0.4-0.4-0.6c-0.1-0.2-0.2-0.4-0.3-0.7c-0.1,0.2-0.3,0.4-0.4,0.6c-0.1,0.2-0.2,0.4-0.3,0.6c0,0,0,0.1,0,0.1
					c0,0.1-0.1,0.2-0.1,0.3c0,0.2,0,0.3-0.1,0.5c0,0-0.1-0.1-0.1-0.1c0-0.1,0-0.1-0.1-0.1c-0.1-0.2-0.3-0.4-0.5-0.5c0,0,0,0-0.1-0.1
					c-0.1-0.2-0.3-0.3-0.4-0.5c-0.2-0.2-0.3-0.3-0.5-0.5c0,0-0.1-0.1-0.1-0.1c0,0,0.1,0,0.2-0.1c0,0,0.1,0,0.1,0
					c0.2,0,0.3,0,0.4-0.1c0.2-0.1,0.5-0.1,0.7-0.3c0.2-0.1,0.4-0.2,0.6-0.3c-0.3-0.1-0.5-0.2-0.8-0.3c-0.2-0.1-0.4-0.3-0.5-0.5
					c-0.2-0.2-0.3-0.4-0.4-0.6c-0.1-0.2-0.2-0.5-0.2-0.7c0-0.3,0-0.6,0.2-0.9c0.1-0.2,0.3-0.4,0.4-0.6c0.2-0.1,0.4-0.3,0.6-0.4
					c0.2-0.1,0.5-0.2,0.8-0.2c0.1,0,0.1,0,0.2,0c0.2,0,0.4,0,0.7-0.1c0.1,0,0.3,0,0.4,0c0.2,0,0.4,0,0.6,0c0.1,0,0.3,0,0.4,0
					c0.2,0,0.3,0,0.5,0c0.2,0,0.4,0,0.5,0c0.1,0,0.2,0,0.3,0c0.1,0,0.2,0,0.2,0c0.1,0,0.2,0,0.3,0c0,0,0,0,0.1,0l0,0
					c0.3,0,0.5-0.1,0.8-0.1c0.2,0,0.2,0,0.1,0.2c0,0.1,0,0.2-0.1,0.3c0,0,0,0.1,0,0.1c-0.1,0.3-0.1,0.5-0.2,0.8
					c0,0.1-0.1,0.2-0.1,0.4l0,0c0,0,0,0,0,0.1c0,0.2-0.1,0.4-0.1,0.6c0,0.2,0,0.3,0,0.5c0,0.1,0,0.3,0,0.4c0,0.2,0,0.3,0,0.5
					c0,0.2,0,0.4,0,0.5c0,0.2-0.1,0.4-0.1,0.6c0,0.1,0,0.2-0.1,0.2c-0.1,0.2-0.2,0.5-0.3,0.7c-0.1,0.2-0.3,0.4-0.5,0.5
					C238.7,122.5,238.5,122.6,238.3,122.7z"/>
				<path class="st7" d="M234.5,122.8c0,0,0.1,0.1,0.1,0.1C234.6,123,234.5,122.9,234.5,122.8C234.5,122.9,234.5,122.8,234.5,122.8z
					"/>
				<path class="st7" d="M234,122.3C234,122.3,234,122.3,234,122.3C234,122.3,234,122.3,234,122.3C234,122.3,234,122.3,234,122.3z"
					/>
				<path class="st7" d="M237.6,122.8C237.6,122.8,237.7,122.8,237.6,122.8C237.7,122.9,237.6,122.9,237.6,122.8z"/>
				<polygon class="st7" points="237.8,122.9 237.8,123 237.8,122.9 				"/>
				<path class="st7" d="M233.2,121.2c0-0.1,0.1-0.1,0.1,0C233.3,121.1,233.2,121.2,233.2,121.2z"/>
				<path class="st7" d="M234.9,122.1c0,0.1,0,0.1,0,0.1C234.9,122.2,234.9,122.2,234.9,122.1z"/>
				<path class="st7" d="M239.3,116.1C239.3,116.1,239.3,116.1,239.3,116.1C239.3,116.1,239.3,116.1,239.3,116.1
					C239.3,116.1,239.3,116.1,239.3,116.1z"/>
			</g>
			<g>
				<path class="st7" d="M245.8,130.7c-0.2,0.1-0.4,0.1-0.5,0.1c0,0-0.1,0-0.1,0c-0.3,0-0.6-0.1-0.8-0.2c-0.2-0.1-0.4-0.3-0.6-0.4
					c-0.2-0.2-0.3-0.4-0.4-0.6c-0.1-0.2-0.2-0.4-0.3-0.7c-0.1,0.2-0.3,0.4-0.4,0.6c-0.1,0.2-0.2,0.4-0.3,0.6c0,0,0,0.1,0,0.1
					c0,0.1-0.1,0.2-0.1,0.3c0,0.2,0,0.3-0.1,0.5c0,0-0.1-0.1-0.1-0.1c0-0.1,0-0.1-0.1-0.1c-0.1-0.2-0.3-0.4-0.5-0.5c0,0,0,0-0.1-0.1
					c-0.1-0.2-0.3-0.3-0.4-0.5c-0.2-0.2-0.3-0.3-0.5-0.5c0,0-0.1-0.1-0.1-0.1c0,0,0.1,0,0.2-0.1c0,0,0.1,0,0.1,0
					c0.2,0,0.3,0,0.4-0.1c0.2-0.1,0.5-0.1,0.7-0.3c0.2-0.1,0.4-0.2,0.6-0.3c-0.3-0.1-0.5-0.2-0.8-0.3c-0.2-0.1-0.4-0.3-0.5-0.5
					c-0.2-0.2-0.3-0.4-0.4-0.6c-0.1-0.2-0.2-0.5-0.2-0.7c0-0.3,0-0.6,0.2-0.9c0.1-0.2,0.3-0.4,0.4-0.6c0.2-0.1,0.4-0.3,0.6-0.4
					c0.2-0.1,0.5-0.2,0.8-0.2c0.1,0,0.1,0,0.2,0c0.2,0,0.4,0,0.7-0.1c0.1,0,0.3,0,0.4,0c0.2,0,0.4,0,0.6,0c0.1,0,0.3,0,0.4,0
					c0.2,0,0.3,0,0.5,0c0.2,0,0.4,0,0.5,0c0.1,0,0.2,0,0.3,0c0.1,0,0.2,0,0.2,0c0.1,0,0.2,0,0.3,0c0,0,0,0,0.1,0l0,0
					c0.3,0,0.5-0.1,0.8-0.1c0.2,0,0.2,0,0.1,0.2c0,0.1,0,0.2-0.1,0.3c0,0,0,0.1,0,0.1c-0.1,0.3-0.1,0.5-0.2,0.8
					c0,0.1-0.1,0.2-0.1,0.4l0,0c0,0,0,0,0,0.1c0,0.2-0.1,0.4-0.1,0.6c0,0.2,0,0.3,0,0.5c0,0.1,0,0.3,0,0.4c0,0.2,0,0.3,0,0.5
					c0,0.2,0,0.4,0,0.5c0,0.2-0.1,0.4-0.1,0.6c0,0.1,0,0.2-0.1,0.2c-0.1,0.2-0.2,0.5-0.3,0.7c-0.1,0.2-0.3,0.4-0.5,0.5
					C246.2,130.5,246,130.6,245.8,130.7z"/>
				<path class="st7" d="M242,130.8c0,0,0.1,0.1,0.1,0.1C242.1,130.9,242,130.9,242,130.8C242,130.8,242,130.8,242,130.8z"/>
				<path class="st7" d="M241.5,130.2C241.5,130.2,241.5,130.3,241.5,130.2C241.5,130.3,241.5,130.3,241.5,130.2
					C241.5,130.3,241.5,130.3,241.5,130.2z"/>
				<path class="st7" d="M245.1,130.8C245.1,130.8,245.2,130.8,245.1,130.8C245.2,130.8,245.1,130.9,245.1,130.8z"/>
				<polygon class="st7" points="245.3,130.9 245.3,130.9 245.3,130.9 				"/>
				<path class="st7" d="M240.7,129.1c0-0.1,0.1-0.1,0.1,0C240.8,129.1,240.7,129.1,240.7,129.1z"/>
				<path class="st7" d="M242.4,130.1c0,0.1,0,0.1,0,0.1C242.4,130.2,242.4,130.1,242.4,130.1z"/>
				<path class="st7" d="M246.8,124.1C246.8,124.1,246.8,124.1,246.8,124.1C246.8,124.1,246.8,124.1,246.8,124.1
					C246.8,124.1,246.8,124.1,246.8,124.1z"/>
			</g>
			<g>
				<path class="st7" d="M234.1,134.5c-0.2,0.1-0.4,0.1-0.5,0.1c0,0-0.1,0-0.1,0c-0.3,0-0.6-0.1-0.8-0.2c-0.2-0.1-0.4-0.3-0.6-0.4
					c-0.2-0.2-0.3-0.4-0.4-0.6c-0.1-0.2-0.2-0.4-0.3-0.7c-0.1,0.2-0.3,0.4-0.4,0.6c-0.1,0.2-0.2,0.4-0.3,0.6c0,0,0,0.1,0,0.1
					c0,0.1-0.1,0.2-0.1,0.3c0,0.2,0,0.3-0.1,0.5c0,0-0.1-0.1-0.1-0.1c0-0.1,0-0.1-0.1-0.1c-0.1-0.2-0.3-0.4-0.5-0.5c0,0,0,0-0.1-0.1
					c-0.1-0.2-0.3-0.3-0.4-0.5c-0.2-0.2-0.3-0.3-0.5-0.5c0,0-0.1-0.1-0.1-0.1c0,0,0.1,0,0.2-0.1c0,0,0.1,0,0.1,0
					c0.2,0,0.3,0,0.4-0.1c0.2-0.1,0.5-0.1,0.7-0.3c0.2-0.1,0.4-0.2,0.6-0.3c-0.3-0.1-0.5-0.2-0.8-0.3c-0.2-0.1-0.4-0.3-0.5-0.5
					c-0.2-0.2-0.3-0.4-0.4-0.6c-0.1-0.2-0.2-0.5-0.2-0.7c0-0.3,0-0.6,0.2-0.9c0.1-0.2,0.3-0.4,0.4-0.6c0.2-0.1,0.4-0.3,0.6-0.4
					c0.2-0.1,0.5-0.2,0.8-0.2c0.1,0,0.1,0,0.2,0c0.2,0,0.4,0,0.7-0.1c0.1,0,0.3,0,0.4,0c0.2,0,0.4,0,0.6,0c0.1,0,0.3,0,0.4,0
					c0.2,0,0.3,0,0.5,0c0.2,0,0.4,0,0.5,0c0.1,0,0.2,0,0.3,0c0.1,0,0.2,0,0.2,0c0.1,0,0.2,0,0.3,0c0,0,0,0,0.1,0l0,0
					c0.3,0,0.5-0.1,0.8-0.1c0.2,0,0.2,0,0.1,0.2c0,0.1,0,0.2-0.1,0.3c0,0,0,0.1,0,0.1c-0.1,0.3-0.1,0.5-0.2,0.8
					c0,0.1-0.1,0.2-0.1,0.4l0,0c0,0,0,0,0,0.1c0,0.2-0.1,0.4-0.1,0.6c0,0.2,0,0.3,0,0.5c0,0.1,0,0.3,0,0.4c0,0.2,0,0.3,0,0.5
					c0,0.2,0,0.4,0,0.5c0,0.2-0.1,0.4-0.1,0.6c0,0.1,0,0.2-0.1,0.2c-0.1,0.2-0.2,0.5-0.3,0.7c-0.1,0.2-0.3,0.4-0.5,0.5
					C234.6,134.3,234.4,134.4,234.1,134.5z"/>
				<path class="st7" d="M230.4,134.6c0,0,0.1,0.1,0.1,0.1C230.4,134.7,230.4,134.7,230.4,134.6
					C230.4,134.6,230.4,134.6,230.4,134.6z"/>
				<path class="st7" d="M229.9,134C229.9,134,229.9,134,229.9,134C229.9,134.1,229.9,134.1,229.9,134
					C229.9,134.1,229.9,134,229.9,134z"/>
				<path class="st7" d="M233.5,134.6C233.5,134.6,233.6,134.6,233.5,134.6C233.6,134.6,233.5,134.6,233.5,134.6z"/>
				<polygon class="st7" points="233.7,134.7 233.7,134.7 233.7,134.7 				"/>
				<path class="st7" d="M229,132.9c0-0.1,0.1-0.1,0.1,0C229.1,132.9,229.1,132.9,229,132.9z"/>
				<path class="st7" d="M230.8,133.9c0,0.1,0,0.1,0,0.1C230.7,134,230.8,133.9,230.8,133.9z"/>
				<path class="st7" d="M235.2,127.9C235.2,127.9,235.2,127.9,235.2,127.9C235.2,127.9,235.2,127.9,235.2,127.9
					C235.2,127.9,235.2,127.9,235.2,127.9z"/>
			</g>
			<g>
				<path class="st7" d="M226.5,139.1c0.2-0.1,0.4-0.1,0.5-0.1c0,0,0.1,0,0.1,0c0.3,0,0.6,0.1,0.8,0.2c0.2,0.1,0.4,0.3,0.6,0.4
					c0.2,0.2,0.3,0.4,0.4,0.6c0.1,0.2,0.2,0.4,0.3,0.7c0.1-0.2,0.3-0.4,0.4-0.6c0.1-0.2,0.2-0.4,0.3-0.6c0,0,0-0.1,0-0.1
					c0-0.1,0.1-0.2,0.1-0.3c0-0.2,0-0.3,0.1-0.5c0,0,0.1,0.1,0.1,0.1c0,0.1,0,0.1,0.1,0.1c0.1,0.2,0.3,0.4,0.5,0.5c0,0,0,0,0.1,0.1
					c0.1,0.2,0.3,0.3,0.4,0.5c0.2,0.2,0.3,0.3,0.5,0.5c0,0,0.1,0.1,0.1,0.1c0,0-0.1,0-0.2,0.1c0,0-0.1,0-0.1,0c-0.2,0-0.3,0-0.4,0.1
					c-0.2,0.1-0.5,0.1-0.7,0.3c-0.2,0.1-0.4,0.2-0.6,0.3c0.3,0.1,0.5,0.2,0.8,0.3c0.2,0.1,0.4,0.3,0.5,0.5c0.2,0.2,0.3,0.4,0.4,0.6
					c0.1,0.2,0.2,0.5,0.2,0.7c0,0.3,0,0.6-0.2,0.9c-0.1,0.2-0.3,0.4-0.4,0.6c-0.2,0.1-0.4,0.3-0.6,0.4c-0.2,0.1-0.5,0.2-0.8,0.2
					c-0.1,0-0.1,0-0.2,0c-0.2,0-0.4,0-0.7,0.1c-0.1,0-0.3,0-0.4,0c-0.2,0-0.4,0-0.6,0c-0.1,0-0.3,0-0.4,0c-0.2,0-0.3,0-0.5,0
					c-0.2,0-0.4,0-0.5,0c-0.1,0-0.2,0-0.3,0c-0.1,0-0.2,0-0.2,0c-0.1,0-0.2,0-0.3,0c0,0,0,0-0.1,0l0,0c-0.3,0-0.5,0.1-0.8,0.1
					c-0.2,0-0.2,0-0.1-0.2c0-0.1,0-0.2,0.1-0.3c0,0,0-0.1,0-0.1c0.1-0.3,0.1-0.5,0.2-0.8c0-0.1,0.1-0.2,0.1-0.4l0,0c0,0,0,0,0-0.1
					c0-0.2,0.1-0.4,0.1-0.6c0-0.2,0-0.3,0-0.5c0-0.1,0-0.3,0-0.4c0-0.2,0-0.3,0-0.5c0-0.2,0-0.4,0-0.5c0-0.2,0.1-0.4,0.1-0.6
					c0-0.1,0-0.2,0.1-0.2c0.1-0.2,0.2-0.5,0.3-0.7c0.1-0.2,0.3-0.4,0.5-0.5C226.1,139.3,226.3,139.1,226.5,139.1z"/>
				<path class="st7" d="M230.2,139c0,0-0.1-0.1-0.1-0.1C230.2,138.8,230.2,138.9,230.2,139C230.3,138.9,230.2,138.9,230.2,139z"/>
				<path class="st7" d="M230.8,139.5C230.7,139.5,230.7,139.5,230.8,139.5C230.7,139.5,230.7,139.4,230.8,139.5
					C230.8,139.5,230.8,139.5,230.8,139.5z"/>
				<path class="st7" d="M227.1,138.9C227.1,138.9,227.1,138.9,227.1,138.9C227.1,138.9,227.1,138.9,227.1,138.9z"/>
				<polygon class="st7" points="226.9,138.9 226.9,138.8 227,138.8 				"/>
				<path class="st7" d="M231.6,140.6c0,0.1-0.1,0.1-0.1,0C231.5,140.6,231.6,140.6,231.6,140.6z"/>
				<path class="st7" d="M229.9,139.7c0-0.1,0-0.1,0-0.1C229.9,139.6,229.9,139.6,229.9,139.7z"/>
				<path class="st7" d="M225.5,145.6C225.5,145.7,225.5,145.7,225.5,145.6C225.4,145.7,225.4,145.7,225.5,145.6
					C225.4,145.7,225.4,145.7,225.5,145.6z"/>
			</g>
			<g>
				<path class="st7" d="M219,131.1c0.2-0.1,0.4-0.1,0.5-0.1c0,0,0.1,0,0.1,0c0.3,0,0.6,0.1,0.8,0.2c0.2,0.1,0.4,0.3,0.6,0.4
					c0.2,0.2,0.3,0.4,0.4,0.6c0.1,0.2,0.2,0.4,0.3,0.7c0.1-0.2,0.3-0.4,0.4-0.6c0.1-0.2,0.2-0.4,0.3-0.6c0,0,0-0.1,0-0.1
					c0-0.1,0.1-0.2,0.1-0.3c0-0.2,0-0.3,0.1-0.5c0,0,0.1,0.1,0.1,0.1c0,0.1,0,0.1,0.1,0.1c0.1,0.2,0.3,0.4,0.5,0.5c0,0,0,0,0.1,0.1
					c0.1,0.2,0.3,0.3,0.4,0.5c0.2,0.2,0.3,0.3,0.5,0.5c0,0,0.1,0.1,0.1,0.1c0,0-0.1,0-0.2,0.1c0,0-0.1,0-0.1,0c-0.2,0-0.3,0-0.4,0.1
					c-0.2,0.1-0.5,0.1-0.7,0.3c-0.2,0.1-0.4,0.2-0.6,0.3c0.3,0.1,0.5,0.2,0.8,0.3c0.2,0.1,0.4,0.3,0.5,0.5c0.2,0.2,0.3,0.4,0.4,0.6
					c0.1,0.2,0.2,0.5,0.2,0.7c0,0.3,0,0.6-0.2,0.9c-0.1,0.2-0.3,0.4-0.4,0.6c-0.2,0.1-0.4,0.3-0.6,0.4c-0.2,0.1-0.5,0.2-0.8,0.2
					c-0.1,0-0.1,0-0.2,0c-0.2,0-0.4,0-0.7,0.1c-0.1,0-0.3,0-0.4,0c-0.2,0-0.4,0-0.6,0c-0.1,0-0.3,0-0.4,0c-0.2,0-0.3,0-0.5,0
					c-0.2,0-0.4,0-0.5,0c-0.1,0-0.2,0-0.3,0c-0.1,0-0.2,0-0.2,0c-0.1,0-0.2,0-0.3,0c0,0,0,0-0.1,0l0,0c-0.3,0-0.5,0.1-0.8,0.1
					c-0.2,0-0.2,0-0.1-0.2c0-0.1,0-0.2,0.1-0.3c0,0,0-0.1,0-0.1c0.1-0.3,0.1-0.5,0.2-0.8c0-0.1,0.1-0.2,0.1-0.4l0,0c0,0,0,0,0-0.1
					c0-0.2,0.1-0.4,0.1-0.6c0-0.2,0-0.3,0-0.5c0-0.1,0-0.3,0-0.4c0-0.2,0-0.3,0-0.5c0-0.2,0-0.4,0-0.5c0-0.2,0.1-0.4,0.1-0.6
					c0-0.1,0-0.2,0.1-0.2c0.1-0.2,0.2-0.5,0.3-0.7c0.1-0.2,0.3-0.4,0.5-0.5C218.6,131.3,218.8,131.2,219,131.1z"/>
				<path class="st7" d="M222.7,131c0,0-0.1-0.1-0.1-0.1C222.7,130.9,222.7,130.9,222.7,131C222.7,131,222.7,131,222.7,131z"/>
				<path class="st7" d="M223.3,131.6C223.2,131.6,223.2,131.5,223.3,131.6C223.2,131.5,223.2,131.5,223.3,131.6
					C223.2,131.5,223.3,131.5,223.3,131.6z"/>
				<path class="st7" d="M219.6,131C219.6,131,219.6,131,219.6,131C219.6,131,219.6,130.9,219.6,131z"/>
				<polygon class="st7" points="219.4,130.9 219.4,130.9 219.4,130.9 				"/>
				<path class="st7" d="M224.1,132.7c0,0.1-0.1,0.1-0.1,0C224,132.7,224.1,132.7,224.1,132.7z"/>
				<path class="st7" d="M222.3,131.7c0-0.1,0-0.1,0-0.1C222.4,131.6,222.4,131.7,222.3,131.7z"/>
				<path class="st7" d="M218,137.7C218,137.7,217.9,137.7,218,137.7C217.9,137.7,217.9,137.7,218,137.7
					C217.9,137.7,217.9,137.7,218,137.7z"/>
			</g>
		</g>
	</g>
</g>
<g>
	
		<image style="overflow:visible;opacity:0.23;" width="71" height="73" xlink:href="7CB5BF8B7AD3453E.png"  transform="matrix(1 0 0 1 235.6729 59.5989)">
	</image>
	<g>
		<g>
			<g>
				<defs>
					<path id="XMLID_129_" d="M251.9,90.9c0.1-0.6-0.3-1.2-0.9-1.3c-0.6-0.1-1.1,0.3-1.2,0.9c-0.6-0.1-1.1,0.3-1.2,0.9
						c-0.1,0.6,0.3,1.1,1,1.2l2,0.3c0,0,0.1,0,0.1-0.1L251.9,90.9z"/>
				</defs>
				<clipPath id="XMLID_181_">
					<use xlink:href="#XMLID_129_"  style="overflow:visible;"/>
				</clipPath>
			</g>
			<g>
				<defs>
					<path id="XMLID_128_" d="M288.7,99.7c-0.1,0.6,0.4,1.2,0.9,1.2c0.6,0.1,1.1-0.4,1.2-0.9c0.6,0.1,1.1-0.4,1.2-0.9
						c0.1-0.6-0.3-1.1-1-1.2l-2-0.2c0,0-0.1,0-0.1,0.1L288.7,99.7z"/>
				</defs>
				<clipPath id="XMLID_182_">
					<use xlink:href="#XMLID_128_"  style="overflow:visible;"/>
				</clipPath>
			</g>
			<g>
				<defs>
					<path id="XMLID_127_" d="M256.4,86.4c0.1-0.8-0.4-1.5-1.1-1.5c-0.7-0.1-1.4,0.4-1.5,1.1c-0.7-0.1-1.4,0.4-1.5,1.1
						c-0.1,0.7,0.4,1.4,1.2,1.5l2.5,0.3c0,0,0.1,0,0.1-0.1L256.4,86.4z"/>
				</defs>
				<clipPath id="XMLID_183_">
					<use xlink:href="#XMLID_127_"  style="overflow:visible;"/>
				</clipPath>
			</g>
			<g>
				<defs>
					<path id="XMLID_126_" d="M284.3,104c-0.1,0.8,0.4,1.5,1.1,1.5c0.7,0.1,1.4-0.4,1.5-1.1c0.7,0.1,1.4-0.4,1.5-1.1
						c0.1-0.7-0.4-1.4-1.2-1.5l-2.5-0.3c0,0-0.1,0-0.1,0.1L284.3,104z"/>
				</defs>
				<clipPath id="XMLID_184_">
					<use xlink:href="#XMLID_126_"  style="overflow:visible;"/>
				</clipPath>
			</g>
		</g>
		<g>
			<path class="st10" d="M295.8,104.2L273.6,122c-0.9,0.7-2.2,0.6-2.9-0.3l-26.4-32.9c-0.7-0.9-0.6-2.2,0.3-2.9l22.2-17.8
				c0.9-0.7,2.2-0.6,2.9,0.3l26.4,32.9C296.8,102.2,296.7,103.5,295.8,104.2z"/>
			<path class="st42" d="M289,104.4l-13.7,11c-0.6,0.5-1.6,0.4-2.1-0.2l-21.9-27.3c-0.5-0.6-0.4-1.6,0.2-2.1l13.7-11
				c0.6-0.5,1.6-0.4,2.1,0.2l21.9,27.3C289.7,102.9,289.6,103.8,289,104.4z"/>
			<text transform="matrix(0.7799 -0.6259 0.6259 0.7799 247.2258 89.7736)" class="st36 st37">Q</text>
			<text transform="matrix(0.7799 -0.6259 0.6259 0.7799 247.2258 89.7736)" class="st36 st37">Q</text>
			<g>
				<defs>
					<path id="XMLID_125_" d="M251.9,90.9c0.1-0.6-0.3-1.2-0.9-1.3c-0.6-0.1-1.1,0.3-1.2,0.9c-0.6-0.1-1.1,0.3-1.2,0.9
						c-0.1,0.6,0.3,1.1,1,1.2l2,0.3c0,0,0.1,0,0.1-0.1L251.9,90.9z"/>
				</defs>
				<use xlink:href="#XMLID_125_"  style="overflow:visible;fill:#E72B78;"/>
				<clipPath id="XMLID_185_">
					<use xlink:href="#XMLID_125_"  style="overflow:visible;"/>
				</clipPath>
			</g>
			<text transform="matrix(-0.7799 0.6259 -0.6259 -0.7799 293.3164 100.8505)" class="st36 st37">Q</text>
			<g>
				<defs>
					<path id="XMLID_124_" d="M288.7,99.7c-0.1,0.6,0.4,1.2,0.9,1.2c0.6,0.1,1.1-0.4,1.2-0.9c0.6,0.1,1.1-0.4,1.2-0.9
						c0.1-0.6-0.3-1.1-1-1.2l-2-0.2c0,0-0.1,0-0.1,0.1L288.7,99.7z"/>
				</defs>
				<use xlink:href="#XMLID_124_"  style="overflow:visible;fill:#E72B78;"/>
				<clipPath id="XMLID_186_">
					<use xlink:href="#XMLID_124_"  style="overflow:visible;"/>
				</clipPath>
			</g>
			<g>
				<defs>
					<path id="XMLID_123_" d="M256.4,86.4c0.1-0.8-0.4-1.5-1.1-1.5c-0.7-0.1-1.4,0.4-1.5,1.1c-0.7-0.1-1.4,0.4-1.5,1.1
						c-0.1,0.7,0.4,1.4,1.2,1.5l2.5,0.3c0,0,0.1,0,0.1-0.1L256.4,86.4z"/>
				</defs>
				<use xlink:href="#XMLID_123_"  style="overflow:visible;fill:#E72B78;"/>
				<clipPath id="XMLID_187_">
					<use xlink:href="#XMLID_123_"  style="overflow:visible;"/>
				</clipPath>
			</g>
			<g>
				<defs>
					<path id="XMLID_122_" d="M284.3,104c-0.1,0.8,0.4,1.5,1.1,1.5c0.7,0.1,1.4-0.4,1.5-1.1c0.7,0.1,1.4-0.4,1.5-1.1
						c0.1-0.7-0.4-1.4-1.2-1.5l-2.5-0.3c0,0-0.1,0-0.1,0.1L284.3,104z"/>
				</defs>
				<use xlink:href="#XMLID_122_"  style="overflow:visible;fill:#E72B78;"/>
				<clipPath id="XMLID_188_">
					<use xlink:href="#XMLID_122_"  style="overflow:visible;"/>
				</clipPath>
			</g>
			<g id="Page-1_30_" class="st12">
				<g id="Homepage---Desktop_28_" transform="translate(-581.000000, -1466.000000)">
					<g id="illo_spot_28_" transform="translate(580.000000, 1465.000000)">
						<g id="Layer_14_28_" transform="translate(0.971660, 0.971660)">
							<path id="Path_1326_" class="st13" d="M270.1,89.1c-1.8-0.2-2.6,0.4-3.2,0.4l-0.6,0.5l-0.6,0.5c-0.2,0.5-0.9,1.2-1.1,3
								c-0.4,2.7,1.5,5.1,1.5,5.1l8.8-7C274.8,91.6,272.8,89.3,270.1,89.1z"/>
							<circle id="Oval_102_" class="st14" cx="262.5" cy="85.1" r="5.1"/>
							<path id="Path_1325_" class="st15" d="M264.9,89.2c0.5,0.2,0.9,0.8,0.8,1.3c0,0,0.3,0.1,0.8-0.3c0.5-0.4,0.4-0.7,0.4-0.7
								s-0.4,0-0.7-0.4c-0.3-0.4-0.4-0.7-0.4-0.7L264.9,89.2z"/>
							<path id="Path_1324_" class="st16" d="M265.9,88.8L265.9,88.8c0.1,0.9-0.1,1.6-0.2,1.7c0,0,0.1-0.4-0.1-0.7
								c-0.1-0.2-0.3-0.4-0.5-0.5l0.6-0.1L265.9,88.8z"/>
							
								<ellipse id="Oval_101_" transform="matrix(0.7799 -0.6259 0.6259 0.7799 2.5284 185.1631)" class="st17" cx="264.6" cy="89" rx="0.2" ry="0.4"/>
							<path id="Path_1323_" class="st18" d="M263.9,89.1c0-0.1-0.1-0.1-0.1-0.2c0-0.1-0.1-0.1-0.1-0.2c0,0,0,0,0,0
								c-0.1,0-0.3,0-0.3,0.2c-0.1,0.2,0,0.4,0.1,0.5c0.1,0.1,0.3,0.2,0.4,0.1c0.1,0,0.1-0.1,0.1-0.1C264,89.3,264,89.2,263.9,89.1
								C264,89.1,264,89.1,263.9,89.1L263.9,89.1z"/>
							<path id="Path_1322_" class="st15" d="M266,86.9c-0.1,0-0.1,0-0.2,0c-0.2-0.3-0.5-0.6-0.8-0.9c-0.3-0.2-0.6-0.2-0.6-0.2
								s-0.2,0.7-0.6,1c-0.4,0.3-1.1,0.3-1.1,0.3s-0.1,0.3,0.1,0.6c0.3,0.7,0.9,1.4,1.7,1.5c0.7,0.1,1.3-0.1,1.3-0.1
								s0.3-0.5,0.4-1.2c0-0.1,0-0.2,0-0.4c0.1,0,0.1,0,0.2-0.1c0.1-0.1,0-0.3,0-0.4C266.2,87.1,266.1,86.9,266,86.9z"/>
							<path id="Path_1321_" class="st16" d="M265.3,88.2l-0.2,0.3c0,0-0.1-0.1-0.5-0.5c-0.2-0.3-0.9,0.1-1.1-0.1
								c-0.2-0.2-0.3-0.5,0-0.8c0,0-0.2,0.1-0.4,0.1c-0.1,0-0.3,0-0.4,0c0,0-0.1,0.2,0,0.5c0.2,0.4,0.3,0.6,0.9,1.2
								c0.6,0.7,2.1,0.3,2.1,0.3s-0.1,0-0.5-0.2c0,0,0,0,0,0c0-0.1,0.1-0.1,0.1-0.2C265.5,88.5,265.3,88.2,265.3,88.2z"/>
							<path id="Shape_34_" class="st13" d="M265.8,87.3c-0.1-0.1-0.2-0.1-0.2-0.1c-0.1,0-0.2,0-0.2,0c-0.2,0-0.3,0.2-0.3,0.4
								c0,0.1,0,0.2,0.1,0.4c-0.2,0-0.5,0.2-0.6,0.4c-0.1-0.1-0.4-0.2-0.5-0.2c-0.2,0-0.4,0.2-0.4,0.4c0,0.2,0.1,0.5,0.3,0.6
								c0.2,0.2,0.6,0.5,0.9,0.2c0.3-0.3,0-0.8-0.2-1c0,0,0,0,0,0c0.1-0.2,0.3-0.3,0.5-0.3c0,0,0,0,0,0c0.1,0.3,0.4,0.5,0.7,0.5
								c0.3,0,0.4-0.2,0.4-0.5C266.2,87.8,266,87.5,265.8,87.3z M264.6,89.3c-0.3,0.1-0.6-0.2-0.7-0.4c-0.1-0.1-0.2-0.3-0.2-0.5
								c0-0.3,0.5-0.3,0.8-0.1c0,0,0,0,0,0C264.8,88.7,264.9,89.2,264.6,89.3z M266,88.3c-0.2,0.2-0.6,0-0.7-0.2
								c-0.1-0.1-0.1-0.2-0.2-0.4c0-0.1,0-0.1,0-0.2c0,0,0-0.2,0.1-0.2c0.1,0,0.1,0,0.2,0c0.1,0,0.3,0.1,0.4,0.2
								C266,87.7,266.2,88.1,266,88.3L266,88.3z"/>
							<path id="Path_1320_" class="st19" d="M263.6,88.9c-0.1,0.1-0.2,0.3-0.1,0.4c0,0.1,0.1,0,0.1,0c0,0,0-0.1,0-0.1
								c0.1,0.1,0.1,0.1,0.2,0.2c0,0,0,0,0,0c0,0,0,0,0,0c0-0.1-0.1-0.2-0.2-0.2C263.6,89,263.7,89,263.6,88.9
								C263.7,89,263.7,89,263.6,88.9C263.7,88.9,263.7,88.9,263.6,88.9L263.6,88.9z"/>
							<path id="Path_1319_" class="st19" d="M265.8,87.1c0.1-0.1,0.3,0,0.3,0.1c0,0,0,0,0,0c0,0,0,0,0,0c0,0,0,0,0,0
								c0,0-0.1,0-0.1-0.1c0,0.1,0.1,0.1,0.1,0.2c0,0,0,0,0,0c0,0,0,0,0,0c-0.1-0.1-0.1-0.2-0.1-0.3
								C265.9,87.2,265.9,87.2,265.8,87.1C265.8,87.2,265.8,87.2,265.8,87.1z"/>
							<path id="Path_1318_" class="st14" d="M265.4,86.7c-0.3-0.1-0.6,0-0.7,0.3c0,0,0,0.1,0.1,0c0.1-0.1,0.1-0.2,0.3-0.2
								c0.1,0,0.2,0,0.4,0C265.4,86.8,265.4,86.8,265.4,86.7C265.4,86.7,265.4,86.7,265.4,86.7L265.4,86.7z"/>
							<path id="Path_1317_" class="st14" d="M263.8,87.6c-0.1,0-0.2,0.2-0.3,0.3c-0.1,0.1-0.2,0.3-0.2,0.4c0,0,0.1,0.1,0.1,0
								c0-0.1,0.1-0.3,0.2-0.4C263.6,87.8,263.7,87.7,263.8,87.6C263.8,87.6,263.8,87.6,263.8,87.6
								C263.8,87.6,263.8,87.6,263.8,87.6L263.8,87.6z"/>
							<path id="Rectangle_68_" class="st20" d="M265.7,93.7l4.4-3.5c0,0,0.1,0,0.2,0l2.3,2.9c0,0,0,0.1,0,0.2l-4.4,3.5
								c0,0-0.1,0-0.2,0l-2.3-2.9C265.6,93.8,265.6,93.8,265.7,93.7z"/>
							<path id="Rectangle_67_" d="M265.9,93.7l4.1-3.3c0,0,0.1,0,0.1,0l2.3,2.9c0,0,0,0.1,0,0.1l-4.1,3.3c0,0-0.1,0-0.1,0l-2.3-2.9
								C265.9,93.8,265.9,93.8,265.9,93.7z"/>
							<path id="Path_1316_" class="st21" d="M267,97.4l6.4-5.1l0,0c0.1,0.2,0.1,0.4-0.1,0.5l-5.8,4.7c-0.1,0.1-0.2,0.1-0.3,0.1
								C267.1,97.5,267,97.5,267,97.4L267,97.4z"/>
							<path id="Path_1315_" class="st22" d="M267.5,97.5l5.8-4.7c0.1-0.1,0.2-0.2,0.1-0.3l-6.3,5.1
								C267.3,97.6,267.4,97.6,267.5,97.5L267.5,97.5z"/>
							<path id="Path_1314_" class="st23" d="M261.8,87.9c-0.1,0-0.1,0.1-0.1,0.2c-0.1,0.1-0.1,0.1-0.1,0c-0.1-0.1-0.2-0.1-0.3,0
								c-0.1,0-0.1,0.1-0.1,0.1c-0.1,0.1-0.1,0.1-0.2,0c-0.1-0.1-0.1-0.2-0.3-0.2s-0.3,0.1-0.3,0.2c0,0.1,0,0.2-0.1,0.2
								c-0.1,0-0.2-0.1-0.2-0.1c-0.1-0.1-0.2-0.3-0.3-0.4c-0.1,0-0.1,0.1-0.1,0.1c0.2,0.2,0.3,0.7,0.6,0.6c0.1,0,0.2-0.2,0.2-0.3
								c0-0.1,0.1-0.2,0.1-0.1c0,0.1,0.1,0.1,0.1,0.2c0.1,0.1,0.2,0.1,0.3,0.1c0.1,0,0.1-0.1,0.1-0.1c0-0.1,0.1-0.1,0.1-0.1
								c0.1,0,0.2,0.1,0.3,0.1c0.1,0,0.1-0.1,0.2-0.1c0,0,0.1-0.2,0.1-0.1c0.1,0.1,0.2,0,0.2-0.1C262.1,87.8,261.9,87.8,261.8,87.9z
								"/>
							<path id="Path_1313_" class="st23" d="M262.7,89.2c-0.2,0-0.3,0.1-0.4,0.2c-0.1,0.1-0.1,0.1-0.2,0.1c-0.1,0-0.1-0.1-0.2-0.1
								c0,0,0,0,0,0c-0.1,0.2,0.2,0.3,0.3,0.3c0.2,0,0.3-0.3,0.5-0.3C262.8,89.3,262.8,89.2,262.7,89.2z"/>
							<path id="Path_1312_" class="st23" d="M266.8,85.6c0,0.1,0,0.2-0.1,0.3c-0.1,0.1-0.2,0-0.3,0.1c-0.1,0-0.1,0.1-0.1,0.2
								c0,0.1,0,0.3-0.2,0.3c-0.1,0-0.1,0.1-0.1,0.1c0.1,0,0.2,0,0.3-0.1c0.1-0.1,0.1-0.4,0.2-0.4c0.1,0,0.1,0,0.2,0
								c0.1,0,0.1,0,0.2-0.1c0.1-0.1,0.1-0.3,0.2-0.4C267.1,85.6,266.9,85.5,266.8,85.6z"/>
							
								<ellipse id="Oval_100_" transform="matrix(0.7799 -0.6259 0.6259 0.7799 3.3988 185.6529)" class="st24" cx="265.7" cy="88" rx="0.2" ry="0.4"/>
							<path id="Path_1311_" class="st25" d="M264.8,93.7c0,0.3,0,0.6,0,0.9c0,0,0,0.1,0.1,0.1s0.1,0,0.1-0.1c0-0.3,0-0.6,0-0.9
								C264.9,93.6,264.8,93.6,264.8,93.7z"/>
							<path id="Path_1310_" class="st25" d="M264.9,95.2c0,0.2,0,0.3,0,0.5c0,0.2,0.1,0.3,0.2,0.5c0.1,0.1,0.2,0,0.1-0.1
								c-0.1-0.1-0.2-0.3-0.2-0.4c0-0.2,0-0.3-0.1-0.5C265,95.2,264.9,95.2,264.9,95.2z"/>
							<path id="Path_1309_" class="st25" d="M265.5,97c0.1,0.4,0.3,0.7,0.5,1c0.1,0.1,0.2,0,0.1-0.1c-0.2-0.3-0.4-0.6-0.5-1
								C265.6,96.9,265.5,96.9,265.5,97z"/>
							<path id="Path_1308_" class="st25" d="M270.6,89.3c-0.3-0.1-0.7-0.1-1-0.1c0,0-0.1,0-0.1,0.1c0,0,0,0.1,0.1,0.1
								c0.3,0,0.7,0.1,1,0.1C270.6,89.5,270.7,89.5,270.6,89.3C270.7,89.4,270.7,89.4,270.6,89.3L270.6,89.3z"/>
							<path id="Path_1307_" class="st25" d="M272.5,90.1c-0.1-0.1-0.2-0.1-0.3-0.1c-0.1,0-0.2-0.1-0.3-0.1
								c-0.2-0.1-0.4-0.2-0.6-0.2c0,0-0.1,0-0.1,0c0,0,0,0.1,0,0.1c0.2,0.1,0.4,0.2,0.6,0.3c0.1,0,0.2,0.1,0.3,0.1
								c0.1,0,0.2,0.1,0.3,0.1C272.5,90.2,272.5,90.2,272.5,90.1C272.5,90.1,272.5,90.1,272.5,90.1L272.5,90.1z"/>
							<path id="Path_1306_" class="st25" d="M273.5,90.8c-0.1-0.1-0.3-0.2-0.4-0.3c-0.1-0.1-0.2,0.1-0.1,0.1
								c0.1,0.1,0.3,0.2,0.4,0.3c0.1,0.1,0.3,0.2,0.4,0.3c0,0,0,0,0.1,0c0,0,0,0,0-0.1C273.8,91,273.6,90.9,273.5,90.8z"/>
							<path id="Path_1305_" class="st25" d="M274.6,91.8l-0.4-0.4c-0.1-0.1-0.2,0-0.1,0.1l0.4,0.4
								C274.5,91.8,274.6,91.8,274.6,91.8z"/>
							<path id="Path_1304_" class="st25" d="M266.7,89.6c0,0.1-0.1,0.2-0.1,0.4c-0.1,0.1-0.1,0.2-0.2,0.3c-0.1,0.1-0.2,0.1-0.3,0.2
								c-0.1,0-0.3,0-0.4,0.1c0,0-0.1,0.1,0,0.1c0.1,0.1,0.3,0,0.4,0c0.2,0,0.3-0.1,0.4-0.2c0.2-0.2,0.5-0.5,0.4-0.9
								C267,89.5,266.8,89.5,266.7,89.6z"/>
							<path id="Path_1303_" class="st10" d="M267.1,93.3c-0.3,0.2-0.5,0.4-0.8,0.6c0,0,0,0.1,0.1,0.1c0.3-0.2,0.6-0.4,0.8-0.6
								C267.3,93.3,267.2,93.2,267.1,93.3z"/>
							<path id="Path_1302_" class="st10" d="M268.2,93c-0.4,0.3-0.7,0.6-1.1,0.9c-0.1,0,0,0.2,0.1,0.1c0.4-0.3,0.8-0.6,1.1-0.9
								C268.4,93,268.3,92.9,268.2,93z"/>
							<path id="Path_1301_" class="st10" d="M267.8,93.9c-0.3,0.2-0.5,0.4-0.8,0.6c-0.1,0.1,0,0.2,0.1,0.1c0.3-0.2,0.5-0.4,0.8-0.6
								C268,94,267.9,93.9,267.8,93.9z"/>
							<path id="Path_1300_" class="st10" d="M270.1,93c-0.4,0.3-0.7,0.6-1.1,0.9l-0.5,0.4c-0.2,0.2-0.4,0.3-0.5,0.5
								c0,0.1,0,0.1,0.1,0.1c0.2-0.1,0.4-0.3,0.5-0.4l0.6-0.4c0.4-0.3,0.8-0.6,1.1-0.9C270.3,93.1,270.2,93,270.1,93z"/>
							<path id="Path_1299_" class="st10" d="M268.6,95.1c-0.2,0.2-0.4,0.3-0.6,0.5c0,0,0,0.2,0.1,0.1c0.2-0.1,0.5-0.3,0.7-0.5
								c0,0,0-0.1,0-0.1S268.6,95,268.6,95.1z"/>
							<path id="Path_1298_" class="st10" d="M270,94c-0.2,0.2-0.5,0.4-0.7,0.6c-0.1,0,0,0.1,0.1,0.1c0.2-0.2,0.5-0.4,0.7-0.5
								C270.2,94,270,93.9,270,94z"/>
							<path id="Path_1297_" class="st13" d="M267.7,95c-0.1,0.1-0.2,0.2-0.3,0.3c0,0,0,0.1,0.1,0.1c0.1-0.1,0.2-0.2,0.4-0.2
								C267.9,95,267.8,94.9,267.7,95z"/>
							<path id="Path_1296_" class="st13" d="M266.9,94c-0.1,0.1-0.2,0.2-0.2,0.3c0,0,0,0.1,0,0.1c0.1,0,0.2-0.1,0.3-0.2
								C267.1,94.1,267,93.9,266.9,94z"/>
							<path id="Path_1295_" class="st13" d="M269,94.7c-0.1,0.1-0.2,0.2-0.3,0.3c0,0,0,0.1,0.1,0.1c0.1-0.1,0.2-0.1,0.3-0.2
								C269.2,94.7,269.1,94.6,269,94.7z"/>
							<path id="Path_1294_" class="st13" d="M269.2,92.8c-0.2,0.1-0.4,0.3-0.6,0.5s-0.4,0.3-0.6,0.5c-0.1,0.1,0,0.2,0.1,0.1
								c0.2-0.1,0.4-0.3,0.6-0.5c0.2-0.2,0.4-0.3,0.6-0.5C269.4,92.8,269.3,92.7,269.2,92.8z"/>
							<path id="Path_1293_" class="st23" d="M260.2,84.4c0,0-0.1,0-0.1,0c-0.1,0-0.1,0-0.1-0.1c0-0.2-0.2-0.3-0.3-0.2
								c0,0,0,0,0-0.1c0,0,0-0.1,0-0.1c0-0.1-0.1-0.1-0.2-0.1c-0.1,0-0.2,0-0.2,0c0,0,0,0,0,0c0,0,0-0.1,0.1-0.1
								c0-0.1-0.1-0.2-0.1-0.1c-0.1,0.1-0.2,0.4,0,0.4c0.1,0,0.2-0.1,0.3,0c0.1,0,0,0.2,0,0.3c0.1,0.1,0.1,0.1,0.2,0
								c0.1,0,0.1,0,0.1,0c0,0,0,0.1,0,0.1c0,0.1,0.1,0.1,0.2,0.2c0,0,0.2,0,0.3,0c0,0.1,0.2,0.2,0.2,0
								C260.3,84.5,260.3,84.4,260.2,84.4z"/>
							<path id="Path_1292_" class="st23" d="M262.2,82.8c0,0-0.1-0.1-0.1-0.1c-0.1,0-0.1,0-0.1-0.1c0.1-0.2,0-0.3-0.2-0.4
								c0,0,0,0,0-0.1c0,0,0-0.1,0-0.1c0-0.1,0-0.1-0.1-0.2c-0.1-0.1-0.1-0.1-0.2-0.1c0,0,0,0,0,0c0,0,0.1-0.1,0.1-0.1
								c0.1-0.1,0-0.2-0.1-0.1c-0.1,0.1-0.4,0.2-0.2,0.4c0.1,0.1,0.3,0,0.3,0.1c0,0.1-0.1,0.2-0.1,0.2c0,0.1,0.1,0.1,0.2,0.1
								c0.1,0,0.1,0,0.1,0.1c0,0,0,0.1,0,0.1c0,0.1,0,0.2,0.1,0.2c0,0,0.2,0.1,0.2,0.1c-0.1,0.1,0.1,0.2,0.2,0.1
								C262.3,83,262.3,82.9,262.2,82.8z"/>
							<path id="Path_1291_" class="st23" d="M261.9,86.4c-0.2,0-0.3,0-0.5,0c-0.1,0-0.2,0.1-0.2,0c0,0-0.1-0.1-0.1-0.2
								c-0.1-0.1-0.2-0.1-0.3,0c0,0-0.1,0.1-0.1,0.1c0,0,0-0.2-0.1-0.2c-0.1-0.1-0.2-0.1-0.3-0.1c-0.1,0-0.1,0.1-0.2,0.1
								c0,0-0.1,0.1-0.1,0.1c-0.1,0-0.1-0.1-0.1-0.1c-0.1-0.1-0.1-0.2-0.3-0.2c-0.1,0-0.1,0.1-0.2,0.1c-0.1,0-0.1-0.2-0.2-0.2
								c0-0.1-0.1-0.1-0.1,0c0,0.2,0,0.3,0.2,0.4c0.1,0,0.1,0,0.2,0c0,0,0.1,0,0.1-0.1c0.1,0,0.1,0,0.1,0.1c0.1,0.1,0.1,0.3,0.3,0.2
								c0.1,0,0.1-0.1,0.2-0.1c0,0,0.1-0.1,0.2-0.1c0,0.1,0,0.1,0.1,0.2c0,0.1,0.1,0.1,0.2,0.1c0.1,0,0.1,0,0.2-0.1
								c0,0,0.1-0.1,0.1-0.1s0.1,0.1,0.1,0.1c0.1,0.1,0.2,0.2,0.3,0.2c0.1,0,0.2-0.1,0.3-0.1c0.1,0,0.2,0,0.3,0
								C262,86.6,262,86.4,261.9,86.4z"/>
							<path id="Path_1290_" class="st23" d="M263.4,82.2c-0.1,0.2-0.5,0.5-0.2,0.7c0,0,0.1,0,0.2,0.1c0.1,0,0.1,0.1,0.1,0.2
								c0,0.1-0.1,0.3-0.1,0.4c0,0.1,0,0.2,0.2,0.2c0,0,0.1,0,0.1,0l0,0c0,0,0,0,0,0c0,0,0,0.1,0,0.1c0,0.1,0,0.1,0,0.1
								c0,0.1-0.1,0.3,0.1,0.3c0.1,0,0.1,0,0.1,0.1s-0.1,0.2-0.1,0.2c-0.1,0.1,0.1,0.2,0.2,0.1c0.1-0.1,0.2-0.3,0.2-0.4
								c0-0.1,0-0.1-0.1-0.2c0,0-0.1,0-0.1-0.1c0,0,0,0,0,0l0,0c0-0.1,0-0.2,0-0.3c0-0.1,0-0.2,0-0.2c-0.1-0.1-0.2-0.1-0.3-0.1
								c0-0.2,0.2-0.5,0-0.7c-0.1-0.1-0.2-0.1-0.3-0.2c0,0-0.1,0,0-0.1c0,0,0-0.1,0.1-0.1c0-0.1,0.1-0.2,0.1-0.2
								C263.6,82.3,263.4,82.2,263.4,82.2z"/>
							<path id="Path_1289_" class="st23" d="M264.8,81.6c0,0.1-0.1,0.1-0.1,0.2c0,0.1-0.1,0.1-0.1,0.2c0,0.1,0.1,0.1,0.1,0.2
								c0,0,0,0,0,0c0,0-0.1,0-0.1,0c-0.1,0-0.2,0.2-0.1,0.3c0,0.1,0.1,0.1,0.1,0.2c0,0,0.2,0.3,0.2,0.3c-0.1,0-0.1,0.2,0,0.2
								c0.2,0,0.2-0.3,0.1-0.4c-0.1-0.1-0.2-0.2-0.2-0.3c0-0.1,0-0.1,0-0.1c0,0,0.1,0,0.1,0c0.1,0,0.1-0.1,0.1-0.2
								c0-0.1-0.1-0.1-0.1-0.2c0-0.1,0.1-0.2,0.1-0.2c0-0.1,0-0.2,0-0.2C264.9,81.4,264.8,81.5,264.8,81.6z"/>
							<path id="Path_1288_" class="st23" d="M266.2,82.8c-0.1-0.1-0.2,0-0.2,0.1c0,0.1,0.1,0.1,0.1,0.2c0,0.1-0.1,0.1-0.1,0.2
								c-0.1,0.1-0.1,0.1-0.1,0.2c0,0.1,0.1,0.2,0.1,0.3c0,0.1,0.1,0.1,0,0.2c-0.1,0-0.1,0-0.2,0c-0.2,0-0.4,0.2-0.3,0.4
								c0,0.1,0.1,0.3,0.1,0.4c0,0.1,0,0.1-0.1,0.1c-0.1,0-0.1,0-0.2,0.1c-0.1,0.1,0,0.2,0.1,0.2c0.1,0,0.3,0,0.3-0.1
								c0.1-0.1,0-0.2,0-0.3c0-0.1,0-0.2-0.1-0.2c0-0.1-0.1-0.1,0-0.2c0.1-0.1,0.3,0,0.4-0.1c0.2-0.2,0-0.4,0-0.6
								c0-0.1,0.1-0.1,0.1-0.2c0,0,0.1-0.1,0.1-0.1C266.4,83,266.3,82.9,266.2,82.8z"/>
						</g>
					</g>
				</g>
			</g>
			<g id="Page-1_29_" class="st12">
				<g id="Homepage---Desktop_27_" transform="translate(-581.000000, -1466.000000)">
					<g id="illo_spot_27_" transform="translate(580.000000, 1465.000000)">
						<g id="Layer_14_27_" transform="translate(0.971660, 0.971660)">
							<path id="Path_1287_" class="st13" d="M270.7,101.2c1.8,0.2,2.6-0.4,3.2-0.4l0.6-0.5l0.6-0.5c0.2-0.5,0.9-1.2,1.1-3
								c0.4-2.7-1.5-5.1-1.5-5.1l-8.8,7C266,98.7,268,101,270.7,101.2z"/>
							<circle id="Oval_99_" class="st14" cx="278.3" cy="105.2" r="5.1"/>
							<path id="Path_1286_" class="st15" d="M276,101.1c-0.5-0.2-0.9-0.8-0.8-1.3c0,0-0.3-0.1-0.8,0.3c-0.5,0.4-0.4,0.7-0.4,0.7
								s0.4,0,0.7,0.4c0.3,0.4,0.4,0.7,0.4,0.7L276,101.1z"/>
							<path id="Path_1285_" class="st16" d="M274.9,101.5L274.9,101.5c-0.1-0.9,0.1-1.6,0.2-1.7c0,0-0.1,0.4,0.1,0.7
								c0.1,0.2,0.3,0.4,0.5,0.5l-0.6,0.1L274.9,101.5z"/>
							
								<ellipse id="Oval_98_" transform="matrix(0.7799 -0.6259 0.6259 0.7799 -2.6182 195.1987)" class="st17" cx="276.3" cy="101.3" rx="0.2" ry="0.4"/>
							<path id="Path_1284_" class="st18" d="M276.9,101.2c0,0.1,0.1,0.1,0.1,0.2c0,0.1,0.1,0.1,0.1,0.2c0,0,0,0,0,0
								c0.1,0,0.3,0,0.3-0.2c0.1-0.2,0-0.4-0.1-0.5c-0.1-0.1-0.3-0.2-0.4-0.1c-0.1,0-0.1,0.1-0.1,0.1
								C276.8,101,276.8,101.1,276.9,101.2C276.8,101.2,276.9,101.2,276.9,101.2L276.9,101.2z"/>
							<path id="Path_1283_" class="st15" d="M274.9,103.4c0.1,0,0.1,0,0.2,0c0.2,0.3,0.5,0.6,0.8,0.9c0.3,0.2,0.6,0.2,0.6,0.2
								s0.2-0.7,0.6-1s1.1-0.3,1.1-0.3s0.1-0.3-0.1-0.6c-0.3-0.7-0.9-1.4-1.7-1.5c-0.7-0.1-1.3,0.1-1.3,0.1s-0.3,0.5-0.4,1.2
								c0,0.1,0,0.2,0,0.4c-0.1,0-0.1,0-0.2,0.1c-0.1,0.1,0,0.3,0,0.4C274.6,103.2,274.7,103.4,274.9,103.4z"/>
							<path id="Path_1282_" class="st16" d="M275.5,102.1l0.2-0.3c0,0,0.1,0.1,0.5,0.5c0.2,0.3,0.9-0.1,1.1,0.1
								c0.2,0.2,0.3,0.5,0,0.8c0,0,0.2-0.1,0.4-0.1c0.1,0,0.3,0,0.4,0c0,0,0.1-0.2,0-0.5c-0.2-0.4-0.3-0.6-0.9-1.2
								c-0.6-0.7-2.1-0.3-2.1-0.3s0.1,0,0.5,0.2c0,0,0,0,0,0c0,0.1-0.1,0.1-0.1,0.2C275.4,101.8,275.5,102.1,275.5,102.1z"/>
							<path id="Shape_33_" class="st13" d="M275.1,103c0.1,0.1,0.2,0.1,0.2,0.1c0.1,0,0.2,0,0.2,0c0.2,0,0.3-0.2,0.3-0.4
								c0-0.1,0-0.2-0.1-0.4c0.2,0,0.5-0.2,0.6-0.4c0.1,0.1,0.4,0.2,0.5,0.2c0.2,0,0.4-0.2,0.4-0.4c0-0.2-0.1-0.5-0.3-0.6
								c-0.2-0.2-0.6-0.5-0.9-0.2c-0.3,0.3,0,0.8,0.2,1c0,0,0,0,0,0c-0.1,0.2-0.3,0.3-0.5,0.3c0,0,0,0,0,0c-0.1-0.3-0.4-0.5-0.7-0.5
								c-0.3,0-0.4,0.2-0.4,0.5C274.7,102.6,274.9,102.9,275.1,103z M276.2,101c0.3-0.1,0.6,0.2,0.7,0.4c0.1,0.1,0.2,0.3,0.2,0.5
								c0,0.3-0.5,0.3-0.8,0.1c0,0,0,0,0,0C276,101.6,275.9,101.1,276.2,101z M274.8,102c0.2-0.2,0.6,0,0.7,0.2
								c0.1,0.1,0.1,0.2,0.2,0.4c0,0.1,0,0.1,0,0.2c0,0,0,0.2-0.1,0.2c-0.1,0-0.1,0-0.2,0c-0.1,0-0.3-0.1-0.4-0.2
								C274.9,102.6,274.6,102.3,274.8,102L274.8,102z"/>
							<path id="Path_1281_" class="st19" d="M277.2,101.4c0.1-0.1,0.2-0.3,0.1-0.4c0-0.1-0.1,0-0.1,0c0,0,0,0.1,0,0.1
								c-0.1-0.1-0.1-0.1-0.2-0.2c0,0,0,0,0,0c0,0,0,0,0,0c0,0.1,0.1,0.2,0.2,0.2C277.2,101.3,277.2,101.3,277.2,101.4
								C277.1,101.3,277.1,101.4,277.2,101.4C277.2,101.4,277.2,101.4,277.2,101.4L277.2,101.4z"/>
							<path id="Path_1280_" class="st19" d="M275,103.2c-0.1,0.1-0.3,0-0.3-0.1c0,0,0,0,0,0c0,0,0,0,0,0c0,0,0,0,0,0
								c0,0,0.1,0,0.1,0.1c0-0.1-0.1-0.1-0.1-0.2c0,0,0,0,0,0c0,0,0,0,0,0c0.1,0.1,0.1,0.2,0.1,0.3C274.9,103.1,275,103.1,275,103.2
								C275,103.1,275,103.2,275,103.2z"/>
							<path id="Path_1279_" class="st14" d="M275.5,103.6c0.3,0.1,0.6,0,0.7-0.3c0,0,0-0.1-0.1,0c-0.1,0.1-0.1,0.2-0.3,0.2
								c-0.1,0-0.2,0-0.4,0C275.5,103.5,275.4,103.5,275.5,103.6C275.4,103.6,275.4,103.6,275.5,103.6L275.5,103.6z"/>
							<path id="Path_1278_" class="st14" d="M277,102.7c0.1,0,0.2-0.2,0.3-0.3c0.1-0.1,0.2-0.3,0.2-0.4c0,0-0.1-0.1-0.1,0
								c0,0.1-0.1,0.3-0.2,0.4C277.2,102.5,277.1,102.6,277,102.7C277,102.7,277,102.7,277,102.7C277,102.7,277,102.7,277,102.7
								L277,102.7z"/>
							<path id="Rectangle_66_" class="st20" d="M275.1,96.6l-4.4,3.5c0,0-0.1,0-0.2,0l-2.3-2.9c0,0,0-0.1,0-0.2l4.4-3.5
								c0,0,0.1,0,0.2,0l2.3,2.9C275.2,96.5,275.2,96.6,275.1,96.6z"/>
							<path id="Rectangle_65_" d="M274.9,96.6l-4.1,3.3c0,0-0.1,0-0.1,0l-2.3-2.9c0,0,0-0.1,0-0.1l4.1-3.3c0,0,0.1,0,0.1,0l2.3,2.9
								C275,96.5,274.9,96.5,274.9,96.6z"/>
							<path id="Path_1277_" class="st21" d="M273.9,92.9l-6.4,5.1l0,0c-0.1-0.2-0.1-0.4,0.1-0.5l5.8-4.7c0.1-0.1,0.2-0.1,0.3-0.1
								C273.7,92.8,273.8,92.8,273.9,92.9L273.9,92.9z"/>
							<path id="Path_1276_" class="st22" d="M273.3,92.8l-5.8,4.7c-0.1,0.1-0.2,0.2-0.1,0.3l6.3-5.1
								C273.6,92.7,273.4,92.8,273.3,92.8L273.3,92.8z"/>
							<path id="Path_1275_" class="st23" d="M279,102.5c0.1,0,0.1-0.1,0.1-0.2c0.1-0.1,0.1-0.1,0.1,0c0.1,0.1,0.2,0.1,0.3,0
								c0.1,0,0.1-0.1,0.1-0.1c0.1-0.1,0.1-0.1,0.2,0c0.1,0.1,0.1,0.2,0.3,0.2c0.1,0,0.3-0.1,0.3-0.2c0-0.1,0-0.2,0.1-0.2
								c0.1,0,0.2,0.1,0.2,0.1c0.1,0.1,0.2,0.3,0.3,0.4c0.1,0,0.1-0.1,0.1-0.1c-0.2-0.2-0.3-0.7-0.6-0.6c-0.1,0-0.2,0.2-0.2,0.3
								c0,0.1-0.1,0.2-0.1,0.1c0-0.1-0.1-0.1-0.1-0.2c-0.1-0.1-0.2-0.1-0.3-0.1c-0.1,0-0.1,0.1-0.1,0.1c0,0.1-0.1,0.1-0.1,0.1
								c-0.1,0-0.2-0.1-0.3-0.1c-0.1,0-0.1,0.1-0.2,0.1c0,0-0.1,0.2-0.1,0.1c-0.1-0.1-0.2,0-0.2,0.1
								C278.8,102.5,278.9,102.5,279,102.5z"/>
							<path id="Path_1274_" class="st23" d="M278.1,101.1c0.2,0,0.3-0.1,0.4-0.2c0.1-0.1,0.1-0.1,0.2-0.1s0.1,0.1,0.2,0.1
								c0,0,0,0,0,0c0.1-0.2-0.2-0.3-0.3-0.3c-0.2,0-0.3,0.3-0.5,0.3C278,101,278,101.1,278.1,101.1z"/>
							<path id="Path_1273_" class="st23" d="M274,104.7c0-0.1,0-0.2,0.1-0.3c0.1-0.1,0.2,0,0.3-0.1c0.1,0,0.1-0.1,0.1-0.2
								c0-0.1,0-0.3,0.2-0.3c0.1,0,0.1-0.1,0.1-0.1c-0.1,0-0.2,0-0.3,0.1c-0.1,0.1-0.1,0.4-0.2,0.4c-0.1,0-0.1,0-0.2,0
								c-0.1,0-0.1,0-0.2,0.1c-0.1,0.1-0.1,0.3-0.2,0.4C273.8,104.8,274,104.8,274,104.7z"/>
							
								<ellipse id="Oval_97_" transform="matrix(0.7799 -0.6259 0.6259 0.7799 -3.4886 194.7089)" class="st24" cx="275.1" cy="102.3" rx="0.2" ry="0.4"/>
							<path id="Path_1272_" class="st25" d="M276.1,96.6c0-0.3,0-0.6,0-0.9c0,0,0-0.1-0.1-0.1c0,0-0.1,0-0.1,0.1c0,0.3,0,0.6,0,0.9
								C275.9,96.7,276,96.7,276.1,96.6z"/>
							<path id="Path_1271_" class="st25" d="M276,95.1c0-0.2,0-0.3,0-0.5c0-0.2-0.1-0.3-0.2-0.5c-0.1-0.1-0.2,0-0.1,0.1
								c0.1,0.1,0.2,0.3,0.2,0.4c0,0.2,0,0.3,0.1,0.5C275.8,95.1,275.9,95.1,276,95.1z"/>
							<path id="Path_1270_" class="st25" d="M275.3,93.3c-0.1-0.4-0.3-0.7-0.5-1c-0.1-0.1-0.2,0-0.1,0.1c0.2,0.3,0.4,0.6,0.5,1
								C275.2,93.4,275.3,93.4,275.3,93.3z"/>
							<path id="Path_1269_" class="st25" d="M270.2,101c0.3,0.1,0.7,0.1,1,0.1c0,0,0.1,0,0.1-0.1c0,0,0-0.1-0.1-0.1
								c-0.3,0-0.7-0.1-1-0.1C270.2,100.8,270.2,100.8,270.2,101C270.2,100.9,270.2,101,270.2,101L270.2,101z"/>
							<path id="Path_1268_" class="st25" d="M268.4,100.2c0.1,0.1,0.2,0.1,0.3,0.1c0.1,0,0.2,0.1,0.3,0.1c0.2,0.1,0.4,0.2,0.6,0.2
								c0,0,0.1,0,0.1,0c0,0,0-0.1,0-0.1c-0.2-0.1-0.4-0.2-0.6-0.3c-0.1,0-0.2-0.1-0.3-0.1c-0.1,0-0.2-0.1-0.3-0.1
								C268.4,100.1,268.3,100.1,268.4,100.2C268.3,100.2,268.3,100.2,268.4,100.2L268.4,100.2z"/>
							<path id="Path_1267_" class="st25" d="M267.4,99.5c0.1,0.1,0.3,0.2,0.4,0.3c0.1,0.1,0.2-0.1,0.1-0.1
								c-0.1-0.1-0.3-0.2-0.4-0.3c-0.1-0.1-0.3-0.2-0.4-0.3c0,0,0,0-0.1,0s0,0,0,0.1C267.1,99.3,267.3,99.4,267.4,99.5z"/>
							<path id="Path_1266_" class="st25" d="M266.2,98.5l0.4,0.4c0.1,0.1,0.2,0,0.1-0.1l-0.4-0.4C266.3,98.5,266.3,98.5,266.2,98.5
								z"/>
							<path id="Path_1265_" class="st25" d="M274.1,100.7c0-0.1,0.1-0.2,0.1-0.4c0.1-0.1,0.1-0.2,0.2-0.3c0.1-0.1,0.2-0.1,0.3-0.2
								c0.1,0,0.3,0,0.4-0.1c0,0,0.1-0.1,0-0.1c-0.1-0.1-0.3,0-0.4,0c-0.2,0-0.3,0.1-0.4,0.2c-0.2,0.2-0.5,0.5-0.4,0.9
								C273.9,100.8,274.1,100.9,274.1,100.7z"/>
							<path id="Path_1264_" class="st10" d="M273.7,97c0.3-0.2,0.5-0.4,0.8-0.6c0,0,0-0.1-0.1-0.1c-0.3,0.2-0.6,0.4-0.8,0.6
								C273.5,97,273.6,97.1,273.7,97z"/>
							<path id="Path_1263_" class="st10" d="M272.6,97.3c0.4-0.3,0.7-0.6,1.1-0.9c0.1,0,0-0.2-0.1-0.1c-0.4,0.3-0.8,0.6-1.1,0.9
								C272.4,97.3,272.5,97.4,272.6,97.3z"/>
							<path id="Path_1262_" class="st10" d="M273.1,96.4c0.3-0.2,0.5-0.4,0.8-0.6c0.1-0.1,0-0.2-0.1-0.1c-0.3,0.2-0.5,0.4-0.8,0.6
								C272.9,96.3,273,96.4,273.1,96.4z"/>
							<path id="Path_1261_" class="st10" d="M270.7,97.3c0.4-0.3,0.7-0.6,1.1-0.9l0.5-0.4c0.2-0.2,0.4-0.3,0.5-0.5
								c0-0.1,0-0.1-0.1-0.1c-0.2,0.1-0.4,0.3-0.5,0.4l-0.6,0.4c-0.4,0.3-0.8,0.6-1.1,0.9C270.6,97.2,270.7,97.4,270.7,97.3z"/>
							<path id="Path_1260_" class="st10" d="M272.3,95.3c0.2-0.2,0.4-0.3,0.6-0.5c0,0,0-0.2-0.1-0.1c-0.2,0.1-0.5,0.3-0.7,0.5
								c0,0,0,0.1,0,0.1S272.2,95.3,272.3,95.3z"/>
							<path id="Path_1259_" class="st10" d="M270.9,96.3c0.2-0.2,0.5-0.4,0.7-0.6c0.1,0,0-0.1-0.1-0.1c-0.2,0.2-0.5,0.4-0.7,0.5
								C270.7,96.3,270.8,96.4,270.9,96.3z"/>
							<path id="Path_1258_" class="st13" d="M273.1,95.3c0.1-0.1,0.2-0.2,0.3-0.3c0,0,0-0.1-0.1-0.1c-0.1,0.1-0.2,0.2-0.4,0.2
								C272.9,95.3,273.1,95.4,273.1,95.3z"/>
							<path id="Path_1257_" class="st13" d="M273.9,96.3c0.1-0.1,0.2-0.2,0.2-0.3c0,0,0-0.1,0-0.1c-0.1,0-0.2,0.1-0.3,0.2
								C273.7,96.2,273.8,96.4,273.9,96.3z"/>
							<path id="Path_1256_" class="st13" d="M271.8,95.7c0.1-0.1,0.2-0.2,0.3-0.3c0,0,0-0.1-0.1-0.1c-0.1,0.1-0.2,0.1-0.3,0.2
								C271.6,95.6,271.7,95.7,271.8,95.7z"/>
							<path id="Path_1255_" class="st13" d="M271.6,97.5c0.2-0.1,0.4-0.3,0.6-0.5s0.4-0.3,0.6-0.5c0.1-0.1,0-0.2-0.1-0.1
								c-0.2,0.1-0.4,0.3-0.6,0.5s-0.4,0.3-0.6,0.5C271.4,97.5,271.5,97.6,271.6,97.5z"/>
							<path id="Path_1254_" class="st23" d="M280.7,106c0,0,0.1,0,0.1,0c0.1,0,0.1,0,0.1,0.1c0,0.2,0.2,0.3,0.3,0.2c0,0,0,0,0,0.1
								c0,0,0,0.1,0,0.1c0,0.1,0.1,0.1,0.2,0.1c0.1,0,0.2,0,0.2,0c0,0,0,0,0,0c0,0,0,0.1-0.1,0.1c0,0.1,0.1,0.2,0.1,0.1
								c0.1-0.1,0.2-0.4,0-0.4c-0.1,0-0.2,0.1-0.3,0c-0.1,0,0-0.2,0-0.3c-0.1-0.1-0.1-0.1-0.2,0c-0.1,0-0.1,0-0.1,0c0,0,0-0.1,0-0.1
								c0-0.1-0.1-0.1-0.2-0.2c0,0-0.2,0-0.3,0c0-0.1-0.2-0.2-0.2,0C280.5,105.8,280.6,105.9,280.7,106z"/>
							<path id="Path_1253_" class="st23" d="M278.6,107.5c0,0,0.1,0.1,0.1,0.1c0.1,0,0.1,0,0.1,0.1c-0.1,0.2,0,0.3,0.2,0.4
								c0,0,0,0,0,0.1c0,0,0,0.1,0,0.1c0,0.1,0,0.1,0.1,0.2c0.1,0.1,0.1,0.1,0.2,0.1c0,0,0,0,0,0c0,0-0.1,0.1-0.1,0.1
								c-0.1,0.1,0,0.2,0.1,0.1c0.1-0.1,0.4-0.2,0.2-0.4c-0.1-0.1-0.3,0-0.3-0.1c0-0.1,0.1-0.2,0.1-0.2c0-0.1-0.1-0.1-0.2-0.1
								c-0.1,0-0.1,0-0.1-0.1c0,0,0-0.1,0-0.1c0-0.1,0-0.2-0.1-0.2c0,0-0.2-0.1-0.2-0.1c0.1-0.1-0.1-0.2-0.2-0.1
								C278.5,107.3,278.5,107.5,278.6,107.5z"/>
							<path id="Path_1252_" class="st23" d="M278.9,103.9c0.2,0,0.3,0,0.5,0c0.1,0,0.2-0.1,0.2,0c0,0,0.1,0.1,0.1,0.2
								c0.1,0.1,0.2,0.1,0.3,0c0,0,0.1-0.1,0.1-0.1c0,0,0,0.2,0.1,0.2c0.1,0.1,0.2,0.1,0.3,0.1c0.1,0,0.1-0.1,0.2-0.1
								c0,0,0.1-0.1,0.1-0.1c0.1,0,0.1,0.1,0.1,0.1c0.1,0.1,0.1,0.2,0.3,0.2c0.1,0,0.1-0.1,0.2-0.1c0.1,0,0.1,0.2,0.2,0.2
								c0,0.1,0.1,0.1,0.1,0c0-0.2,0-0.3-0.2-0.4c-0.1,0-0.1,0-0.2,0c0,0-0.1,0-0.1,0.1c-0.1,0-0.1,0-0.1-0.1
								c-0.1-0.1-0.1-0.3-0.3-0.2c-0.1,0-0.1,0.1-0.2,0.1c0,0-0.1,0.1-0.2,0.1c0-0.1,0-0.1-0.1-0.2c0-0.1-0.1-0.1-0.2-0.1
								c-0.1,0-0.1,0-0.2,0.1c0,0-0.1,0.1-0.1,0.1s-0.1-0.1-0.1-0.1c-0.1-0.1-0.2-0.2-0.3-0.2c-0.1,0-0.2,0.1-0.3,0.1
								c-0.1,0-0.2,0-0.3,0C278.8,103.7,278.8,103.9,278.9,103.9z"/>
							<path id="Path_1251_" class="st23" d="M277.5,108.1c0.1-0.2,0.5-0.5,0.2-0.7c0,0-0.1,0-0.2-0.1c-0.1,0-0.1-0.1-0.1-0.2
								c0-0.1,0.1-0.3,0.1-0.4c0-0.1,0-0.2-0.2-0.2c0,0-0.1,0-0.1,0l0,0c0,0,0,0,0,0c0,0,0-0.1,0-0.1c0-0.1,0-0.1,0-0.1
								c0-0.1,0.1-0.3-0.1-0.3c-0.1,0-0.1,0-0.1-0.1c0-0.1,0.1-0.2,0.1-0.2c0.1-0.1-0.1-0.2-0.2-0.1c-0.1,0.1-0.2,0.3-0.2,0.4
								c0,0.1,0,0.1,0.1,0.2c0,0,0.1,0,0.1,0.1c0,0,0,0,0,0l0,0c0,0.1,0,0.2,0,0.3c0,0.1,0,0.2,0,0.2c0.1,0.1,0.2,0.1,0.3,0.1
								c0,0.2-0.2,0.5,0,0.7c0.1,0.1,0.2,0.1,0.3,0.2c0,0,0.1,0,0,0.1c0,0,0,0.1-0.1,0.1c0,0.1-0.1,0.2-0.1,0.2
								C277.3,108,277.4,108.2,277.5,108.1z"/>
							<path id="Path_1250_" class="st23" d="M276,108.7c0-0.1,0.1-0.1,0.1-0.2c0-0.1,0.1-0.1,0.1-0.2c0-0.1-0.1-0.1-0.1-0.2
								c0,0,0,0,0,0c0,0,0.1,0,0.1,0c0.1,0,0.2-0.2,0.1-0.3c0-0.1-0.1-0.1-0.1-0.2c0,0-0.2-0.3-0.2-0.3c0.1,0,0.1-0.2,0-0.2
								c-0.2,0-0.2,0.3-0.1,0.4c0.1,0.1,0.2,0.2,0.2,0.3c0,0.1,0,0.1,0,0.1c0,0-0.1,0-0.1,0c-0.1,0-0.1,0.1-0.1,0.2
								c0,0.1,0.1,0.1,0.1,0.2c0,0.1-0.1,0.2-0.1,0.2c0,0.1,0,0.2,0,0.2C275.9,108.9,276,108.8,276,108.7z"/>
							<path id="Path_1249_" class="st23" d="M274.6,107.5c0.1,0.1,0.2,0,0.2-0.1c0-0.1-0.1-0.1-0.1-0.2c0-0.1,0.1-0.1,0.1-0.2
								c0.1-0.1,0.1-0.1,0.1-0.2c0-0.1-0.1-0.2-0.1-0.3c0-0.1-0.1-0.1,0-0.2c0.1,0,0.1,0,0.2,0c0.2,0,0.4-0.2,0.3-0.4
								c0-0.1-0.1-0.3-0.1-0.4c0-0.1,0-0.1,0.1-0.1c0.1,0,0.1,0,0.2-0.1c0.1-0.1,0-0.2-0.1-0.2c-0.1,0-0.3,0-0.3,0.1
								c-0.1,0.1,0,0.2,0,0.3c0,0.1,0,0.2,0.1,0.2c0,0.1,0.1,0.1,0,0.2c-0.1,0.1-0.3,0-0.4,0.1c-0.2,0.2,0,0.4,0,0.6
								c0,0.1-0.1,0.1-0.1,0.2c0,0-0.1,0.1-0.1,0.1C274.5,107.3,274.5,107.4,274.6,107.5z"/>
						</g>
					</g>
				</g>
			</g>
		</g>
		<g>
			<g>
				<defs>
					<path id="XMLID_121_" d="M251.9,90.9c0.1-0.6-0.3-1.2-0.9-1.3c-0.6-0.1-1.1,0.3-1.2,0.9c-0.6-0.1-1.1,0.3-1.2,0.9
						c-0.1,0.6,0.3,1.1,1,1.2l2,0.3c0,0,0.1,0,0.1-0.1L251.9,90.9z"/>
				</defs>
				<clipPath id="XMLID_189_">
					<use xlink:href="#XMLID_121_"  style="overflow:visible;"/>
				</clipPath>
			</g>
			<g>
				<defs>
					<path id="XMLID_120_" d="M288.7,99.7c-0.1,0.6,0.4,1.2,0.9,1.2c0.6,0.1,1.1-0.4,1.2-0.9c0.6,0.1,1.1-0.4,1.2-0.9
						c0.1-0.6-0.3-1.1-1-1.2l-2-0.2c0,0-0.1,0-0.1,0.1L288.7,99.7z"/>
				</defs>
				<clipPath id="XMLID_190_">
					<use xlink:href="#XMLID_120_"  style="overflow:visible;"/>
				</clipPath>
			</g>
			<g>
				<defs>
					<path id="XMLID_119_" d="M256.4,86.4c0.1-0.8-0.4-1.5-1.1-1.5c-0.7-0.1-1.4,0.4-1.5,1.1c-0.7-0.1-1.4,0.4-1.5,1.1
						c-0.1,0.7,0.4,1.4,1.2,1.5l2.5,0.3c0,0,0.1,0,0.1-0.1L256.4,86.4z"/>
				</defs>
				<clipPath id="XMLID_191_">
					<use xlink:href="#XMLID_119_"  style="overflow:visible;"/>
				</clipPath>
			</g>
			<g>
				<defs>
					<path id="XMLID_106_" d="M284.3,104c-0.1,0.8,0.4,1.5,1.1,1.5c0.7,0.1,1.4-0.4,1.5-1.1c0.7,0.1,1.4-0.4,1.5-1.1
						c0.1-0.7-0.4-1.4-1.2-1.5l-2.5-0.3c0,0-0.1,0-0.1,0.1L284.3,104z"/>
				</defs>
				<clipPath id="XMLID_192_">
					<use xlink:href="#XMLID_106_"  style="overflow:visible;"/>
				</clipPath>
			</g>
		</g>
	</g>
</g>
</svg>
