<?xml version="1.0" encoding="utf-8"?>
<!-- Generator: Adobe Illustrator 24.0.1, SVG Export Plug-In . SVG Version: 6.00 Build 0)  -->
<svg version="1.1" id="Layer_3" xmlns="http://www.w3.org/2000/svg" xmlns:xlink="http://www.w3.org/1999/xlink" x="0px" y="0px"
	 viewBox="0 0 383 200.3" style="enable-background:new 0 0 383 200.3;" xml:space="preserve">
<style type="text/css">
	.st0{fill:#EEEFED;}
	.st1{opacity:0.13;}
	.st2{fill:none;stroke:#999999;stroke-width:0.2348;stroke-miterlimit:10;}
	.st3{fill:#EEEFED;stroke:#999999;stroke-width:0.2348;stroke-miterlimit:10;}
	.st4{fill:#CCCCCC;stroke:#999999;stroke-width:0.2348;stroke-miterlimit:10;}
	.st5{fill:none;stroke:#999999;stroke-width:0.2348;stroke-miterlimit:10;stroke-dasharray:1.8784;}
	.st6{fill:none;stroke:#000000;stroke-width:1.2;stroke-miterlimit:10;}
	.st7{fill:#E72B78;}
	.st8{fill:#F9B443;}
	.st9{fill:none;stroke:#000000;stroke-width:1.414;stroke-miterlimit:10;}
	.st10{fill:#FFFFFF;}
	.st11{fill:#FFFFFF;stroke:#000000;stroke-width:0.6858;stroke-miterlimit:10;}
	.st12{opacity:0.91;}
	.st13{fill:#FF3369;}
	.st14{fill:#FFAE00;}
	.st15{fill:#723F33;}
	.st16{opacity:0.28;fill:#542C1C;enable-background:new    ;}
	.st17{opacity:0.6;fill:#603826;enable-background:new    ;}
	.st18{fill:#603826;}
	.st19{opacity:0.4;fill:#603826;enable-background:new    ;}
	.st20{fill:#F4F4F4;}
	.st21{fill:#DBDDDC;}
	.st22{fill:#B2B2B2;}
	.st23{fill:#E09220;}
	.st24{opacity:0.28;fill:#603826;enable-background:new    ;}
	.st25{fill:#C40E50;}
	.st26{fill:#FFFFFF;stroke:#000000;stroke-width:0.9534;stroke-miterlimit:10;}
	.st27{clip-path:url(#XMLID_5_);}
	.st28{clip-path:url(#XMLID_40_);}
	.st29{fill:#FFB53F;}
	.st30{fill:none;stroke:url(#SVGID_1_);stroke-width:0.3757;stroke-miterlimit:10;}
	.st31{fill:#0E0E0E;}
	.st32{fill:#010101;}
	.st33{fill:#E5E5E5;}
	.st34{fill:#EAEAEA;}
	.st35{fill:#E8E8E8;}
	.st36{fill:#FFFFFF;stroke:#000000;stroke-width:0.327;stroke-miterlimit:10;}
	.st37{opacity:0.44;}
	.st38{fill:#EA9628;}
	.st39{fill:#0D48CC;}
	.st40{fill:#AA0550;}
	.st41{fill:#BC1B5C;}
	.st42{fill:#DD891B;}
	.st43{fill:#002A75;}
	.st44{fill:#06307A;}
	.st45{fill:#CCCCCC;}
	.st46{font-family:'Exo2-Bold';}
	.st47{font-size:4.696px;}
	.st48{fill:#71399F;}
	.st49{fill:#03347A;}
	.st50{fill:none;stroke:#EEEFED;stroke-width:3.1536;stroke-miterlimit:10;}
	.st51{opacity:0.24;fill:#56330A;}
	.st52{stroke:#000000;stroke-width:2.0888;stroke-miterlimit:10;}
	.st53{fill:#EEEFED;stroke:#000000;stroke-width:2.0888;stroke-miterlimit:10;}
	.st54{stroke:#000000;stroke-width:1.7;stroke-miterlimit:10;}
	.st55{fill:#EEEFED;stroke:#000000;stroke-width:1.7;stroke-miterlimit:10;}
	.st56{stroke:#000000;stroke-width:1.3;stroke-miterlimit:10;}
	.st57{fill:#EEEFED;stroke:#000000;stroke-width:1.3;stroke-miterlimit:10;}
	.st58{stroke:#000000;stroke-width:2;stroke-miterlimit:10;}
	.st59{stroke:#000000;stroke-width:1.912;stroke-miterlimit:10;}
	.st60{fill:none;stroke:#000000;stroke-width:1.912;stroke-miterlimit:10;}
	.st61{clip-path:url(#XMLID_211_);}
	.st62{clip-path:url(#XMLID_212_);}
	.st63{fill:none;stroke:url(#SVGID_2_);stroke-width:0.2702;stroke-miterlimit:10;}
	.st64{stroke:#000000;stroke-width:0.5;stroke-miterlimit:10;}
	.st65{fill:#FFFFFF;stroke:#000000;stroke-width:0.8987;stroke-miterlimit:10;}
	.st66{stroke:#000000;stroke-width:1.2;stroke-miterlimit:10;}
	.st67{fill:#EEEFED;stroke:#000000;stroke-width:1.2;stroke-miterlimit:10;}
	.st68{fill:#EEEFED;stroke:#000000;stroke-width:2;stroke-miterlimit:10;}
	.st69{fill:#EEEFED;stroke:#000000;stroke-width:1.912;stroke-miterlimit:10;}
</style>
<path class="st0" d="M357.5,193.1H25.6c-10.6,0-19.3-8.7-19.3-19.3V24.6C6.2,14,14.9,5.2,25.6,5.2h331.9c10.6,0,19.3,8.7,19.3,19.3
	v149.1C376.8,184.4,368.1,193.1,357.5,193.1z"/>
<rect x="128.2" y="51.9" class="st2" width="21.1" height="11.8"/>
<polygon class="st3" points="136.7,27.6 136.7,21.4 141.1,21.4 141.1,27.6 "/>
<polyline class="st4" points="125.9,40.1 125.9,39.8 125.5,39.8 125.7,38.3 138.9,25.5 152.2,38.7 152.2,39.8 151.7,39.6 
	151.7,40.1 149.3,40.1 "/>
<line class="st5" x1="136.9" y1="99" x2="136.9" y2="115.1"/>
<line class="st5" x1="51.7" y1="92.5" x2="51.7" y2="105.5"/>
<rect x="196.3" y="28.9" class="st7" width="4.6" height="7"/>
<rect x="228.9" y="28.9" transform="matrix(-1 -1.224647e-16 1.224647e-16 -1 462.9737 64.8838)" class="st7" width="5.3" height="7"/>
<rect x="196.3" y="33.8" class="st7" width="37.9" height="51.5"/>
<rect x="196.3" y="33.8" class="st8" width="37.9" height="13.9"/>
<rect x="196.3" y="47.7" class="st38" width="37.9" height="1.5"/>
<rect x="201.9" y="50.6" class="st10" width="4.7" height="8.5"/>
<rect x="212.4" y="50.6" class="st10" width="4.7" height="8.5"/>
<rect x="224.2" y="50.6" class="st10" width="4.7" height="8.5"/>
<rect x="201.9" y="64" class="st10" width="4.7" height="8.5"/>
<rect x="211.7" y="63.4" class="st39" width="6.8" height="12.6"/>
<rect x="224.2" y="64" class="st10" width="4.7" height="8.5"/>
<rect x="190" y="75.9" class="st40" width="50.3" height="9.3"/>
<rect x="252.6" y="28.9" class="st8" width="4.6" height="7"/>
<rect x="285.1" y="28.9" transform="matrix(-1 -1.224647e-16 1.224647e-16 -1 575.5609 64.8838)" class="st8" width="5.3" height="7"/>
<rect x="252.6" y="33.8" class="st8" width="37.9" height="51.5"/>
<rect x="252.6" y="33.8" class="st7" width="37.9" height="13.9"/>
<rect x="252.6" y="47.7" class="st41" width="37.9" height="1.5"/>
<rect x="258.2" y="50.6" class="st10" width="4.7" height="8.5"/>
<rect x="268.7" y="50.6" class="st10" width="4.7" height="8.5"/>
<rect x="280.5" y="50.6" class="st10" width="4.7" height="8.5"/>
<rect x="258.2" y="64" class="st10" width="4.7" height="8.5"/>
<rect x="268" y="63.4" class="st39" width="6.8" height="12.6"/>
<rect x="280.5" y="64" class="st10" width="4.7" height="8.5"/>
<rect x="246.3" y="75.9" class="st42" width="50.3" height="9.3"/>
<rect x="308.9" y="28.9" class="st39" width="4.6" height="7"/>
<rect x="341.4" y="28.9" transform="matrix(-1 -1.224647e-16 1.224647e-16 -1 688.148 64.8838)" class="st39" width="5.3" height="7"/>
<rect x="308.9" y="33.8" class="st39" width="37.9" height="51.5"/>
<rect x="308.9" y="33.8" class="st8" width="37.9" height="13.9"/>
<rect x="308.9" y="47.7" class="st38" width="37.9" height="1.5"/>
<rect x="314.4" y="50.6" class="st10" width="4.7" height="8.5"/>
<rect x="325" y="50.6" class="st10" width="4.7" height="8.5"/>
<rect x="336.8" y="50.6" class="st10" width="4.7" height="8.5"/>
<rect x="314.4" y="64" class="st10" width="4.7" height="8.5"/>
<rect x="324.3" y="63.4" class="st8" width="6.8" height="12.6"/>
<rect x="336.8" y="64" class="st10" width="4.7" height="8.5"/>
<rect x="302.5" y="75.9" class="st43" width="50.3" height="9.3"/>
<rect x="196.3" y="103.3" class="st7" width="4.6" height="7"/>
<rect x="228.9" y="103.3" transform="matrix(-1 -1.224647e-16 1.224647e-16 -1 462.9737 213.5683)" class="st7" width="5.3" height="7"/>
<rect x="196.3" y="108.1" class="st7" width="37.9" height="51.5"/>
<rect x="196.3" y="108.1" class="st39" width="37.9" height="13.9"/>
<rect x="196.3" y="122" class="st44" width="37.9" height="1.5"/>
<rect x="201.9" y="124.9" class="st10" width="4.7" height="8.5"/>
<rect x="212.4" y="124.9" class="st10" width="4.7" height="8.5"/>
<rect x="224.2" y="124.9" class="st10" width="4.7" height="8.5"/>
<rect x="201.9" y="138.3" class="st10" width="4.7" height="8.5"/>
<rect x="211.7" y="137.7" class="st8" width="6.8" height="12.6"/>
<rect x="224.2" y="138.3" class="st10" width="4.7" height="8.5"/>
<rect x="190" y="150.2" class="st40" width="50.3" height="9.3"/>
<rect x="252.6" y="103.3" class="st8" width="4.6" height="7"/>
<rect x="285.1" y="103.3" transform="matrix(-1 -1.224647e-16 1.224647e-16 -1 575.5609 213.5683)" class="st8" width="5.3" height="7"/>
<rect x="252.6" y="108.1" class="st8" width="37.9" height="51.5"/>
<rect x="252.6" y="108.1" class="st39" width="37.9" height="13.9"/>
<rect x="252.6" y="122" class="st44" width="37.9" height="1.5"/>
<rect x="258.2" y="124.9" class="st10" width="4.7" height="8.5"/>
<rect x="268.7" y="124.9" class="st10" width="4.7" height="8.5"/>
<rect x="280.5" y="124.9" class="st10" width="4.7" height="8.5"/>
<rect x="258.2" y="138.3" class="st10" width="4.7" height="8.5"/>
<rect x="268" y="137.7" class="st7" width="6.8" height="12.6"/>
<rect x="280.5" y="138.3" class="st10" width="4.7" height="8.5"/>
<rect x="246.3" y="150.2" class="st42" width="50.3" height="9.3"/>
<rect x="308.9" y="103.3" class="st39" width="4.6" height="7"/>
<rect x="341.4" y="103.3" transform="matrix(-1 -1.224647e-16 1.224647e-16 -1 688.148 213.5683)" class="st39" width="5.3" height="7"/>
<rect x="308.9" y="108.1" class="st39" width="37.9" height="51.5"/>
<rect x="308.9" y="108.1" class="st8" width="37.9" height="13.9"/>
<rect x="308.9" y="122" class="st38" width="37.9" height="1.5"/>
<rect x="314.4" y="124.9" class="st10" width="4.7" height="8.5"/>
<rect x="325" y="124.9" class="st10" width="4.7" height="8.5"/>
<rect x="336.8" y="124.9" class="st10" width="4.7" height="8.5"/>
<rect x="314.4" y="138.3" class="st10" width="4.7" height="8.5"/>
<rect x="324.3" y="137.7" class="st7" width="6.8" height="12.6"/>
<rect x="336.8" y="138.3" class="st10" width="4.7" height="8.5"/>
<rect x="302.5" y="150.2" class="st43" width="50.3" height="9.3"/>
<rect x="76.5" y="22.4" class="st4" width="4" height="6.2"/>
<rect x="105.5" y="22.4" transform="matrix(-1 -1.224647e-16 1.224647e-16 -1 215.5856 50.9585)" class="st4" width="4.7" height="6.2"/>
<rect x="76.5" y="26.7" class="st2" width="33.6" height="45.7"/>
<rect x="76.5" y="26.7" class="st3" width="33.6" height="12.4"/>
<rect x="76.5" y="39" class="st4" width="33.6" height="1.4"/>
<rect x="81.5" y="41.6" class="st2" width="4.1" height="7.6"/>
<rect x="90.9" y="41.6" class="st2" width="4.1" height="7.6"/>
<rect x="101.3" y="41.6" class="st2" width="4.1" height="7.6"/>
<rect x="81.5" y="53.5" class="st2" width="4.1" height="7.6"/>
<rect x="90.2" y="52.9" class="st4" width="6" height="11.1"/>
<rect x="101.3" y="53.5" class="st2" width="4.1" height="7.6"/>
<rect x="71.6" y="64" class="st4" width="43.1" height="8.3"/>
<polygon class="st3" points="34.6,64 34.6,39 45.3,28.6 45.3,22.4 49.5,22.4 49.5,28.6 59.9,39 59.9,64.5 "/>
<rect x="30.2" y="63.8" class="st4" width="34.4" height="8.1"/>
<polygon class="st4" points="29.9,127 51.7,105.5 55.6,103.9 55.6,105.4 57,105.2 41.6,120.2 34.6,127.6 "/>
<polygon class="st4" points="46.2,142.8 46.2,166.1 30,150.2 30,127 37,124.6 37,121 39.4,118.4 42.4,120.8 39.7,123.6 39.7,127.2 
	"/>
<polygon class="st2" points="46.2,142.8 67.9,121.6 67.9,144.5 46.2,166 "/>
<line class="st2" x1="67.9" y1="109.1" x2="67.9" y2="143.9"/>
<polygon class="st4" points="55.5,101.7 58.3,99.2 61.4,102.5 58.5,104.5 "/>
<polygon class="st2" points="57,105.2 58.5,108.2 61.2,105.9 67.9,121.6 46.2,142.8 39.6,127.2 39.6,123.6 42.4,120.8 41.6,120.2 
	"/>
<polygon class="st2" points="55.5,101.7 55.6,105.4 57,105.2 58.5,108.2 58.5,104.5 "/>
<polygon class="st2" points="58.5,108.2 61.2,105.9 61.4,102.5 58.5,104.5 "/>
<polygon class="st4" points="46.2,144.6 67.9,123.2 67.9,121.6 46.2,142.8 "/>
<polygon class="st2" points="48.9,142.8 48.9,150.4 52.5,147.3 52.3,139.4 "/>
<polygon class="st2" points="55.2,136.6 55.2,144.2 58.8,141.1 58.6,133.2 "/>
<polygon class="st2" points="61.6,130.3 61.6,137.9 65.2,134.9 65,127 "/>
<polygon class="st2" points="48.9,153.2 48.9,160.8 52.5,157.4 52.3,149.9 "/>
<polygon class="st4" points="55.2,147 55.2,157.1 58.8,153.5 58.6,143.7 "/>
<polygon class="st2" points="61.6,140.8 61.6,148.4 65.1,144.9 65,137.4 "/>
<line class="st5" x1="46.2" y1="130.1" x2="46.2" y2="165.4"/>
<polygon class="st2" points="42.2,124.6 42.4,120.8 39.6,123.6 39.6,127.2 "/>
<line class="st2" x1="29.9" y1="113.9" x2="29.9" y2="150.6"/>
<polygon class="st2" points="39.6,123.6 36.9,121 39.4,118.4 42.4,120.8 "/>
<polygon class="st4" points="109.8,151.9 109.9,129 117.9,124.6 118.2,118.8 121.4,120.7 121.4,126 129.4,140 129.4,163.2 "/>
<polygon class="st2" points="129.4,141.7 155.9,126.4 155.9,148 129.4,163.2 "/>
<polygon class="st2" points="129.4,141.7 129.4,140 155.9,125.1 155.9,126.4 "/>
<polygon class="st4" points="118.1,118.8 121.3,117 124.6,118.9 121.4,120.8 "/>
<polygon class="st2" points="124.6,118.9 124.6,124.2 121.4,126 121.4,120.8 "/>
<polygon class="st2" points="124.6,120.6 142.6,110.1 144.4,113 147.8,111.1 155.9,125.1 129.4,140 121.4,126 124.6,124.2 "/>
<polygon class="st2" points="141,111.1 141,105.7 144.4,107.7 144.3,112.7 142.6,110.1 "/>
<polygon class="st4" points="141,105.6 144.6,103.7 147.5,105.4 144.4,107.7 "/>
<polygon class="st2" points="147.5,105.4 147.8,111.1 144.3,112.9 144.4,107.7 "/>
<path class="st2" d="M133.5,140.1c0,0-0.1,7,0,7s3.2-1.8,3.2-1.8v-7.1L133.5,140.1z"/>
<path class="st2" d="M141.4,135.6c0,0-0.1,7,0,7c0.1-0.1,3.2-1.8,3.2-1.8v-7.1L141.4,135.6z"/>
<path class="st2" d="M149,131.1c0,0-0.1,7,0,7s3.2-1.8,3.2-1.8v-7.1L149,131.1z"/>
<path class="st2" d="M133.6,151.3c0,0-0.1,7,0,7c0.1-0.1,3.2-1.8,3.2-1.8v-7.1L133.6,151.3z"/>
<path class="st2" d="M149.1,142.1c0,0-0.1,7,0,7c0.1-0.1,3.2-1.8,3.2-1.8v-7.1L149.1,142.1z"/>
<path class="st4" d="M140.8,156.7c0-0.2-0.1-10.1-0.1-10.1l4.4-2.3l0.1,9.9L140.8,156.7z"/>
<polyline class="st5" points="109.8,151.9 110,114.1 136.8,99 155.9,110.5 155.9,148 "/>
<line class="st2" x1="129.4" y1="125.6" x2="155.9" y2="110.5"/>
<rect x="121.3" y="63.7" class="st4" width="34.6" height="8.3"/>
<rect x="136.1" y="53.9" class="st4" width="5.4" height="9.8"/>
<rect x="128.2" y="39.2" class="st2" width="21.1" height="10.5"/>
<rect x="141.5" y="39.2" class="st4" width="0.8" height="10.5"/>
<rect x="125.9" y="40.1" class="st2" width="2.4" height="7.6"/>
<rect x="125.9" y="40.1" class="st2" width="1.2" height="7.6"/>
<rect x="125.9" y="60.4" class="st4" width="2.4" height="3.2"/>
<rect x="125.9" y="53.1" class="st2" width="2.4" height="7.3"/>
<rect x="125.9" y="53.1" class="st2" width="1.2" height="7.3"/>
<rect x="149.3" y="60.4" class="st4" width="2.4" height="3.2"/>
<rect x="149.3" y="53.1" class="st2" width="2.4" height="7.3"/>
<rect x="149.3" y="53.1" class="st2" width="1.2" height="7.3"/>
<rect x="149.3" y="40.1" class="st2" width="2.4" height="7.6"/>
<rect x="149.3" y="40.1" class="st2" width="1.2" height="7.6"/>
<polygon class="st4" points="149.3,47.7 149.3,49.7 128.2,49.7 128.2,47.7 125.9,47.7 125.9,53.1 128.2,53.1 128.2,51.9 149.3,51.9 
	149.3,53.1 151.7,53.1 151.7,47.7 "/>
<polygon class="st3" points="128.2,38.2 128.2,37.4 138.7,27.4 149.3,37.4 149.3,38.2 "/>
<path class="st0" d="M143.4,111.7l0.9,1.5l0.8-0.5c0,0,0.4,0.8,0.2,0.8c-0.1,0-1.9,0.3-2,0.2C143.4,113.7,143.4,111.7,143.4,111.7z"
	/>
<polygon class="st0" points="140.9,105.8 140.9,105.5 141.5,105.2 140.7,105.2 140.7,105.8 "/>
<path class="st0" d="M147.7,111.3l-3.6,1.9l0.3,0.3c0,0,2.5-0.9,2.6-1.1C147.1,112.2,147.7,111.3,147.7,111.3z"/>
<polygon class="st0" points="155.7,124.7 156,125.3 156.3,124.7 "/>
<polygon class="st0" points="156,124.7 156,127.1 156.9,126.2 "/>
<polygon class="st0" points="146.2,104.5 147.6,105.4 147.7,106 148.3,105.2 "/>
<path class="st0" d="M137.1,113.7l-0.6,0.4c0,0-0.1,1.2,0,1.2s0.9-0.3,0.9-0.3L137.1,113.7z"/>
<polygon class="st45" points="118.5,118.9 121.4,120.6 124.4,118.9 "/>
<polygon class="st45" points="119.7,119.6 121.5,120.6 122.5,120 "/>
<polygon class="st0" points="124.4,118.6 124.7,118.9 124.7,119.1 125.1,118.9 124.8,118.6 "/>
<polygon class="st0" points="129.1,163.1 129.4,163.3 129.8,163.1 129.8,163.5 129,163.4 "/>
<polygon class="st45" points="121.2,124.7 121.2,125.9 121.6,126.6 120.9,126.5 "/>
<polygon class="st0" points="118.4,118.4 118,118.7 118,118.5 "/>
<path class="st45" d="M118.3,119l2.9,1.7l0,0.5c0,0-2.2-1.2-2.2-1.2C119,120,118.3,119,118.3,119z"/>
<polygon class="st0" points="29.8,124.6 29.8,128.6 28.3,127.8 "/>
<path class="st45" d="M37.9,121.7l1.8,1.7l-0.1-0.8c0,0-1.4-1-1.4-1C38.1,121.6,37.9,121.7,37.9,121.7z"/>
<polygon class="st45" points="36.8,121.1 36.8,120.8 36.7,120.9 "/>
<polygon class="st0" points="42.2,120.5 42.5,120.8 42.5,121 42.6,120.9 42.5,120.5 "/>
<path class="st45" d="M39.5,125.9l0,1.4l0.2,0.5c0,0-0.7,0.2-0.7,0.2c0-0.1,0.2-1.9,0.2-1.9L39.5,125.9z"/>
<path class="st0" d="M30.1,150.5l-0.4-0.5v0.7c0,0,0.4,0,0.4,0C30.1,150.7,30.1,150.5,30.1,150.5z"/>
<polygon class="st0" points="46.4,183 46.7,183.3 47,183.1 47.1,183.5 46.3,183.5 "/>
<rect x="68" y="120.4" class="st0" width="0.6" height="1.8"/>
<rect x="68" y="108.6" class="st0" width="0.5" height="0.7"/>
<path class="st0" d="M58.1,107.7l0.4,0.7l0.3-0.3l0.2,0.4l-0.5,0.4c0,0-0.4-0.4-0.4-0.4C58.1,108.4,58.1,107.7,58.1,107.7z"/>
<polygon class="st0" points="55.7,102 55.7,105.3 57.1,105 57.3,105.4 57.5,104.8 "/>
<polygon class="st0" points="55.7,101.3 55.4,101.6 55.4,102 55,101.6 55.2,101.3 "/>
<polygon class="st0" points="55.7,102.1 55.7,102 55.8,102.1 "/>
<polyline class="st0" points="61.4,102.4 61.5,102.5 61.5,102.7 61.7,102.4 61.5,102.2 "/>
<polygon class="st45" points="59,100.1 60.4,101.7 58.9,101 "/>
<polyline class="st5" points="110,114.1 129.4,125.6 129.4,163.2 "/>
<polygon class="st5" points="29.9,113.9 46.2,130.1 67.9,109.1 51.7,92.5 "/>
<polygon class="st0" points="29.8,114 29.8,113.7 29.7,113.7 "/>
<polygon class="st0" points="59.2,100 60.6,101.5 60.7,101.3 "/>
<text transform="matrix(1 0 0 1 31.1621 78.9027)" class="st46 st47">Side elevation</text>
<text transform="matrix(1 0 0 1 76.2441 78.9027)" class="st46 st47">Front elevation</text>
<text transform="matrix(1 0 0 1 31.1621 172.8227)" class="st46 st47">Axonometric</text>
<text transform="matrix(1 0 0 1 122.2647 173.7621)" class="st46 st47">Isometric</text>
<text transform="matrix(1 0 0 1 126.0215 78.9027)" class="st46 st47">Section AA</text>
<g>
	<rect x="75.6" y="85.1" class="st4" width="32" height="24"/>
	<rect x="77.6" y="87" class="st3" width="27.8" height="20"/>
	<rect x="80.4" y="85.1" class="st3" width="3.9" height="1.9"/>
	<rect x="80.4" y="86" class="st3" width="3.9" height="1"/>
	
		<rect x="98.9" y="85.1" transform="matrix(-1 -1.224647e-16 1.224647e-16 -1 201.7018 172.0734)" class="st3" width="4" height="1.9"/>
	<rect x="98.9" y="86" transform="matrix(-1 -1.224647e-16 1.224647e-16 -1 201.7018 173.0433)" class="st3" width="4" height="1"/>
	<rect x="80.4" y="107" class="st3" width="3.9" height="1.9"/>
	<rect x="80.4" y="108" class="st3" width="3.9" height="1"/>
	
		<rect x="98.9" y="107" transform="matrix(-1 -1.224647e-16 1.224647e-16 -1 201.6614 215.9615)" class="st3" width="4" height="1.9"/>
	
		<rect x="98.9" y="108" transform="matrix(-1 -1.224647e-16 1.224647e-16 -1 201.6614 216.9314)" class="st3" width="4" height="1"/>
	<line class="st3" x1="89" y1="87" x2="89" y2="91"/>
	<line class="st3" x1="77.6" y1="94" x2="81.7" y2="94"/>
	<line class="st3" x1="86.1" y1="94" x2="94.8" y2="94"/>
	<line class="st3" x1="94.9" y1="95.7" x2="94.9" y2="87"/>
	<line class="st3" x1="94.9" y1="107" x2="94.9" y2="98.3"/>
	<line class="st3" x1="89" y1="92.6" x2="89" y2="93.9"/>
	<rect x="89.7" y="107" class="st3" width="3.9" height="2"/>
	<line class="st2" x1="86.6" y1="94" x2="86.6" y2="102.7"/>
	<line class="st2" x1="86.6" y1="102.1" x2="90.4" y2="102.1"/>
	<line class="st2" x1="86.6" y1="101.2" x2="90.4" y2="101.2"/>
	<line class="st2" x1="86.6" y1="100.2" x2="90.4" y2="100.2"/>
	<line class="st2" x1="86.6" y1="99.3" x2="90.4" y2="99.3"/>
	<line class="st2" x1="86.6" y1="98.3" x2="90.4" y2="98.3"/>
	<line class="st2" x1="86.6" y1="96.4" x2="90.3" y2="98.3"/>
	<line class="st2" x1="87.6" y1="94" x2="90.3" y2="98.2"/>
	<line class="st3" x1="90.4" y1="94" x2="90.4" y2="102.7"/>
	<line class="st3" x1="86.6" y1="107.1" x2="86.6" y2="105"/>
</g>
<text transform="matrix(1 0 0 1 80.0527 115.4945)" class="st46 st47">Floor plan</text>
</svg>
