<?xml version="1.0" encoding="utf-8"?>
<!-- Generator: Adobe Illustrator 24.0.1, SVG Export Plug-In . SVG Version: 6.00 Build 0)  -->
<svg version="1.1" id="Layer_3" xmlns="http://www.w3.org/2000/svg" xmlns:xlink="http://www.w3.org/1999/xlink" x="0px" y="0px"
	 viewBox="0 0 383 200.3" style="enable-background:new 0 0 383 200.3;" xml:space="preserve">
<style type="text/css">
	.st0{fill:#EEEFED;}
	.st1{opacity:0.13;}
	.st2{fill:none;stroke:#999999;stroke-width:0.2348;stroke-miterlimit:10;}
	.st3{fill:#EEEFED;stroke:#999999;stroke-width:0.2348;stroke-miterlimit:10;}
	.st4{fill:#CCCCCC;stroke:#999999;stroke-width:0.2348;stroke-miterlimit:10;}
	.st5{fill:none;stroke:#999999;stroke-width:0.2348;stroke-miterlimit:10;stroke-dasharray:1.8784;}
	.st6{fill:none;stroke:#000000;stroke-width:1.2;stroke-miterlimit:10;}
	.st7{fill:#E72B78;}
	.st8{fill:#F9B443;}
	.st9{fill:none;stroke:#000000;stroke-width:1.414;stroke-miterlimit:10;}
	.st10{fill:#FFFFFF;}
	.st11{fill:#FFFFFF;stroke:#000000;stroke-width:0.6858;stroke-miterlimit:10;}
	.st12{opacity:0.91;}
	.st13{fill:#FF3369;}
	.st14{fill:#FFAE00;}
	.st15{fill:#723F33;}
	.st16{opacity:0.28;fill:#542C1C;enable-background:new    ;}
	.st17{opacity:0.6;fill:#603826;enable-background:new    ;}
	.st18{fill:#603826;}
	.st19{opacity:0.4;fill:#603826;enable-background:new    ;}
	.st20{fill:#F4F4F4;}
	.st21{fill:#DBDDDC;}
	.st22{fill:#B2B2B2;}
	.st23{fill:#E09220;}
	.st24{opacity:0.28;fill:#603826;enable-background:new    ;}
	.st25{fill:#C40E50;}
	.st26{fill:#FFFFFF;stroke:#000000;stroke-width:0.9534;stroke-miterlimit:10;}
	.st27{clip-path:url(#XMLID_5_);}
	.st28{clip-path:url(#XMLID_40_);}
	.st29{fill:#FFB53F;}
	.st30{fill:none;stroke:url(#SVGID_1_);stroke-width:0.3757;stroke-miterlimit:10;}
	.st31{fill:#0E0E0E;}
	.st32{fill:#010101;}
	.st33{fill:#E5E5E5;}
	.st34{fill:#EAEAEA;}
	.st35{fill:#E8E8E8;}
	.st36{fill:#FFFFFF;stroke:#000000;stroke-width:0.327;stroke-miterlimit:10;}
	.st37{opacity:0.44;}
	.st38{fill:#EA9628;}
	.st39{fill:#0D48CC;}
	.st40{fill:#AA0550;}
	.st41{fill:#BC1B5C;}
	.st42{fill:#DD891B;}
	.st43{fill:#002A75;}
	.st44{fill:#06307A;}
	.st45{fill:#CCCCCC;}
	.st46{fill:#71399F;}
	.st47{fill:#03347A;}
	.st48{fill:none;stroke:#EEEFED;stroke-width:3.1536;stroke-miterlimit:10;}
	.st49{font-family:'Exo2-Bold';}
	.st50{font-size:8.8852px;}
	.st51{font-size:7.7804px;}
	.st52{font-family:'Exo2-Regular';}
	.st53{font-size:8.3271px;}
	.st54{opacity:0.24;fill:#56330A;}
	.st55{stroke:#000000;stroke-width:2.0888;stroke-miterlimit:10;}
	.st56{fill:#EEEFED;stroke:#000000;stroke-width:2.0888;stroke-miterlimit:10;}
	.st57{stroke:#000000;stroke-width:1.7;stroke-miterlimit:10;}
	.st58{fill:#EEEFED;stroke:#000000;stroke-width:1.7;stroke-miterlimit:10;}
	.st59{stroke:#000000;stroke-width:1.3;stroke-miterlimit:10;}
	.st60{fill:#EEEFED;stroke:#000000;stroke-width:1.3;stroke-miterlimit:10;}
	.st61{stroke:#000000;stroke-width:2;stroke-miterlimit:10;}
	.st62{stroke:#000000;stroke-width:1.912;stroke-miterlimit:10;}
	.st63{fill:none;stroke:#000000;stroke-width:1.912;stroke-miterlimit:10;}
	.st64{clip-path:url(#XMLID_211_);}
	.st65{clip-path:url(#XMLID_212_);}
	.st66{fill:none;stroke:url(#SVGID_2_);stroke-width:0.2702;stroke-miterlimit:10;}
	.st67{stroke:#000000;stroke-width:0.5;stroke-miterlimit:10;}
	.st68{fill:#FFFFFF;stroke:#000000;stroke-width:0.8987;stroke-miterlimit:10;}
	.st69{stroke:#000000;stroke-width:1.2;stroke-miterlimit:10;}
	.st70{fill:#EEEFED;stroke:#000000;stroke-width:1.2;stroke-miterlimit:10;}
	.st71{fill:#EEEFED;stroke:#000000;stroke-width:2;stroke-miterlimit:10;}
	.st72{fill:#EEEFED;stroke:#000000;stroke-width:1.912;stroke-miterlimit:10;}
</style>
<path class="st0" d="M357.4,194.1H25.6c-10.6,0-19.3-8.7-19.3-19.3V25.6c0-10.6,8.7-19.3,19.3-19.3h331.9c10.6,0,19.3,8.7,19.3,19.3
	v149.1C376.8,185.4,368.1,194.1,357.4,194.1z"/>
<path class="st7" d="M82.8,117.4c1.4-2.3,1.4-4.8,1.4-7.3c0-1.7,0-3.3,0-5c0-18.6,0-37.2,0-55.7c0-2.4,0-2.4-2.4-2.2
	c-1.5,0.1-3,0-4.5,0.1c-0.7,0-1.3,0.1-2,0.1c-0.8,0.7-1.7,0.9-2.7,0.6c-0.3,0-0.6,0.1-1,0.1c-3,1.3-6.2,1.7-9.3,2.8
	c-0.6,0.2-1.2,0.9-2,0.6c-0.2,0-0.4,0.1-0.6,0.1C58.4,52.7,56.6,53,55,54c-2.6,1.5-5.3,3-7.9,4.5c0,0.1-0.1,0.1-0.2,0.1
	c-1.8,1.8-4,3.1-6,4.6c-2.7,3.1-5.8,5.8-8.4,9c-5.4,6.7-9.3,14.2-12,22.4c-0.2,0.6-0.2,1.3-0.8,1.7c0,0.3-0.1,0.6-0.1,1
	c0.3,0.8-0.1,1.4-0.6,1.9c0,0.3-0.1,0.5-0.1,0.8c0.2,1.1-0.3,2.1-0.6,3.2c0,0.4-0.1,0.8-0.1,1.2c-0.2,2.8-0.4,5.5-0.6,8.3
	c-0.2,4,0.2,7.9,0.6,11.8c0,0.4,0.1,0.8,0.1,1.2c0.5,1,0.8,2,0.6,3.2c0,0.3,0.1,0.5,0.1,0.8c0.6,0.5,0.9,1.2,0.6,1.9
	c0,0.2,0,0.4,0.1,0.6c0.8,0.8,0.8,2,1.2,3.1c2.5,7.8,6.4,15,11.5,21.4c0.3,0.3,0.5,0.8,0.7,1.2c0,0,0,0,0,0c2.4,1.9,4.1,4.3,6.4,6.4
	c3.5,3.1,7.2,5.8,11.1,8.3c1.5,0.9,2.1,0.6,2.9-0.8"/>
<path class="st8" d="M86.3,113.9c0-0.7,0-1.4,0-2.2c0-20.7,0-41.4,0-62.2c0-1,0.1-2,0.1-2.9c0.1,0,0.2,0,0.4,0c2,0.6,4,0.8,6,0.6
	c0.8,0,1.5,0.1,2.3,0.1c0.7,0.6,1.4,1,2.4,0.5c0.6,0,1.2,0.1,1.8,0.1c0.3,0.6,0.8,0.7,1.3,0.6c0.5,0.1,1,0.1,1.4,0.2
	c0.3,0.6,0.8,0.7,1.3,0.6c0.5,0.1,1,0.1,1.4,0.2c0.2,0.5,0.4,0.7,1,0.5c1.6,0.5,3.3,1,4.9,1.5c0.2,0.4,0.5,0.7,1,0.6
	c0.2,0.1,0.4,0.1,0.7,0.2c0.2,0.4,0.4,0.7,0.9,0.6c0.2,0.1,0.4,0.1,0.7,0.2c0.1,0.5,0.4,0.7,0.9,0.6c4.5,2,8.5,4.7,12.4,7.7
	c0.1,0.4,0.4,0.7,0.9,0.7c1,0.9,2.1,1.9,3.1,2.8c0.3,0.8,0.7,1.4,1.6,1.5c0.3,0.3,0.5,0.5,0.8,0.8c0,0.7,0.4,1.1,1.1,1.2
	c0.8,0.9,1.6,1.8,2.5,2.7c0,0.5,0.2,0.8,0.7,0.8c1.2,1.7,2.4,3.4,3.6,5c0.1,1,0.5,1.7,1.4,2.1c1.9,3.2,3.6,6.6,5,10.1
	c-0.2,0.5,0.1,0.8,0.5,1c0.1,0.3,0.1,0.7,0.2,1c-0.1,0.5,0.1,0.8,0.6,1c0,0.2,0.1,0.4,0.1,0.7c-0.5,0.8,0.1,1.3,0.7,1.7
	c0.1,0.5,0.1,0.9,0.2,1.4c-0.1,0.4,0,0.7,0.4,0.8c0.1,0.5,0.1,1,0.2,1.5c-0.3,0.7,0.1,1.2,0.6,1.7c0,0.2,0.1,0.5,0.1,0.7
	c-0.1,0.7-0.3,1.4,0.5,1.7c0,0.2,0,0.5,0,0.7c-0.5,0.5-0.2,0.9,0.2,1.3c0,0.3,0.1,0.7,0.1,1c-0.3,0.8-0.4,1.5,0.5,2.1
	c0,2.1,0.1,4.1,0.1,6.2c-0.5,0.7-0.5,1.3,0,2c0,1.9-0.1,3.9-0.1,5.8c-0.9,0.5-0.6,1.4-0.5,2.1c0,0.5-0.1,1-0.1,1.5
	c-0.4,1-1,2-0.5,3.1c0,0.3-0.1,0.7-0.1,1c-0.6,0.6-1.1,1.3-0.7,2.2c0,0.4-0.1,0.7-0.1,1.1c-0.4,0.2-0.5,0.4-0.4,0.8
	c-0.1,0.6-0.2,1.2-0.3,1.8c-0.4,0.2-0.6,0.5-0.6,1c-0.1,0.3-0.1,0.7-0.2,1c-0.4,0.2-0.7,0.5-0.6,1c-0.1,0.3-0.1,0.7-0.2,1
	c-0.5,0.2-0.7,0.4-0.5,1c-0.3,1-1,0.7-1.7,0.7"/>
<path class="st39" d="M105.8,177.1c0.3,1,0.4,1.5-0.8,1.8c-1.9,0.5-3.7,1.1-5.7,1.5c-1.6,0.4-3.4,0.1-4.8,1.3c-0.7,0-1.5,0-2.2,0.1
	c-1.9-0.5-3.7-0.1-5.5,0.5c-0.4,0-0.8,0-1.3,0c-2.4-0.7-4.9-0.7-7.4-0.6c-0.7,0-1.4,0-2.2,0c-3-1-6.1-1.6-9.3-2.1
	c-0.3,0-0.5-0.1-0.8-0.1c-0.5-1-1.6-0.8-2.4-1.1c-3.1-1.3-6.3-2.5-9.5-3.8c-0.1-0.2-0.3-0.5-0.4-0.7c0.4-0.1,0.6-0.5,0.8-0.8
	l26.7-49.5c1.2-2.2,2.5-4.3,3.7-6.5c0.2,0.1,0.5,0.2,0.7,0.3"/>
<line class="st46" x1="130.5" y1="156.7" x2="130.4" y2="156.8"/>
<path class="st47" d="M88.8,118.6l-0.7,0.4l19.2,57.9c0.1,0.3,0.1,0.5,0.2,0.8c3,0.1,5.3-1.7,7.9-2.7c0.8-0.3,1.5-1.1,2.4-1.1
	c0.1-0.1,0.2-0.2,0.3-0.2c2.6-1.7,5.3-3.4,7.9-5.2c0.3-0.3,0.6-0.7,1.1-0.8c0.3-0.6,0.7-1,1.4-1c0,0,0,0,0,0c0.1-0.6,0.6-0.8,1-0.9
	c0,0,0.1,0.1,0.1,0.1l-0.1-0.1c0.1-0.4,0.4-0.7,0.8-0.8c0,0,0,0,0,0c0.1-0.4,0.3-0.7,0.8-0.8c0,0,0,0,0,0c0.3-0.8,0.8-1.3,1.6-1.5
	c0,0,0,0,0,0c0.1-0.5,0.3-0.7,0.8-0.8c0,0,0,0,0,0c1-1.3-0.5-1.8-0.8-2.7l0,0"/>
<path d="M90.6,118.6l0.9-0.7l53.4,23.6c0.7,0.3,1.6,0.5,1.7,1.4c0,0.2-0.1,0.4-0.1,0.6c-1.4,2-2.5,4.2-3.5,6.4
	c-0.1,0.2-0.2,0.3-0.3,0.5c-0.7,0.4-1.1,1.1-1.2,1.9c-0.2,0.2-0.3,0.4-0.5,0.6c-0.8,0.5-1.3,1.2-1.5,2.1c-0.1,0-0.1,0.1-0.1,0.2
	c-1,0.6-1.6,1.4-2,2.5l0.1,0.1c0,0-0.1-0.1-0.1-0.1c-0.4,0.1-0.7,0.4-0.8,0.8c0,0,0,0,0,0c-0.5,0.3-1,0.6-1.5,0.9
	c-0.1-0.3-0.3-0.5-0.6-0.5c-0.6-1.1-1.6-1.8-2.4-2.5c-9.3-8.5-18.5-17.1-27.8-25.6"/>
<circle class="st48" cx="84.9" cy="114.5" r="68.2"/>
<polygon class="st39" points="75.3,134.4 85.3,116.1 103,168.9 "/>
<polygon class="st47" points="89.2,122.1 87.4,117.2 92.2,121.6 "/>
<polygon points="98.9,126.1 88.5,116.6 117,129.2 "/>
<rect x="43.3" y="21.1" width="77.7" height="16.1"/>
<text transform="matrix(1 0 0 1 49.547 32.2789)" class="st10 st49 st50">Favourite cakes</text>
<polygon class="st7" points="82.3,118.5 84.5,114.5 84.2,102 81.5,116.9 "/>
<rect x="164.8" y="64" class="st8" width="11.2" height="11.2"/>
<text transform="matrix(1 0 0 1 179.8692 72.402)" class="st49 st51">Chocolate</text>
<rect x="164.8" y="81.5" width="11.2" height="11.2"/>
<text transform="matrix(1 0 0 1 179.8692 89.9157)" class="st49 st51">Carrot</text>
<rect x="164.8" y="99" class="st47" width="11.2" height="11.2"/>
<text transform="matrix(1 0 0 1 179.8692 107.4284)" class="st49 st51">Coffee</text>
<rect x="164.8" y="116.5" class="st39" width="11.2" height="11.2"/>
<text transform="matrix(1 0 0 1 179.8692 124.9421)" class="st49 st51">Vanilla</text>
<rect x="164.8" y="134" class="st7" width="11.2" height="11.2"/>
<text transform="matrix(1 0 0 1 179.8692 142.4548)" class="st49 st51">Red velvet</text>
<path class="st1" d="M350.5,178.3h-90.4c-3.6,0-6.6-3-6.6-6.6V37.5c0-3.6,3-6.6,6.6-6.6h90.4c3.6,0,6.6,3,6.6,6.6v134.1
	C357.2,175.3,354.2,178.3,350.5,178.3z"/>
<path class="st8" d="M340.4,169.4H250c-3.6,0-6.6-3-6.6-6.6V28.7c0-3.6,3-6.6,6.6-6.6h90.4c3.6,0,6.6,3,6.6,6.6v134.1
	C347.1,166.4,344.1,169.4,340.4,169.4z"/>
<rect x="243.4" y="46.7" class="st10" width="103.7" height="19.7"/>
<text transform="matrix(1 0 0 1 250.7706 59.0036)" class="st52 st53">Chocolate</text>
<text transform="matrix(1 0 0 1 315.7707 59.0036)" class="st52 st53">12</text>
<rect x="243.4" y="70.7" class="st10" width="103.7" height="19.7"/>
<text transform="matrix(1 0 0 1 250.7706 83.0036)" class="st52 st53">Carrot</text>
<text transform="matrix(1 0 0 1 319.303 83.0037)" class="st52 st53">2</text>
<rect x="243.4" y="95.7" class="st10" width="103.7" height="19.7"/>
<text transform="matrix(1 0 0 1 250.7706 108.0036)" class="st52 st53">Coffee</text>
<text transform="matrix(1 0 0 1 319.303 108.0037)" class="st52 st53">3</text>
<rect x="243.4" y="119.7" class="st10" width="103.7" height="19.7"/>
<text transform="matrix(1 0 0 1 250.7706 132.0036)" class="st52 st53">Vanilla</text>
<text transform="matrix(1 0 0 1 319.5505 132.0037)" class="st52 st53">5</text>
<rect x="243.4" y="143.7" class="st10" width="103.7" height="19.7"/>
<text transform="matrix(1 0 0 1 250.7706 156.0036)" class="st52 st53">Red velvet</text>
<text transform="matrix(1 0 0 1 315.7707 156.0036)" class="st52 st53">16</text>
<rect x="300.6" y="29.1" class="st54" width="0.7" height="137.3"/>
<text transform="matrix(1 0 0 1 250.7707 39.0376)" class="st49 st50">Data:</text>
</svg>
