<?xml version="1.0" encoding="utf-8"?>
<!-- Generator: Adobe Illustrator 24.0.1, SVG Export Plug-In . SVG Version: 6.00 Build 0)  -->
<svg version="1.1" id="Layer_3" xmlns="http://www.w3.org/2000/svg" xmlns:xlink="http://www.w3.org/1999/xlink" x="0px" y="0px"
	 viewBox="0 0 383 200.3" style="enable-background:new 0 0 383 200.3;" xml:space="preserve">
<style type="text/css">
	.st0{fill:#EEEFED;}
	.st1{opacity:0.13;}
	.st2{fill:none;stroke:#999999;stroke-width:0.2348;stroke-miterlimit:10;}
	.st3{fill:#EEEFED;stroke:#999999;stroke-width:0.2348;stroke-miterlimit:10;}
	.st4{fill:#CCCCCC;stroke:#999999;stroke-width:0.2348;stroke-miterlimit:10;}
	.st5{fill:none;stroke:#999999;stroke-width:0.2348;stroke-miterlimit:10;stroke-dasharray:1.8784;}
	.st6{fill:none;stroke:#000000;stroke-width:1.2;stroke-miterlimit:10;}
	.st7{fill:#E72B78;}
	.st8{fill:#F9B443;}
	.st9{fill:none;stroke:#000000;stroke-width:1.414;stroke-miterlimit:10;}
	.st10{fill:#FFFFFF;}
	.st11{fill:#FFFFFF;stroke:#000000;stroke-width:0.6858;stroke-miterlimit:10;}
	.st12{opacity:0.91;}
	.st13{fill:#FF3369;}
	.st14{fill:#FFAE00;}
	.st15{fill:#723F33;}
	.st16{opacity:0.28;fill:#542C1C;enable-background:new    ;}
	.st17{opacity:0.6;fill:#603826;enable-background:new    ;}
	.st18{fill:#603826;}
	.st19{opacity:0.4;fill:#603826;enable-background:new    ;}
	.st20{fill:#F4F4F4;}
	.st21{fill:#DBDDDC;}
	.st22{fill:#B2B2B2;}
	.st23{fill:#E09220;}
	.st24{opacity:0.28;fill:#603826;enable-background:new    ;}
	.st25{fill:#C40E50;}
	.st26{fill:#FFFFFF;stroke:#000000;stroke-width:0.9534;stroke-miterlimit:10;}
	.st27{clip-path:url(#XMLID_5_);}
	.st28{clip-path:url(#XMLID_40_);}
	.st29{fill:#FFB53F;}
	.st30{fill:none;stroke:url(#SVGID_1_);stroke-width:0.3757;stroke-miterlimit:10;}
	.st31{fill:#0E0E0E;}
	.st32{font-family:'Exo2-Regular';}
	.st33{font-size:8.3271px;}
	.st34{font-family:'Exo2-Bold';}
	.st35{font-size:8.9649px;}
	.st36{fill:#010101;}
	.st37{fill:#E5E5E5;}
	.st38{fill:#EAEAEA;}
	.st39{fill:#E8E8E8;}
	.st40{fill:#FFFFFF;stroke:#000000;stroke-width:0.327;stroke-miterlimit:10;}
	.st41{opacity:0.44;}
	.st42{fill:#EA9628;}
	.st43{fill:#0D48CC;}
	.st44{fill:#AA0550;}
	.st45{fill:#BC1B5C;}
	.st46{fill:#DD891B;}
	.st47{fill:#002A75;}
	.st48{fill:#06307A;}
	.st49{fill:#CCCCCC;}
	.st50{fill:#71399F;}
	.st51{fill:#03347A;}
	.st52{fill:none;stroke:#EEEFED;stroke-width:3.1536;stroke-miterlimit:10;}
	.st53{opacity:0.24;fill:#56330A;}
	.st54{stroke:#000000;stroke-width:2.0888;stroke-miterlimit:10;}
	.st55{fill:#EEEFED;stroke:#000000;stroke-width:2.0888;stroke-miterlimit:10;}
	.st56{stroke:#000000;stroke-width:1.7;stroke-miterlimit:10;}
	.st57{fill:#EEEFED;stroke:#000000;stroke-width:1.7;stroke-miterlimit:10;}
	.st58{stroke:#000000;stroke-width:1.3;stroke-miterlimit:10;}
	.st59{fill:#EEEFED;stroke:#000000;stroke-width:1.3;stroke-miterlimit:10;}
	.st60{stroke:#000000;stroke-width:2;stroke-miterlimit:10;}
	.st61{stroke:#000000;stroke-width:1.912;stroke-miterlimit:10;}
	.st62{fill:none;stroke:#000000;stroke-width:1.912;stroke-miterlimit:10;}
	.st63{clip-path:url(#XMLID_211_);}
	.st64{clip-path:url(#XMLID_212_);}
	.st65{fill:none;stroke:url(#SVGID_2_);stroke-width:0.2702;stroke-miterlimit:10;}
	.st66{stroke:#000000;stroke-width:0.5;stroke-miterlimit:10;}
	.st67{fill:#FFFFFF;stroke:#000000;stroke-width:0.8987;stroke-miterlimit:10;}
	.st68{stroke:#000000;stroke-width:1.2;stroke-miterlimit:10;}
	.st69{fill:#EEEFED;stroke:#000000;stroke-width:1.2;stroke-miterlimit:10;}
	.st70{fill:#EEEFED;stroke:#000000;stroke-width:2;stroke-miterlimit:10;}
	.st71{fill:#EEEFED;stroke:#000000;stroke-width:1.912;stroke-miterlimit:10;}
</style>
<path class="st0" d="M357.4,194.1H25.6c-10.6,0-19.3-8.7-19.3-19.3V25.6c0-10.6,8.7-19.3,19.3-19.3h331.9c10.6,0,19.3,8.7,19.3,19.3
	v149.1C376.8,185.4,368.1,194.1,357.4,194.1z"/>
<path class="st1" d="M246.8,182.7h-90.4c-3.6,0-6.6-3-6.6-6.6V42c0-3.6,3-6.6,6.6-6.6h90.4c3.6,0,6.6,3,6.6,6.6v134.1
	C253.5,179.7,250.5,182.7,246.8,182.7z"/>
<path class="st8" d="M236.7,173.8h-90.4c-3.6,0-6.6-3-6.6-6.6V33.1c0-3.6,3-6.6,6.6-6.6h90.4c3.6,0,6.6,3,6.6,6.6v134.1
	C243.4,170.8,240.4,173.8,236.7,173.8z"/>
<path class="st7" d="M139.6,44.2V33.1c0-3.6,3-6.6,6.6-6.6h90.4c3.6,0,6.6,3,6.6,6.6v11.1"/>
<rect x="139.6" y="44.2" class="st10" width="103.7" height="70.5"/>
<text transform="matrix(1 0 0 1 145.0686 58.4785)"><tspan x="0" y="0" class="st32 st33">cards: </tspan><tspan x="24.8" y="0" class="st34 st33">PlayingCard </tspan><tspan x="74" y="0" class="st32 st33">[ ]</tspan></text>
<text transform="matrix(1 0 0 1 145.0686 129.4787)"><tspan x="0" y="0" class="st32 st33">shuffle ( )</tspan><tspan x="0" y="10" class="st32 st33">deal (num_cards)</tspan><tspan x="0" y="20" class="st32 st33">get_cards ( )</tspan></text>
<text transform="matrix(1 0 0 1 181.1906 38.8895)" class="st10 st34 st35">Deck</text>
</svg>
