<?xml version="1.0" encoding="utf-8"?>
<!-- Generator: Adobe Illustrator 24.0.1, SVG Export Plug-In . SVG Version: 6.00 Build 0)  -->
<svg version="1.1" id="Layer_3" xmlns="http://www.w3.org/2000/svg" xmlns:xlink="http://www.w3.org/1999/xlink" x="0px" y="0px"
	 viewBox="0 0 383 200.3" style="enable-background:new 0 0 383 200.3;" xml:space="preserve">
<style type="text/css">
	.st0{fill:#EEEFED;}
	.st1{opacity:0.13;}
	.st2{fill:none;stroke:#999999;stroke-width:0.2348;stroke-miterlimit:10;}
	.st3{fill:#EEEFED;stroke:#999999;stroke-width:0.2348;stroke-miterlimit:10;}
	.st4{fill:#CCCCCC;stroke:#999999;stroke-width:0.2348;stroke-miterlimit:10;}
	.st5{fill:none;stroke:#999999;stroke-width:0.2348;stroke-miterlimit:10;stroke-dasharray:1.8784;}
	.st6{fill:none;stroke:#000000;stroke-width:1.2;stroke-miterlimit:10;}
	.st7{fill:#E72B78;}
	.st8{fill:#F9B443;}
	.st9{fill:none;stroke:#000000;stroke-width:1.414;stroke-miterlimit:10;}
	.st10{fill:#FFFFFF;}
	.st11{fill:#FFFFFF;stroke:#000000;stroke-width:0.6858;stroke-miterlimit:10;}
	.st12{font-family:'Exo2-Black';}
	.st13{font-size:8.6316px;}
	.st14{opacity:0.91;}
	.st15{fill:#FF3369;}
	.st16{fill:#FFAE00;}
	.st17{fill:#723F33;}
	.st18{opacity:0.28;fill:#542C1C;enable-background:new    ;}
	.st19{opacity:0.6;fill:#603826;enable-background:new    ;}
	.st20{fill:#603826;}
	.st21{opacity:0.4;fill:#603826;enable-background:new    ;}
	.st22{fill:#F4F4F4;}
	.st23{fill:#DBDDDC;}
	.st24{fill:#B2B2B2;}
	.st25{fill:#E09220;}
	.st26{opacity:0.28;fill:#603826;enable-background:new    ;}
	.st27{fill:#C40E50;}
	.st28{fill:#FFFFFF;stroke:#000000;stroke-width:0.9534;stroke-miterlimit:10;}
	.st29{clip-path:url(#XMLID_5_);}
	.st30{clip-path:url(#XMLID_40_);}
	.st31{fill:#FFB53F;}
	.st32{fill:none;stroke:url(#SVGID_1_);stroke-width:0.3757;stroke-miterlimit:10;}
	.st33{fill:#0E0E0E;}
	.st34{fill:#010101;}
	.st35{fill:#E5E5E5;}
	.st36{fill:#EAEAEA;}
	.st37{fill:#E8E8E8;}
	.st38{fill:#FFFFFF;stroke:#000000;stroke-width:0.327;stroke-miterlimit:10;}
	.st39{opacity:0.44;}
	.st40{fill:#EA9628;}
	.st41{fill:#0D48CC;}
	.st42{fill:#AA0550;}
	.st43{fill:#BC1B5C;}
	.st44{fill:#DD891B;}
	.st45{fill:#002A75;}
	.st46{fill:#06307A;}
	.st47{fill:#CCCCCC;}
	.st48{fill:#71399F;}
	.st49{fill:#03347A;}
	.st50{fill:none;stroke:#EEEFED;stroke-width:3.1536;stroke-miterlimit:10;}
	.st51{opacity:0.24;fill:#56330A;}
	.st52{stroke:#000000;stroke-width:2.0888;stroke-miterlimit:10;}
	.st53{fill:#EEEFED;stroke:#000000;stroke-width:2.0888;stroke-miterlimit:10;}
	.st54{stroke:#000000;stroke-width:1.7;stroke-miterlimit:10;}
	.st55{fill:#EEEFED;stroke:#000000;stroke-width:1.7;stroke-miterlimit:10;}
	.st56{stroke:#000000;stroke-width:1.3;stroke-miterlimit:10;}
	.st57{fill:#EEEFED;stroke:#000000;stroke-width:1.3;stroke-miterlimit:10;}
	.st58{stroke:#000000;stroke-width:2;stroke-miterlimit:10;}
	.st59{stroke:#000000;stroke-width:1.912;stroke-miterlimit:10;}
	.st60{fill:none;stroke:#000000;stroke-width:1.912;stroke-miterlimit:10;}
	.st61{font-family:'Exo2-Bold';}
	.st62{font-size:10px;}
	.st63{clip-path:url(#XMLID_211_);}
	.st64{clip-path:url(#XMLID_212_);}
	.st65{fill:none;stroke:url(#SVGID_2_);stroke-width:0.2702;stroke-miterlimit:10;}
	.st66{stroke:#000000;stroke-width:0.5;stroke-miterlimit:10;}
	.st67{fill:#FFFFFF;stroke:#000000;stroke-width:0.8987;stroke-miterlimit:10;}
	.st68{stroke:#000000;stroke-width:1.2;stroke-miterlimit:10;}
	.st69{fill:#EEEFED;stroke:#000000;stroke-width:1.2;stroke-miterlimit:10;}
	.st70{fill:#EEEFED;stroke:#000000;stroke-width:2;stroke-miterlimit:10;}
	.st71{fill:#EEEFED;stroke:#000000;stroke-width:1.912;stroke-miterlimit:10;}
</style>
<path class="st0" d="M357.4,194.1H25.6c-10.6,0-19.3-8.7-19.3-19.3V25.6c0-10.6,8.7-19.3,19.3-19.3h331.9c10.6,0,19.3,8.7,19.3,19.3
	v149.1C376.8,185.4,368.1,194.1,357.4,194.1z"/>
<path class="st1" d="M88.7,157.8H29.1c-2.4,0-4.4-2-4.4-4.4V65.1c0-2.4,2-4.4,4.4-4.4h59.6c2.4,0,4.4,2,4.4,4.4v88.4
	C93.1,155.9,91.1,157.8,88.7,157.8z"/>
<path class="st10" d="M81.5,150.6H21.9c-2.4,0-4.4-2-4.4-4.4V57.9c0-2.4,2-4.4,4.4-4.4h59.6c2.4,0,4.4,2,4.4,4.4v88.4
	C85.9,148.7,83.9,150.6,81.5,150.6z"/>
<path class="st1" d="M180.7,157.8h-59.6c-2.4,0-4.4-2-4.4-4.4V65.1c0-2.4,2-4.4,4.4-4.4h59.6c2.4,0,4.4,2,4.4,4.4v88.4
	C185.1,155.9,183.1,157.8,180.7,157.8z"/>
<path class="st10" d="M173.5,150.6h-59.6c-2.4,0-4.4-2-4.4-4.4V57.9c0-2.4,2-4.4,4.4-4.4h59.6c2.4,0,4.4,2,4.4,4.4v88.4
	C177.9,148.7,175.9,150.6,173.5,150.6z"/>
<path class="st11" d="M162.2,141.9h-36.8c-1.7,0-3.1-1.4-3.1-3.1V65.4c0-1.7,1.4-3.1,3.1-3.1h36.8c1.7,0,3.1,1.4,3.1,3.1v73.4
	C165.3,140.5,163.9,141.9,162.2,141.9z"/>
<text transform="matrix(1 0 0 1 113.126 63.2625)" class="st12 st13">Q</text>
<text transform="matrix(1 0 0 1 113.126 63.2625)" class="st12 st13">Q</text>
<text transform="matrix(-1 0 0 -1 173.9717 141.869)" class="st12 st13">Q</text>
<g id="Page-1_11_" class="st14">
	<g id="Homepage---Desktop_9_" transform="translate(-581.000000, -1466.000000)">
		<g id="illo_spot_9_" transform="translate(580.000000, 1465.000000)">
			<g id="Layer_14_9_" transform="translate(0.971660, 0.971660)">
				<path id="Path_390_" class="st15" d="M151.4,92.1c-2.7-2.6-4.8-2.8-5.8-3.4l-1.7,0l-1.7,0c-1,0.6-3,0.8-5.7,3.4
					c-4.1,3.9-4.3,10.3-4.3,10.3h23.6C155.7,102.4,155.5,96,151.4,92.1z"/>
				<circle id="Oval_30_" class="st16" cx="144.2" cy="75.6" r="10.7"/>
				<path id="Path_389_" class="st17" d="M142.6,85.5c0.5,1.1,0.5,2.5-0.3,3.2c0,0,0.3,0.6,1.6,0.6s1.6-0.5,1.6-0.5
					s-0.6-0.4-0.6-1.5c0-1.1,0.2-1.7,0.2-1.7H142.6z"/>
				<path id="Path_388_" class="st18" d="M144.9,86.1L144.9,86.1c-1,1.5-2.3,2.4-2.6,2.5c0,0,0.7-0.6,0.7-1.3c0-0.5-0.1-1-0.2-1.5
					l1.2,0.7L144.9,86.1z"/>
				<ellipse id="Oval_29_" class="st19" cx="142.5" cy="84.6" rx="0.5" ry="0.7"/>
				<path id="Path_387_" class="st20" d="M141.2,84c0-0.2,0-0.3,0-0.5c0-0.2,0-0.3,0-0.5c0,0,0-0.1,0-0.1c-0.2-0.2-0.5-0.3-0.7-0.1
					c-0.3,0.2-0.4,0.6-0.4,0.9c0,0.3,0.2,0.7,0.5,0.8c0.1,0,0.3,0,0.4-0.1s0.2-0.2,0.3-0.4C141.3,84.1,141.3,84,141.2,84L141.2,84z"
					/>
				<path id="Path_386_" class="st17" d="M147.5,83.1c-0.1-0.1-0.2-0.2-0.4-0.2c0.1-0.8,0-1.6-0.1-2.5c-0.2-0.8-0.7-1.1-0.7-1.1
					s-1.2,0.9-2.3,0.9s-2.3-0.9-2.3-0.9s-0.5,0.3-0.7,1.1c-0.3,1.5-0.3,3.5,0.7,4.6c1,1.1,2.2,1.5,2.2,1.5s1.1-0.4,2.2-1.5
					c0.2-0.2,0.3-0.4,0.4-0.6c0.1,0.1,0.2,0.1,0.4,0.1c0.3-0.1,0.4-0.4,0.5-0.6C147.6,83.7,147.7,83.3,147.5,83.1z"/>
				<path id="Path_385_" class="st18" d="M144.6,84.4l-0.7,0.3c0-0.1,0-0.4,0-1.5c0-0.7-1.6-1-1.6-1.7c0-0.7,0-1.2,1-1.3
					c0,0-0.5-0.2-0.9-0.4c-0.2-0.1-0.5-0.3-0.7-0.4c0,0-0.4,0.2-0.6,0.9c-0.2,0.9-0.3,1.5-0.2,3.1c0.1,2,3,3.2,3,3.2s-0.1-0.2-0.5-1
					c0,0,0,0,0,0c0.2,0,0.3-0.1,0.4-0.2C144.5,85.1,144.6,84.4,144.6,84.4z"/>
				<path id="Shape_10_" class="st15" d="M146.7,83.4c0-0.2-0.1-0.4-0.2-0.5c-0.1-0.1-0.2-0.3-0.3-0.3c-0.3-0.1-0.8-0.2-1,0.2
					c-0.1,0.2-0.3,0.5-0.3,0.7c-0.4-0.3-1-0.4-1.4-0.1c0-0.3-0.4-0.8-0.7-1c-0.4-0.2-0.9-0.2-1.2,0.2c-0.3,0.4-0.4,0.9-0.4,1.4
					c0,0.6,0.4,1.6,1.2,1.5c0.9-0.1,1.1-1.2,1-1.9c0,0,0,0,0,0c0.4-0.2,1-0.2,1.3,0.2c0,0,0,0,0,0c-0.1,0.6,0,1.3,0.4,1.7
					c0.4,0.4,1,0.2,1.3-0.2C146.7,84.7,146.8,84,146.7,83.4z M142.1,85.2c-0.6-0.2-0.7-1-0.7-1.5c0-0.4,0.1-0.8,0.3-1
					c0.5-0.5,1.2,0.2,1.4,0.9c0,0,0,0,0,0.1C143.2,84.5,142.7,85.5,142.1,85.2z M145.7,85.4c-0.6,0.1-0.9-0.8-0.9-1.3
					c0-0.3,0.1-0.6,0.2-0.8c0.1-0.1,0.1-0.3,0.2-0.4c0-0.1,0.3-0.3,0.5-0.2c0.1,0,0.2,0.1,0.3,0.2c0.2,0.2,0.3,0.5,0.3,0.8
					C146.5,84.4,146.4,85.3,145.7,85.4L145.7,85.4z"/>
				<path id="Path_384_" class="st21" d="M141,83.3c-0.3-0.1-0.6,0.2-0.7,0.5c0,0.1,0.2,0.2,0.2,0c0-0.1,0.1-0.1,0.1-0.2
					c0,0.2,0,0.4,0,0.5c0,0,0,0.1,0.1,0.1c0,0,0.1,0,0.1,0c0.1-0.2,0-0.4,0-0.6c0.1,0,0.2-0.1,0.2-0.1
					C141.1,83.5,141.1,83.5,141,83.3C141.1,83.4,141.1,83.3,141,83.3L141,83.3z"/>
				<path id="Path_383_" class="st21" d="M146.9,83.3c0.3,0,0.5,0.3,0.5,0.6c0,0,0,0.1,0,0.1s-0.1,0-0.1,0c0,0,0-0.1,0-0.1
					c0-0.1,0-0.1-0.1-0.2c-0.1,0.2-0.1,0.3-0.1,0.5c0,0,0,0-0.1,0c0,0,0,0-0.1,0c0-0.2,0.1-0.4,0.2-0.6c-0.1,0-0.1-0.1-0.2-0.1
					C146.9,83.4,146.9,83.3,146.9,83.3z"/>
				<path id="Path_382_" class="st16" d="M146.8,81.9c-0.2-0.6-1.1-0.8-1.6-0.5c-0.1,0,0,0.2,0.1,0.1c0.2-0.1,0.5-0.1,0.7,0
					c0.3,0.1,0.4,0.3,0.6,0.5c0,0,0.1,0,0.1,0C146.8,82,146.8,82,146.8,81.9L146.8,81.9z"/>
				<path id="Path_381_" class="st16" d="M143,81.3c-0.2-0.1-0.6-0.1-0.9,0c-0.3,0.1-0.6,0.2-0.8,0.5c-0.1,0.1,0,0.2,0.1,0.1
					c0.2-0.1,0.5-0.3,0.8-0.4c0.3-0.1,0.5,0,0.8,0C143.1,81.5,143.1,81.5,143,81.3C143.1,81.4,143.1,81.3,143,81.3L143,81.3z"/>
				<path id="Rectangle_20_" class="st22" d="M138.1,93.9h11.7c0.1,0,0.2,0.1,0.2,0.2v7.9c0,0.1-0.1,0.2-0.2,0.2h-11.7
					c-0.1,0-0.2-0.1-0.2-0.2v-7.9C137.9,94,138,93.9,138.1,93.9z"/>
				<path id="Rectangle_19_" d="M138.5,94.2h11c0.1,0,0.2,0.1,0.2,0.2v7.8c0,0.1-0.1,0.2-0.2,0.2h-11c-0.1,0-0.2-0.1-0.2-0.2v-7.8
					C138.2,94.3,138.3,94.2,138.5,94.2z"/>
				<path id="Path_380_" class="st23" d="M135.4,101.6h17.2l0,0c0,0.4-0.4,0.8-0.8,0.8h-15.6c-0.2,0-0.4-0.1-0.6-0.2
					C135.4,102,135.4,101.8,135.4,101.6L135.4,101.6z"/>
				<path id="Path_379_" class="st24" d="M136.2,102.4h15.6c0.3,0,0.5-0.1,0.7-0.4h-17C135.6,102.3,135.9,102.4,136.2,102.4
					L136.2,102.4z"/>
				<path id="Path_378_" class="st25" d="M139.4,79.2c-0.2,0-0.3,0-0.4,0.1c-0.2,0-0.2,0-0.3-0.1c-0.1-0.2-0.2-0.5-0.5-0.5
					c-0.1,0-0.3,0-0.4,0.1c-0.2,0-0.3,0-0.3-0.2c-0.1-0.3,0.1-0.6-0.2-0.8c-0.2-0.2-0.6-0.1-0.8,0c-0.1,0.1-0.3,0.2-0.4,0.2
					c-0.2,0-0.2-0.3-0.2-0.5c0-0.4,0.2-0.7-0.1-1c-0.1-0.1-0.3-0.1-0.2,0.1c0.1,0.6-0.4,1.4,0.3,1.8c0.3,0.1,0.5,0,0.8-0.1
					c0.1-0.1,0.3-0.2,0.3,0c0,0.1,0,0.3,0,0.4c0,0.3,0.2,0.5,0.4,0.6c0.1,0,0.3,0,0.4,0c0.2,0,0.3-0.1,0.4,0
					c0.1,0.2,0.2,0.4,0.4,0.6c0.1,0.1,0.3,0.1,0.4,0c0,0,0.4-0.1,0.4-0.1c0,0.2,0.4,0.3,0.4,0.1C139.9,79.4,139.7,79.2,139.4,79.2z"
					/>
				<path id="Path_377_" class="st25" d="M139.1,82.5c-0.3-0.2-0.6-0.2-0.9-0.2c-0.2,0-0.4,0-0.5-0.1c-0.1-0.1-0.1-0.3-0.2-0.5
					c0,0-0.1-0.1-0.1,0c-0.4,0.2,0,0.8,0.2,0.9c0.4,0.2,0.9-0.1,1.3,0.2C139.1,82.9,139.3,82.7,139.1,82.5z"/>
				<path id="Path_376_" class="st25" d="M150.6,82.2c-0.2,0.1-0.4,0.3-0.6,0.3c-0.2,0-0.3-0.2-0.6-0.3c-0.2,0-0.4,0-0.5,0.1
					c-0.1,0.1-0.5,0.5-0.6,0.2c-0.1-0.2-0.4-0.1-0.3,0.1c0.1,0.2,0.3,0.3,0.5,0.3c0.3,0,0.6-0.5,0.9-0.3c0.1,0.1,0.2,0.2,0.3,0.2
					c0.1,0.1,0.3,0.1,0.4,0.1c0.3,0,0.6-0.2,0.8-0.4C151.1,82.3,150.8,82,150.6,82.2z"/>
				<ellipse id="Oval_28_" class="st26" cx="145.6" cy="84.5" rx="0.5" ry="0.7"/>
				<path id="Path_375_" class="st27" d="M136.6,92.6c-0.4,0.4-0.8,0.9-1.2,1.4c0,0.1,0,0.2,0,0.2c0.1,0.1,0.2,0,0.2,0
					c0.4-0.4,0.8-0.9,1.2-1.5C137,92.6,136.7,92.5,136.6,92.6z"/>
				<path id="Path_374_" class="st27" d="M134.8,95.3c-0.3,0.2-0.5,0.5-0.6,0.8c-0.2,0.3-0.2,0.7-0.2,1.1c0,0.2,0.3,0.3,0.3,0
					c0-0.3,0.1-0.6,0.2-0.9c0.1-0.3,0.3-0.5,0.5-0.8C135,95.3,134.9,95.2,134.8,95.3z"/>
				<path id="Path_373_" class="st27" d="M133.5,99c-0.3,0.7-0.5,1.5-0.5,2.3c0,0.2,0.3,0.2,0.3,0c0.1-0.8,0.2-1.5,0.5-2.3
					C133.8,99,133.6,98.9,133.5,99z"/>
				<path id="Path_372_" class="st27" d="M151.9,93.2c-0.5-0.5-1-1-1.6-1.5c-0.1-0.1-0.1-0.1-0.2,0c-0.1,0.1-0.1,0.1,0,0.2
					c0.5,0.5,1,1.1,1.5,1.5c0.1,0.1,0.2,0.1,0.2,0C151.9,93.3,151.9,93.2,151.9,93.2L151.9,93.2z"/>
				<path id="Path_371_" class="st27" d="M154,96.8c-0.1-0.2-0.2-0.4-0.3-0.6c-0.1-0.2-0.2-0.4-0.3-0.6c-0.2-0.4-0.4-0.8-0.7-1.2
					c0,0-0.1-0.1-0.2,0c-0.1,0-0.1,0.1-0.1,0.1c0.2,0.4,0.4,0.8,0.6,1.2c0.1,0.2,0.2,0.4,0.3,0.6c0.1,0.2,0.2,0.4,0.3,0.6
					c0,0.1,0.1,0.1,0.2,0C154,97,154,96.9,154,96.8L154,96.8z"/>
				<path id="Path_370_" class="st27" d="M154.6,99.3c-0.1-0.4-0.2-0.8-0.3-1.1c-0.1-0.2-0.3-0.1-0.3,0.1c0.1,0.4,0.2,0.8,0.3,1.1
					c0.1,0.3,0.1,0.7,0.3,1c0,0,0.1,0,0.1,0s0.1,0,0.1-0.1C154.9,100,154.7,99.6,154.6,99.3z"/>
				<path id="Path_369_" class="st27" d="M155.2,102.4l-0.1-1.2c0-0.2-0.3-0.2-0.3,0l0.1,1.2C155,102.4,155.1,102.4,155.2,102.4z"/>
				<path id="Path_368_" class="st27" d="M145.2,88.5c-0.2,0.2-0.4,0.3-0.6,0.4c-0.2,0.1-0.5,0.2-0.8,0.2c-0.3,0-0.5,0-0.8-0.1
					c-0.3-0.1-0.5-0.3-0.7-0.3c-0.1,0-0.2,0.1-0.2,0.2c0.1,0.3,0.4,0.5,0.7,0.6c0.3,0.1,0.7,0.2,1,0.2c0.7,0,1.4-0.3,1.8-0.8
					C145.8,88.6,145.4,88.3,145.2,88.5z"/>
				<path id="Path_367_" class="st10" d="M141,95.1c-0.7,0-1.4-0.1-2.1,0c-0.1,0-0.1,0.2,0,0.2c0.7,0.1,1.4,0.1,2.1,0
					C141.2,95.4,141.2,95.1,141,95.1z"/>
				<path id="Path_366_" class="st10" d="M143.2,95.9c-1,0-2,0-3,0c-0.2,0-0.2,0.3,0,0.3c1,0,2,0,3,0
					C143.4,96.3,143.4,95.9,143.2,95.9z"/>
				<path id="Path_365_" class="st10" d="M141.2,97c-0.7,0-1.4,0-2.1,0c-0.2,0-0.2,0.3,0,0.3c0.7,0.1,1.4,0,2.1,0
					C141.4,97.3,141.4,97,141.2,97z"/>
				<path id="Path_364_" class="st10" d="M146.2,98.5c-1-0.1-2,0-2.9,0l-1.5,0c-0.5,0-1,0-1.5,0.1c-0.1,0-0.2,0.2,0,0.3
					c0.5,0.1,0.9,0,1.4,0.1l1.5,0c1,0,2,0.1,3,0C146.4,98.8,146.4,98.5,146.2,98.5z"/>
				<path id="Path_363_" class="st10" d="M141,99.8c-0.6,0-1.1,0-1.7,0c-0.1,0-0.2,0.2,0,0.3c0.6,0.1,1.2,0.1,1.7,0
					c0.1,0,0.1-0.1,0.1-0.2C141.2,99.9,141.1,99.8,141,99.8z"/>
				<path id="Path_362_" class="st10" d="M144.8,99.9c-0.6,0-1.2,0-1.8,0c-0.2,0-0.2,0.3,0,0.3c0.6,0,1.2,0,1.9,0
					C145,100.2,145,99.9,144.8,99.9z"/>
				<path id="Path_361_" class="st15" d="M139.7,98.6c-0.3,0-0.6,0-0.9,0.1c-0.1,0-0.2,0.2,0,0.2c0.3,0,0.6,0.1,0.9,0.1
					C140,98.9,140,98.5,139.7,98.6z"/>
				<path id="Path_360_" class="st15" d="M139.7,95.9c-0.2,0-0.5,0-0.7,0.1c-0.1,0-0.1,0.1,0,0.2c0.2,0.1,0.5,0.1,0.7,0.1
					C140,96.3,140,95.9,139.7,95.9z"/>
				<path id="Path_359_" class="st15" d="M142.4,99.8c-0.3,0-0.6,0-0.8,0.1c-0.1,0-0.1,0.2,0,0.2c0.3,0,0.5,0.1,0.8,0.1
					C142.6,100.2,142.6,99.8,142.4,99.8z"/>
				<path id="Path_358_" class="st15" d="M145.1,96.9c-0.5,0-1.1,0-1.6,0c-0.5,0-1.1,0-1.6,0c-0.2,0-0.2,0.3,0,0.3
					c0.5,0,1.1,0,1.6,0c0.5,0,1.1,0.1,1.6,0C145.3,97.3,145.3,97,145.1,96.9z"/>
				<path id="Path_357_" class="st25" d="M141.3,71.3c-0.1-0.1-0.1-0.2-0.2-0.2c-0.1-0.1-0.3-0.1-0.1-0.3c0.2-0.4,0.1-0.7-0.2-0.9
					c0,0,0.1-0.1,0.1-0.1c0-0.1,0.1-0.1,0.1-0.2c0-0.1,0-0.3-0.1-0.4c-0.1-0.2-0.2-0.2-0.4-0.3c0,0-0.1,0-0.1,0
					c0.1-0.1,0.2-0.1,0.2-0.1c0.2-0.1,0.1-0.4-0.1-0.3c-0.3,0.1-0.9,0.3-0.6,0.7c0.1,0.2,0.5,0.2,0.6,0.4c0.1,0.1-0.3,0.3-0.2,0.5
					c0,0.2,0.1,0.3,0.3,0.3c0.1,0,0.2,0.1,0.2,0.2c0,0.1-0.1,0.1-0.2,0.2c-0.1,0.2-0.1,0.3,0,0.5c0,0.1,0.4,0.3,0.4,0.3
					c-0.2,0.2,0.1,0.5,0.3,0.3C141.5,71.7,141.5,71.5,141.3,71.3z"/>
				<path id="Path_356_" class="st25" d="M146.8,71.4c0-0.1,0-0.2-0.1-0.3c-0.1-0.1-0.2-0.2,0-0.3c0.4-0.2,0.4-0.6,0.2-0.9
					c0,0,0.1,0,0.1,0c0.1,0,0.1-0.1,0.1-0.1c0.1-0.1,0.1-0.3,0.1-0.4c0-0.2-0.1-0.3-0.2-0.5c0,0,0,0-0.1-0.1c0.1,0,0.3,0,0.3,0
					c0.2,0,0.2-0.3,0-0.4c-0.3-0.1-0.9-0.1-0.8,0.4c0.1,0.2,0.4,0.4,0.4,0.6c0,0.2-0.3,0.1-0.4,0.3c-0.1,0.2,0,0.3,0.1,0.4
					c0.1,0.1,0.1,0.2,0,0.3c-0.1,0.1-0.2,0.1-0.2,0.1c-0.1,0.1-0.2,0.3-0.2,0.4c0,0.1,0.2,0.5,0.3,0.5c-0.3,0.1-0.2,0.5,0.1,0.4
					C146.7,71.8,146.8,71.6,146.8,71.4z"/>
				<path id="Path_355_" class="st25" d="M141.5,76.9c-0.2-0.3-0.5-0.5-0.8-0.6c-0.1-0.1-0.4-0.1-0.4-0.2c0-0.1,0.1-0.3,0-0.4
					c0-0.3-0.3-0.5-0.6-0.5c-0.1,0-0.3,0-0.4,0c0-0.1,0.1-0.3,0.1-0.4c0-0.3-0.2-0.4-0.4-0.5c-0.1,0-0.3,0-0.4,0c-0.1,0-0.2,0-0.2,0
					c-0.1-0.1,0-0.2,0-0.3c0.1-0.3,0.1-0.6-0.2-0.7c-0.2-0.1-0.4,0-0.5-0.1c-0.2-0.1,0-0.4,0.1-0.6c0.1-0.2-0.2-0.3-0.3-0.2
					c-0.2,0.3-0.4,0.6-0.2,1c0.1,0.1,0.2,0.2,0.3,0.3c0.1,0,0.2,0,0.3,0c0.2,0,0.1,0.1,0.1,0.3c-0.1,0.3-0.1,0.6,0.2,0.8
					c0.1,0.1,0.3,0.1,0.5,0.1c0.1,0,0.4-0.1,0.4,0.1c0,0.2-0.1,0.3-0.1,0.4c0,0.2,0.1,0.3,0.2,0.4c0.1,0.1,0.3,0.1,0.4,0.1
					c0.1,0,0.2-0.1,0.3,0c0,0,0,0.2,0,0.2c-0.1,0.3,0,0.6,0.3,0.7c0.2,0.1,0.4,0.1,0.6,0.3c0.2,0.1,0.3,0.2,0.5,0.4
					C141.3,77.4,141.6,77.1,141.5,76.9z"/>
				<path id="Path_354_" class="st25" d="M149.4,72c-0.4,0.1-1.4,0.3-1.2,0.9c0,0.1,0.1,0.2,0.2,0.3c0.1,0.2,0.1,0.4-0.1,0.5
					c-0.2,0.2-0.5,0.3-0.7,0.6c-0.2,0.2-0.2,0.4,0,0.6c0,0,0.1,0.1,0.1,0.1l0,0c0.1,0,0.1,0,0,0c-0.1,0-0.1,0.1-0.2,0.2
					c-0.1,0.1-0.2,0.1-0.2,0.2c-0.2,0.2-0.4,0.4-0.3,0.7c0.1,0.1,0.2,0.2,0.1,0.4s-0.3,0.2-0.5,0.2c-0.2,0.1-0.2,0.5,0.1,0.4
					c0.3,0,0.7-0.2,0.8-0.5c0.1-0.1,0.1-0.3,0.1-0.4c0-0.1,0-0.1-0.1-0.2c0,0,0,0,0-0.1l0,0c0.1-0.2,0.3-0.3,0.5-0.5
					c0.1-0.1,0.3-0.2,0.3-0.4c0-0.2-0.2-0.3-0.3-0.5c0.3-0.4,0.9-0.5,1-1.1c0-0.3-0.1-0.4-0.2-0.6c0-0.1-0.1-0.1,0-0.2
					c0.1,0,0.2-0.1,0.2-0.1c0.2-0.1,0.4-0.1,0.5-0.2C149.7,72.3,149.6,72,149.4,72z"/>
				<path id="Path_353_" class="st25" d="M152.6,72.9c0,0.1-0.3,0.1-0.4,0.1c-0.1,0-0.3,0.1-0.4,0.2c-0.1,0.1,0,0.3-0.1,0.4
					c0,0.1,0,0.1-0.1,0c-0.1,0-0.1-0.1-0.2-0.1c-0.3-0.1-0.5,0-0.6,0.3c-0.1,0.2,0,0.4,0,0.5c0,0.1,0,0.9-0.2,0.8
					c-0.2-0.1-0.4,0.2-0.2,0.3c0.4,0.3,0.7-0.2,0.7-0.5c0-0.3,0-0.6,0.1-0.8c0-0.1,0-0.2,0.2-0.1c0.1,0,0.2,0.1,0.3,0.1
					c0.1,0,0.3,0,0.4-0.1c0.1-0.1,0.1-0.3,0.1-0.5c0.1-0.2,0.4-0.1,0.5-0.2c0.2-0.1,0.3-0.2,0.3-0.4C153,72.7,152.7,72.7,152.6,72.9
					z"/>
				<path id="Path_352_" class="st25" d="M153.3,76.6c0-0.2-0.3-0.2-0.4,0c0,0.1-0.1,0.3-0.2,0.5c-0.1,0.1-0.3,0.1-0.4,0.1
					c-0.2,0-0.3,0.1-0.4,0.3c-0.1,0.2-0.1,0.4-0.2,0.6c0,0.1-0.1,0.3-0.3,0.3c-0.1,0-0.3-0.2-0.4-0.2c-0.4-0.3-0.8-0.2-1,0.3
					c-0.1,0.3-0.2,0.5-0.4,0.8c-0.1,0.2-0.1,0.1-0.3,0.1c-0.1-0.1-0.2-0.1-0.4-0.1c-0.2,0-0.3,0.3-0.1,0.4c0.2,0.1,0.4,0.3,0.7,0.2
					c0.3-0.1,0.4-0.3,0.5-0.5c0.1-0.1,0.1-0.3,0.2-0.4c0.1-0.2,0.1-0.3,0.3-0.3c0.3,0.1,0.4,0.4,0.8,0.4c0.6,0,0.6-0.7,0.8-1.1
					c0.1-0.2,0.2-0.1,0.4-0.1c0.1,0,0.2-0.1,0.3-0.1C153.2,77.3,153.3,76.9,153.3,76.6z"/>
			</g>
		</g>
	</g>
</g>
<g id="Page-1_2_" class="st14">
	<g id="Homepage---Desktop_8_" transform="translate(-581.000000, -1466.000000)">
		<g id="illo_spot_8_" transform="translate(580.000000, 1465.000000)">
			<g id="Layer_14_8_" transform="translate(0.971660, 0.971660)">
				<path id="Path_351_" class="st15" d="M136.5,112.7c2.7,2.6,4.8,2.8,5.8,3.4l1.7,0l1.7,0c1-0.6,3-0.8,5.7-3.4
					c4.1-3.9,4.3-10.3,4.3-10.3h-23.6C132.2,102.4,132.4,108.8,136.5,112.7z"/>
				<circle id="Oval_27_" class="st16" cx="143.6" cy="129.2" r="10.7"/>
				<path id="Path_350_" class="st17" d="M145.2,119.3c-0.5-1.1-0.5-2.5,0.3-3.2c0,0-0.3-0.6-1.6-0.6s-1.6,0.5-1.6,0.5
					s0.6,0.4,0.6,1.5c0,1.1-0.2,1.7-0.2,1.7H145.2z"/>
				<path id="Path_349_" class="st18" d="M143,118.7L143,118.7c1-1.5,2.3-2.4,2.6-2.5c0,0-0.7,0.6-0.7,1.3c0,0.5,0.1,1,0.2,1.5
					l-1.2-0.7L143,118.7z"/>
				<ellipse id="Oval_26_" class="st19" cx="145.4" cy="120.2" rx="0.5" ry="0.7"/>
				<path id="Path_348_" class="st20" d="M146.6,120.8c0,0.2,0,0.3,0,0.5c0,0.2,0,0.3,0,0.5c0,0,0,0.1,0,0.1
					c0.2,0.2,0.5,0.3,0.7,0.1c0.3-0.2,0.4-0.6,0.4-0.9c0-0.3-0.2-0.7-0.5-0.8c-0.1,0-0.3,0-0.4,0.1s-0.2,0.2-0.3,0.4
					C146.5,120.7,146.6,120.8,146.6,120.8L146.6,120.8z"/>
				<path id="Path_347_" class="st17" d="M140.4,121.7c0.1,0.1,0.2,0.2,0.4,0.2c-0.1,0.8,0,1.6,0.1,2.5c0.2,0.8,0.7,1.1,0.7,1.1
					s1.2-0.9,2.3-0.9s2.3,0.9,2.3,0.9s0.5-0.3,0.7-1.1c0.3-1.5,0.3-3.5-0.7-4.6c-1-1.1-2.2-1.5-2.2-1.5s-1.1,0.4-2.2,1.5
					c-0.2,0.2-0.3,0.4-0.4,0.6c-0.1-0.1-0.2-0.1-0.4-0.1c-0.3,0.1-0.4,0.4-0.5,0.6C140.3,121.2,140.2,121.5,140.4,121.7z"/>
				<path id="Path_346_" class="st18" d="M143.3,120.4l0.7-0.3c0,0.1,0,0.4,0,1.5c0,0.7,1.6,1,1.6,1.7c0,0.7,0,1.2-1,1.3
					c0,0,0.5,0.2,0.9,0.4c0.2,0.1,0.5,0.3,0.7,0.4c0,0,0.4-0.2,0.6-0.9c0.2-0.9,0.3-1.5,0.2-3.1c-0.1-2-3-3.2-3-3.2s0.1,0.2,0.5,1
					c0,0,0,0,0,0c-0.2,0-0.3,0.1-0.4,0.2C143.4,119.8,143.3,120.4,143.3,120.4z"/>
				<path id="Shape_9_" class="st15" d="M141.2,121.4c0,0.2,0.1,0.4,0.2,0.5c0.1,0.1,0.2,0.3,0.3,0.3c0.3,0.1,0.8,0.2,1-0.2
					c0.1-0.2,0.3-0.5,0.3-0.7c0.4,0.3,1,0.4,1.4,0.1c0,0.3,0.4,0.8,0.7,1c0.4,0.2,0.9,0.2,1.2-0.2c0.3-0.4,0.4-0.9,0.4-1.4
					c0-0.6-0.4-1.6-1.2-1.5c-0.9,0.1-1.1,1.2-1,1.9c0,0,0,0,0,0c-0.4,0.2-1,0.2-1.3-0.2c0,0,0,0,0,0c0.1-0.6,0-1.3-0.4-1.7
					c-0.4-0.4-1-0.2-1.3,0.2C141.2,120.1,141.1,120.8,141.2,121.4z M145.8,119.6c0.6,0.2,0.7,1,0.7,1.5c0,0.4-0.1,0.8-0.3,1
					c-0.5,0.5-1.2-0.2-1.4-0.9c0,0,0,0,0-0.1C144.7,120.3,145.2,119.4,145.8,119.6z M142.1,119.4c0.6-0.1,0.9,0.8,0.9,1.3
					c0,0.3-0.1,0.6-0.2,0.8c-0.1,0.1-0.1,0.3-0.2,0.4c0,0.1-0.3,0.3-0.5,0.2c-0.1,0-0.2-0.1-0.3-0.2c-0.2-0.2-0.3-0.5-0.3-0.8
					C141.4,120.5,141.5,119.5,142.1,119.4L142.1,119.4z"/>
				<path id="Path_345_" class="st21" d="M146.8,121.5c0.3,0.1,0.6-0.2,0.7-0.5c0-0.1-0.2-0.2-0.2,0c0,0.1-0.1,0.1-0.1,0.2
					c0-0.2,0-0.4,0-0.5c0,0,0-0.1-0.1-0.1s-0.1,0-0.1,0c-0.1,0.2,0,0.4,0,0.6c-0.1,0-0.2,0.1-0.2,0.1
					C146.8,121.3,146.8,121.4,146.8,121.5C146.8,121.5,146.8,121.5,146.8,121.5L146.8,121.5z"/>
				<path id="Path_344_" class="st21" d="M140.9,121.6c-0.3,0-0.5-0.3-0.5-0.6c0,0,0-0.1,0-0.1s0.1,0,0.1,0c0,0,0,0.1,0,0.1
					c0,0.1,0,0.1,0.1,0.2c0.1-0.2,0.1-0.3,0.1-0.5c0,0,0,0,0.1,0c0,0,0,0,0.1,0c0,0.2-0.1,0.4-0.2,0.6c0.1,0,0.1,0.1,0.2,0.1
					C141,121.4,141,121.6,140.9,121.6z"/>
				<path id="Path_343_" class="st16" d="M141.1,122.9c0.2,0.6,1.1,0.8,1.6,0.5c0.1,0,0-0.2-0.1-0.1c-0.2,0.1-0.5,0.1-0.7,0
					c-0.3-0.1-0.4-0.3-0.6-0.5c0,0-0.1,0-0.1,0C141.1,122.8,141.1,122.9,141.1,122.9L141.1,122.9z"/>
				<path id="Path_342_" class="st16" d="M144.8,123.5c0.2,0.1,0.6,0.1,0.9,0c0.3-0.1,0.6-0.2,0.8-0.5c0.1-0.1,0-0.2-0.1-0.1
					c-0.2,0.1-0.5,0.3-0.8,0.4c-0.3,0.1-0.5,0-0.8,0C144.8,123.3,144.8,123.4,144.8,123.5C144.8,123.4,144.8,123.5,144.8,123.5
					L144.8,123.5z"/>
				<path id="Rectangle_18_" class="st22" d="M149.8,111H138c-0.1,0-0.2-0.1-0.2-0.2v-7.9c0-0.1,0.1-0.2,0.2-0.2h11.7
					c0.1,0,0.2,0.1,0.2,0.2v7.9C150,110.9,149.9,111,149.8,111z"/>
				<path id="Rectangle_17_" d="M149.4,110.6h-11c-0.1,0-0.2-0.1-0.2-0.2v-7.8c0-0.1,0.1-0.2,0.2-0.2h11c0.1,0,0.2,0.1,0.2,0.2v7.8
					C149.6,110.5,149.5,110.6,149.4,110.6z"/>
				<path id="Path_341_" class="st23" d="M152.5,103.2h-17.2l0,0c0-0.4,0.4-0.8,0.8-0.8h15.6c0.2,0,0.4,0.1,0.6,0.2
					S152.5,103,152.5,103.2L152.5,103.2z"/>
				<path id="Path_340_" class="st24" d="M151.7,102.4h-15.6c-0.3,0-0.5,0.1-0.7,0.4h17C152.3,102.6,152,102.4,151.7,102.4
					L151.7,102.4z"/>
				<path id="Path_339_" class="st25" d="M148.5,125.7c0.2,0,0.3,0,0.4-0.1c0.2,0,0.2,0,0.3,0.1c0.1,0.2,0.2,0.5,0.5,0.5
					c0.1,0,0.3,0,0.4-0.1c0.2,0,0.3,0,0.3,0.2c0.1,0.3-0.1,0.6,0.2,0.8c0.2,0.2,0.6,0.1,0.8,0c0.1-0.1,0.3-0.2,0.4-0.2
					c0.2,0,0.2,0.3,0.2,0.5c0,0.4-0.2,0.7,0.1,1c0.1,0.1,0.3,0.1,0.2-0.1c-0.1-0.6,0.4-1.4-0.3-1.8c-0.3-0.1-0.5,0-0.8,0.1
					c-0.1,0.1-0.3,0.2-0.3,0c0-0.1,0-0.3,0-0.4c0-0.3-0.2-0.5-0.4-0.6c-0.1,0-0.3,0-0.4,0c-0.2,0-0.3,0.1-0.4,0
					c-0.1-0.2-0.2-0.4-0.4-0.6c-0.1-0.1-0.3-0.1-0.4,0c0,0-0.4,0.1-0.4,0.1c0-0.2-0.4-0.3-0.4-0.1
					C148,125.4,148.2,125.6,148.5,125.7z"/>
				<path id="Path_338_" class="st25" d="M148.7,122.3c0.3,0.2,0.6,0.2,0.9,0.2c0.2,0,0.4,0,0.5,0.1s0.1,0.3,0.2,0.5
					c0,0,0.1,0.1,0.1,0c0.4-0.2,0-0.8-0.2-0.9c-0.4-0.2-0.9,0.1-1.3-0.2C148.8,121.9,148.6,122.1,148.7,122.3z"/>
				<path id="Path_337_" class="st25" d="M137.3,122.7c0.2-0.1,0.4-0.3,0.6-0.3c0.2,0,0.3,0.2,0.6,0.3c0.2,0,0.4,0,0.5-0.1
					c0.1-0.1,0.5-0.5,0.6-0.2c0.1,0.2,0.4,0.1,0.3-0.1c-0.1-0.2-0.3-0.3-0.5-0.3c-0.3,0-0.6,0.5-0.9,0.3c-0.1-0.1-0.2-0.2-0.3-0.2
					c-0.1-0.1-0.3-0.1-0.4-0.1c-0.3,0-0.6,0.2-0.8,0.4C136.8,122.5,137.1,122.8,137.3,122.7z"/>
				<ellipse id="Oval_25_" class="st26" cx="142.3" cy="120.3" rx="0.5" ry="0.7"/>
				<path id="Path_336_" class="st27" d="M151.2,112.2c0.4-0.4,0.8-0.9,1.2-1.4c0-0.1,0-0.2,0-0.2c-0.1-0.1-0.2,0-0.2,0
					c-0.4,0.4-0.8,0.9-1.2,1.5C150.9,112.2,151.1,112.3,151.2,112.2z"/>
				<path id="Path_335_" class="st27" d="M153.1,109.6c0.3-0.2,0.5-0.5,0.6-0.8c0.2-0.3,0.2-0.7,0.2-1.1c0-0.2-0.3-0.3-0.3,0
					c0,0.3-0.1,0.6-0.2,0.9c-0.1,0.3-0.3,0.5-0.5,0.8C152.9,109.5,153,109.7,153.1,109.6z"/>
				<path id="Path_334_" class="st27" d="M154.4,105.8c0.3-0.7,0.5-1.5,0.5-2.3c0-0.2-0.3-0.2-0.3,0c-0.1,0.8-0.2,1.5-0.5,2.3
					C154.1,105.9,154.3,106,154.4,105.8z"/>
				<path id="Path_333_" class="st27" d="M136,111.7c0.5,0.5,1,1,1.6,1.5c0.1,0.1,0.1,0.1,0.2,0s0.1-0.1,0-0.2
					c-0.5-0.5-1-1.1-1.5-1.5c-0.1-0.1-0.2-0.1-0.2,0C135.9,111.5,135.9,111.6,136,111.7L136,111.7z"/>
				<path id="Path_332_" class="st27" d="M133.9,108c0.1,0.2,0.2,0.4,0.3,0.6c0.1,0.2,0.2,0.4,0.3,0.6c0.2,0.4,0.4,0.8,0.7,1.2
					c0,0,0.1,0.1,0.2,0c0.1,0,0.1-0.1,0.1-0.1c-0.2-0.4-0.4-0.8-0.6-1.2c-0.1-0.2-0.2-0.4-0.3-0.6c-0.1-0.2-0.2-0.4-0.3-0.6
					c0-0.1-0.1-0.1-0.2,0C133.9,107.9,133.9,107.9,133.9,108L133.9,108z"/>
				<path id="Path_331_" class="st27" d="M133.2,105.6c0.1,0.4,0.2,0.8,0.3,1.1c0.1,0.2,0.3,0.1,0.3-0.1c-0.1-0.4-0.2-0.8-0.3-1.1
					c-0.1-0.3-0.1-0.7-0.3-1c0,0-0.1,0-0.1,0s-0.1,0-0.1,0.1C133,104.9,133.2,105.3,133.2,105.6z"/>
				<path id="Path_330_" class="st27" d="M132.7,102.4l0.1,1.2c0,0.2,0.3,0.2,0.3,0l-0.1-1.2C132.9,102.5,132.8,102.4,132.7,102.4z"
					/>
				<path id="Path_329_" class="st27" d="M142.7,116.4c0.2-0.2,0.4-0.3,0.6-0.4c0.2-0.1,0.5-0.2,0.8-0.2c0.3,0,0.5,0,0.8,0.1
					c0.3,0.1,0.5,0.3,0.7,0.3c0.1,0,0.2-0.1,0.2-0.2c-0.1-0.3-0.4-0.5-0.7-0.6c-0.3-0.1-0.7-0.2-1-0.2c-0.7,0-1.4,0.3-1.8,0.8
					C142.1,116.2,142.5,116.5,142.7,116.4z"/>
				<path id="Path_328_" class="st10" d="M146.9,109.8c0.7,0,1.4,0.1,2.1,0c0.1,0,0.1-0.2,0-0.2c-0.7-0.1-1.4-0.1-2.1,0
					C146.6,109.5,146.7,109.8,146.9,109.8z"/>
				<path id="Path_327_" class="st10" d="M144.7,108.9c1,0,2,0,3,0c0.2,0,0.2-0.3,0-0.3c-1,0-2,0-3,0
					C144.5,108.5,144.5,108.9,144.7,108.9z"/>
				<path id="Path_326_" class="st10" d="M146.7,107.9c0.7,0,1.4,0,2.1,0c0.2,0,0.2-0.3,0-0.3c-0.7-0.1-1.4,0-2.1,0
					C146.4,107.5,146.4,107.9,146.7,107.9z"/>
				<path id="Path_325_" class="st10" d="M141.7,106.3c1,0.1,2,0,2.9,0l1.5,0c0.5,0,1,0,1.5-0.1c0.1,0,0.2-0.2,0-0.3
					c-0.5-0.1-0.9,0-1.4-0.1l-1.5,0c-1,0-2-0.1-3,0C141.5,106,141.4,106.3,141.7,106.3z"/>
				<path id="Path_324_" class="st10" d="M146.9,105c0.6,0,1.1,0,1.7,0c0.1,0,0.2-0.2,0-0.3c-0.6-0.1-1.2-0.1-1.7,0
					c-0.1,0-0.1,0.1-0.1,0.2C146.7,104.9,146.8,105,146.9,105z"/>
				<path id="Path_323_" class="st10" d="M143.1,105c0.6,0,1.2,0,1.8,0c0.2,0,0.2-0.3,0-0.3c-0.6,0-1.2,0-1.9,0
					C142.9,104.6,142.9,105,143.1,105z"/>
				<path id="Path_322_" class="st15" d="M148.2,106.3c0.3,0,0.6,0,0.9-0.1c0.1,0,0.2-0.2,0-0.2c-0.3,0-0.6-0.1-0.9-0.1
					C147.9,105.9,147.9,106.3,148.2,106.3z"/>
				<path id="Path_321_" class="st15" d="M148.2,108.9c0.2,0,0.5,0,0.7-0.1c0.1,0,0.1-0.1,0-0.2c-0.2-0.1-0.5-0.1-0.7-0.1
					C147.9,108.5,147.9,108.9,148.2,108.9z"/>
				<path id="Path_320_" class="st15" d="M145.5,105c0.3,0,0.6,0,0.8-0.1c0.1,0,0.1-0.2,0-0.2c-0.3,0-0.5-0.1-0.8-0.1
					C145.3,104.7,145.3,105,145.5,105z"/>
				<path id="Path_319_" class="st15" d="M142.8,107.9c0.5,0,1.1,0,1.6,0c0.5,0,1.1,0,1.6,0c0.2,0,0.2-0.3,0-0.3c-0.5,0-1.1,0-1.6,0
					c-0.5,0-1.1-0.1-1.6,0C142.6,107.5,142.6,107.9,142.8,107.9z"/>
				<path id="Path_318_" class="st25" d="M146.5,133.5c0.1,0.1,0.1,0.2,0.2,0.2c0.1,0.1,0.3,0.1,0.1,0.3c-0.2,0.4-0.1,0.7,0.2,0.9
					c0,0-0.1,0.1-0.1,0.1c0,0.1-0.1,0.1-0.1,0.2c0,0.1,0,0.3,0.1,0.4c0.1,0.2,0.2,0.2,0.4,0.3c0,0,0.1,0,0.1,0
					c-0.1,0.1-0.2,0.1-0.2,0.1c-0.2,0.1-0.1,0.4,0.1,0.3c0.3-0.1,0.9-0.3,0.6-0.7c-0.1-0.2-0.5-0.2-0.6-0.4
					c-0.1-0.1,0.3-0.3,0.2-0.5c0-0.2-0.1-0.3-0.3-0.3c-0.1,0-0.2-0.1-0.2-0.2c0-0.1,0.1-0.1,0.2-0.2c0.1-0.2,0.1-0.3,0-0.5
					c0-0.1-0.4-0.3-0.4-0.3c0.2-0.2-0.1-0.5-0.3-0.3C146.4,133.1,146.4,133.3,146.5,133.5z"/>
				<path id="Path_317_" class="st25" d="M141.1,133.4c0,0.1,0,0.2,0.1,0.3c0.1,0.1,0.2,0.2,0,0.3c-0.4,0.2-0.4,0.6-0.2,0.9
					c0,0-0.1,0-0.1,0c-0.1,0-0.1,0.1-0.1,0.1c-0.1,0.1-0.1,0.3-0.1,0.4c0,0.2,0.1,0.3,0.2,0.5c0,0,0,0,0.1,0.1c-0.1,0-0.3,0-0.3,0
					c-0.2,0-0.2,0.3,0,0.4c0.3,0.1,0.9,0.1,0.8-0.4c-0.1-0.2-0.4-0.4-0.4-0.6c0-0.2,0.3-0.1,0.4-0.3c0.1-0.2,0-0.3-0.1-0.4
					c-0.1-0.1-0.1-0.2,0-0.3c0.1-0.1,0.2-0.1,0.2-0.1c0.1-0.1,0.2-0.3,0.2-0.4c0-0.1-0.2-0.5-0.3-0.5c0.3-0.1,0.2-0.5-0.1-0.4
					C141.2,133,141.1,133.2,141.1,133.4z"/>
				<path id="Path_316_" class="st25" d="M146.4,127.9c0.2,0.3,0.5,0.5,0.8,0.6c0.1,0.1,0.4,0.1,0.4,0.2c0,0.1-0.1,0.3,0,0.4
					c0,0.3,0.3,0.5,0.6,0.5c0.1,0,0.3,0,0.4,0c0,0.1-0.1,0.3-0.1,0.4c0,0.3,0.2,0.4,0.4,0.5c0.1,0,0.3,0,0.4,0c0.1,0,0.2,0,0.2,0
					c0.1,0.1,0,0.2,0,0.3c-0.1,0.3-0.1,0.6,0.2,0.7c0.2,0.1,0.4,0,0.5,0.1c0.2,0.1,0,0.4-0.1,0.6c-0.1,0.2,0.2,0.3,0.3,0.2
					c0.2-0.3,0.4-0.6,0.2-1c-0.1-0.1-0.2-0.2-0.3-0.3c-0.1,0-0.2,0-0.3,0c-0.2,0-0.1-0.1-0.1-0.3c0.1-0.3,0.1-0.6-0.2-0.8
					c-0.1-0.1-0.3-0.1-0.5-0.1c-0.1,0-0.4,0.1-0.4-0.1c0-0.2,0.1-0.3,0.1-0.4c0-0.2-0.1-0.3-0.2-0.4c-0.1-0.1-0.3-0.1-0.4-0.1
					c-0.1,0-0.2,0.1-0.3,0c0,0,0-0.2,0-0.2c0.1-0.3,0-0.6-0.3-0.7c-0.2-0.1-0.4-0.1-0.6-0.3c-0.2-0.1-0.3-0.2-0.5-0.4
					C146.6,127.4,146.2,127.7,146.4,127.9z"/>
				<path id="Path_315_" class="st25" d="M138.5,132.8c0.4-0.1,1.4-0.3,1.2-0.9c0-0.1-0.1-0.2-0.2-0.3c-0.1-0.2-0.1-0.4,0.1-0.5
					c0.2-0.2,0.5-0.3,0.7-0.6c0.2-0.2,0.2-0.4,0-0.6c0,0-0.1-0.1-0.1-0.1l0,0c-0.1,0-0.1,0,0,0c0.1,0,0.1-0.1,0.2-0.2
					c0.1-0.1,0.2-0.1,0.2-0.2c0.2-0.2,0.4-0.4,0.3-0.7c-0.1-0.1-0.2-0.2-0.1-0.4s0.3-0.2,0.5-0.2c0.2-0.1,0.2-0.5-0.1-0.4
					c-0.3,0-0.7,0.2-0.8,0.5c-0.1,0.1-0.1,0.3-0.1,0.4c0,0.1,0,0.1,0.1,0.2c0,0,0,0,0,0.1l0,0c-0.1,0.2-0.3,0.3-0.5,0.5
					c-0.1,0.1-0.3,0.2-0.3,0.4c0,0.2,0.2,0.3,0.3,0.5c-0.3,0.4-0.9,0.5-1,1.1c0,0.3,0.1,0.4,0.2,0.6c0,0.1,0.1,0.1,0,0.2
					c-0.1,0-0.2,0.1-0.2,0.1c-0.2,0.1-0.4,0.1-0.5,0.2C138.2,132.5,138.3,132.8,138.5,132.8z"/>
				<path id="Path_314_" class="st25" d="M135.2,131.9c0-0.1,0.3-0.1,0.4-0.1c0.1,0,0.3-0.1,0.4-0.2c0.1-0.1,0-0.3,0.1-0.4
					c0-0.1,0-0.1,0.1,0c0.1,0,0.1,0.1,0.2,0.1c0.3,0.1,0.5,0,0.6-0.3c0.1-0.2,0-0.4,0-0.5c0-0.1,0-0.9,0.2-0.8
					c0.2,0.1,0.4-0.2,0.2-0.3c-0.4-0.3-0.7,0.2-0.7,0.5c0,0.3,0,0.6-0.1,0.8c0,0.1,0,0.2-0.2,0.1c-0.1,0-0.2-0.1-0.3-0.1
					c-0.1,0-0.3,0-0.4,0.1c-0.1,0.1-0.1,0.3-0.1,0.5c-0.1,0.2-0.4,0.1-0.5,0.2c-0.2,0.1-0.3,0.2-0.3,0.4
					C134.8,132.1,135.2,132.1,135.2,131.9z"/>
				<path id="Path_313_" class="st25" d="M134.6,128.2c0,0.2,0.3,0.2,0.4,0c0-0.1,0.1-0.3,0.2-0.5c0.1-0.1,0.3-0.1,0.4-0.1
					c0.2,0,0.3-0.1,0.4-0.3c0.1-0.2,0.1-0.4,0.2-0.6c0-0.1,0.1-0.3,0.3-0.3c0.1,0,0.3,0.2,0.4,0.2c0.4,0.3,0.8,0.2,1-0.3
					c0.1-0.3,0.2-0.5,0.4-0.8c0.1-0.2,0.1-0.1,0.3-0.1c0.1,0.1,0.2,0.1,0.4,0.1c0.2,0,0.3-0.3,0.1-0.4c-0.2-0.1-0.4-0.3-0.7-0.2
					c-0.3,0.1-0.4,0.3-0.5,0.5c-0.1,0.1-0.1,0.3-0.2,0.4s-0.1,0.3-0.3,0.3c-0.3-0.1-0.4-0.4-0.8-0.4c-0.6,0-0.6,0.7-0.8,1.1
					c-0.1,0.2-0.2,0.1-0.4,0.1c-0.1,0-0.2,0.1-0.3,0.1C134.7,127.6,134.6,127.9,134.6,128.2z"/>
			</g>
		</g>
	</g>
</g>
<path class="st1" d="M273.7,157.8h-59.6c-2.4,0-4.4-2-4.4-4.4V65.1c0-2.4,2-4.4,4.4-4.4h59.6c2.4,0,4.4,2,4.4,4.4v88.4
	C278.1,155.9,276.1,157.8,273.7,157.8z"/>
<path class="st1" d="M362.8,157.8h-59.6c-2.4,0-4.4-2-4.4-4.4V65.1c0-2.4,2-4.4,4.4-4.4h59.6c2.4,0,4.4,2,4.4,4.4v88.4
	C367.2,155.9,365.2,157.8,362.8,157.8z"/>
<path class="st10" d="M266.5,150.6h-59.6c-2.4,0-4.4-2-4.4-4.4V57.9c0-2.4,2-4.4,4.4-4.4h59.6c2.4,0,4.4,2,4.4,4.4v88.4
	C270.9,148.7,268.9,150.6,266.5,150.6z"/>
<g>
	<defs>
		<path id="XMLID_39_" d="M355.6,150.6H296c-2.4,0-4.4-2-4.4-4.4V57.9c0-2.4,2-4.4,4.4-4.4h59.6c2.4,0,4.4,2,4.4,4.4v88.4
			C360,148.7,358,150.6,355.6,150.6z"/>
	</defs>
	<use xlink:href="#XMLID_39_"  style="overflow:visible;fill:#FFFFFF;"/>
	<clipPath id="XMLID_2_">
		<use xlink:href="#XMLID_39_"  style="overflow:visible;"/>
	</clipPath>
</g>
<text transform="matrix(1 0 0 1 22.0066 63.7943)" class="st12 st13">3</text>
<g>
	<defs>
		<path id="XMLID_80_" d="M27.3,71.3c1-0.9,1-2.4,0.1-3.3c-0.9-0.9-2.3-0.9-3.2-0.1c-0.9-0.9-2.3-0.9-3.2-0.1c-0.9,0.9-1,2.3,0,3.3
			l2.9,3.1c0.1,0.1,0.2,0.1,0.2,0L27.3,71.3z"/>
	</defs>
	<use xlink:href="#XMLID_80_"  style="overflow:visible;fill:#E72B78;"/>
	<clipPath id="XMLID_3_">
		<use xlink:href="#XMLID_80_"  style="overflow:visible;"/>
	</clipPath>
</g>
<text transform="matrix(-1 0 0 -1 81.091 140.018)" class="st12 st13">3</text>
<g>
	<defs>
		<path id="XMLID_79_" d="M75.8,133.9c-1,1-1,2.4-0.1,3.3c0.9,0.9,2.3,0.9,3.2,0c0.9,0.9,2.3,0.9,3.2,0c0.9-0.9,0.9-2.3-0.1-3.3
			l-3-3c-0.1-0.1-0.2-0.1-0.2,0L75.8,133.9z"/>
	</defs>
	<use xlink:href="#XMLID_79_"  style="overflow:visible;fill:#E72B78;"/>
	<clipPath id="XMLID_4_">
		<use xlink:href="#XMLID_79_"  style="overflow:visible;"/>
	</clipPath>
</g>
<g>
	<defs>
		<path id="XMLID_60_" d="M58.8,74.1c2.3-2.2,2.3-5.4,0.3-7.5c-2-2.1-5.2-2.1-7.3-0.2c-2-2.1-5.2-2.1-7.3-0.2c-2.1,2-2.2,5.2,0,7.5
			l6.8,7.1c0.1,0.1,0.3,0.1,0.5,0L58.8,74.1z"/>
	</defs>
	<use xlink:href="#XMLID_60_"  style="overflow:visible;fill:#E72B78;"/>
	<clipPath id="XMLID_5_">
		<use xlink:href="#XMLID_60_"  style="overflow:visible;"/>
	</clipPath>
</g>
<g>
	<defs>
		<path id="XMLID_59_" d="M58.8,103.9c2.3-2.2,2.3-5.4,0.3-7.5c-2-2.1-5.2-2.1-7.3-0.2c-2-2.1-5.2-2.1-7.3-0.2c-2.1,2-2.2,5.2,0,7.5
			l6.8,7.1c0.1,0.1,0.3,0.1,0.5,0L58.8,103.9z"/>
	</defs>
	<use xlink:href="#XMLID_59_"  style="overflow:visible;fill:#E72B78;"/>
	<clipPath id="XMLID_40_">
		<use xlink:href="#XMLID_59_"  style="overflow:visible;"/>
	</clipPath>
</g>
<g>
	<defs>
		<path id="XMLID_58_" d="M44.7,130.7c-2.3,2.2-2.3,5.4-0.3,7.5c2,2.1,5.2,2.1,7.3,0.2c2,2.1,5.2,2.1,7.3,0.2c2.1-2,2.2-5.2,0-7.5
			l-6.8-7.1c-0.1-0.1-0.3-0.1-0.5,0L44.7,130.7z"/>
	</defs>
	<use xlink:href="#XMLID_58_"  style="overflow:visible;fill:#E72B78;"/>
	<clipPath id="XMLID_41_">
		<use xlink:href="#XMLID_58_"  style="overflow:visible;"/>
	</clipPath>
</g>
<text transform="matrix(1 0 0 1 152.221 27.2127)"><tspan x="0" y="0" class="st61 st62">Example of hand</tspan><tspan x="8.5" y="12" class="st61 st62">that is “bust”</tspan></text>
<text transform="matrix(1 0 0 1 138.666 177.2129)" class="st61 st62">Hand value 23 = “bust”</text>
<g>
	<path class="st34" d="M119.7,73.1c-0.1,0.2-0.2,0.3-0.3,0.5c0,0,0,0-0.1,0.1c-0.2,0.2-0.4,0.3-0.7,0.4c-0.2,0.1-0.5,0.1-0.7,0.1
		c-0.2,0-0.5,0-0.7-0.1c-0.2-0.1-0.4-0.2-0.7-0.3c0.1,0.2,0.1,0.5,0.2,0.7c0,0.2,0.1,0.4,0.2,0.6c0,0.1,0,0.1,0.1,0.1
		c0,0.1,0.1,0.2,0.2,0.2c0.1,0.1,0.2,0.2,0.3,0.4c0,0-0.1,0-0.1,0c0,0-0.1,0-0.1,0c-0.2,0-0.5,0-0.7,0c0,0,0,0-0.1,0
		c-0.2,0-0.4,0-0.6,0c-0.2,0-0.5,0-0.7,0c0,0-0.1,0-0.1,0c0-0.1,0-0.1,0.1-0.2c0,0,0.1-0.1,0.1-0.1c0.1-0.1,0.2-0.2,0.2-0.4
		c0.1-0.2,0.2-0.4,0.3-0.7c0.1-0.2,0.1-0.4,0.2-0.7c-0.3,0.2-0.5,0.2-0.8,0.3c-0.2,0-0.5,0.1-0.7,0.1c-0.2,0-0.5,0-0.7-0.1
		c-0.2-0.1-0.4-0.2-0.6-0.3c-0.2-0.2-0.4-0.4-0.5-0.7c-0.1-0.2-0.1-0.5-0.1-0.7c0-0.2,0.1-0.5,0.1-0.7c0.1-0.2,0.2-0.5,0.3-0.7
		c0-0.1,0.1-0.1,0.1-0.2c0.1-0.2,0.3-0.3,0.4-0.5c0.1-0.1,0.2-0.2,0.3-0.3c0.2-0.1,0.3-0.2,0.4-0.4c0.1-0.1,0.2-0.2,0.3-0.3
		c0.1-0.1,0.2-0.2,0.3-0.3c0.1-0.1,0.2-0.3,0.3-0.4c0.1-0.1,0.1-0.2,0.2-0.3c0-0.1,0.1-0.1,0.1-0.2c0.1-0.1,0.1-0.1,0.2-0.2
		c0,0,0,0,0,0l0,0c0.2-0.2,0.3-0.4,0.4-0.6c0.1-0.2,0.1-0.2,0.2,0c0.1,0.1,0.1,0.2,0.2,0.3c0,0,0,0,0,0.1c0.1,0.2,0.3,0.5,0.4,0.7
		c0.1,0.1,0.1,0.2,0.2,0.3l0,0c0,0,0,0,0,0c0.1,0.2,0.2,0.3,0.3,0.4c0.1,0.1,0.2,0.2,0.3,0.3c0.1,0.1,0.2,0.2,0.3,0.3
		c0.1,0.1,0.2,0.2,0.3,0.3c0.1,0.1,0.2,0.2,0.4,0.4c0.1,0.2,0.2,0.3,0.4,0.5c0,0.1,0.1,0.1,0.1,0.2c0.1,0.2,0.2,0.4,0.3,0.7
		c0.1,0.2,0.1,0.5,0.1,0.7C119.9,72.6,119.8,72.8,119.7,73.1z"/>
	<path class="st35" d="M117.3,75.8c0,0,0.1,0,0.1,0C117.4,75.8,117.4,75.8,117.3,75.8C117.3,75.8,117.3,75.8,117.3,75.8z"/>
	<path class="st35" d="M116.6,75.8C116.6,75.8,116.6,75.8,116.6,75.8C116.6,75.8,116.6,75.8,116.6,75.8
		C116.6,75.8,116.6,75.8,116.6,75.8z"/>
	<path class="st36" d="M119.4,73.6C119.4,73.6,119.4,73.5,119.4,73.6C119.4,73.6,119.4,73.6,119.4,73.6z"/>
	<polygon class="st36" points="119.6,73.5 119.6,73.5 119.6,73.5 	"/>
	<path class="st35" d="M115.2,75.6c-0.1-0.1,0-0.1,0.1-0.1C115.3,75.6,115.2,75.6,115.2,75.6z"/>
	<path class="st36" d="M117.1,75c0.1,0,0.1,0.1,0.1,0.1C117.1,75.1,117.1,75.1,117.1,75z"/>
	<path class="st37" d="M115.7,67.9C115.7,67.9,115.7,67.9,115.7,67.9C115.7,67.9,115.8,67.9,115.7,67.9
		C115.8,67.9,115.8,67.9,115.7,67.9z"/>
</g>
<g>
	<path class="st34" d="M132.9,71.5c-0.1,0.2-0.2,0.4-0.3,0.5c0,0-0.1,0.1-0.1,0.1c-0.2,0.2-0.5,0.4-0.8,0.5
		c-0.3,0.1-0.5,0.1-0.8,0.1c-0.3,0-0.5,0-0.8-0.1c-0.3-0.1-0.5-0.2-0.8-0.3c0.1,0.3,0.1,0.5,0.2,0.8c0.1,0.2,0.2,0.5,0.3,0.7
		c0,0.1,0,0.1,0.1,0.1c0.1,0.1,0.1,0.2,0.2,0.3c0.1,0.1,0.2,0.3,0.3,0.4c-0.1,0-0.1,0-0.2,0c-0.1,0-0.1,0-0.2,0c-0.3,0-0.5,0-0.8,0
		c0,0-0.1,0-0.1,0c-0.2,0-0.5,0-0.7,0c-0.3,0-0.5,0-0.8,0c0,0-0.1,0-0.1,0c0-0.1,0.1-0.1,0.1-0.2c0,0,0.1-0.1,0.1-0.1
		c0.1-0.1,0.2-0.3,0.3-0.5c0.1-0.3,0.3-0.5,0.3-0.8c0.1-0.2,0.2-0.5,0.2-0.8c-0.3,0.2-0.6,0.3-0.9,0.4c-0.3,0.1-0.5,0.1-0.8,0.1
		c-0.3,0-0.5,0-0.8-0.1c-0.3-0.1-0.5-0.2-0.7-0.4c-0.3-0.2-0.5-0.5-0.6-0.8c-0.1-0.3-0.1-0.5-0.1-0.8c0-0.3,0.1-0.5,0.2-0.8
		c0.1-0.3,0.3-0.6,0.4-0.8c0-0.1,0.1-0.1,0.1-0.2c0.2-0.2,0.3-0.4,0.5-0.6c0.1-0.1,0.2-0.2,0.3-0.4c0.2-0.1,0.3-0.3,0.5-0.5
		c0.1-0.1,0.2-0.2,0.3-0.4c0.1-0.1,0.3-0.3,0.4-0.4c0.2-0.1,0.3-0.3,0.4-0.5c0.1-0.1,0.2-0.2,0.2-0.3c0.1-0.1,0.1-0.1,0.2-0.2
		c0.1-0.1,0.1-0.2,0.2-0.2c0,0,0,0,0-0.1l0,0c0.2-0.2,0.3-0.5,0.5-0.7c0.1-0.2,0.1-0.2,0.2,0c0.1,0.1,0.1,0.2,0.2,0.3
		c0,0,0,0.1,0,0.1c0.2,0.3,0.3,0.5,0.5,0.8c0.1,0.1,0.2,0.2,0.3,0.3l0,0c0,0,0,0,0.1,0.1c0.1,0.2,0.3,0.3,0.4,0.5
		c0.1,0.1,0.2,0.3,0.4,0.4c0.1,0.1,0.2,0.3,0.4,0.4c0.1,0.1,0.3,0.3,0.4,0.4c0.1,0.1,0.3,0.3,0.4,0.4c0.1,0.2,0.3,0.4,0.4,0.6
		c0,0.1,0.1,0.2,0.1,0.2c0.1,0.3,0.3,0.5,0.4,0.8c0.1,0.3,0.1,0.5,0.1,0.8C133,71,133,71.2,132.9,71.5z"/>
	<path class="st35" d="M130,74.7c0.1,0,0.1,0,0.2,0C130.1,74.8,130.1,74.8,130,74.7C130,74.8,130,74.7,130,74.7z"/>
	<path class="st35" d="M129.1,74.7C129.1,74.7,129.2,74.7,129.1,74.7C129.2,74.7,129.2,74.8,129.1,74.7
		C129.2,74.8,129.1,74.8,129.1,74.7z"/>
	<path class="st36" d="M132.5,72.1C132.5,72.1,132.5,72.1,132.5,72.1C132.5,72.1,132.5,72.1,132.5,72.1z"/>
	<polygon class="st36" points="132.7,72 132.7,72 132.7,72 	"/>
	<path class="st35" d="M127.5,74.6c-0.1-0.1,0-0.1,0.1-0.1C127.6,74.5,127.5,74.5,127.5,74.6z"/>
	<path class="st36" d="M129.7,73.8c0.1,0,0.1,0.1,0.1,0.1C129.8,74,129.7,73.9,129.7,73.8z"/>
	<path class="st37" d="M128.1,65.4C128.1,65.4,128.1,65.4,128.1,65.4C128.1,65.3,128.2,65.3,128.1,65.4
		C128.2,65.3,128.1,65.4,128.1,65.4z"/>
</g>
<g>
	<path class="st34" d="M168.1,132.1c0.1-0.2,0.2-0.3,0.3-0.5c0,0,0,0,0.1-0.1c0.2-0.2,0.4-0.3,0.7-0.4c0.2-0.1,0.5-0.1,0.7-0.1
		c0.2,0,0.5,0,0.7,0.1c0.2,0.1,0.4,0.2,0.7,0.3c-0.1-0.2-0.1-0.5-0.2-0.7c0-0.2-0.1-0.4-0.2-0.6c0-0.1,0-0.1-0.1-0.1
		c0-0.1-0.1-0.2-0.2-0.2c-0.1-0.1-0.2-0.2-0.3-0.4c0,0,0.1,0,0.1,0c0,0,0.1,0,0.1,0c0.2,0,0.5,0,0.7,0c0,0,0,0,0.1,0
		c0.2,0,0.4,0,0.6,0c0.2,0,0.5,0,0.7,0c0,0,0.1,0,0.1,0c0,0.1,0,0.1-0.1,0.2c0,0-0.1,0.1-0.1,0.1c-0.1,0.1-0.2,0.2-0.2,0.4
		c-0.1,0.2-0.2,0.4-0.3,0.7c-0.1,0.2-0.1,0.4-0.2,0.7c0.3-0.2,0.5-0.2,0.8-0.3c0.2,0,0.5-0.1,0.7-0.1c0.2,0,0.5,0,0.7,0.1
		c0.2,0.1,0.4,0.2,0.6,0.3c0.2,0.2,0.4,0.4,0.5,0.7c0.1,0.2,0.1,0.5,0.1,0.7c0,0.2-0.1,0.5-0.1,0.7c-0.1,0.2-0.2,0.5-0.3,0.7
		c0,0.1-0.1,0.1-0.1,0.2c-0.1,0.2-0.3,0.3-0.4,0.5c-0.1,0.1-0.2,0.2-0.3,0.3c-0.2,0.1-0.3,0.2-0.4,0.4c-0.1,0.1-0.2,0.2-0.3,0.3
		c-0.1,0.1-0.2,0.2-0.3,0.3c-0.1,0.1-0.2,0.3-0.3,0.4c-0.1,0.1-0.1,0.2-0.2,0.3c0,0.1-0.1,0.1-0.1,0.2c-0.1,0.1-0.1,0.1-0.2,0.2
		c0,0,0,0,0,0l0,0c-0.2,0.2-0.3,0.4-0.4,0.6c-0.1,0.2-0.1,0.2-0.2,0c-0.1-0.1-0.1-0.2-0.2-0.3c0,0,0,0,0-0.1
		c-0.1-0.2-0.3-0.5-0.4-0.7c-0.1-0.1-0.1-0.2-0.2-0.3l0,0c0,0,0,0,0,0c-0.1-0.2-0.2-0.3-0.3-0.4c-0.1-0.1-0.2-0.2-0.3-0.3
		c-0.1-0.1-0.2-0.2-0.3-0.3c-0.1-0.1-0.2-0.2-0.3-0.3c-0.1-0.1-0.2-0.2-0.4-0.4c-0.1-0.2-0.2-0.3-0.4-0.5c0-0.1-0.1-0.1-0.1-0.2
		c-0.1-0.2-0.2-0.4-0.3-0.7c-0.1-0.2-0.1-0.5-0.1-0.7C168,132.6,168,132.3,168.1,132.1z"/>
	<path class="st35" d="M170.5,129.4c0,0-0.1,0-0.1,0C170.4,129.4,170.5,129.4,170.5,129.4C170.5,129.4,170.5,129.4,170.5,129.4z"/>
	<path class="st35" d="M171.3,129.4C171.3,129.4,171.2,129.4,171.3,129.4C171.2,129.4,171.2,129.4,171.3,129.4
		C171.2,129.4,171.3,129.4,171.3,129.4z"/>
	<path class="st36" d="M168.5,131.6C168.4,131.6,168.4,131.6,168.5,131.6C168.4,131.6,168.4,131.6,168.5,131.6z"/>
	<polygon class="st36" points="168.3,131.7 168.3,131.7 168.3,131.7 	"/>
	<path class="st35" d="M172.6,129.6c0.1,0.1,0,0.1-0.1,0.1C172.6,129.6,172.6,129.6,172.6,129.6z"/>
	<path class="st36" d="M170.8,130.2c-0.1,0-0.1-0.1-0.1-0.1C170.7,130.1,170.8,130.1,170.8,130.2z"/>
	<path class="st37" d="M172.1,137.3C172.1,137.3,172.1,137.3,172.1,137.3C172.1,137.3,172.1,137.3,172.1,137.3
		C172.1,137.3,172.1,137.3,172.1,137.3z"/>
</g>
<g>
	<path class="st34" d="M155.3,133c0.1-0.2,0.2-0.4,0.3-0.5c0,0,0.1-0.1,0.1-0.1c0.2-0.2,0.5-0.4,0.8-0.5c0.3-0.1,0.5-0.1,0.8-0.1
		c0.3,0,0.5,0,0.8,0.1c0.3,0.1,0.5,0.2,0.8,0.3c-0.1-0.3-0.1-0.5-0.2-0.8c-0.1-0.2-0.2-0.5-0.3-0.7c0-0.1,0-0.1-0.1-0.1
		c-0.1-0.1-0.1-0.2-0.2-0.3c-0.1-0.1-0.2-0.3-0.3-0.4c0.1,0,0.1,0,0.2,0c0.1,0,0.1,0,0.2,0c0.3,0,0.5,0,0.8,0c0,0,0.1,0,0.1,0
		c0.2,0,0.5,0,0.7,0c0.3,0,0.5,0,0.8,0c0,0,0.1,0,0.1,0c0,0.1-0.1,0.1-0.1,0.2c0,0-0.1,0.1-0.1,0.1c-0.1,0.1-0.2,0.3-0.3,0.5
		c-0.1,0.3-0.3,0.5-0.3,0.8c-0.1,0.2-0.2,0.5-0.2,0.8c0.3-0.2,0.6-0.3,0.9-0.4c0.3-0.1,0.5-0.1,0.8-0.1c0.3,0,0.5,0,0.8,0.1
		c0.3,0.1,0.5,0.2,0.7,0.4c0.3,0.2,0.5,0.5,0.6,0.8c0.1,0.3,0.1,0.5,0.1,0.8c0,0.3-0.1,0.5-0.2,0.8c-0.1,0.3-0.3,0.6-0.4,0.8
		c0,0.1-0.1,0.1-0.1,0.2c-0.2,0.2-0.3,0.4-0.5,0.6c-0.1,0.1-0.2,0.2-0.3,0.4c-0.2,0.1-0.3,0.3-0.5,0.5c-0.1,0.1-0.2,0.2-0.3,0.4
		c-0.1,0.1-0.3,0.3-0.4,0.4c-0.2,0.1-0.3,0.3-0.4,0.5c-0.1,0.1-0.2,0.2-0.2,0.3c-0.1,0.1-0.1,0.1-0.2,0.2c-0.1,0.1-0.1,0.2-0.2,0.2
		c0,0,0,0,0,0.1l0,0c-0.2,0.2-0.3,0.5-0.5,0.7c-0.1,0.2-0.1,0.2-0.2,0c-0.1-0.1-0.1-0.2-0.2-0.3c0,0,0-0.1,0-0.1
		c-0.2-0.3-0.3-0.5-0.5-0.8c-0.1-0.1-0.2-0.2-0.3-0.3l0,0c0,0,0,0-0.1-0.1c-0.1-0.2-0.3-0.3-0.4-0.5c-0.1-0.1-0.2-0.3-0.4-0.4
		c-0.1-0.1-0.2-0.3-0.4-0.4c-0.1-0.1-0.3-0.3-0.4-0.4c-0.1-0.1-0.3-0.3-0.4-0.4c-0.1-0.2-0.3-0.4-0.4-0.6c0-0.1-0.1-0.2-0.1-0.2
		c-0.1-0.3-0.3-0.5-0.4-0.8c-0.1-0.3-0.1-0.5-0.1-0.8C155.1,133.5,155.2,133.2,155.3,133z"/>
	<path class="st35" d="M158.1,129.7c-0.1,0-0.1,0-0.2,0C158,129.7,158.1,129.7,158.1,129.7C158.1,129.7,158.1,129.7,158.1,129.7z"/>
	<path class="st35" d="M159,129.7C159,129.8,159,129.8,159,129.7C159,129.7,159,129.7,159,129.7C159,129.7,159,129.7,159,129.7z"/>
	<path class="st36" d="M155.7,132.3C155.7,132.4,155.6,132.4,155.7,132.3C155.6,132.4,155.6,132.3,155.7,132.3z"/>
	<polygon class="st36" points="155.5,132.4 155.4,132.4 155.5,132.4 	"/>
	<path class="st35" d="M160.7,129.9c0.1,0.1,0,0.1-0.1,0.1C160.6,130,160.6,130,160.7,129.9z"/>
	<path class="st36" d="M158.4,130.6c-0.1,0-0.1-0.1-0.1-0.1C158.4,130.5,158.4,130.6,158.4,130.6z"/>
	<path class="st37" d="M160,139.1C160,139.1,160,139.1,160,139.1C160,139.1,160,139.1,160,139.1C160,139.1,160,139.1,160,139.1z"/>
</g>
<text transform="matrix(1 0 0 1 205.8822 62.8883)" class="st12 st13">4</text>
<text transform="matrix(-1 0 0 -1 266.7278 141.4947)" class="st12 st13">4</text>
<g>
	<path d="M209,71c0,0.1,0,0.1,0,0.2c0,0.3,0.1,0.6,0.1,0.9c0.2,0.6,0.5,1.1,1.1,1.5c0.2,0.1,0.4,0.2,0.6,0.2
		c0.2,0.1,0.4,0.1,0.6,0.2c0.1,0,0.1,0,0.2,0.1c0,0.1,0,0.1,0,0.1c-0.1,0-0.2,0-0.3,0c-0.4,0-0.8,0-1.2,0c-0.8,0-1.6,0-2.4,0
		c-0.4,0-0.8,0-1.2,0c0,0-0.1,0-0.1,0c0,0,0,0,0,0c0,0,0-0.1,0.1-0.1c0.1,0,0.2-0.1,0.2-0.1c0.2-0.1,0.4-0.1,0.6-0.2
		c0.4-0.1,0.8-0.4,1-0.7c0.3-0.4,0.5-0.8,0.5-1.3c0-0.2,0-0.4,0-0.6c0,0,0,0,0-0.1c0,0,0,0,0,0c0,0,0,0,0,0c0,0,0,0,0,0
		c-0.1,0.2-0.2,0.4-0.4,0.5c-0.3,0.4-0.8,0.7-1.3,0.8c-0.7,0.1-1.5-0.2-1.8-0.9c-0.1-0.1-0.1-0.2-0.2-0.4c-0.1-0.2-0.1-0.4,0-0.6
		c0-0.4,0.2-0.8,0.5-1c0.1-0.2,0.3-0.3,0.5-0.4c0.1-0.1,0.2-0.1,0.3-0.1c0.2,0,0.5,0,0.7,0.1c0.1,0,0.2,0.1,0.3,0.1c0,0,0.1,0,0.1,0
		c0,0,0,0,0,0c0-0.1,0-0.1-0.1-0.1c0-0.1-0.1-0.2-0.2-0.3c-0.1-0.2-0.1-0.4-0.1-0.7c0-0.2,0.1-0.5,0.2-0.7c0.2-0.4,0.6-0.7,1-0.8
		c0.3-0.1,0.7-0.1,1,0c0.5,0.2,0.8,0.5,1,0.9c0.1,0.2,0.1,0.4,0.1,0.6c0,0.2,0,0.4-0.1,0.6c-0.1,0.1-0.1,0.3-0.2,0.4
		c0,0,0,0.1,0,0.1c0,0,0,0,0.1,0c0.1,0,0.2-0.1,0.4-0.2c0.5-0.2,1-0.1,1.4,0.2c0.3,0.2,0.5,0.6,0.6,0.9c0.1,0.2,0,0.4,0,0.7
		c0,0.1,0,0.2-0.1,0.4c-0.2,0.4-0.4,0.7-0.8,0.9c-0.5,0.3-0.9,0.3-1.4,0.1c-0.5-0.2-0.8-0.4-1.1-0.8C209.3,71.4,209.2,71.3,209,71
		C209.1,71.1,209.1,71.1,209,71z"/>
</g>
<g>
	<path d="M264,133.4c0-0.1,0-0.1,0-0.2c0-0.3-0.1-0.6-0.1-0.9c-0.2-0.6-0.5-1.1-1.1-1.5c-0.2-0.1-0.4-0.2-0.6-0.2
		c-0.2-0.1-0.4-0.1-0.6-0.2c-0.1,0-0.1,0-0.2-0.1c0-0.1,0-0.1,0-0.1c0.1,0,0.2,0,0.3,0c0.4,0,0.8,0,1.2,0c0.8,0,1.6,0,2.4,0
		c0.4,0,0.8,0,1.2,0c0,0,0.1,0,0.1,0c0,0,0,0,0,0c0,0,0,0.1-0.1,0.1c-0.1,0-0.2,0.1-0.2,0.1c-0.2,0.1-0.4,0.1-0.6,0.2
		c-0.4,0.1-0.8,0.4-1,0.7c-0.3,0.4-0.5,0.8-0.5,1.3c0,0.2,0,0.4,0,0.6c0,0,0,0,0,0.1c0,0,0,0,0,0c0,0,0,0,0,0c0,0,0,0,0,0
		c0.1-0.2,0.2-0.4,0.4-0.5c0.3-0.4,0.8-0.7,1.3-0.8c0.7-0.1,1.5,0.2,1.8,0.9c0.1,0.1,0.1,0.2,0.2,0.4c0.1,0.2,0.1,0.4,0,0.6
		c0,0.4-0.2,0.8-0.5,1c-0.1,0.2-0.3,0.3-0.5,0.4c-0.1,0.1-0.2,0.1-0.3,0.1c-0.2,0-0.5,0-0.7-0.1c-0.1,0-0.2-0.1-0.3-0.1
		c0,0-0.1,0-0.1,0c0,0,0,0,0,0c0,0.1,0,0.1,0.1,0.1c0,0.1,0.1,0.2,0.2,0.3c0.1,0.2,0.1,0.4,0.1,0.7c0,0.2-0.1,0.5-0.2,0.7
		c-0.2,0.4-0.6,0.7-1,0.8c-0.3,0.1-0.7,0.1-1,0c-0.5-0.2-0.8-0.5-1-0.9c-0.1-0.2-0.1-0.4-0.1-0.6c0-0.2,0-0.4,0.1-0.6
		c0.1-0.1,0.1-0.3,0.2-0.4c0,0,0-0.1,0-0.1c0,0,0,0-0.1,0c-0.1,0-0.2,0.1-0.4,0.2c-0.5,0.2-1,0.1-1.4-0.2c-0.3-0.2-0.5-0.6-0.6-0.9
		c-0.1-0.2,0-0.4,0-0.7c0-0.1,0-0.2,0.1-0.4c0.2-0.4,0.4-0.7,0.8-0.9c0.5-0.3,0.9-0.3,1.4-0.1c0.5,0.2,0.8,0.4,1.1,0.8
		C263.8,133,263.9,133.2,264,133.4C264,133.4,264,133.4,264,133.4z"/>
</g>
<text transform="matrix(1 0 0 1 295.1927 62.8881)" class="st12 st13">6</text>
<g>
	<path d="M222.6,81.1c0,0.1,0,0.3,0,0.4c0.1,0.7,0.1,1.4,0.3,2.1c0.4,1.6,1.3,2.8,2.6,3.6c0.4,0.3,0.9,0.4,1.4,0.6
		c0.5,0.1,0.9,0.3,1.4,0.4c0.2,0,0.3,0.1,0.4,0.2c0.1,0.1,0.1,0.2-0.1,0.2c-0.2,0.1-0.5,0.1-0.7,0.1c-1,0-1.9,0-2.9,0
		c-2,0-3.9,0-5.9,0c-0.9,0-1.9,0-2.8,0c-0.1,0-0.2,0-0.3,0c-0.1,0-0.1,0-0.1-0.1c0-0.1,0.1-0.2,0.2-0.2c0.2-0.1,0.4-0.2,0.6-0.3
		c0.5-0.2,1-0.3,1.6-0.5c1-0.3,1.8-0.9,2.5-1.8c0.7-0.9,1.1-1.9,1.3-3.1c0.1-0.5,0.1-1,0.1-1.4c0-0.1,0-0.1,0-0.2c0,0,0-0.1,0-0.1
		c0,0-0.1,0-0.1,0.1c0,0,0,0.1-0.1,0.1c-0.3,0.4-0.5,0.9-0.9,1.3c-0.8,1-1.9,1.7-3.2,2c-1.8,0.3-3.7-0.6-4.5-2.2
		c-0.1-0.3-0.3-0.6-0.4-0.9c-0.1-0.5-0.1-0.9-0.1-1.4c0.1-1,0.6-1.8,1.2-2.6c0.4-0.4,0.8-0.7,1.2-0.9c0.3-0.1,0.5-0.2,0.8-0.2
		c0.6,0,1.2,0.1,1.7,0.2c0.3,0.1,0.5,0.2,0.7,0.3c0.1,0,0.1,0,0.2,0.1c0.1,0,0.1,0,0.1-0.1c0-0.1-0.1-0.2-0.1-0.4
		c-0.1-0.3-0.3-0.5-0.4-0.8c-0.2-0.5-0.3-1.1-0.2-1.6c0.1-0.6,0.2-1.2,0.5-1.7c0.5-1.1,1.4-1.7,2.5-2c0.8-0.2,1.7-0.2,2.5,0.1
		c1.1,0.4,1.9,1.2,2.3,2.3c0.2,0.5,0.3,1,0.3,1.5c0,0.6-0.1,1.1-0.3,1.6c-0.1,0.3-0.3,0.6-0.4,0.9c0,0.1-0.1,0.1,0,0.2
		c0,0,0.1,0,0.2,0c0.3-0.1,0.6-0.3,0.9-0.4c1.3-0.4,2.4-0.2,3.4,0.6c0.7,0.6,1.2,1.4,1.4,2.3c0.1,0.5,0.1,1.1,0.1,1.6
		c0,0.3-0.1,0.6-0.2,0.9c-0.4,0.9-1,1.7-1.9,2.2c-1.1,0.7-2.3,0.8-3.5,0.3c-1.1-0.4-2-1.1-2.7-2c-0.3-0.3-0.5-0.7-0.7-1.1
		C222.7,81.2,222.7,81.1,222.6,81.1z"/>
</g>
<g>
	<path d="M252.6,81.1c0,0.1,0,0.3,0,0.4c0.1,0.7,0.1,1.4,0.3,2.1c0.4,1.6,1.3,2.8,2.6,3.6c0.4,0.3,0.9,0.4,1.4,0.6
		c0.5,0.1,0.9,0.3,1.4,0.4c0.2,0,0.3,0.1,0.4,0.2c0.1,0.1,0.1,0.2-0.1,0.2c-0.2,0.1-0.5,0.1-0.7,0.1c-1,0-1.9,0-2.9,0
		c-2,0-3.9,0-5.9,0c-0.9,0-1.9,0-2.8,0c-0.1,0-0.2,0-0.3,0c-0.1,0-0.1,0-0.1-0.1c0-0.1,0.1-0.2,0.2-0.2c0.2-0.1,0.4-0.2,0.6-0.3
		c0.5-0.2,1-0.3,1.6-0.5c1-0.3,1.8-0.9,2.5-1.8c0.7-0.9,1.1-1.9,1.3-3.1c0.1-0.5,0.1-1,0.1-1.4c0-0.1,0-0.1,0-0.2c0,0,0-0.1,0-0.1
		c0,0-0.1,0-0.1,0.1c0,0,0,0.1-0.1,0.1c-0.3,0.4-0.5,0.9-0.9,1.3c-0.8,1-1.9,1.7-3.2,2c-1.8,0.3-3.7-0.6-4.5-2.2
		c-0.1-0.3-0.3-0.6-0.4-0.9c-0.1-0.5-0.1-0.9-0.1-1.4c0.1-1,0.6-1.8,1.2-2.6c0.4-0.4,0.8-0.7,1.2-0.9c0.3-0.1,0.5-0.2,0.8-0.2
		c0.6,0,1.2,0.1,1.7,0.2c0.3,0.1,0.5,0.2,0.7,0.3c0.1,0,0.1,0,0.2,0.1c0.1,0,0.1,0,0.1-0.1c0-0.1-0.1-0.2-0.1-0.4
		c-0.1-0.3-0.3-0.5-0.4-0.8c-0.2-0.5-0.3-1.1-0.2-1.6c0.1-0.6,0.2-1.2,0.5-1.7c0.5-1.1,1.4-1.7,2.5-2c0.8-0.2,1.7-0.2,2.5,0.1
		c1.1,0.4,1.9,1.2,2.3,2.3c0.2,0.5,0.3,1,0.3,1.5c0,0.6-0.1,1.1-0.3,1.6c-0.1,0.3-0.3,0.6-0.4,0.9c0,0.1-0.1,0.1,0,0.2
		c0,0,0.1,0,0.2,0c0.3-0.1,0.6-0.3,0.9-0.4c1.3-0.4,2.4-0.2,3.4,0.6c0.7,0.6,1.2,1.4,1.4,2.3c0.1,0.5,0.1,1.1,0.1,1.6
		c0,0.3-0.1,0.6-0.2,0.9c-0.4,0.9-1,1.7-1.9,2.2c-1.1,0.7-2.3,0.8-3.5,0.3c-1.1-0.4-2-1.1-2.7-2c-0.3-0.3-0.5-0.7-0.7-1.1
		C252.7,81.2,252.7,81.1,252.6,81.1z"/>
</g>
<g>
	<path d="M252.3,120.9c0-0.1,0-0.3,0-0.4c-0.1-0.7-0.1-1.4-0.3-2.1c-0.4-1.6-1.3-2.8-2.6-3.6c-0.4-0.3-0.9-0.4-1.4-0.6
		c-0.5-0.1-0.9-0.3-1.4-0.4c-0.2,0-0.3-0.1-0.4-0.2c-0.1-0.1-0.1-0.2,0.1-0.2c0.2-0.1,0.5-0.1,0.7-0.1c1,0,1.9,0,2.9,0
		c2,0,3.9,0,5.9,0c0.9,0,1.9,0,2.8,0c0.1,0,0.2,0,0.3,0c0.1,0,0.1,0,0.1,0.1c0,0.1-0.1,0.2-0.2,0.2c-0.2,0.1-0.4,0.2-0.6,0.3
		c-0.5,0.2-1,0.3-1.6,0.5c-1,0.3-1.8,0.9-2.5,1.8c-0.7,0.9-1.1,1.9-1.3,3.1c-0.1,0.5-0.1,1-0.1,1.4c0,0.1,0,0.1,0,0.2
		c0,0,0,0.1,0,0.1c0,0,0.1,0,0.1-0.1c0,0,0-0.1,0.1-0.1c0.3-0.4,0.5-0.9,0.9-1.3c0.8-1,1.9-1.7,3.2-2c1.8-0.3,3.7,0.6,4.5,2.2
		c0.1,0.3,0.3,0.6,0.4,0.9c0.1,0.5,0.1,0.9,0.1,1.4c-0.1,1-0.6,1.8-1.2,2.6c-0.4,0.4-0.8,0.7-1.2,0.9c-0.3,0.1-0.5,0.2-0.8,0.2
		c-0.6,0-1.2-0.1-1.7-0.2c-0.3-0.1-0.5-0.2-0.7-0.3c-0.1,0-0.1,0-0.2-0.1c-0.1,0-0.1,0-0.1,0.1c0,0.1,0.1,0.2,0.1,0.4
		c0.1,0.3,0.3,0.5,0.4,0.8c0.2,0.5,0.3,1.1,0.2,1.6c-0.1,0.6-0.2,1.2-0.5,1.7c-0.5,1.1-1.4,1.7-2.5,2c-0.8,0.2-1.7,0.2-2.5-0.1
		c-1.1-0.4-1.9-1.2-2.3-2.3c-0.2-0.5-0.3-1-0.3-1.5c0-0.6,0.1-1.1,0.3-1.6c0.1-0.3,0.3-0.6,0.4-0.9c0-0.1,0.1-0.1,0-0.2
		c0,0-0.1,0-0.2,0c-0.3,0.1-0.6,0.3-0.9,0.4c-1.3,0.4-2.4,0.2-3.4-0.6c-0.7-0.6-1.2-1.4-1.4-2.3c-0.1-0.5-0.1-1.1-0.1-1.6
		c0-0.3,0.1-0.6,0.2-0.9c0.4-0.9,1-1.7,1.9-2.2c1.1-0.7,2.3-0.8,3.5-0.3c1.1,0.4,2,1.1,2.7,2c0.3,0.3,0.5,0.7,0.7,1.1
		C252.2,120.7,252.2,120.8,252.3,120.9z"/>
</g>
<g>
	<path d="M222.3,120.9c0-0.1,0-0.3,0-0.4c-0.1-0.7-0.1-1.4-0.3-2.1c-0.4-1.6-1.3-2.8-2.6-3.6c-0.4-0.3-0.9-0.4-1.4-0.6
		c-0.5-0.1-0.9-0.3-1.4-0.4c-0.2,0-0.3-0.1-0.4-0.2c-0.1-0.1-0.1-0.2,0.1-0.2c0.2-0.1,0.5-0.1,0.7-0.1c1,0,1.9,0,2.9,0
		c2,0,3.9,0,5.9,0c0.9,0,1.9,0,2.8,0c0.1,0,0.2,0,0.3,0c0.1,0,0.1,0,0.1,0.1c0,0.1-0.1,0.2-0.2,0.2c-0.2,0.1-0.4,0.2-0.6,0.3
		c-0.5,0.2-1,0.3-1.6,0.5c-1,0.3-1.8,0.9-2.5,1.8c-0.7,0.9-1.1,1.9-1.3,3.1c-0.1,0.5-0.1,1-0.1,1.4c0,0.1,0,0.1,0,0.2
		c0,0,0,0.1,0,0.1c0,0,0.1,0,0.1-0.1c0,0,0-0.1,0.1-0.1c0.3-0.4,0.5-0.9,0.9-1.3c0.8-1,1.9-1.7,3.2-2c1.8-0.3,3.7,0.6,4.5,2.2
		c0.1,0.3,0.3,0.6,0.4,0.9c0.1,0.5,0.1,0.9,0.1,1.4c-0.1,1-0.6,1.8-1.2,2.6c-0.4,0.4-0.8,0.7-1.2,0.9c-0.3,0.1-0.5,0.2-0.8,0.2
		c-0.6,0-1.2-0.1-1.7-0.2c-0.3-0.1-0.5-0.2-0.7-0.3c-0.1,0-0.1,0-0.2-0.1c-0.1,0-0.1,0-0.1,0.1c0,0.1,0.1,0.2,0.1,0.4
		c0.1,0.3,0.3,0.5,0.4,0.8c0.2,0.5,0.3,1.1,0.2,1.6c-0.1,0.6-0.2,1.2-0.5,1.7c-0.5,1.1-1.4,1.7-2.5,2c-0.8,0.2-1.7,0.2-2.5-0.1
		c-1.1-0.4-1.9-1.2-2.3-2.3c-0.2-0.5-0.3-1-0.3-1.5c0-0.6,0.1-1.1,0.3-1.6c0.1-0.3,0.3-0.6,0.4-0.9c0-0.1,0.1-0.1,0-0.2
		c0,0-0.1,0-0.2,0c-0.3,0.1-0.6,0.3-0.9,0.4c-1.3,0.4-2.4,0.2-3.4-0.6c-0.7-0.6-1.2-1.4-1.4-2.3c-0.1-0.5-0.1-1.1-0.1-1.6
		c0-0.3,0.1-0.6,0.2-0.9c0.4-0.9,1-1.7,1.9-2.2c1.1-0.7,2.3-0.8,3.5-0.3c1.1,0.4,2,1.1,2.7,2c0.3,0.3,0.5,0.7,0.7,1.1
		C222.2,120.7,222.2,120.8,222.3,120.9z"/>
</g>
<rect x="305.1" y="70.1" transform="matrix(0.7071 -0.7071 0.7071 0.7071 37.1804 242.6294)" class="st7" width="12.7" height="12.7"/>
<rect x="305.1" y="100.1" transform="matrix(0.7071 -0.7071 0.7071 0.7071 15.9671 251.4162)" class="st7" width="12.7" height="12.7"/>
<rect x="305.1" y="130.1" transform="matrix(0.7071 -0.7071 0.7071 0.7071 -5.2461 260.203)" class="st7" width="12.7" height="12.7"/>
<rect x="332.1" y="70.1" transform="matrix(0.7071 -0.7071 0.7071 0.7071 45.0885 261.7213)" class="st7" width="12.7" height="12.7"/>
<rect x="332.1" y="100.1" transform="matrix(0.7071 -0.7071 0.7071 0.7071 23.8753 270.5081)" class="st7" width="12.7" height="12.7"/>
<rect x="332.1" y="130.1" transform="matrix(0.7071 -0.7071 0.7071 0.7071 2.662 279.2949)" class="st7" width="12.7" height="12.7"/>
<rect x="295.7" y="66.3" transform="matrix(0.7071 -0.7071 0.7071 0.7071 38.6503 231.098)" class="st7" width="5.3" height="5.3"/>
<text transform="matrix(-1 0 0 -1 357.0907 141.2967)" class="st12 st13">6</text>
<rect x="351.4" y="132.7" transform="matrix(-0.7071 0.7071 -0.7071 -0.7071 699.976 -19.36)" class="st7" width="5.3" height="5.3"/>
</svg>
