<?xml version="1.0" encoding="utf-8"?>
<!-- Generator: Adobe Illustrator 24.0.1, SVG Export Plug-In . SVG Version: 6.00 Build 0)  -->
<svg version="1.1" id="Layer_3" xmlns="http://www.w3.org/2000/svg" xmlns:xlink="http://www.w3.org/1999/xlink" x="0px" y="0px"
	 viewBox="0 0 383 200.3" style="enable-background:new 0 0 383 200.3;" xml:space="preserve">
<style type="text/css">
	.st0{fill:#EEEFED;}
	.st1{opacity:0.13;}
	.st2{fill:none;stroke:#999999;stroke-width:0.2348;stroke-miterlimit:10;}
	.st3{fill:#EEEFED;stroke:#999999;stroke-width:0.2348;stroke-miterlimit:10;}
	.st4{fill:#CCCCCC;stroke:#999999;stroke-width:0.2348;stroke-miterlimit:10;}
	.st5{fill:none;stroke:#999999;stroke-width:0.2348;stroke-miterlimit:10;stroke-dasharray:1.8784;}
	.st6{fill:none;stroke:#000000;stroke-width:1.2;stroke-miterlimit:10;}
	.st7{fill:#E72B78;}
	.st8{fill:#F9B443;}
	.st9{fill:none;stroke:#000000;stroke-width:1.414;stroke-miterlimit:10;}
	.st10{fill:#FFFFFF;}
	.st11{fill:#FFFFFF;stroke:#000000;stroke-width:0.6858;stroke-miterlimit:10;}
	.st12{opacity:0.91;}
	.st13{fill:#FF3369;}
	.st14{fill:#FFAE00;}
	.st15{fill:#723F33;}
	.st16{opacity:0.28;fill:#542C1C;enable-background:new    ;}
	.st17{opacity:0.6;fill:#603826;enable-background:new    ;}
	.st18{fill:#603826;}
	.st19{opacity:0.4;fill:#603826;enable-background:new    ;}
	.st20{fill:#F4F4F4;}
	.st21{fill:#DBDDDC;}
	.st22{fill:#B2B2B2;}
	.st23{fill:#E09220;}
	.st24{opacity:0.28;fill:#603826;enable-background:new    ;}
	.st25{fill:#C40E50;}
	.st26{fill:#FFFFFF;stroke:#000000;stroke-width:0.9534;stroke-miterlimit:10;}
	.st27{clip-path:url(#XMLID_5_);}
	.st28{clip-path:url(#XMLID_40_);}
	.st29{fill:#FFB53F;}
	.st30{fill:none;stroke:url(#SVGID_1_);stroke-width:0.3757;stroke-miterlimit:10;}
	.st31{fill:#0E0E0E;}
	.st32{fill:#010101;}
	.st33{fill:#E5E5E5;}
	.st34{fill:#EAEAEA;}
	.st35{fill:#E8E8E8;}
	.st36{fill:#FFFFFF;stroke:#000000;stroke-width:0.327;stroke-miterlimit:10;}
	.st37{opacity:0.44;}
	.st38{fill:#EA9628;}
	.st39{fill:#0D48CC;}
	.st40{fill:#AA0550;}
	.st41{fill:#BC1B5C;}
	.st42{fill:#DD891B;}
	.st43{fill:#002A75;}
	.st44{fill:#06307A;}
	.st45{fill:#CCCCCC;}
	.st46{fill:#71399F;}
	.st47{fill:#03347A;}
	.st48{fill:none;stroke:#EEEFED;stroke-width:3.1536;stroke-miterlimit:10;}
	.st49{opacity:0.24;fill:#56330A;}
	.st50{stroke:#000000;stroke-width:2.0888;stroke-miterlimit:10;}
	.st51{fill:#EEEFED;stroke:#000000;stroke-width:2.0888;stroke-miterlimit:10;}
	.st52{stroke:#000000;stroke-width:1.7;stroke-miterlimit:10;}
	.st53{fill:#EEEFED;stroke:#000000;stroke-width:1.7;stroke-miterlimit:10;}
	.st54{stroke:#000000;stroke-width:1.3;stroke-miterlimit:10;}
	.st55{fill:#EEEFED;stroke:#000000;stroke-width:1.3;stroke-miterlimit:10;}
	.st56{stroke:#000000;stroke-width:2;stroke-miterlimit:10;}
	.st57{stroke:#000000;stroke-width:1.912;stroke-miterlimit:10;}
	.st58{fill:none;stroke:#000000;stroke-width:1.912;stroke-miterlimit:10;}
	.st59{font-family:'Exo2-Bold';}
	.st60{font-size:9px;}
	.st61{clip-path:url(#XMLID_211_);}
	.st62{clip-path:url(#XMLID_212_);}
	.st63{fill:none;stroke:url(#SVGID_2_);stroke-width:0.2702;stroke-miterlimit:10;}
	.st64{stroke:#000000;stroke-width:0.5;stroke-miterlimit:10;}
	.st65{font-family:'Exo2-Black';}
	.st66{font-size:11.3118px;}
	.st67{fill:#FFFFFF;stroke:#000000;stroke-width:0.8987;stroke-miterlimit:10;}
	.st68{stroke:#000000;stroke-width:1.2;stroke-miterlimit:10;}
	.st69{fill:#EEEFED;stroke:#000000;stroke-width:1.2;stroke-miterlimit:10;}
	.st70{fill:#EEEFED;stroke:#000000;stroke-width:2;stroke-miterlimit:10;}
	.st71{fill:#EEEFED;stroke:#000000;stroke-width:1.912;stroke-miterlimit:10;}
</style>
<path class="st0" d="M357.4,194.1H25.6c-10.6,0-19.3-8.7-19.3-19.3V25.6c0-10.6,8.7-19.3,19.3-19.3h331.9c10.6,0,19.3,8.7,19.3,19.3
	v149.1C376.8,185.4,368.1,194.1,357.4,194.1z"/>
<text transform="matrix(1 0 0 1 156.148 22.8125)"><tspan x="0" y="0" class="st59 st60">Example of hand</tspan><tspan x="7.5" y="10.8" class="st59 st60">with value 21</tspan></text>
<path class="st1" d="M181.5,181.5h-78.1c-3.1,0-5.7-2.6-5.7-5.7V60c0-3.1,2.6-5.7,5.7-5.7h78.1c3.1,0,5.7,2.6,5.7,5.7v115.8
	C187.3,178.9,184.7,181.5,181.5,181.5z"/>
<path class="st10" d="M172.1,172.1H94c-3.1,0-5.7-2.6-5.7-5.7V50.5c0-3.1,2.6-5.7,5.7-5.7h78.1c3.1,0,5.7,2.6,5.7,5.7v115.8
	C177.8,169.5,175.3,172.1,172.1,172.1z"/>
<text transform="matrix(1 0 0 1 92.9581 57.5584)" class="st65 st66">A</text>
<text transform="matrix(-1 0 0 -1 172.6974 160.574)" class="st65 st66">A</text>
<path class="st1" d="M289,181.5h-78.1c-3.1,0-5.7-2.6-5.7-5.7V60c0-3.1,2.6-5.7,5.7-5.7H289c3.1,0,5.7,2.6,5.7,5.7v115.8
	C294.7,178.9,292.1,181.5,289,181.5z"/>
<path class="st10" d="M279.6,172.1h-78.1c-3.1,0-5.7-2.6-5.7-5.7V50.5c0-3.1,2.6-5.7,5.7-5.7h78.1c3.1,0,5.7,2.6,5.7,5.7v115.8
	C285.3,169.5,282.7,172.1,279.6,172.1z"/>
<path class="st67" d="M264.7,160.6h-48.2c-2.3,0-4.1-1.9-4.1-4.1V60.3c0-2.3,1.9-4.1,4.1-4.1h48.2c2.3,0,4.1,1.9,4.1,4.1v96.1
	C268.8,158.7,267,160.6,264.7,160.6z"/>
<text transform="matrix(1 0 0 1 200.421 57.5584)" class="st65 st66">Q</text>
<text transform="matrix(1 0 0 1 200.421 57.5584)" class="st65 st66">Q</text>
<text transform="matrix(-1 0 0 -1 280.1593 160.574)" class="st65 st66">Q</text>
<g id="Page-1_14_" class="st12">
	<g id="Homepage---Desktop_10_" transform="translate(-581.000000, -1466.000000)">
		<g id="illo_spot_10_" transform="translate(580.000000, 1465.000000)">
			<g id="Layer_14_10_" transform="translate(0.971660, 0.971660)">
				<path id="Path_312_" class="st13" d="M250.6,95.3c-3.6-3.4-6.3-3.7-7.5-4.5l-2.3,0l-2.3,0c-1.3,0.8-4,1.1-7.5,4.5
					c-5.4,5.2-5.6,13.5-5.6,13.5h30.9C256.2,108.9,256,100.5,250.6,95.3z"/>
				<circle id="Oval_24_" class="st14" cx="241.2" cy="73.7" r="14"/>
				<path id="Path_311_" class="st15" d="M239.1,86.7c0.7,1.4,0.7,3.3-0.5,4.2c0,0,0.4,0.7,2.1,0.8c1.7,0,2.1-0.7,2.1-0.7
					s-0.8-0.6-0.8-2c0-1.4,0.3-2.2,0.3-2.2H239.1z"/>
				<path id="Path_310_" class="st16" d="M242.1,87.5l-0.1,0.1c-1.2,1.9-2.9,3-3.4,3.2c0,0,0.9-0.7,0.9-1.7c0-0.7-0.1-1.3-0.2-2
					l1.5,0.9L242.1,87.5z"/>
				<ellipse id="Oval_23_" class="st17" cx="238.9" cy="85.6" rx="0.7" ry="1"/>
				<path id="Path_309_" class="st18" d="M237.3,84.7c0-0.2,0-0.4,0-0.6c0-0.2,0-0.4,0-0.6c0,0,0-0.1,0-0.1
					c-0.2-0.3-0.6-0.4-0.9-0.2c-0.4,0.2-0.5,0.8-0.5,1.2c0,0.4,0.2,0.9,0.7,1c0.2,0.1,0.4,0,0.6-0.1s0.3-0.3,0.3-0.5
					C237.4,84.9,237.3,84.8,237.3,84.7L237.3,84.7z"/>
				<path id="Path_308_" class="st15" d="M245.4,83.5c-0.1-0.1-0.3-0.2-0.5-0.3c0.1-1.1,0.1-2.2-0.2-3.2c-0.2-1-0.9-1.4-0.9-1.4
					s-1.6,1.2-3,1.2c-1.3,0-3-1.2-3-1.2s-0.6,0.4-0.9,1.4c-0.5,2-0.4,4.6,1,6c1.4,1.5,2.9,2,2.9,2s1.5-0.5,2.9-2
					c0.2-0.2,0.4-0.5,0.6-0.8c0.1,0.1,0.3,0.2,0.5,0.1c0.3-0.1,0.5-0.5,0.6-0.8C245.6,84.3,245.7,83.9,245.4,83.5z"/>
				<path id="Path_307_" class="st16" d="M241.7,85.2l-0.9,0.4c0-0.1-0.1-0.5-0.1-2c0-0.9-2.1-1.3-2.1-2.2c-0.1-0.9,0.1-1.6,1.4-1.8
					c0,0-0.6-0.3-1.2-0.5c-0.3-0.2-0.6-0.3-0.9-0.6c0,0-0.6,0.3-0.8,1.2c-0.3,1.2-0.4,1.9-0.2,4c0.2,2.6,3.9,4.2,3.9,4.2
					s-0.2-0.2-0.7-1.3c0,0,0,0,0,0c0.2-0.1,0.4-0.1,0.6-0.2C241.5,86.1,241.7,85.2,241.7,85.2z"/>
				<path id="Shape_8_" class="st13" d="M244.4,84c-0.1-0.2-0.2-0.5-0.3-0.7c-0.1-0.2-0.2-0.4-0.4-0.4c-0.4-0.2-1-0.2-1.4,0.3
					c-0.2,0.3-0.3,0.6-0.4,0.9c-0.5-0.4-1.2-0.5-1.8-0.2c0-0.3-0.5-1-0.9-1.3c-0.5-0.3-1.2-0.3-1.6,0.2c-0.4,0.5-0.5,1.2-0.5,1.8
					c0,0.8,0.5,2.1,1.6,2c1.1-0.2,1.4-1.6,1.3-2.4c0,0,0,0,0,0c0.5-0.3,1.3-0.2,1.7,0.2c0,0,0,0,0,0c-0.2,0.8,0,1.7,0.6,2.2
					c0.6,0.5,1.4,0.3,1.7-0.3C244.5,85.7,244.5,84.7,244.4,84z M238.3,86.4c-0.8-0.2-1-1.4-0.9-2c0-0.5,0.1-1,0.4-1.3
					c0.6-0.6,1.6,0.2,1.8,1.2c0,0,0,0.1,0,0.1C239.8,85.4,239.2,86.6,238.3,86.4z M243.2,86.6c-0.9,0.2-1.2-1-1.2-1.7
					c0-0.4,0.1-0.7,0.3-1.1c0.1-0.2,0.2-0.3,0.3-0.5c0.1-0.1,0.4-0.4,0.7-0.2c0.1,0.1,0.3,0.2,0.4,0.3c0.3,0.3,0.4,0.7,0.4,1.1
					C244.1,85.2,244,86.4,243.2,86.6L243.2,86.6z"/>
				<path id="Path_306_" class="st19" d="M237,83.9c-0.4-0.1-0.8,0.2-0.9,0.6c0,0.2,0.2,0.2,0.3,0.1c0-0.1,0.1-0.2,0.2-0.3
					c0,0.2,0,0.5,0,0.7c0,0,0,0.1,0.1,0.1c0,0,0.1,0,0.1-0.1c0.1-0.3,0-0.6,0-0.8c0.1,0,0.2-0.1,0.3-0.1c0.1,0,0.1,0,0.1-0.1
					S237,83.9,237,83.9L237,83.9z"/>
				<path id="Path_305_" class="st19" d="M244.7,83.7c0.3,0,0.6,0.3,0.6,0.7c0,0,0,0.1,0,0.1c0,0-0.1,0-0.1,0c0,0-0.1-0.1-0.1-0.1
					c0-0.1,0-0.2-0.1-0.3c-0.1,0.2-0.1,0.4-0.2,0.7c0,0,0,0.1-0.1,0.1c0,0-0.1,0-0.1-0.1c0-0.3,0.1-0.6,0.2-0.8
					c-0.1-0.1-0.1-0.1-0.2-0.1C244.6,83.9,244.6,83.8,244.7,83.7z"/>
				<path id="Path_304_" class="st14" d="M244.5,82c-0.3-0.7-1.4-1.1-2.1-0.6c-0.1,0.1,0,0.2,0.1,0.2c0.3-0.1,0.6-0.2,1,0
					c0.4,0.1,0.5,0.4,0.8,0.6c0.1,0,0.1,0,0.2,0C244.5,82.1,244.6,82.1,244.5,82L244.5,82z"/>
				<path id="Path_303_" class="st14" d="M239.6,81.2c-0.3-0.2-0.8-0.1-1.2,0c-0.4,0.1-0.8,0.3-1.1,0.6c-0.1,0.1,0,0.2,0.1,0.2
					c0.3-0.2,0.6-0.4,1-0.5c0.4-0.1,0.7,0,1.1-0.1c0,0,0.1-0.1,0.1-0.1C239.7,81.3,239.7,81.2,239.6,81.2L239.6,81.2z"/>
				<path id="Rectangle_16_" class="st20" d="M233.1,97.6h15.4c0.2,0,0.3,0.1,0.3,0.3v10.3c0,0.2-0.1,0.3-0.3,0.3h-15.4
					c-0.2,0-0.3-0.1-0.3-0.3V98C232.8,97.8,233,97.6,233.1,97.6z"/>
				<path id="Rectangle_15_" d="M233.6,98.1h14.5c0.2,0,0.3,0.1,0.3,0.3v10.2c0,0.2-0.1,0.3-0.3,0.3h-14.5c-0.2,0-0.3-0.1-0.3-0.3
					V98.4C233.3,98.2,233.5,98.1,233.6,98.1z"/>
				<path id="Path_302_" class="st21" d="M229.5,107.8h22.6l0,0c0,0.6-0.5,1.1-1.1,1.1h-20.4c-0.3,0-0.6-0.1-0.7-0.3
					C229.7,108.3,229.5,108.1,229.5,107.8L229.5,107.8z"/>
				<path id="Path_301_" class="st22" d="M230.6,108.9h20.4c0.4,0,0.7-0.2,0.9-0.5h-22.2C229.9,108.7,230.2,108.9,230.6,108.9
					L230.6,108.9z"/>
				<path id="Path_300_" class="st23" d="M234.9,78.4c-0.2,0-0.4,0-0.6,0.1c-0.2,0.1-0.3,0-0.4-0.2c-0.2-0.3-0.3-0.6-0.7-0.7
					c-0.2,0-0.4,0-0.6,0.1c-0.2,0.1-0.4,0.1-0.4-0.2c-0.1-0.4,0.1-0.7-0.2-1c-0.3-0.3-0.7-0.2-1,0c-0.1,0.1-0.3,0.3-0.5,0.3
					c-0.3-0.1-0.3-0.4-0.3-0.6c0-0.5,0.2-1-0.1-1.4c-0.1-0.2-0.4-0.1-0.3,0.1c0.2,0.7-0.5,1.9,0.4,2.4c0.4,0.2,0.7,0,1-0.2
					c0.2-0.1,0.4-0.3,0.4,0c0,0.2,0,0.4,0,0.5c0.1,0.3,0.2,0.7,0.6,0.8c0.2,0,0.4,0,0.5,0c0.2,0,0.4-0.2,0.5,0
					c0.2,0.3,0.2,0.6,0.5,0.7c0.2,0.1,0.4,0.1,0.5,0c0.1,0,0.5-0.1,0.5-0.1c0,0.3,0.5,0.4,0.6,0.1C235.5,78.7,235.2,78.4,234.9,78.4
					z"/>
				<path id="Path_299_" class="st23" d="M234.5,82.8c-0.4-0.3-0.8-0.3-1.2-0.2c-0.2,0-0.5,0-0.7-0.1s-0.1-0.4-0.2-0.6
					c0,0-0.1-0.1-0.1,0c-0.5,0.2,0,1,0.3,1.2c0.5,0.3,1.2-0.1,1.7,0.2C234.5,83.3,234.7,83,234.5,82.8z"/>
				<path id="Path_298_" class="st23" d="M249.5,82.3c-0.2,0.2-0.5,0.4-0.8,0.4c-0.3,0-0.5-0.3-0.7-0.4c-0.2,0-0.5,0-0.6,0.2
					c-0.1,0.1-0.6,0.6-0.8,0.3c-0.1-0.2-0.5-0.1-0.4,0.2c0.1,0.3,0.4,0.4,0.7,0.4c0.4-0.1,0.8-0.6,1.1-0.4c0.1,0.1,0.2,0.2,0.4,0.3
					c0.2,0.1,0.3,0.1,0.5,0.1c0.4,0,0.7-0.3,1-0.6C250.1,82.5,249.8,82.1,249.5,82.3z"/>
				<ellipse id="Oval_22_" class="st24" cx="243" cy="85.4" rx="0.7" ry="1"/>
				<path id="Path_297_" class="st25" d="M231.2,96c-0.6,0.6-1.1,1.2-1.6,1.8c-0.1,0.1-0.1,0.2,0,0.3c0.1,0.1,0.2,0.1,0.3,0
					c0.6-0.6,1.1-1.2,1.6-1.9C231.6,96.1,231.4,95.9,231.2,96z"/>
				<path id="Path_296_" class="st25" d="M228.8,99.5c-0.4,0.2-0.6,0.7-0.8,1.1c-0.2,0.4-0.3,0.9-0.3,1.4c0,0.3,0.4,0.3,0.4,0.1
					c0-0.4,0.1-0.8,0.3-1.2c0.2-0.4,0.4-0.7,0.6-1.1C229.1,99.6,228.9,99.4,228.8,99.5z"/>
				<path id="Path_295_" class="st25" d="M227.1,104.4c-0.4,1-0.6,2-0.7,3.1c0,0.2,0.4,0.3,0.4,0c0.1-1,0.3-2,0.6-3
					C227.5,104.3,227.2,104.2,227.1,104.4z"/>
				<path id="Path_294_" class="st25" d="M251.2,96.8c-0.6-0.7-1.3-1.3-2.1-1.9c-0.1-0.1-0.2-0.1-0.2,0c-0.1,0.1-0.1,0.2,0,0.2
					c0.6,0.7,1.3,1.4,2,2c0.1,0.1,0.2,0.1,0.3,0C251.3,97,251.3,96.8,251.2,96.8L251.2,96.8z"/>
				<path id="Path_293_" class="st25" d="M253.9,101.5c-0.1-0.3-0.2-0.5-0.4-0.8c-0.1-0.3-0.3-0.5-0.4-0.8c-0.3-0.5-0.5-1.1-0.9-1.5
					c0-0.1-0.1-0.1-0.2,0c-0.1,0-0.1,0.1-0.1,0.2c0.2,0.6,0.5,1.1,0.8,1.6c0.1,0.3,0.3,0.5,0.4,0.8s0.2,0.5,0.4,0.8
					c0.1,0.1,0.2,0.1,0.2,0.1S254,101.6,253.9,101.5L253.9,101.5z"/>
				<path id="Path_292_" class="st25" d="M254.8,104.7c-0.1-0.5-0.2-1-0.4-1.5c-0.1-0.2-0.4-0.2-0.4,0.1c0.1,0.5,0.2,1,0.3,1.5
					c0.1,0.4,0.1,1,0.4,1.3c0,0,0.1,0.1,0.2,0s0.1-0.1,0.1-0.1C255.2,105.6,254.9,105.1,254.8,104.7z"/>
				<path id="Path_291_" class="st25" d="M255.5,108.8l-0.1-1.6c0-0.2-0.4-0.2-0.4,0l0.1,1.6C255.3,108.8,255.4,108.8,255.5,108.8z"
					/>
				<path id="Path_290_" class="st25" d="M242.4,90.6c-0.3,0.2-0.5,0.4-0.8,0.6c-0.3,0.2-0.7,0.3-1,0.3c-0.3,0-0.7,0-1-0.1
					c-0.3-0.1-0.6-0.3-1-0.4c-0.1,0-0.3,0.1-0.3,0.2c0.1,0.4,0.5,0.6,0.9,0.8c0.4,0.2,0.9,0.3,1.3,0.3c0.9,0,1.9-0.4,2.4-1.1
					C243.2,90.8,242.7,90.3,242.4,90.6z"/>
				<path id="Path_289_" class="st10" d="M237,99.2c-0.9,0-1.9-0.1-2.8,0.1c-0.1,0-0.2,0.3,0,0.3c0.9,0.1,1.9,0.1,2.8,0.1
					C237.3,99.6,237.2,99.2,237,99.2z"/>
				<path id="Path_288_" class="st10" d="M239.8,100.4c-1.3,0-2.6,0.1-3.9,0.1c-0.2,0-0.2,0.3,0,0.3c1.3,0,2.6,0,3.9,0.1
					C240.1,100.8,240.1,100.4,239.8,100.4z"/>
				<path id="Path_287_" class="st10" d="M237.2,101.7c-0.9,0-1.8,0-2.7,0c-0.2,0-0.3,0.4,0,0.4c0.9,0.1,1.8,0.1,2.7,0
					C237.5,102.2,237.5,101.7,237.2,101.7z"/>
				<path id="Path_286_" class="st10" d="M243.8,103.7c-1.3-0.1-2.6,0-3.8,0l-1.9,0c-0.7,0-1.3,0-2,0.1c-0.2,0-0.2,0.3,0,0.3
					c0.6,0.1,1.2,0.1,1.8,0.1l2,0c1.3,0,2.6,0.1,3.9,0C244.1,104.2,244.1,103.7,243.8,103.7z"/>
				<path id="Path_285_" class="st10" d="M237,105.4c-0.7-0.1-1.5,0-2.2,0c-0.2,0-0.3,0.3,0,0.4c0.8,0.1,1.5,0.1,2.3,0
					c0.1,0,0.2-0.1,0.2-0.2S237.1,105.5,237,105.4z"/>
				<path id="Path_284_" class="st10" d="M241.9,105.5c-0.8,0-1.6,0-2.4,0c-0.2,0-0.2,0.3,0,0.4c0.8,0.1,1.6,0.1,2.4,0.1
					C242.2,106,242.2,105.5,241.9,105.5z"/>
				<path id="Path_283_" class="st13" d="M235.3,103.8c-0.4,0-0.8,0-1.1,0.1c-0.2,0-0.2,0.3,0,0.3c0.4,0.1,0.8,0.1,1.2,0.1
					C235.6,104.3,235.6,103.8,235.3,103.8z"/>
				<path id="Path_282_" class="st13" d="M235.2,100.4c-0.3,0-0.6,0.1-0.9,0.1c-0.1,0-0.1,0.2,0,0.2c0.3,0.1,0.6,0.1,1,0.2
					C235.6,100.9,235.6,100.3,235.2,100.4z"/>
				<path id="Path_281_" class="st13" d="M238.7,105.4c-0.4,0-0.7,0-1.1,0.1c-0.2,0-0.2,0.3,0,0.3c0.3,0,0.7,0.1,1,0.1
					C239,105.9,239,105.4,238.7,105.4z"/>
				<path id="Path_280_" class="st13" d="M242.3,101.7c-0.7-0.1-1.4,0-2.1,0c-0.7,0-1.4,0-2.1,0.1c-0.2,0-0.2,0.4,0,0.4
					c0.7,0,1.4,0,2.1,0.1c0.7,0,1.4,0.1,2.1,0C242.6,102.2,242.6,101.7,242.3,101.7z"/>
				<path id="Path_279_" class="st23" d="M237.4,68.1c-0.1-0.1-0.2-0.2-0.3-0.3c-0.2-0.1-0.3-0.2-0.2-0.4c0.3-0.5,0.1-0.9-0.3-1.1
					c0,0,0.1-0.1,0.1-0.1c0.1-0.1,0.1-0.2,0.1-0.2c0-0.2,0-0.4-0.1-0.5c-0.1-0.2-0.3-0.3-0.5-0.4c0,0-0.1,0-0.1-0.1
					c0.1-0.1,0.3-0.2,0.3-0.2c0.2-0.1,0.1-0.5-0.2-0.5c-0.4,0.1-1.1,0.4-0.7,0.9c0.2,0.2,0.7,0.3,0.8,0.5c0.1,0.2-0.3,0.4-0.3,0.6
					c0,0.3,0.2,0.3,0.4,0.4c0.2,0.1,0.3,0.1,0.2,0.3c0,0.1-0.2,0.2-0.2,0.3c-0.1,0.2-0.1,0.4,0,0.6c0.1,0.1,0.5,0.5,0.6,0.4
					c-0.3,0.2,0.1,0.7,0.4,0.4C237.5,68.6,237.5,68.3,237.4,68.1z"/>
				<path id="Path_278_" class="st23" d="M244.5,68.3c0-0.1-0.1-0.3-0.1-0.4c-0.1-0.2-0.2-0.3,0-0.4c0.5-0.3,0.5-0.8,0.2-1.1
					c0.1,0,0.1,0,0.2,0c0.1,0,0.1-0.1,0.2-0.2c0.1-0.2,0.1-0.3,0.1-0.5c0-0.2-0.2-0.4-0.3-0.6c0,0,0-0.1-0.1-0.1c0.1,0,0.3,0,0.4,0
					c0.3,0,0.3-0.4,0.1-0.5c-0.4-0.1-1.2-0.1-1.1,0.5c0.1,0.3,0.5,0.5,0.5,0.8c0,0.2-0.5,0.2-0.6,0.4c-0.1,0.2,0,0.4,0.2,0.5
					c0.1,0.1,0.2,0.2,0.1,0.3c-0.1,0.1-0.2,0.1-0.3,0.2c-0.2,0.1-0.3,0.4-0.2,0.6c0,0.1,0.3,0.6,0.3,0.6c-0.4,0.1-0.2,0.6,0.2,0.6
					C244.4,68.8,244.5,68.5,244.5,68.3z"/>
				<path id="Path_277_" class="st23" d="M237.6,75.5c-0.3-0.3-0.7-0.6-1.1-0.8c-0.2-0.1-0.5-0.1-0.5-0.3c0-0.2,0.1-0.4,0.1-0.5
					c0-0.4-0.4-0.6-0.7-0.6c-0.1,0-0.4,0.1-0.5,0c0-0.1,0.2-0.4,0.2-0.5c0-0.3-0.3-0.6-0.6-0.7c-0.2,0-0.3,0-0.5,0
					c-0.1,0-0.2,0-0.3,0c-0.1-0.1-0.1-0.3,0-0.4c0.1-0.3,0.1-0.7-0.2-1c-0.2-0.2-0.5,0-0.7-0.2c-0.2-0.2,0-0.6,0.1-0.8
					c0.1-0.2-0.2-0.4-0.4-0.2c-0.3,0.4-0.5,0.8-0.3,1.3c0.1,0.2,0.2,0.3,0.4,0.3c0.1,0,0.2,0,0.4,0c0.2,0.1,0.2,0.2,0.1,0.4
					c-0.1,0.4-0.1,0.8,0.3,1.1c0.2,0.1,0.4,0.1,0.6,0.1c0.2,0,0.5-0.1,0.5,0.1c0,0.2-0.2,0.3-0.2,0.6c0,0.2,0.1,0.4,0.3,0.5
					c0.2,0.1,0.3,0.1,0.5,0.1c0.1,0,0.3-0.1,0.4,0c0.1,0.1,0,0.2,0,0.3c-0.1,0.4,0,0.7,0.4,0.9c0.3,0.1,0.5,0.2,0.8,0.3
					c0.2,0.1,0.4,0.3,0.6,0.5C237.4,76.1,237.8,75.7,237.6,75.5z"/>
				<path id="Path_276_" class="st23" d="M247.9,69c-0.5,0.1-1.9,0.4-1.6,1.2c0.1,0.1,0.1,0.3,0.2,0.4c0.2,0.3,0.1,0.5-0.1,0.7
					c-0.3,0.3-0.7,0.4-0.9,0.7c-0.2,0.3-0.3,0.5,0,0.8c0.1,0.1,0.1,0.1,0.2,0.1l0.1,0c0.1,0.1,0.1,0.1,0,0c-0.1,0.1-0.2,0.1-0.3,0.2
					c-0.1,0.1-0.2,0.2-0.3,0.3c-0.3,0.2-0.6,0.5-0.4,0.9c0.1,0.2,0.2,0.3,0.1,0.5s-0.5,0.2-0.7,0.3c-0.3,0.1-0.2,0.6,0.1,0.6
					c0.4-0.1,0.9-0.3,1.1-0.6c0.1-0.2,0.1-0.4,0.1-0.6c0-0.1-0.1-0.2-0.1-0.3c0,0,0,0-0.1-0.1l0,0c0.2-0.2,0.4-0.4,0.7-0.6
					c0.2-0.2,0.3-0.3,0.4-0.5c0-0.3-0.2-0.4-0.4-0.6c0.3-0.5,1.2-0.7,1.3-1.5c0-0.4-0.2-0.5-0.3-0.8c0-0.1-0.1-0.1,0.1-0.2
					c0.1-0.1,0.2-0.1,0.3-0.1c0.2-0.1,0.5-0.2,0.7-0.2C248.3,69.4,248.2,69,247.9,69z"/>
				<path id="Path_275_" class="st23" d="M252.2,70.2c-0.1,0.2-0.4,0.1-0.6,0.1c-0.2,0-0.4,0.2-0.5,0.3c-0.1,0.2,0,0.4-0.1,0.6
					c-0.1,0.1,0,0.1-0.1,0.1c-0.1,0-0.2-0.1-0.3-0.1c-0.3-0.1-0.7,0-0.8,0.4c-0.1,0.2,0,0.5-0.1,0.7c0,0.1-0.1,1.1-0.2,1
					c-0.3-0.2-0.5,0.2-0.2,0.4c0.5,0.4,0.9-0.2,0.9-0.7c0.1-0.4,0-0.7,0.1-1.1c0-0.2,0.1-0.3,0.2-0.2c0.1,0,0.2,0.1,0.3,0.2
					c0.2,0.1,0.4,0,0.5-0.2c0.2-0.2,0.1-0.4,0.2-0.6c0.1-0.3,0.5-0.2,0.7-0.3c0.2-0.1,0.3-0.3,0.4-0.5
					C252.7,70,252.3,69.9,252.2,70.2z"/>
				<path id="Path_274_" class="st23" d="M253,75.1c0-0.3-0.4-0.3-0.5-0.1c-0.1,0.2-0.1,0.5-0.2,0.6c-0.2,0.2-0.4,0.1-0.6,0.1
					c-0.2,0-0.4,0.2-0.5,0.4c-0.2,0.3-0.2,0.5-0.3,0.8c0,0.2-0.1,0.4-0.3,0.4c-0.2,0-0.3-0.2-0.5-0.3c-0.5-0.4-1.1-0.2-1.3,0.3
					c-0.1,0.3-0.3,0.7-0.5,1c-0.1,0.2-0.2,0.2-0.4,0.1c-0.1-0.1-0.3-0.1-0.5-0.2c-0.3,0-0.4,0.4-0.1,0.5c0.3,0.1,0.6,0.4,0.9,0.3
					c0.3-0.1,0.5-0.4,0.7-0.7c0.1-0.2,0.2-0.4,0.3-0.6c0.1-0.2,0.1-0.4,0.3-0.4c0.4,0.1,0.6,0.5,1,0.5c0.8,0,0.8-0.9,1-1.4
					c0.1-0.3,0.3-0.1,0.6-0.2c0.1,0,0.3-0.1,0.4-0.2C252.9,75.9,253.1,75.5,253,75.1z"/>
			</g>
		</g>
	</g>
</g>
<g id="Page-1_13_" class="st12">
	<g id="Homepage---Desktop_7_" transform="translate(-581.000000, -1466.000000)">
		<g id="illo_spot_7_" transform="translate(580.000000, 1465.000000)">
			<g id="Layer_14_7_" transform="translate(0.971660, 0.971660)">
				<path id="Path_273_" class="st13" d="M231,122.4c3.6,3.4,6.3,3.7,7.5,4.5l2.3,0l2.3,0c1.3-0.8,4-1.1,7.5-4.5
					c5.4-5.2,5.6-13.5,5.6-13.5h-30.9C225.4,108.9,225.6,117.2,231,122.4z"/>
				<circle id="Oval_21_" class="st14" cx="240.4" cy="144" r="14"/>
				<path id="Path_272_" class="st15" d="M242.5,131c-0.7-1.4-0.7-3.3,0.5-4.2c0,0-0.4-0.7-2.1-0.8c-1.7,0-2.1,0.7-2.1,0.7
					s0.8,0.6,0.8,2c0,1.4-0.3,2.2-0.3,2.2H242.5z"/>
				<path id="Path_271_" class="st16" d="M239.5,130.2l0.1-0.1c1.2-1.9,2.9-3,3.4-3.2c0,0-0.9,0.7-0.9,1.7c0,0.7,0.1,1.3,0.2,2
					l-1.5-0.9L239.5,130.2z"/>
				<ellipse id="Oval_20_" class="st17" cx="242.7" cy="132.1" rx="0.7" ry="1"/>
				<path id="Path_270_" class="st18" d="M244.3,133c0,0.2,0,0.4,0,0.6c0,0.2,0,0.4,0,0.6c0,0,0,0.1,0,0.1c0.2,0.3,0.6,0.4,0.9,0.2
					c0.4-0.2,0.5-0.8,0.5-1.2s-0.2-0.9-0.7-1c-0.2-0.1-0.4,0-0.6,0.1s-0.3,0.3-0.3,0.5C244.2,132.8,244.3,132.9,244.3,133L244.3,133
					z"/>
				<path id="Path_269_" class="st15" d="M236.2,134.2c0.1,0.1,0.3,0.2,0.5,0.3c-0.1,1.1-0.1,2.2,0.2,3.2c0.2,1,0.9,1.4,0.9,1.4
					s1.6-1.2,3-1.2c1.3,0,3,1.2,3,1.2s0.6-0.4,0.9-1.4c0.5-2,0.4-4.6-1-6c-1.4-1.5-2.9-2-2.9-2s-1.5,0.5-2.9,2
					c-0.2,0.2-0.4,0.5-0.6,0.8c-0.1-0.1-0.3-0.2-0.5-0.1c-0.3,0.1-0.5,0.5-0.6,0.8C236,133.4,235.9,133.9,236.2,134.2z"/>
				<path id="Path_268_" class="st16" d="M239.9,132.5l0.9-0.4c0,0.1,0.1,0.5,0.1,2c0,0.9,2.1,1.3,2.1,2.2s-0.1,1.6-1.4,1.8
					c0,0,0.6,0.3,1.2,0.5c0.3,0.2,0.6,0.3,0.9,0.6c0,0,0.6-0.3,0.8-1.2c0.3-1.2,0.4-1.9,0.2-4c-0.2-2.6-3.9-4.2-3.9-4.2
					s0.2,0.2,0.7,1.3c0,0,0,0,0,0c-0.2,0.1-0.4,0.1-0.6,0.2C240.1,131.6,239.9,132.5,239.9,132.5z"/>
				<path id="Shape_7_" class="st13" d="M237.2,133.7c0.1,0.2,0.2,0.5,0.3,0.7c0.1,0.2,0.2,0.4,0.4,0.4c0.4,0.2,1,0.2,1.4-0.3
					c0.2-0.3,0.3-0.6,0.4-0.9c0.5,0.4,1.2,0.5,1.8,0.2c0,0.3,0.5,1,0.9,1.3c0.5,0.3,1.2,0.3,1.6-0.2c0.4-0.5,0.5-1.2,0.5-1.8
					c0-0.8-0.5-2.1-1.6-2c-1.1,0.2-1.4,1.6-1.3,2.4c0,0,0,0,0,0c-0.5,0.3-1.3,0.2-1.7-0.2c0,0,0,0,0,0c0.2-0.8,0-1.7-0.6-2.2
					c-0.6-0.5-1.4-0.3-1.7,0.3C237.1,132,237.1,133,237.2,133.7z M243.3,131.4c0.8,0.2,1,1.4,0.9,2c0,0.5-0.1,1-0.4,1.3
					c-0.6,0.6-1.6-0.2-1.8-1.2c0,0,0-0.1,0-0.1C241.8,132.3,242.4,131.1,243.3,131.4z M238.4,131.1c0.9-0.2,1.2,1,1.2,1.7
					c0,0.4-0.1,0.7-0.3,1.1c-0.1,0.2-0.2,0.3-0.3,0.5c-0.1,0.1-0.4,0.4-0.7,0.2c-0.1-0.1-0.3-0.2-0.4-0.3c-0.3-0.3-0.4-0.7-0.4-1.1
					C237.5,132.5,237.6,131.3,238.4,131.1L238.4,131.1z"/>
				<path id="Path_267_" class="st19" d="M244.6,133.9c0.4,0.1,0.8-0.2,0.9-0.6c0-0.2-0.2-0.2-0.3-0.1c0,0.1-0.1,0.2-0.2,0.3
					c0-0.2,0-0.5,0-0.7c0,0,0-0.1-0.1-0.1c0,0-0.1,0-0.1,0.1c-0.1,0.3,0,0.6,0,0.8c-0.1,0-0.2,0.1-0.3,0.1c-0.1,0-0.1,0-0.1,0.1
					S244.5,133.9,244.6,133.9L244.6,133.9z"/>
				<path id="Path_266_" class="st19" d="M236.9,134c-0.3,0-0.6-0.3-0.6-0.7c0,0,0-0.1,0-0.1s0.1,0,0.1,0c0,0,0.1,0.1,0.1,0.1
					c0,0.1,0,0.2,0.1,0.3c0.1-0.2,0.1-0.4,0.2-0.7c0,0,0-0.1,0.1-0.1s0.1,0,0.1,0.1c0,0.3-0.1,0.6-0.2,0.8c0.1,0.1,0.1,0.1,0.2,0.1
					C237,133.8,237,134,236.9,134z"/>
				<path id="Path_265_" class="st14" d="M237.1,135.7c0.3,0.7,1.4,1.1,2.1,0.6c0.1-0.1,0-0.2-0.1-0.2c-0.3,0.1-0.6,0.2-1,0
					c-0.4-0.1-0.5-0.4-0.8-0.6c-0.1,0-0.1,0-0.2,0C237.1,135.6,237,135.6,237.1,135.7L237.1,135.7z"/>
				<path id="Path_264_" class="st14" d="M242,136.5c0.3,0.2,0.8,0.1,1.2,0c0.4-0.1,0.8-0.3,1.1-0.6c0.1-0.1,0-0.2-0.1-0.2
					c-0.3,0.2-0.6,0.4-1,0.5c-0.4,0.1-0.7,0-1.1,0.1c0,0-0.1,0.1-0.1,0.1C241.9,136.4,241.9,136.5,242,136.5L242,136.5z"/>
				<path id="Rectangle_14_" class="st20" d="M248.5,120.1h-15.4c-0.2,0-0.3-0.1-0.3-0.3v-10.3c0-0.2,0.1-0.3,0.3-0.3h15.4
					c0.2,0,0.3,0.1,0.3,0.3v10.3C248.8,119.9,248.6,120.1,248.5,120.1z"/>
				<path id="Rectangle_13_" d="M248,119.6h-14.5c-0.2,0-0.3-0.1-0.3-0.3v-10.2c0-0.2,0.1-0.3,0.3-0.3H248c0.2,0,0.3,0.1,0.3,0.3
					v10.2C248.3,119.5,248.1,119.6,248,119.6z"/>
				<path id="Path_263_" class="st21" d="M252,109.9h-22.6l0,0c0-0.6,0.5-1.1,1.1-1.1H251c0.3,0,0.6,0.1,0.7,0.3
					C251.9,109.4,252,109.6,252,109.9L252,109.9z"/>
				<path id="Path_262_" class="st22" d="M251,108.9h-20.4c-0.4,0-0.7,0.2-0.9,0.5h22.2C251.7,109.1,251.4,108.9,251,108.9
					L251,108.9z"/>
				<path id="Path_261_" class="st23" d="M246.7,139.3c0.2,0,0.4,0,0.6-0.1c0.2-0.1,0.3,0,0.4,0.2c0.2,0.3,0.3,0.6,0.7,0.7
					c0.2,0,0.4,0,0.6-0.1c0.2-0.1,0.4-0.1,0.4,0.2c0.1,0.4-0.1,0.7,0.2,1s0.7,0.2,1,0c0.1-0.1,0.3-0.3,0.5-0.3
					c0.3,0.1,0.3,0.4,0.3,0.6c0,0.5-0.2,1,0.1,1.4c0.1,0.2,0.4,0.1,0.3-0.1c-0.2-0.7,0.5-1.9-0.4-2.4c-0.4-0.2-0.7,0-1,0.2
					c-0.2,0.1-0.4,0.3-0.4,0c0-0.2,0-0.4,0-0.5c-0.1-0.3-0.2-0.7-0.6-0.8c-0.2,0-0.4,0-0.5,0c-0.2,0-0.4,0.2-0.5,0
					c-0.2-0.3-0.2-0.6-0.5-0.7c-0.2-0.1-0.4-0.1-0.5,0c-0.1,0-0.5,0.1-0.5,0.1c0-0.3-0.5-0.4-0.6-0.1
					C246.1,139,246.4,139.3,246.7,139.3z"/>
				<path id="Path_260_" class="st23" d="M247.1,134.9c0.4,0.3,0.8,0.3,1.2,0.2c0.2,0,0.5,0,0.7,0.1c0.2,0.2,0.1,0.4,0.2,0.6
					c0,0,0.1,0.1,0.1,0c0.5-0.2,0-1-0.3-1.2c-0.5-0.3-1.2,0.1-1.7-0.2C247.1,134.4,246.9,134.7,247.1,134.9z"/>
				<path id="Path_259_" class="st23" d="M232.1,135.4c0.2-0.2,0.5-0.4,0.8-0.4c0.3,0,0.5,0.3,0.7,0.4c0.2,0,0.5,0,0.6-0.2
					c0.1-0.1,0.6-0.6,0.8-0.3c0.1,0.2,0.5,0.1,0.4-0.2c-0.1-0.3-0.4-0.4-0.7-0.4c-0.4,0.1-0.8,0.6-1.1,0.4c-0.1-0.1-0.2-0.2-0.4-0.3
					c-0.2-0.1-0.3-0.1-0.5-0.1c-0.4,0-0.7,0.3-1,0.6C231.5,135.2,231.8,135.6,232.1,135.4z"/>
				<ellipse id="Oval_19_" class="st24" cx="238.6" cy="132.3" rx="0.7" ry="1"/>
				<path id="Path_258_" class="st25" d="M250.4,121.7c0.6-0.6,1.1-1.2,1.6-1.8c0.1-0.1,0.1-0.2,0-0.3c-0.1-0.1-0.2-0.1-0.3,0
					c-0.6,0.6-1.1,1.2-1.6,1.9C250,121.7,250.2,121.8,250.4,121.7z"/>
				<path id="Path_257_" class="st25" d="M252.8,118.2c0.4-0.2,0.6-0.7,0.8-1.1c0.2-0.4,0.3-0.9,0.3-1.4c0-0.3-0.4-0.3-0.4-0.1
					c0,0.4-0.1,0.8-0.3,1.2c-0.2,0.4-0.4,0.7-0.6,1.1C252.5,118.1,252.7,118.3,252.8,118.2z"/>
				<path id="Path_256_" class="st25" d="M254.5,113.3c0.4-1,0.6-2,0.7-3.1c0-0.2-0.4-0.3-0.4,0c-0.1,1-0.3,2-0.6,3
					C254.1,113.4,254.4,113.5,254.5,113.3z"/>
				<path id="Path_255_" class="st25" d="M230.4,121c0.6,0.7,1.3,1.3,2.1,1.9c0.1,0.1,0.2,0.1,0.2,0c0.1-0.1,0.1-0.2,0-0.2
					c-0.6-0.7-1.3-1.4-2-2c-0.1-0.1-0.2-0.1-0.3,0S230.3,120.9,230.4,121L230.4,121z"/>
				<path id="Path_254_" class="st25" d="M227.7,116.2c0.1,0.3,0.2,0.5,0.4,0.8c0.1,0.3,0.3,0.5,0.4,0.8c0.3,0.5,0.5,1.1,0.9,1.5
					c0,0.1,0.1,0.1,0.2,0c0.1,0,0.1-0.1,0.1-0.2c-0.2-0.6-0.5-1.1-0.8-1.6c-0.1-0.3-0.3-0.5-0.4-0.8c-0.1-0.3-0.2-0.5-0.4-0.8
					c-0.1-0.1-0.2-0.1-0.2-0.1S227.6,116.1,227.7,116.2L227.7,116.2z"/>
				<path id="Path_253_" class="st25" d="M226.8,113c0.1,0.5,0.2,1,0.4,1.5c0.1,0.2,0.4,0.2,0.4-0.1c-0.1-0.5-0.2-1-0.3-1.5
					c-0.1-0.4-0.1-1-0.4-1.3c0,0-0.1-0.1-0.2,0s-0.1,0.1-0.1,0.1C226.4,112.1,226.7,112.6,226.8,113z"/>
				<path id="Path_252_" class="st25" d="M226.1,108.9l0.1,1.6c0,0.2,0.4,0.2,0.4,0l-0.1-1.6C226.3,108.9,226.2,108.9,226.1,108.9z"
					/>
				<path id="Path_251_" class="st25" d="M239.2,127.2c0.3-0.2,0.5-0.4,0.8-0.6c0.3-0.2,0.7-0.3,1-0.3c0.3,0,0.7,0,1,0.1
					c0.3,0.1,0.6,0.3,1,0.4c0.1,0,0.3-0.1,0.3-0.2c-0.1-0.4-0.5-0.6-0.9-0.8c-0.4-0.2-0.9-0.3-1.3-0.3c-0.9,0-1.9,0.4-2.4,1.1
					C238.4,126.9,238.9,127.4,239.2,127.2z"/>
				<path id="Path_250_" class="st10" d="M244.6,118.5c0.9,0,1.9,0.1,2.8-0.1c0.1,0,0.2-0.3,0-0.3c-0.9-0.1-1.9-0.1-2.8-0.1
					C244.3,118.1,244.4,118.5,244.6,118.5z"/>
				<path id="Path_249_" class="st10" d="M241.8,117.3c1.3,0,2.6-0.1,3.9-0.1c0.2,0,0.2-0.3,0-0.3c-1.3,0-2.6,0-3.9-0.1
					C241.5,116.9,241.5,117.3,241.8,117.3z"/>
				<path id="Path_248_" class="st10" d="M244.4,116c0.9,0,1.8,0,2.7,0c0.2,0,0.3-0.4,0-0.4c-0.9-0.1-1.8-0.1-2.7,0
					C244.1,115.5,244.1,116,244.4,116z"/>
				<path id="Path_247_" class="st10" d="M237.8,114c1.3,0.1,2.6,0,3.8,0l1.9,0c0.7,0,1.3,0,2-0.1c0.2,0,0.2-0.3,0-0.3
					c-0.6-0.1-1.2-0.1-1.8-0.1l-2,0c-1.3,0-2.6-0.1-3.9,0C237.5,113.5,237.5,114,237.8,114z"/>
				<path id="Path_246_" class="st10" d="M244.6,112.3c0.7,0.1,1.5,0,2.2,0c0.2,0,0.3-0.3,0-0.4c-0.8-0.1-1.5-0.1-2.3,0
					c-0.1,0-0.2,0.1-0.2,0.2C244.4,112.2,244.5,112.3,244.6,112.3z"/>
				<path id="Path_245_" class="st10" d="M239.7,112.2c0.8,0,1.6,0,2.4,0c0.2,0,0.2-0.3,0-0.4c-0.8-0.1-1.6-0.1-2.4-0.1
					C239.4,111.7,239.4,112.2,239.7,112.2z"/>
				<path id="Path_244_" class="st13" d="M246.3,113.9c0.4,0,0.8,0,1.1-0.1c0.2,0,0.2-0.3,0-0.3c-0.4-0.1-0.8-0.1-1.2-0.1
					C246,113.5,246,113.9,246.3,113.9z"/>
				<path id="Path_243_" class="st13" d="M246.4,117.4c0.3,0,0.6-0.1,0.9-0.1c0.1,0,0.1-0.2,0-0.2c-0.3-0.1-0.6-0.1-1-0.2
					C246,116.8,246,117.4,246.4,117.4z"/>
				<path id="Path_242_" class="st13" d="M242.9,112.3c0.4,0,0.7,0,1.1-0.1c0.2,0,0.2-0.3,0-0.3c-0.3,0-0.7-0.1-1-0.1
					C242.6,111.8,242.6,112.3,242.9,112.3z"/>
				<path id="Path_241_" class="st13" d="M239.3,116c0.7,0.1,1.4,0,2.1,0c0.7,0,1.4,0,2.1-0.1c0.2,0,0.2-0.4,0-0.4
					c-0.7,0-1.4,0-2.1-0.1c-0.7,0-1.4-0.1-2.1,0C239,115.5,239,116,239.3,116z"/>
				<path id="Path_240_" class="st23" d="M244.2,149.6c0.1,0.1,0.2,0.2,0.3,0.3c0.2,0.1,0.3,0.2,0.2,0.4c-0.3,0.5-0.1,0.9,0.3,1.1
					c0,0-0.1,0.1-0.1,0.1c-0.1,0.1-0.1,0.2-0.1,0.2c0,0.2,0,0.4,0.1,0.5c0.1,0.2,0.3,0.3,0.5,0.4c0,0,0.1,0,0.1,0.1
					c-0.1,0.1-0.3,0.2-0.3,0.2c-0.2,0.1-0.1,0.5,0.2,0.5c0.4-0.1,1.1-0.4,0.7-0.9c-0.2-0.2-0.7-0.3-0.8-0.5
					c-0.1-0.2,0.3-0.4,0.3-0.6c0-0.3-0.2-0.3-0.4-0.4c-0.2-0.1-0.3-0.1-0.2-0.3c0-0.1,0.2-0.2,0.2-0.3c0.1-0.2,0.1-0.4,0-0.6
					c-0.1-0.1-0.5-0.5-0.6-0.4c0.3-0.2-0.1-0.7-0.4-0.4C244.1,149.1,244.1,149.4,244.2,149.6z"/>
				<path id="Path_239_" class="st23" d="M237.1,149.5c0,0.1,0.1,0.3,0.1,0.4c0.1,0.2,0.2,0.3,0,0.4c-0.5,0.3-0.5,0.8-0.2,1.1
					c-0.1,0-0.1,0-0.2,0c-0.1,0-0.1,0.1-0.2,0.2c-0.1,0.2-0.1,0.3-0.1,0.5c0,0.2,0.2,0.4,0.3,0.6c0,0,0,0.1,0.1,0.1
					c-0.1,0-0.3,0-0.4,0c-0.3,0-0.3,0.4-0.1,0.5c0.4,0.1,1.2,0.1,1.1-0.5c-0.1-0.3-0.5-0.5-0.5-0.8c0-0.2,0.5-0.2,0.6-0.4
					c0.1-0.2,0-0.4-0.2-0.5c-0.1-0.1-0.2-0.2-0.1-0.3c0.1-0.1,0.2-0.1,0.3-0.2c0.2-0.1,0.3-0.4,0.2-0.6c0-0.1-0.3-0.6-0.3-0.6
					c0.4-0.1,0.2-0.6-0.2-0.6C237.2,148.9,237.1,149.2,237.1,149.5z"/>
				<path id="Path_238_" class="st23" d="M244,142.3c0.3,0.3,0.7,0.6,1.1,0.8c0.2,0.1,0.5,0.1,0.5,0.3c0,0.2-0.1,0.4-0.1,0.5
					c0,0.4,0.4,0.6,0.7,0.6c0.1,0,0.4-0.1,0.5,0c0,0.1-0.2,0.4-0.2,0.5c0,0.3,0.3,0.6,0.6,0.7c0.2,0,0.3,0,0.5,0c0.1,0,0.2,0,0.3,0
					c0.1,0.1,0.1,0.3,0,0.4c-0.1,0.3-0.1,0.7,0.2,1c0.2,0.2,0.5,0,0.7,0.2c0.2,0.2,0,0.6-0.1,0.8c-0.1,0.2,0.2,0.4,0.4,0.2
					c0.3-0.4,0.5-0.8,0.3-1.3c-0.1-0.2-0.2-0.3-0.4-0.3c-0.1,0-0.2,0-0.4,0c-0.2-0.1-0.2-0.2-0.1-0.4c0.1-0.4,0.1-0.8-0.3-1.1
					c-0.2-0.1-0.4-0.1-0.6-0.1c-0.2,0-0.5,0.1-0.5-0.1c0-0.2,0.2-0.3,0.2-0.6c0-0.2-0.1-0.4-0.3-0.5c-0.2-0.1-0.3-0.1-0.5-0.1
					c-0.1,0-0.3,0.1-0.4,0c-0.1-0.1,0-0.2,0-0.3c0.1-0.4,0-0.7-0.4-0.9c-0.3-0.1-0.5-0.2-0.8-0.3c-0.2-0.1-0.4-0.3-0.6-0.5
					C244.2,141.6,243.8,142,244,142.3z"/>
				<path id="Path_237_" class="st23" d="M233.7,148.7c0.5-0.1,1.9-0.4,1.6-1.2c-0.1-0.1-0.1-0.3-0.2-0.4c-0.2-0.3-0.1-0.5,0.1-0.7
					c0.3-0.3,0.7-0.4,0.9-0.7c0.2-0.3,0.3-0.5,0-0.8c-0.1-0.1-0.1-0.1-0.2-0.1l-0.1,0c-0.1-0.1-0.1-0.1,0,0c0.1-0.1,0.2-0.1,0.3-0.2
					c0.1-0.1,0.2-0.2,0.3-0.3c0.3-0.2,0.6-0.5,0.4-0.9c-0.1-0.2-0.2-0.3-0.1-0.5c0.2-0.2,0.5-0.2,0.7-0.3c0.3-0.1,0.2-0.6-0.1-0.6
					c-0.4,0.1-0.9,0.3-1.1,0.6c-0.1,0.2-0.1,0.4-0.1,0.6c0,0.1,0.1,0.2,0.1,0.3c0,0,0,0,0.1,0.1l0,0c-0.2,0.2-0.4,0.4-0.7,0.6
					c-0.2,0.2-0.3,0.3-0.4,0.5c0,0.3,0.2,0.4,0.4,0.6c-0.3,0.5-1.2,0.7-1.3,1.5c0,0.4,0.2,0.5,0.3,0.8c0,0.1,0.1,0.1-0.1,0.2
					c-0.1,0.1-0.2,0.1-0.3,0.1c-0.2,0.1-0.5,0.2-0.7,0.2C233.3,148.3,233.4,148.7,233.7,148.7z"/>
				<path id="Path_236_" class="st23" d="M229.4,147.5c0.1-0.2,0.4-0.1,0.6-0.1c0.2,0,0.4-0.2,0.5-0.3c0.1-0.2,0-0.4,0.1-0.6
					c0.1-0.1,0-0.1,0.1-0.1c0.1,0,0.2,0.1,0.3,0.1c0.3,0.1,0.7,0,0.8-0.4c0.1-0.2,0-0.5,0.1-0.7c0-0.1,0.1-1.1,0.2-1
					c0.3,0.2,0.5-0.2,0.2-0.4c-0.5-0.4-0.9,0.2-0.9,0.7c-0.1,0.4,0,0.7-0.1,1.1c0,0.2-0.1,0.3-0.2,0.2c-0.1,0-0.2-0.1-0.3-0.2
					c-0.2-0.1-0.4,0-0.5,0.2c-0.2,0.2-0.1,0.4-0.2,0.6c-0.1,0.3-0.5,0.2-0.7,0.3c-0.2,0.1-0.3,0.3-0.4,0.5
					C228.9,147.7,229.3,147.8,229.4,147.5z"/>
				<path id="Path_235_" class="st23" d="M228.6,142.6c0,0.3,0.4,0.3,0.5,0.1c0.1-0.2,0.1-0.5,0.2-0.6c0.2-0.2,0.4-0.1,0.6-0.1
					c0.2,0,0.4-0.2,0.5-0.4c0.2-0.3,0.2-0.5,0.3-0.8c0-0.2,0.1-0.4,0.3-0.4c0.2,0,0.3,0.2,0.5,0.3c0.5,0.4,1.1,0.2,1.3-0.3
					c0.1-0.3,0.3-0.7,0.5-1c0.1-0.2,0.2-0.2,0.4-0.1c0.1,0.1,0.3,0.1,0.5,0.2c0.3,0,0.4-0.4,0.1-0.5c-0.3-0.1-0.6-0.4-0.9-0.3
					c-0.3,0.1-0.5,0.4-0.7,0.7c-0.1,0.2-0.2,0.4-0.3,0.6s-0.1,0.4-0.3,0.4c-0.4-0.1-0.6-0.5-1-0.5c-0.8,0-0.8,0.9-1,1.4
					c-0.1,0.3-0.3,0.1-0.6,0.2c-0.1,0-0.3,0.1-0.4,0.2C228.7,141.8,228.5,142.2,228.6,142.6z"/>
			</g>
		</g>
	</g>
</g>
<rect x="123.5" y="96.7" transform="matrix(0.7071 -0.7071 0.7071 0.7071 -36.541 126.1101)" class="st7" width="21" height="21"/>
<rect x="93.5" y="62" transform="matrix(0.7071 -0.7071 0.7071 0.7071 -17.8156 87.5048)" class="st7" width="6.4" height="6.4"/>
<rect x="166.4" y="149.4" transform="matrix(0.7071 -0.7071 0.7071 0.7071 -58.2527 164.6327)" class="st7" width="6.4" height="6.4"/>
<g>
	<path class="st32" d="M208.6,70.1c-0.1,0.2-0.2,0.4-0.4,0.6c0,0-0.1,0.1-0.1,0.1c-0.3,0.2-0.6,0.4-0.9,0.6
		c-0.3,0.1-0.6,0.1-0.9,0.2c-0.3,0-0.6,0-0.9-0.1c-0.3-0.1-0.6-0.2-0.9-0.4c0.1,0.3,0.1,0.6,0.2,0.9c0.1,0.3,0.2,0.5,0.3,0.8
		c0,0.1,0,0.1,0.1,0.2c0.1,0.1,0.1,0.2,0.2,0.3c0.1,0.2,0.2,0.3,0.4,0.5c-0.1,0-0.1,0-0.2,0c-0.1,0-0.1,0-0.2,0c-0.3,0-0.6,0-0.9,0
		c0,0-0.1,0-0.1,0c-0.3,0-0.5,0-0.8,0c-0.3,0-0.6,0-0.9,0c0,0-0.1,0-0.1,0c0-0.1,0.1-0.1,0.1-0.2c0,0,0.1-0.1,0.1-0.1
		c0.1-0.2,0.2-0.3,0.3-0.5c0.2-0.3,0.3-0.6,0.4-0.9c0.1-0.3,0.2-0.6,0.3-0.9c-0.3,0.2-0.7,0.3-1,0.4c-0.3,0.1-0.6,0.1-0.9,0.1
		c-0.3,0-0.6-0.1-0.9-0.1c-0.3-0.1-0.6-0.2-0.8-0.4c-0.3-0.3-0.5-0.6-0.7-0.9c-0.1-0.3-0.1-0.6-0.1-0.9c0-0.3,0.1-0.6,0.2-0.9
		c0.1-0.3,0.3-0.6,0.4-0.9c0-0.1,0.1-0.1,0.1-0.2c0.2-0.2,0.4-0.5,0.5-0.7c0.1-0.1,0.3-0.3,0.4-0.4c0.2-0.1,0.4-0.3,0.5-0.5
		c0.2-0.1,0.3-0.3,0.4-0.4c0.1-0.1,0.3-0.3,0.4-0.5c0.2-0.2,0.3-0.3,0.4-0.5c0.1-0.1,0.2-0.2,0.3-0.3c0.1-0.1,0.1-0.2,0.2-0.2
		c0.1-0.1,0.1-0.2,0.2-0.3c0,0,0,0,0-0.1l0,0c0.2-0.2,0.4-0.5,0.6-0.8c0.1-0.2,0.1-0.2,0.3,0c0.1,0.1,0.1,0.2,0.2,0.3
		c0,0,0,0.1,0.1,0.1c0.2,0.3,0.4,0.6,0.6,0.9c0.1,0.1,0.2,0.3,0.3,0.4l0,0c0,0,0,0,0.1,0.1c0.1,0.2,0.3,0.4,0.5,0.5
		c0.1,0.2,0.3,0.3,0.4,0.4c0.1,0.1,0.3,0.3,0.4,0.4c0.1,0.2,0.3,0.3,0.4,0.4c0.2,0.2,0.3,0.3,0.5,0.5c0.2,0.2,0.3,0.4,0.5,0.6
		c0.1,0.1,0.1,0.2,0.2,0.3c0.2,0.3,0.3,0.6,0.4,0.9c0.1,0.3,0.1,0.6,0.1,0.9C208.8,69.5,208.7,69.8,208.6,70.1z"/>
	<path class="st33" d="M205.4,73.7c0.1,0,0.1,0,0.2,0C205.6,73.7,205.5,73.7,205.4,73.7C205.4,73.7,205.4,73.7,205.4,73.7z"/>
	<path class="st33" d="M204.4,73.7C204.5,73.6,204.5,73.7,204.4,73.7C204.5,73.7,204.5,73.7,204.4,73.7
		C204.5,73.7,204.5,73.7,204.4,73.7z"/>
	<path class="st34" d="M208.1,70.8C208.2,70.8,208.2,70.7,208.1,70.8C208.2,70.8,208.2,70.8,208.1,70.8z"/>
	<polygon class="st34" points="208.4,70.7 208.4,70.7 208.4,70.7 	"/>
	<path class="st33" d="M202.7,73.5c-0.1-0.2,0-0.1,0.1-0.1C202.7,73.4,202.7,73.4,202.7,73.5z"/>
	<path class="st34" d="M205.1,72.7c0.1,0,0.1,0.1,0.1,0.2C205.1,72.8,205.1,72.8,205.1,72.7z"/>
	<path class="st35" d="M203.4,63.4C203.3,63.3,203.3,63.3,203.4,63.4C203.3,63.3,203.4,63.3,203.4,63.4
		C203.4,63.3,203.4,63.3,203.4,63.4z"/>
</g>
<g>
	<path class="st32" d="M225.8,68c-0.1,0.3-0.3,0.5-0.4,0.7c0,0-0.1,0.1-0.1,0.1c-0.3,0.3-0.7,0.5-1.1,0.7c-0.4,0.1-0.7,0.2-1.1,0.2
		c-0.4,0-0.7-0.1-1.1-0.1c-0.3-0.1-0.7-0.2-1.1-0.4c0.1,0.4,0.2,0.7,0.3,1c0.1,0.3,0.2,0.6,0.4,0.9c0,0.1,0,0.1,0.1,0.2
		c0.1,0.1,0.2,0.3,0.3,0.4c0.1,0.2,0.3,0.4,0.4,0.6c-0.1,0-0.1,0-0.2,0c-0.1,0-0.1,0-0.2,0c-0.4,0-0.7,0-1.1,0c0,0-0.1,0-0.1,0
		c-0.3,0-0.6,0-1,0c-0.4,0-0.7,0-1.1,0c-0.1,0-0.1,0-0.2,0c0-0.1,0.1-0.2,0.1-0.2c0-0.1,0.1-0.1,0.1-0.2c0.2-0.2,0.3-0.4,0.4-0.6
		c0.2-0.3,0.3-0.7,0.4-1.1c0.1-0.3,0.2-0.7,0.3-1c-0.4,0.2-0.8,0.4-1.2,0.5c-0.4,0.1-0.7,0.1-1.1,0.1c-0.4,0-0.7-0.1-1.1-0.2
		c-0.3-0.1-0.7-0.3-1-0.5c-0.3-0.3-0.6-0.7-0.8-1.1c-0.1-0.3-0.2-0.7-0.2-1.1c0-0.4,0.1-0.7,0.2-1.1c0.2-0.4,0.3-0.7,0.5-1.1
		c0.1-0.1,0.1-0.2,0.2-0.3c0.2-0.3,0.4-0.5,0.6-0.8c0.2-0.1,0.3-0.3,0.5-0.5c0.2-0.2,0.4-0.4,0.6-0.6c0.2-0.1,0.3-0.3,0.5-0.5
		c0.2-0.2,0.3-0.3,0.5-0.5c0.2-0.2,0.4-0.4,0.5-0.6c0.1-0.1,0.2-0.3,0.3-0.4c0.1-0.1,0.1-0.2,0.2-0.3c0.1-0.1,0.2-0.2,0.2-0.3
		c0,0,0,0,0.1-0.1l0,0c0.3-0.3,0.4-0.6,0.7-1c0.2-0.2,0.2-0.2,0.3,0c0.1,0.1,0.2,0.3,0.3,0.4c0,0,0,0.1,0.1,0.1
		c0.2,0.4,0.4,0.7,0.7,1c0.1,0.2,0.2,0.3,0.3,0.5l0,0c0,0,0,0,0.1,0.1c0.1,0.2,0.3,0.4,0.5,0.7c0.1,0.2,0.3,0.4,0.5,0.5
		c0.1,0.2,0.3,0.3,0.5,0.5c0.1,0.2,0.3,0.3,0.5,0.5c0.2,0.2,0.4,0.4,0.6,0.6c0.2,0.3,0.4,0.5,0.6,0.8c0.1,0.1,0.1,0.2,0.2,0.3
		c0.2,0.3,0.3,0.7,0.5,1.1c0.1,0.4,0.1,0.7,0.1,1.1C226,67.4,226,67.7,225.8,68z"/>
	<path class="st33" d="M222.1,72.3c0.1,0,0.2,0,0.2,0C222.2,72.4,222.1,72.4,222.1,72.3C222.1,72.3,222.1,72.3,222.1,72.3z"/>
	<path class="st33" d="M220.9,72.3c0,0,0.1,0,0.1,0c0,0,0,0,0,0.1C221,72.3,220.9,72.3,220.9,72.3z"/>
	<path class="st34" d="M225.3,68.9c0,0,0.1-0.1,0.1-0.1C225.4,68.8,225.4,68.9,225.3,68.9z"/>
	<polygon class="st34" points="225.6,68.7 225.6,68.8 225.6,68.8 	"/>
	<path class="st33" d="M218.8,72.1c-0.1-0.2,0-0.2,0.1-0.2C218.9,71.9,218.8,72,218.8,72.1z"/>
	<path class="st34" d="M221.7,71.1c0.1,0,0.1,0.1,0.1,0.2C221.7,71.3,221.7,71.2,221.7,71.1z"/>
	<path class="st35" d="M219.6,60C219.6,60,219.6,60,219.6,60C219.6,60,219.6,60,219.6,60C219.6,60,219.6,60,219.6,60z"/>
</g>
<g>
	<path class="st32" d="M272.4,148.2c0.1-0.2,0.2-0.4,0.4-0.6c0,0,0.1-0.1,0.1-0.1c0.3-0.2,0.6-0.4,0.9-0.6c0.3-0.1,0.6-0.1,0.9-0.2
		c0.3,0,0.6,0,0.9,0.1c0.3,0.1,0.6,0.2,0.9,0.4c-0.1-0.3-0.1-0.6-0.2-0.9c-0.1-0.3-0.2-0.5-0.3-0.8c0-0.1,0-0.1-0.1-0.2
		c-0.1-0.1-0.1-0.2-0.2-0.3c-0.1-0.2-0.2-0.3-0.4-0.5c0.1,0,0.1,0,0.2,0c0.1,0,0.1,0,0.2,0c0.3,0,0.6,0,0.9,0c0,0,0.1,0,0.1,0
		c0.3,0,0.5,0,0.8,0c0.3,0,0.6,0,0.9,0c0,0,0.1,0,0.1,0c0,0.1-0.1,0.1-0.1,0.2c0,0-0.1,0.1-0.1,0.1c-0.1,0.2-0.2,0.3-0.3,0.5
		c-0.2,0.3-0.3,0.6-0.4,0.9c-0.1,0.3-0.2,0.6-0.3,0.9c0.3-0.2,0.7-0.3,1-0.4c0.3-0.1,0.6-0.1,0.9-0.1c0.3,0,0.6,0.1,0.9,0.1
		c0.3,0.1,0.6,0.2,0.8,0.4c0.3,0.3,0.5,0.6,0.7,0.9c0.1,0.3,0.1,0.6,0.1,0.9c0,0.3-0.1,0.6-0.2,0.9c-0.1,0.3-0.3,0.6-0.4,0.9
		c0,0.1-0.1,0.1-0.1,0.2c-0.2,0.2-0.4,0.5-0.5,0.7c-0.1,0.1-0.3,0.3-0.4,0.4c-0.2,0.1-0.4,0.3-0.5,0.5c-0.2,0.1-0.3,0.3-0.4,0.4
		c-0.1,0.1-0.3,0.3-0.4,0.5c-0.2,0.2-0.3,0.3-0.4,0.5c-0.1,0.1-0.2,0.2-0.3,0.3c-0.1,0.1-0.1,0.2-0.2,0.2c-0.1,0.1-0.1,0.2-0.2,0.3
		c0,0,0,0,0,0.1l0,0c-0.2,0.2-0.4,0.5-0.6,0.8c-0.1,0.2-0.1,0.2-0.3,0c-0.1-0.1-0.1-0.2-0.2-0.3c0,0,0-0.1-0.1-0.1
		c-0.2-0.3-0.4-0.6-0.6-0.9c-0.1-0.1-0.2-0.3-0.3-0.4l0,0c0,0,0,0-0.1-0.1c-0.1-0.2-0.3-0.4-0.5-0.5c-0.1-0.2-0.3-0.3-0.4-0.4
		c-0.1-0.1-0.3-0.3-0.4-0.4c-0.1-0.2-0.3-0.3-0.4-0.4c-0.2-0.2-0.3-0.3-0.5-0.5c-0.2-0.2-0.3-0.4-0.5-0.6c-0.1-0.1-0.1-0.2-0.2-0.3
		c-0.2-0.3-0.3-0.6-0.4-0.9c-0.1-0.3-0.1-0.6-0.1-0.9C272.3,148.7,272.3,148.4,272.4,148.2z"/>
	<path class="st33" d="M275.6,144.6c-0.1,0-0.1,0-0.2,0C275.5,144.5,275.5,144.5,275.6,144.6C275.6,144.6,275.6,144.6,275.6,144.6z"
		/>
	<path class="st33" d="M276.6,144.6C276.6,144.6,276.5,144.6,276.6,144.6C276.5,144.6,276.5,144.6,276.6,144.6
		C276.5,144.6,276.6,144.6,276.6,144.6z"/>
	<path class="st34" d="M272.9,147.5C272.9,147.5,272.9,147.5,272.9,147.5C272.8,147.5,272.8,147.4,272.9,147.5z"/>
	<polygon class="st34" points="272.6,147.6 272.6,147.6 272.6,147.6 	"/>
	<path class="st33" d="M278.4,144.8c0.1,0.2,0,0.1-0.1,0.1C278.3,144.9,278.3,144.8,278.4,144.8z"/>
	<path class="st34" d="M275.9,145.6c-0.1,0-0.1-0.1-0.1-0.2C275.9,145.4,275.9,145.5,275.9,145.6z"/>
	<path class="st35" d="M277.7,154.9C277.7,154.9,277.7,154.9,277.7,154.9C277.7,154.9,277.7,155,277.7,154.9
		C277.7,154.9,277.7,154.9,277.7,154.9z"/>
</g>
<g>
	<path class="st32" d="M255.6,149.3c0.1-0.3,0.3-0.5,0.4-0.7c0,0,0.1-0.1,0.1-0.1c0.3-0.3,0.7-0.5,1.1-0.7c0.4-0.1,0.7-0.2,1.1-0.2
		c0.4,0,0.7,0.1,1.1,0.1c0.3,0.1,0.7,0.2,1.1,0.4c-0.1-0.4-0.2-0.7-0.3-1c-0.1-0.3-0.2-0.6-0.4-0.9c0-0.1,0-0.1-0.1-0.2
		c-0.1-0.1-0.2-0.3-0.3-0.4c-0.1-0.2-0.3-0.4-0.4-0.6c0.1,0,0.1,0,0.2,0c0.1,0,0.1,0,0.2,0c0.4,0,0.7,0,1.1,0c0,0,0.1,0,0.1,0
		c0.3,0,0.6,0,1,0c0.4,0,0.7,0,1.1,0c0.1,0,0.1,0,0.2,0c0,0.1-0.1,0.2-0.1,0.2c0,0.1-0.1,0.1-0.1,0.2c-0.2,0.2-0.3,0.4-0.4,0.6
		c-0.2,0.3-0.3,0.7-0.4,1.1c-0.1,0.3-0.2,0.7-0.3,1c0.4-0.2,0.8-0.4,1.2-0.5c0.4-0.1,0.7-0.1,1.1-0.1c0.4,0,0.7,0.1,1.1,0.2
		c0.3,0.1,0.7,0.3,1,0.5c0.3,0.3,0.6,0.7,0.8,1.1c0.1,0.3,0.2,0.7,0.2,1.1c0,0.4-0.1,0.7-0.2,1.1c-0.2,0.4-0.3,0.7-0.5,1.1
		c-0.1,0.1-0.1,0.2-0.2,0.3c-0.2,0.3-0.4,0.5-0.6,0.8c-0.2,0.1-0.3,0.3-0.5,0.5c-0.2,0.2-0.4,0.4-0.6,0.6c-0.2,0.1-0.3,0.3-0.5,0.5
		c-0.2,0.2-0.3,0.3-0.5,0.5c-0.2,0.2-0.4,0.4-0.5,0.6c-0.1,0.1-0.2,0.3-0.3,0.4c-0.1,0.1-0.1,0.2-0.2,0.3c-0.1,0.1-0.2,0.2-0.2,0.3
		c0,0,0,0-0.1,0.1l0,0c-0.3,0.3-0.4,0.6-0.7,1c-0.2,0.2-0.2,0.2-0.3,0c-0.1-0.1-0.2-0.3-0.3-0.4c0,0,0-0.1-0.1-0.1
		c-0.2-0.4-0.4-0.7-0.7-1c-0.1-0.2-0.2-0.3-0.3-0.5l0,0c0,0,0,0-0.1-0.1c-0.1-0.2-0.3-0.4-0.5-0.7c-0.1-0.2-0.3-0.4-0.5-0.5
		c-0.1-0.2-0.3-0.3-0.5-0.5c-0.1-0.2-0.3-0.3-0.5-0.5c-0.2-0.2-0.4-0.4-0.6-0.6c-0.2-0.3-0.4-0.5-0.6-0.8c-0.1-0.1-0.1-0.2-0.2-0.3
		c-0.2-0.3-0.3-0.7-0.5-1.1c-0.1-0.4-0.1-0.7-0.1-1.1C255.4,150,255.5,149.7,255.6,149.3z"/>
	<path class="st33" d="M259.4,145.1c-0.1,0-0.2,0-0.2,0C259.3,145,259.3,145,259.4,145.1C259.4,145,259.4,145,259.4,145.1z"/>
	<path class="st33" d="M260.6,145.1c0,0-0.1,0-0.1,0c0,0,0,0,0-0.1C260.5,145,260.6,145,260.6,145.1z"/>
	<path class="st34" d="M256.2,148.5c0,0-0.1,0.1-0.1,0.1C256.1,148.5,256.1,148.5,256.2,148.5z"/>
	<polygon class="st34" points="255.9,148.6 255.9,148.6 255.9,148.6 	"/>
	<path class="st33" d="M262.7,145.3c0.1,0.2,0,0.2-0.1,0.2C262.6,145.4,262.7,145.4,262.7,145.3z"/>
	<path class="st34" d="M259.8,146.2c-0.1,0-0.1-0.1-0.1-0.2C259.8,146.1,259.8,146.1,259.8,146.2z"/>
	<path class="st35" d="M261.9,157.3C261.9,157.3,261.9,157.4,261.9,157.3C261.9,157.4,261.9,157.4,261.9,157.3
		C261.8,157.4,261.9,157.4,261.9,157.3z"/>
</g>
</svg>
