<?xml version="1.0" encoding="utf-8"?>
<!-- Generator: Adobe Illustrator 24.0.1, SVG Export Plug-In . SVG Version: 6.00 Build 0)  -->
<svg version="1.1" id="Layer_3" xmlns="http://www.w3.org/2000/svg" xmlns:xlink="http://www.w3.org/1999/xlink" x="0px" y="0px"
	 viewBox="0 0 383 500" style="enable-background:new 0 0 383 500;" xml:space="preserve">
<style type="text/css">
	.st0{fill:#EEEFED;}
	.st1{opacity:0.13;}
	.st2{fill:none;stroke:#999999;stroke-width:0.2348;stroke-miterlimit:10;}
	.st3{fill:#EEEFED;stroke:#999999;stroke-width:0.2348;stroke-miterlimit:10;}
	.st4{fill:#CCCCCC;stroke:#999999;stroke-width:0.2348;stroke-miterlimit:10;}
	.st5{fill:none;stroke:#999999;stroke-width:0.2348;stroke-miterlimit:10;stroke-dasharray:1.8784;}
	.st6{fill:none;stroke:#000000;stroke-width:1.2;stroke-miterlimit:10;}
	.st7{fill:#E72B78;}
	.st8{fill:#F9B443;}
	.st9{fill:none;stroke:#000000;stroke-width:1.414;stroke-miterlimit:10;}
	.st10{fill:#FFFFFF;}
	.st11{font-family:'Exo2-Bold';}
	.st12{font-size:8.5926px;}
	.st13{fill:#FFFFFF;stroke:#000000;stroke-width:0.6858;stroke-miterlimit:10;}
	.st14{opacity:0.91;}
	.st15{fill:#FF3369;}
	.st16{fill:#FFAE00;}
	.st17{fill:#723F33;}
	.st18{opacity:0.28;fill:#542C1C;enable-background:new    ;}
	.st19{opacity:0.6;fill:#603826;enable-background:new    ;}
	.st20{fill:#603826;}
	.st21{opacity:0.4;fill:#603826;enable-background:new    ;}
	.st22{fill:#F4F4F4;}
	.st23{fill:#DBDDDC;}
	.st24{fill:#B2B2B2;}
	.st25{fill:#E09220;}
	.st26{opacity:0.28;fill:#603826;enable-background:new    ;}
	.st27{fill:#C40E50;}
	.st28{fill:#FFFFFF;stroke:#000000;stroke-width:0.9534;stroke-miterlimit:10;}
	.st29{clip-path:url(#XMLID_5_);}
	.st30{clip-path:url(#XMLID_40_);}
	.st31{fill:#FFB53F;}
	.st32{fill:none;stroke:url(#SVGID_1_);stroke-width:0.3757;stroke-miterlimit:10;}
	.st33{fill:#0E0E0E;}
	.st34{fill:#010101;}
	.st35{fill:#E5E5E5;}
	.st36{fill:#EAEAEA;}
	.st37{fill:#E8E8E8;}
	.st38{fill:#FFFFFF;stroke:#000000;stroke-width:0.327;stroke-miterlimit:10;}
	.st39{opacity:0.44;}
	.st40{fill:#EA9628;}
	.st41{fill:#0D48CC;}
	.st42{fill:#AA0550;}
	.st43{fill:#BC1B5C;}
	.st44{fill:#DD891B;}
	.st45{fill:#002A75;}
	.st46{fill:#06307A;}
	.st47{fill:#CCCCCC;}
	.st48{fill:#71399F;}
	.st49{fill:#03347A;}
	.st50{fill:none;stroke:#EEEFED;stroke-width:3.1536;stroke-miterlimit:10;}
	.st51{opacity:0.24;fill:#56330A;}
	.st52{stroke:#000000;stroke-width:2.0888;stroke-miterlimit:10;}
	.st53{fill:#EEEFED;stroke:#000000;stroke-width:2.0888;stroke-miterlimit:10;}
	.st54{stroke:#000000;stroke-width:1.7;stroke-miterlimit:10;}
	.st55{fill:#EEEFED;stroke:#000000;stroke-width:1.7;stroke-miterlimit:10;}
	.st56{stroke:#000000;stroke-width:1.3;stroke-miterlimit:10;}
	.st57{fill:#EEEFED;stroke:#000000;stroke-width:1.3;stroke-miterlimit:10;}
	.st58{stroke:#000000;stroke-width:2;stroke-miterlimit:10;}
	.st59{stroke:#000000;stroke-width:1.912;stroke-miterlimit:10;}
	.st60{fill:none;stroke:#000000;stroke-width:1.912;stroke-miterlimit:10;}
	.st61{clip-path:url(#XMLID_211_);}
	.st62{clip-path:url(#XMLID_212_);}
	.st63{fill:none;stroke:url(#SVGID_2_);stroke-width:0.2702;stroke-miterlimit:10;}
	.st64{stroke:#000000;stroke-width:0.5;stroke-miterlimit:10;}
	.st65{fill:#FFFFFF;stroke:#000000;stroke-width:0.8987;stroke-miterlimit:10;}
	.st66{stroke:#000000;stroke-width:1.2;stroke-miterlimit:10;}
	.st67{fill:#EEEFED;stroke:#000000;stroke-width:1.2;stroke-miterlimit:10;}
	.st68{fill:#EEEFED;stroke:#000000;stroke-width:2;stroke-miterlimit:10;}
	.st69{fill:#EEEFED;stroke:#000000;stroke-width:1.912;stroke-miterlimit:10;}
</style>
<path class="st0" d="M351.9,485.9H31.1c-10.6,0-19.3-8.7-19.3-19.3V33.4c0-10.6,8.7-19.3,19.3-19.3h320.9c10.6,0,19.3,8.7,19.3,19.3
	v433.1C371.3,477.2,362.6,485.9,351.9,485.9z"/>
<line class="st9" x1="58.1" y1="188.1" x2="174.6" y2="101.7"/>
<line class="st9" x1="119.3" y1="188.1" x2="183" y2="101.7"/>
<line class="st9" x1="330.5" y1="190.6" x2="213.9" y2="101.7"/>
<line class="st9" x1="269.2" y1="189.4" x2="205.6" y2="101.7"/>
<line class="st9" x1="194.9" y1="188.1" x2="195.1" y2="101.7"/>
<rect x="162.6" y="61.1" class="st7" width="64.8" height="42"/>
<text transform="matrix(1 0 0 1 172.7744 84.5115)" class="st10 st11 st12">card game</text>
<rect x="22.8" y="188.1" class="st8" width="64.8" height="42"/>
<text transform="matrix(1 0 0 1 32.9687 200.8963)"><tspan x="0" y="0" class="st11 st12">shuffle</tspan><tspan x="0" y="10.3" class="st11 st12">deck</tspan></text>
<rect x="91.2" y="188.1" class="st8" width="64.8" height="42"/>
<text transform="matrix(1 0 0 1 101.3115 200.8963)"><tspan x="0" y="0" class="st11 st12">deal</tspan><tspan x="0" y="10.3" class="st11 st12">cards</tspan></text>
<rect x="156.6" y="396.9" class="st8" width="64.8" height="42"/>
<g>
	<text transform="matrix(1 0 0 1 166.7646 409.6385)"><tspan x="0" y="0" class="st11 st12">check</tspan><tspan x="0" y="10.3" class="st11 st12">value of</tspan><tspan x="0" y="20.6" class="st11 st12">hand</tspan></text>
</g>
<rect x="225" y="396.9" class="st8" width="64.8" height="42"/>
<g>
	<text transform="matrix(1 0 0 1 235.1103 409.6385)"><tspan x="0" y="0" class="st11 st12">determine</tspan><tspan x="0" y="10.3" class="st11 st12">action</tspan></text>
</g>
<rect x="293.3" y="396.9" class="st8" width="64.8" height="42"/>
<g>
	<text transform="matrix(1 0 0 1 303.457 409.6385)"><tspan x="0" y="0" class="st11 st12">deal </tspan><tspan x="0" y="10.3" class="st11 st12">card</tspan></text>
</g>
<line class="st9" x1="179.8" y1="227.4" x2="150.9" y2="268.6"/>
<line class="st9" x1="170.8" y1="227.4" x2="83.1" y2="267.8"/>
<line class="st9" x1="327.5" y1="229.3" x2="328.7" y2="297.6"/>
<line class="st9" x1="191.5" y1="229.3" x2="190.7" y2="297.6"/>
<line class="st9" x1="265.2" y1="224.3" x2="263.5" y2="396.9"/>
<line class="st9" x1="253.2" y1="224.3" x2="218.5" y2="396.9"/>
<line class="st9" x1="275.2" y1="224.3" x2="307.5" y2="396.9"/>
<rect x="296.2" y="265.8" class="st8" width="64.8" height="42"/>
<text transform="matrix(1 0 0 1 306.3477 278.5115)"><tspan x="0" y="0" class="st11 st12">increment</tspan><tspan x="0" y="10.3" class="st11 st12">score</tspan></text>
<rect x="29" y="265.8" class="st8" width="64.8" height="42"/>
<text transform="matrix(1 0 0 1 39.1357 278.5115)"><tspan x="0" y="0" class="st11 st12">check </tspan><tspan x="0" y="10.3" class="st11 st12">value of</tspan><tspan x="0" y="20.6" class="st11 st12">hand</tspan></text>
<rect x="97.3" y="265.8" class="st8" width="64.8" height="42"/>
<text transform="matrix(1 0 0 1 107.4824 278.5115)"><tspan x="0" y="0" class="st11 st12">get </tspan><tspan x="0" y="10.3" class="st11 st12">choice</tspan></text>
<rect x="165.7" y="265.8" class="st8" width="64.8" height="42"/>
<text transform="matrix(1 0 0 1 175.8291 278.5115)"><tspan x="0" y="0" class="st11 st12">deal </tspan><tspan x="0" y="10.3" class="st11 st12">card</tspan></text>
<rect x="159.5" y="188.1" class="st8" width="64.8" height="42"/>
<text transform="matrix(1 0 0 1 169.6572 200.8963)"><tspan x="0" y="0" class="st11 st12">player </tspan><tspan x="0" y="10.3" class="st11 st12">turn</tspan></text>
<rect x="227.8" y="188.1" class="st8" width="64.8" height="42"/>
<text transform="matrix(1 0 0 1 238.0039 200.8963)"><tspan x="0" y="0" class="st11 st12">dealer (AI)</tspan><tspan x="0" y="10.3" class="st11 st12">turn</tspan></text>
<rect x="296.2" y="188.1" class="st8" width="64.8" height="42"/>
<text transform="matrix(1 0 0 1 306.3477 200.8963)"><tspan x="0" y="0" class="st11 st12">display</tspan><tspan x="0" y="10.3" class="st11 st12">results of</tspan><tspan x="0" y="20.6" class="st11 st12">game</tspan></text>
</svg>
