<?xml version="1.0" encoding="utf-8"?>
<!-- Generator: Adobe Illustrator 24.0.1, SVG Export Plug-In . SVG Version: 6.00 Build 0)  -->
<svg version="1.1" id="Layer_3" xmlns="http://www.w3.org/2000/svg" xmlns:xlink="http://www.w3.org/1999/xlink" x="0px" y="0px"
	 viewBox="0 0 383 200.3" style="enable-background:new 0 0 383 200.3;" xml:space="preserve">
<style type="text/css">
	.st0{fill:#EEEFED;}
	.st1{opacity:0.13;}
	.st2{fill:none;stroke:#999999;stroke-width:0.2348;stroke-miterlimit:10;}
	.st3{fill:#EEEFED;stroke:#999999;stroke-width:0.2348;stroke-miterlimit:10;}
	.st4{fill:#CCCCCC;stroke:#999999;stroke-width:0.2348;stroke-miterlimit:10;}
	.st5{fill:none;stroke:#999999;stroke-width:0.2348;stroke-miterlimit:10;stroke-dasharray:1.8784;}
	.st6{fill:none;stroke:#000000;stroke-width:1.2;stroke-miterlimit:10;}
	.st7{fill:#E72B78;}
	.st8{fill:#F9B443;}
	.st9{fill:none;stroke:#000000;stroke-width:1.414;stroke-miterlimit:10;}
	.st10{fill:#FFFFFF;}
	.st11{fill:#FFFFFF;stroke:#000000;stroke-width:0.6858;stroke-miterlimit:10;}
	.st12{opacity:0.91;}
	.st13{fill:#FF3369;}
	.st14{fill:#FFAE00;}
	.st15{fill:#723F33;}
	.st16{opacity:0.28;fill:#542C1C;enable-background:new    ;}
	.st17{opacity:0.6;fill:#603826;enable-background:new    ;}
	.st18{fill:#603826;}
	.st19{opacity:0.4;fill:#603826;enable-background:new    ;}
	.st20{fill:#F4F4F4;}
	.st21{fill:#DBDDDC;}
	.st22{fill:#B2B2B2;}
	.st23{fill:#E09220;}
	.st24{opacity:0.28;fill:#603826;enable-background:new    ;}
	.st25{fill:#C40E50;}
	.st26{fill:#FFFFFF;stroke:#000000;stroke-width:0.9534;stroke-miterlimit:10;}
	.st27{clip-path:url(#XMLID_5_);}
	.st28{clip-path:url(#XMLID_40_);}
	.st29{fill:#FFB53F;}
	.st30{fill:none;stroke:url(#SVGID_1_);stroke-width:0.3757;stroke-miterlimit:10;}
	.st31{fill:#0E0E0E;}
	.st32{fill:#010101;}
	.st33{fill:#E5E5E5;}
	.st34{fill:#EAEAEA;}
	.st35{fill:#E8E8E8;}
	.st36{fill:#FFFFFF;stroke:#000000;stroke-width:0.327;stroke-miterlimit:10;}
	.st37{opacity:0.44;}
	.st38{fill:#EA9628;}
	.st39{fill:#0D48CC;}
	.st40{fill:#AA0550;}
	.st41{fill:#BC1B5C;}
	.st42{fill:#DD891B;}
	.st43{fill:#002A75;}
	.st44{fill:#06307A;}
	.st45{fill:#CCCCCC;}
	.st46{fill:#71399F;}
	.st47{fill:#03347A;}
	.st48{fill:none;stroke:#EEEFED;stroke-width:3.1536;stroke-miterlimit:10;}
	.st49{opacity:0.24;fill:#56330A;}
	.st50{stroke:#000000;stroke-width:2.0888;stroke-miterlimit:10;}
	.st51{fill:#EEEFED;stroke:#000000;stroke-width:2.0888;stroke-miterlimit:10;}
	.st52{stroke:#000000;stroke-width:1.7;stroke-miterlimit:10;}
	.st53{fill:#EEEFED;stroke:#000000;stroke-width:1.7;stroke-miterlimit:10;}
	.st54{stroke:#000000;stroke-width:1.3;stroke-miterlimit:10;}
	.st55{fill:#EEEFED;stroke:#000000;stroke-width:1.3;stroke-miterlimit:10;}
	.st56{stroke:#000000;stroke-width:2;stroke-miterlimit:10;}
	.st57{stroke:#000000;stroke-width:1.912;stroke-miterlimit:10;}
	.st58{fill:none;stroke:#000000;stroke-width:1.912;stroke-miterlimit:10;}
	.st59{font-family:'Exo2-Black';}
	.st60{font-size:8.6316px;}
	.st61{clip-path:url(#XMLID_211_);}
	.st62{clip-path:url(#XMLID_212_);}
	.st63{fill:none;stroke:url(#SVGID_2_);stroke-width:0.2702;stroke-miterlimit:10;}
	.st64{stroke:#000000;stroke-width:0.5;stroke-miterlimit:10;}
	.st65{font-family:'Exo2-Bold';}
	.st66{font-size:10.247px;}
	.st67{font-size:7.0114px;}
	.st68{fill:#FFFFFF;stroke:#000000;stroke-width:0.8987;stroke-miterlimit:10;}
	.st69{stroke:#000000;stroke-width:1.2;stroke-miterlimit:10;}
	.st70{fill:#EEEFED;stroke:#000000;stroke-width:1.2;stroke-miterlimit:10;}
	.st71{fill:#EEEFED;stroke:#000000;stroke-width:2;stroke-miterlimit:10;}
	.st72{fill:#EEEFED;stroke:#000000;stroke-width:1.912;stroke-miterlimit:10;}
</style>
<path class="st0" d="M357.4,194.1H25.6c-10.6,0-19.3-8.7-19.3-19.3V25.6c0-10.6,8.7-19.3,19.3-19.3h331.9c10.6,0,19.3,8.7,19.3,19.3
	v149.1C376.8,185.4,368.1,194.1,357.4,194.1z"/>
<path class="st1" d="M94.7,157.8H35.1c-2.4,0-4.4-2-4.4-4.4V65.1c0-2.4,2-4.4,4.4-4.4h59.6c2.4,0,4.4,2,4.4,4.4v88.4
	C99.1,155.9,97.1,157.8,94.7,157.8z"/>
<path class="st10" d="M87.5,150.6H27.9c-2.4,0-4.4-2-4.4-4.4V57.9c0-2.4,2-4.4,4.4-4.4h59.6c2.4,0,4.4,2,4.4,4.4v88.4
	C91.9,148.7,89.9,150.6,87.5,150.6z"/>
<text transform="matrix(1 0 0 1 27.1259 63.2625)" class="st59 st60">4</text>
<text transform="matrix(-1 0 0 -1 87.9716 141.869)" class="st59 st60">4</text>
<path class="st1" d="M176.7,157.8h-59.6c-2.4,0-4.4-2-4.4-4.4V65.1c0-2.4,2-4.4,4.4-4.4h59.6c2.4,0,4.4,2,4.4,4.4v88.4
	C181.1,155.9,179.1,157.8,176.7,157.8z"/>
<path class="st10" d="M169.5,150.6h-59.6c-2.4,0-4.4-2-4.4-4.4V57.9c0-2.4,2-4.4,4.4-4.4h59.6c2.4,0,4.4,2,4.4,4.4v88.4
	C173.9,148.7,171.9,150.6,169.5,150.6z"/>
<path class="st11" d="M158.2,141.9h-36.8c-1.7,0-3.1-1.4-3.1-3.1V65.4c0-1.7,1.4-3.1,3.1-3.1h36.8c1.7,0,3.1,1.4,3.1,3.1v73.4
	C161.3,140.5,159.9,141.9,158.2,141.9z"/>
<text transform="matrix(1 0 0 1 109.1259 63.2625)" class="st59 st60">Q</text>
<text transform="matrix(1 0 0 1 109.1259 63.2625)" class="st59 st60">Q</text>
<g>
	<defs>
		<path id="XMLID_57_" d="M115.3,71.3c1-0.9,1-2.4,0.1-3.3c-0.9-0.9-2.3-0.9-3.2-0.1c-0.9-0.9-2.3-0.9-3.2-0.1c-0.9,0.9-1,2.3,0,3.3
			l2.9,3.1c0.1,0.1,0.2,0.1,0.2,0L115.3,71.3z"/>
	</defs>
	<use xlink:href="#XMLID_57_"  style="overflow:visible;fill:#E72B78;"/>
	<clipPath id="XMLID_2_">
		<use xlink:href="#XMLID_57_"  style="overflow:visible;"/>
	</clipPath>
</g>
<text transform="matrix(-1 0 0 -1 169.9716 141.869)" class="st59 st60">Q</text>
<g>
	<defs>
		<path id="XMLID_56_" d="M163.8,133.9c-1,1-1,2.4-0.1,3.3c0.9,0.9,2.3,0.9,3.2,0c0.9,0.9,2.3,0.9,3.2,0c0.9-0.9,0.9-2.3-0.1-3.3
			l-3-3c-0.1-0.1-0.2-0.1-0.2,0L163.8,133.9z"/>
	</defs>
	<use xlink:href="#XMLID_56_"  style="overflow:visible;fill:#E72B78;"/>
	<clipPath id="XMLID_3_">
		<use xlink:href="#XMLID_56_"  style="overflow:visible;"/>
	</clipPath>
</g>
<g>
	<defs>
		<path id="XMLID_55_" d="M128.5,69.7c1.2-1.2,1.2-2.9,0.2-4c-1.1-1.1-2.8-1.1-3.9-0.1c-1.1-1.1-2.8-1.1-3.9-0.1
			c-1.1,1.1-1.2,2.8,0,4l3.6,3.8c0.1,0.1,0.2,0.1,0.3,0L128.5,69.7z"/>
	</defs>
	<use xlink:href="#XMLID_55_"  style="overflow:visible;fill:#E72B78;"/>
	<clipPath id="XMLID_4_">
		<use xlink:href="#XMLID_55_"  style="overflow:visible;"/>
	</clipPath>
</g>
<g>
	<defs>
		<path id="XMLID_54_" d="M151.1,135.2c-1.2,1.2-1.2,2.9-0.2,4c1.1,1.1,2.8,1.1,3.9,0.1c1.1,1.1,2.8,1.1,3.9,0.1
			c1.1-1.1,1.2-2.8,0-4l-3.6-3.8c-0.1-0.1-0.2-0.1-0.3,0L151.1,135.2z"/>
	</defs>
	<use xlink:href="#XMLID_54_"  style="overflow:visible;fill:#E72B78;"/>
	<clipPath id="XMLID_5_">
		<use xlink:href="#XMLID_54_"  style="overflow:visible;"/>
	</clipPath>
</g>
<g id="Page-1_10_" class="st12">
	<g id="Homepage---Desktop_6_" transform="translate(-581.000000, -1466.000000)">
		<g id="illo_spot_6_" transform="translate(580.000000, 1465.000000)">
			<g id="Layer_14_6_" transform="translate(0.971660, 0.971660)">
				<path id="Path_78_" class="st13" d="M147.4,92.1c-2.7-2.6-4.8-2.8-5.8-3.4l-1.7,0l-1.7,0c-1,0.6-3,0.8-5.7,3.4
					c-4.1,3.9-4.3,10.3-4.3,10.3h23.6C151.7,102.4,151.5,96,147.4,92.1z"/>
				<circle id="Oval_6_" class="st14" cx="140.2" cy="75.6" r="10.7"/>
				<path id="Path_77_" class="st15" d="M138.6,85.5c0.5,1.1,0.5,2.5-0.3,3.2c0,0,0.3,0.6,1.6,0.6s1.6-0.5,1.6-0.5s-0.6-0.4-0.6-1.5
					c0-1.1,0.2-1.7,0.2-1.7H138.6z"/>
				<path id="Path_76_" class="st16" d="M140.9,86.1L140.9,86.1c-1,1.5-2.3,2.4-2.6,2.5c0,0,0.7-0.6,0.7-1.3c0-0.5-0.1-1-0.2-1.5
					l1.2,0.7L140.9,86.1z"/>
				<ellipse id="Oval_5_" class="st17" cx="138.5" cy="84.6" rx="0.5" ry="0.7"/>
				<path id="Path_75_" class="st18" d="M137.2,84c0-0.2,0-0.3,0-0.5c0-0.2,0-0.3,0-0.5c0,0,0-0.1,0-0.1c-0.2-0.2-0.5-0.3-0.7-0.1
					c-0.3,0.2-0.4,0.6-0.4,0.9c0,0.3,0.2,0.7,0.5,0.8c0.1,0,0.3,0,0.4-0.1s0.2-0.2,0.3-0.4C137.3,84.1,137.3,84,137.2,84L137.2,84z"
					/>
				<path id="Path_74_" class="st15" d="M143.5,83.1c-0.1-0.1-0.2-0.2-0.4-0.2c0.1-0.8,0-1.6-0.1-2.5c-0.2-0.8-0.7-1.1-0.7-1.1
					s-1.2,0.9-2.3,0.9s-2.3-0.9-2.3-0.9s-0.5,0.3-0.7,1.1c-0.3,1.5-0.3,3.5,0.7,4.6c1,1.1,2.2,1.5,2.2,1.5s1.1-0.4,2.2-1.5
					c0.2-0.2,0.3-0.4,0.4-0.6c0.1,0.1,0.2,0.1,0.4,0.1c0.3-0.1,0.4-0.4,0.5-0.6C143.6,83.7,143.7,83.3,143.5,83.1z"/>
				<path id="Path_73_" class="st16" d="M140.6,84.4l-0.7,0.3c0-0.1,0-0.4,0-1.5c0-0.7-1.6-1-1.6-1.7c0-0.7,0-1.2,1-1.3
					c0,0-0.5-0.2-0.9-0.4c-0.2-0.1-0.5-0.3-0.7-0.4c0,0-0.4,0.2-0.6,0.9c-0.2,0.9-0.3,1.5-0.2,3.1c0.1,2,3,3.2,3,3.2s-0.1-0.2-0.5-1
					c0,0,0,0,0,0c0.2,0,0.3-0.1,0.4-0.2C140.5,85.1,140.6,84.4,140.6,84.4z"/>
				<path id="Shape_2_" class="st13" d="M142.7,83.4c0-0.2-0.1-0.4-0.2-0.5c-0.1-0.1-0.2-0.3-0.3-0.3c-0.3-0.1-0.8-0.2-1,0.2
					c-0.1,0.2-0.3,0.5-0.3,0.7c-0.4-0.3-1-0.4-1.4-0.1c0-0.3-0.4-0.8-0.7-1c-0.4-0.2-0.9-0.2-1.2,0.2c-0.3,0.4-0.4,0.9-0.4,1.4
					c0,0.6,0.4,1.6,1.2,1.5c0.9-0.1,1.1-1.2,1-1.9c0,0,0,0,0,0c0.4-0.2,1-0.2,1.3,0.2c0,0,0,0,0,0c-0.1,0.6,0,1.3,0.4,1.7
					s1,0.2,1.3-0.2C142.7,84.7,142.8,84,142.7,83.4z M138.1,85.2c-0.6-0.2-0.7-1-0.7-1.5c0-0.4,0.1-0.8,0.3-1
					c0.5-0.5,1.2,0.2,1.4,0.9c0,0,0,0,0,0.1C139.2,84.5,138.7,85.5,138.1,85.2z M141.7,85.4c-0.6,0.1-0.9-0.8-0.9-1.3
					c0-0.3,0.1-0.6,0.2-0.8c0.1-0.1,0.1-0.3,0.2-0.4c0-0.1,0.3-0.3,0.5-0.2c0.1,0,0.2,0.1,0.3,0.2c0.2,0.2,0.3,0.5,0.3,0.8
					C142.5,84.4,142.4,85.3,141.7,85.4L141.7,85.4z"/>
				<path id="Path_72_" class="st19" d="M137,83.3c-0.3-0.1-0.6,0.2-0.7,0.5c0,0.1,0.2,0.2,0.2,0c0-0.1,0.1-0.1,0.1-0.2
					c0,0.2,0,0.4,0,0.5c0,0,0,0.1,0.1,0.1s0.1,0,0.1,0c0.1-0.2,0-0.4,0-0.6c0.1,0,0.2-0.1,0.2-0.1C137.1,83.5,137.1,83.5,137,83.3
					C137.1,83.4,137.1,83.3,137,83.3L137,83.3z"/>
				<path id="Path_71_" class="st19" d="M142.9,83.3c0.3,0,0.5,0.3,0.5,0.6c0,0,0,0.1,0,0.1s-0.1,0-0.1,0c0,0,0-0.1,0-0.1
					c0-0.1,0-0.1-0.1-0.2c-0.1,0.2-0.1,0.3-0.1,0.5c0,0,0,0-0.1,0c0,0,0,0-0.1,0c0-0.2,0.1-0.4,0.2-0.6c-0.1,0-0.1-0.1-0.2-0.1
					C142.9,83.4,142.9,83.3,142.9,83.3z"/>
				<path id="Path_70_" class="st14" d="M142.8,81.9c-0.2-0.6-1.1-0.8-1.6-0.5c-0.1,0,0,0.2,0.1,0.1c0.2-0.1,0.5-0.1,0.7,0
					c0.3,0.1,0.4,0.3,0.6,0.5c0,0,0.1,0,0.1,0C142.8,82,142.8,82,142.8,81.9L142.8,81.9z"/>
				<path id="Path_69_" class="st14" d="M139,81.3c-0.2-0.1-0.6-0.1-0.9,0c-0.3,0.1-0.6,0.2-0.8,0.5c-0.1,0.1,0,0.2,0.1,0.1
					c0.2-0.1,0.5-0.3,0.8-0.4c0.3-0.1,0.5,0,0.8,0C139.1,81.5,139.1,81.5,139,81.3C139.1,81.4,139.1,81.3,139,81.3L139,81.3z"/>
				<path id="Rectangle_4_" class="st20" d="M134.1,93.9h11.7c0.1,0,0.2,0.1,0.2,0.2v7.9c0,0.1-0.1,0.2-0.2,0.2h-11.7
					c-0.1,0-0.2-0.1-0.2-0.2v-7.9C133.9,94,134,93.9,134.1,93.9z"/>
				<path id="Rectangle_3_" d="M134.5,94.2h11c0.1,0,0.2,0.1,0.2,0.2v7.8c0,0.1-0.1,0.2-0.2,0.2h-11c-0.1,0-0.2-0.1-0.2-0.2v-7.8
					C134.2,94.3,134.3,94.2,134.5,94.2z"/>
				<path id="Path_68_" class="st21" d="M131.4,101.6h17.2l0,0c0,0.4-0.4,0.8-0.8,0.8h-15.6c-0.2,0-0.4-0.1-0.6-0.2
					S131.4,101.8,131.4,101.6L131.4,101.6z"/>
				<path id="Path_67_" class="st22" d="M132.2,102.4h15.6c0.3,0,0.5-0.1,0.7-0.4h-17C131.6,102.3,131.9,102.4,132.2,102.4
					L132.2,102.4z"/>
				<path id="Path_66_" class="st23" d="M135.4,79.2c-0.2,0-0.3,0-0.4,0.1c-0.2,0-0.2,0-0.3-0.1c-0.1-0.2-0.2-0.5-0.5-0.5
					c-0.1,0-0.3,0-0.4,0.1c-0.2,0-0.3,0-0.3-0.2c-0.1-0.3,0.1-0.6-0.2-0.8c-0.2-0.2-0.6-0.1-0.8,0c-0.1,0.1-0.3,0.2-0.4,0.2
					c-0.2,0-0.2-0.3-0.2-0.5c0-0.4,0.2-0.7-0.1-1c-0.1-0.1-0.3-0.1-0.2,0.1c0.1,0.6-0.4,1.4,0.3,1.8c0.3,0.1,0.5,0,0.8-0.1
					c0.1-0.1,0.3-0.2,0.3,0c0,0.1,0,0.3,0,0.4c0,0.3,0.2,0.5,0.4,0.6c0.1,0,0.3,0,0.4,0c0.2,0,0.3-0.1,0.4,0
					c0.1,0.2,0.2,0.4,0.4,0.6c0.1,0.1,0.3,0.1,0.4,0c0,0,0.4-0.1,0.4-0.1c0,0.2,0.4,0.3,0.4,0.1C135.9,79.4,135.7,79.2,135.4,79.2z"
					/>
				<path id="Path_65_" class="st23" d="M135.1,82.5c-0.3-0.2-0.6-0.2-0.9-0.2c-0.2,0-0.4,0-0.5-0.1c-0.1-0.1-0.1-0.3-0.2-0.5
					c0,0-0.1-0.1-0.1,0c-0.4,0.2,0,0.8,0.2,0.9c0.4,0.2,0.9-0.1,1.3,0.2C135.1,82.9,135.3,82.7,135.1,82.5z"/>
				<path id="Path_64_" class="st23" d="M146.6,82.2c-0.2,0.1-0.4,0.3-0.6,0.3c-0.2,0-0.3-0.2-0.6-0.3c-0.2,0-0.4,0-0.5,0.1
					c-0.1,0.1-0.5,0.5-0.6,0.2c-0.1-0.2-0.4-0.1-0.3,0.1c0.1,0.2,0.3,0.3,0.5,0.3c0.3,0,0.6-0.5,0.9-0.3c0.1,0.1,0.2,0.2,0.3,0.2
					c0.1,0.1,0.3,0.1,0.4,0.1c0.3,0,0.6-0.2,0.8-0.4C147.1,82.3,146.8,82,146.6,82.2z"/>
				<ellipse id="Oval_4_" class="st24" cx="141.6" cy="84.5" rx="0.5" ry="0.7"/>
				<path id="Path_63_" class="st25" d="M132.6,92.6c-0.4,0.4-0.8,0.9-1.2,1.4c0,0.1,0,0.2,0,0.2c0.1,0.1,0.2,0,0.2,0
					c0.4-0.4,0.8-0.9,1.2-1.5C133,92.6,132.7,92.5,132.6,92.6z"/>
				<path id="Path_62_" class="st25" d="M130.8,95.3c-0.3,0.2-0.5,0.5-0.6,0.8c-0.2,0.3-0.2,0.7-0.2,1.1c0,0.2,0.3,0.3,0.3,0
					c0-0.3,0.1-0.6,0.2-0.9c0.1-0.3,0.3-0.5,0.5-0.8C131,95.3,130.9,95.2,130.8,95.3z"/>
				<path id="Path_61_" class="st25" d="M129.5,99c-0.3,0.7-0.5,1.5-0.5,2.3c0,0.2,0.3,0.2,0.3,0c0.1-0.8,0.2-1.5,0.5-2.3
					C129.8,99,129.6,98.9,129.5,99z"/>
				<path id="Path_60_" class="st25" d="M147.9,93.2c-0.5-0.5-1-1-1.6-1.5c-0.1-0.1-0.1-0.1-0.2,0s-0.1,0.1,0,0.2
					c0.5,0.5,1,1.1,1.5,1.5c0.1,0.1,0.2,0.1,0.2,0C147.9,93.3,147.9,93.2,147.9,93.2L147.9,93.2z"/>
				<path id="Path_59_" class="st25" d="M150,96.8c-0.1-0.2-0.2-0.4-0.3-0.6c-0.1-0.2-0.2-0.4-0.3-0.6c-0.2-0.4-0.4-0.8-0.7-1.2
					c0,0-0.1-0.1-0.2,0c-0.1,0-0.1,0.1-0.1,0.1c0.2,0.4,0.4,0.8,0.6,1.2c0.1,0.2,0.2,0.4,0.3,0.6c0.1,0.2,0.2,0.4,0.3,0.6
					c0,0.1,0.1,0.1,0.2,0C150,97,150,96.9,150,96.8L150,96.8z"/>
				<path id="Path_58_" class="st25" d="M150.6,99.3c-0.1-0.4-0.2-0.8-0.3-1.1c-0.1-0.2-0.3-0.1-0.3,0.1c0.1,0.4,0.2,0.8,0.3,1.1
					c0.1,0.3,0.1,0.7,0.3,1c0,0,0.1,0,0.1,0s0.1,0,0.1-0.1C150.9,100,150.7,99.6,150.6,99.3z"/>
				<path id="Path_57_" class="st25" d="M151.2,102.4l-0.1-1.2c0-0.2-0.3-0.2-0.3,0l0.1,1.2C151,102.4,151.1,102.4,151.2,102.4z"/>
				<path id="Path_56_" class="st25" d="M141.2,88.5c-0.2,0.2-0.4,0.3-0.6,0.4c-0.2,0.1-0.5,0.2-0.8,0.2c-0.3,0-0.5,0-0.8-0.1
					c-0.3-0.1-0.5-0.3-0.7-0.3c-0.1,0-0.2,0.1-0.2,0.2c0.1,0.3,0.4,0.5,0.7,0.6c0.3,0.1,0.7,0.2,1,0.2c0.7,0,1.4-0.3,1.8-0.8
					C141.8,88.6,141.4,88.3,141.2,88.5z"/>
				<path id="Path_55_" class="st10" d="M137,95.1c-0.7,0-1.4-0.1-2.1,0c-0.1,0-0.1,0.2,0,0.2c0.7,0.1,1.4,0.1,2.1,0
					C137.2,95.4,137.2,95.1,137,95.1z"/>
				<path id="Path_54_" class="st10" d="M139.2,95.9c-1,0-2,0-3,0c-0.2,0-0.2,0.3,0,0.3c1,0,2,0,3,0
					C139.4,96.3,139.4,95.9,139.2,95.9z"/>
				<path id="Path_53_" class="st10" d="M137.2,97c-0.7,0-1.4,0-2.1,0c-0.2,0-0.2,0.3,0,0.3c0.7,0.1,1.4,0,2.1,0
					C137.4,97.3,137.4,97,137.2,97z"/>
				<path id="Path_52_" class="st10" d="M142.2,98.5c-1-0.1-2,0-2.9,0l-1.5,0c-0.5,0-1,0-1.5,0.1c-0.1,0-0.2,0.2,0,0.3
					c0.5,0.1,0.9,0,1.4,0.1l1.5,0c1,0,2,0.1,3,0C142.4,98.8,142.4,98.5,142.2,98.5z"/>
				<path id="Path_51_" class="st10" d="M137,99.8c-0.6,0-1.1,0-1.7,0c-0.1,0-0.2,0.2,0,0.3c0.6,0.1,1.2,0.1,1.7,0
					c0.1,0,0.1-0.1,0.1-0.2C137.2,99.9,137.1,99.8,137,99.8z"/>
				<path id="Path_50_" class="st10" d="M140.8,99.9c-0.6,0-1.2,0-1.8,0c-0.2,0-0.2,0.3,0,0.3c0.6,0,1.2,0,1.9,0
					C141,100.2,141,99.9,140.8,99.9z"/>
				<path id="Path_49_" class="st13" d="M135.7,98.6c-0.3,0-0.6,0-0.9,0.1c-0.1,0-0.2,0.2,0,0.2c0.3,0,0.6,0.1,0.9,0.1
					C136,98.9,136,98.5,135.7,98.6z"/>
				<path id="Path_48_" class="st13" d="M135.7,95.9c-0.2,0-0.5,0-0.7,0.1c-0.1,0-0.1,0.1,0,0.2c0.2,0.1,0.5,0.1,0.7,0.1
					C136,96.3,136,95.9,135.7,95.9z"/>
				<path id="Path_47_" class="st13" d="M138.4,99.8c-0.3,0-0.6,0-0.8,0.1c-0.1,0-0.1,0.2,0,0.2c0.3,0,0.5,0.1,0.8,0.1
					C138.6,100.2,138.6,99.8,138.4,99.8z"/>
				<path id="Path_46_" class="st13" d="M141.1,96.9c-0.5,0-1.1,0-1.6,0c-0.5,0-1.1,0-1.6,0c-0.2,0-0.2,0.3,0,0.3c0.5,0,1.1,0,1.6,0
					c0.5,0,1.1,0.1,1.6,0C141.3,97.3,141.3,97,141.1,96.9z"/>
				<path id="Path_45_" class="st23" d="M137.3,71.3c-0.1-0.1-0.1-0.2-0.2-0.2c-0.1-0.1-0.3-0.1-0.1-0.3c0.2-0.4,0.1-0.7-0.2-0.9
					c0,0,0.1-0.1,0.1-0.1c0-0.1,0.1-0.1,0.1-0.2c0-0.1,0-0.3-0.1-0.4c-0.1-0.2-0.2-0.2-0.4-0.3c0,0-0.1,0-0.1,0
					c0.1-0.1,0.2-0.1,0.2-0.1c0.2-0.1,0.1-0.4-0.1-0.3c-0.3,0.1-0.9,0.3-0.6,0.7c0.1,0.2,0.5,0.2,0.6,0.4c0.1,0.1-0.3,0.3-0.2,0.5
					c0,0.2,0.1,0.3,0.3,0.3c0.1,0,0.2,0.1,0.2,0.2c0,0.1-0.1,0.1-0.2,0.2c-0.1,0.2-0.1,0.3,0,0.5c0,0.1,0.4,0.3,0.4,0.3
					c-0.2,0.2,0.1,0.5,0.3,0.3C137.5,71.7,137.5,71.5,137.3,71.3z"/>
				<path id="Path_44_" class="st23" d="M142.8,71.4c0-0.1,0-0.2-0.1-0.3c-0.1-0.1-0.2-0.2,0-0.3c0.4-0.2,0.4-0.6,0.2-0.9
					c0,0,0.1,0,0.1,0c0.1,0,0.1-0.1,0.1-0.1c0.1-0.1,0.1-0.3,0.1-0.4c0-0.2-0.1-0.3-0.2-0.5c0,0,0,0-0.1-0.1c0.1,0,0.3,0,0.3,0
					c0.2,0,0.2-0.3,0-0.4c-0.3-0.1-0.9-0.1-0.8,0.4c0.1,0.2,0.4,0.4,0.4,0.6c0,0.2-0.3,0.1-0.4,0.3c-0.1,0.2,0,0.3,0.1,0.4
					c0.1,0.1,0.1,0.2,0,0.3c-0.1,0.1-0.2,0.1-0.2,0.1c-0.1,0.1-0.2,0.3-0.2,0.4c0,0.1,0.2,0.5,0.3,0.5c-0.3,0.1-0.2,0.5,0.1,0.4
					C142.7,71.8,142.8,71.6,142.8,71.4z"/>
				<path id="Path_43_" class="st23" d="M137.5,76.9c-0.2-0.3-0.5-0.5-0.8-0.6c-0.1-0.1-0.4-0.1-0.4-0.2c0-0.1,0.1-0.3,0-0.4
					c0-0.3-0.3-0.5-0.6-0.5c-0.1,0-0.3,0-0.4,0c0-0.1,0.1-0.3,0.1-0.4c0-0.3-0.2-0.4-0.4-0.5c-0.1,0-0.3,0-0.4,0c-0.1,0-0.2,0-0.2,0
					c-0.1-0.1,0-0.2,0-0.3c0.1-0.3,0.1-0.6-0.2-0.7c-0.2-0.1-0.4,0-0.5-0.1c-0.2-0.1,0-0.4,0.1-0.6c0.1-0.2-0.2-0.3-0.3-0.2
					c-0.2,0.3-0.4,0.6-0.2,1c0.1,0.1,0.2,0.2,0.3,0.3c0.1,0,0.2,0,0.3,0c0.2,0,0.1,0.1,0.1,0.3c-0.1,0.3-0.1,0.6,0.2,0.8
					c0.1,0.1,0.3,0.1,0.5,0.1c0.1,0,0.4-0.1,0.4,0.1c0,0.2-0.1,0.3-0.1,0.4c0,0.2,0.1,0.3,0.2,0.4c0.1,0.1,0.3,0.1,0.4,0.1
					c0.1,0,0.2-0.1,0.3,0c0,0,0,0.2,0,0.2c-0.1,0.3,0,0.6,0.3,0.7c0.2,0.1,0.4,0.1,0.6,0.3c0.2,0.1,0.3,0.2,0.5,0.4
					C137.3,77.4,137.6,77.1,137.5,76.9z"/>
				<path id="Path_42_" class="st23" d="M145.4,72c-0.4,0.1-1.4,0.3-1.2,0.9c0,0.1,0.1,0.2,0.2,0.3c0.1,0.2,0.1,0.4-0.1,0.5
					c-0.2,0.2-0.5,0.3-0.7,0.6c-0.2,0.2-0.2,0.4,0,0.6c0,0,0.1,0.1,0.1,0.1l0,0c0.1,0,0.1,0,0,0c-0.1,0-0.1,0.1-0.2,0.2
					c-0.1,0.1-0.2,0.1-0.2,0.2c-0.2,0.2-0.4,0.4-0.3,0.7c0.1,0.1,0.2,0.2,0.1,0.4s-0.3,0.2-0.5,0.2c-0.2,0.1-0.2,0.5,0.1,0.4
					c0.3,0,0.7-0.2,0.8-0.5c0.1-0.1,0.1-0.3,0.1-0.4c0-0.1,0-0.1-0.1-0.2c0,0,0,0,0-0.1l0,0c0.1-0.2,0.3-0.3,0.5-0.5
					c0.1-0.1,0.3-0.2,0.3-0.4c0-0.2-0.2-0.3-0.3-0.5c0.3-0.4,0.9-0.5,1-1.1c0-0.3-0.1-0.4-0.2-0.6c0-0.1-0.1-0.1,0-0.2
					c0.1,0,0.2-0.1,0.2-0.1c0.2-0.1,0.4-0.1,0.5-0.2C145.7,72.3,145.6,72,145.4,72z"/>
				<path id="Path_41_" class="st23" d="M148.6,72.9c0,0.1-0.3,0.1-0.4,0.1c-0.1,0-0.3,0.1-0.4,0.2c-0.1,0.1,0,0.3-0.1,0.4
					c0,0.1,0,0.1-0.1,0c-0.1,0-0.1-0.1-0.2-0.1c-0.3-0.1-0.5,0-0.6,0.3c-0.1,0.2,0,0.4,0,0.5c0,0.1,0,0.9-0.2,0.8
					c-0.2-0.1-0.4,0.2-0.2,0.3c0.4,0.3,0.7-0.2,0.7-0.5c0-0.3,0-0.6,0.1-0.8c0-0.1,0-0.2,0.2-0.1c0.1,0,0.2,0.1,0.3,0.1
					c0.1,0,0.3,0,0.4-0.1c0.1-0.1,0.1-0.3,0.1-0.5c0.1-0.2,0.4-0.1,0.5-0.2c0.2-0.1,0.3-0.2,0.3-0.4C149,72.7,148.7,72.7,148.6,72.9
					z"/>
				<path id="Path_40_" class="st23" d="M149.3,76.6c0-0.2-0.3-0.2-0.4,0c0,0.1-0.1,0.3-0.2,0.5c-0.1,0.1-0.3,0.1-0.4,0.1
					c-0.2,0-0.3,0.1-0.4,0.3c-0.1,0.2-0.1,0.4-0.2,0.6c0,0.1-0.1,0.3-0.3,0.3c-0.1,0-0.3-0.2-0.4-0.2c-0.4-0.3-0.8-0.2-1,0.3
					c-0.1,0.3-0.2,0.5-0.4,0.8c-0.1,0.2-0.1,0.1-0.3,0.1c-0.1-0.1-0.2-0.1-0.4-0.1c-0.2,0-0.3,0.3-0.1,0.4c0.2,0.1,0.4,0.3,0.7,0.2
					c0.3-0.1,0.4-0.3,0.5-0.5c0.1-0.1,0.1-0.3,0.2-0.4c0.1-0.2,0.1-0.3,0.3-0.3c0.3,0.1,0.4,0.4,0.8,0.4c0.6,0,0.6-0.7,0.8-1.1
					c0.1-0.2,0.2-0.1,0.4-0.1c0.1,0,0.2-0.1,0.3-0.1C149.2,77.3,149.3,76.9,149.3,76.6z"/>
			</g>
		</g>
	</g>
</g>
<g id="Page-1_9_" class="st12">
	<g id="Homepage---Desktop_1_" transform="translate(-581.000000, -1466.000000)">
		<g id="illo_spot_1_" transform="translate(580.000000, 1465.000000)">
			<g id="Layer_14_1_" transform="translate(0.971660, 0.971660)">
				<path id="Path_39_" class="st13" d="M132.5,112.7c2.7,2.6,4.8,2.8,5.8,3.4l1.7,0l1.7,0c1-0.6,3-0.8,5.7-3.4
					c4.1-3.9,4.3-10.3,4.3-10.3h-23.6C128.2,102.4,128.4,108.8,132.5,112.7z"/>
				<circle id="Oval_3_" class="st14" cx="139.6" cy="129.2" r="10.7"/>
				<path id="Path_38_" class="st15" d="M141.2,119.3c-0.5-1.1-0.5-2.5,0.3-3.2c0,0-0.3-0.6-1.6-0.6s-1.6,0.5-1.6,0.5
					s0.6,0.4,0.6,1.5c0,1.1-0.2,1.7-0.2,1.7H141.2z"/>
				<path id="Path_37_" class="st16" d="M139,118.7L139,118.7c1-1.5,2.3-2.4,2.6-2.5c0,0-0.7,0.6-0.7,1.3c0,0.5,0.1,1,0.2,1.5
					l-1.2-0.7L139,118.7z"/>
				<ellipse id="Oval_2_" class="st17" cx="141.4" cy="120.2" rx="0.5" ry="0.7"/>
				<path id="Path_36_" class="st18" d="M142.6,120.8c0,0.2,0,0.3,0,0.5c0,0.2,0,0.3,0,0.5c0,0,0,0.1,0,0.1c0.2,0.2,0.5,0.3,0.7,0.1
					c0.3-0.2,0.4-0.6,0.4-0.9c0-0.3-0.2-0.7-0.5-0.8c-0.1,0-0.3,0-0.4,0.1s-0.2,0.2-0.3,0.4C142.5,120.7,142.6,120.8,142.6,120.8
					L142.6,120.8z"/>
				<path id="Path_35_" class="st15" d="M136.4,121.7c0.1,0.1,0.2,0.2,0.4,0.2c-0.1,0.8,0,1.6,0.1,2.5c0.2,0.8,0.7,1.1,0.7,1.1
					s1.2-0.9,2.3-0.9c1,0,2.3,0.9,2.3,0.9s0.5-0.3,0.7-1.1c0.3-1.5,0.3-3.5-0.7-4.6c-1-1.1-2.2-1.5-2.2-1.5s-1.1,0.4-2.2,1.5
					c-0.2,0.2-0.3,0.4-0.4,0.6c-0.1-0.1-0.2-0.1-0.4-0.1c-0.3,0.1-0.4,0.4-0.5,0.6C136.3,121.2,136.2,121.5,136.4,121.7z"/>
				<path id="Path_34_" class="st16" d="M139.3,120.4l0.7-0.3c0,0.1,0,0.4,0,1.5c0,0.7,1.6,1,1.6,1.7s0,1.2-1,1.3
					c0,0,0.5,0.2,0.9,0.4c0.2,0.1,0.5,0.3,0.7,0.4c0,0,0.4-0.2,0.6-0.9c0.2-0.9,0.3-1.5,0.2-3.1c-0.1-2-3-3.2-3-3.2s0.1,0.2,0.5,1
					c0,0,0,0,0,0c-0.2,0-0.3,0.1-0.4,0.2C139.4,119.8,139.3,120.4,139.3,120.4z"/>
				<path id="Shape_1_" class="st13" d="M137.2,121.4c0,0.2,0.1,0.4,0.2,0.5c0.1,0.1,0.2,0.3,0.3,0.3c0.3,0.1,0.8,0.2,1-0.2
					c0.1-0.2,0.3-0.5,0.3-0.7c0.4,0.3,1,0.4,1.4,0.1c0,0.3,0.4,0.8,0.7,1c0.4,0.2,0.9,0.2,1.2-0.2c0.3-0.4,0.4-0.9,0.4-1.4
					c0-0.6-0.4-1.6-1.2-1.5c-0.9,0.1-1.1,1.2-1,1.9c0,0,0,0,0,0c-0.4,0.2-1,0.2-1.3-0.2c0,0,0,0,0,0c0.1-0.6,0-1.3-0.4-1.7
					c-0.4-0.4-1-0.2-1.3,0.2C137.2,120.1,137.1,120.8,137.2,121.4z M141.8,119.6c0.6,0.2,0.7,1,0.7,1.5c0,0.4-0.1,0.8-0.3,1
					c-0.5,0.5-1.2-0.2-1.4-0.9c0,0,0,0,0-0.1C140.7,120.3,141.2,119.4,141.8,119.6z M138.1,119.4c0.6-0.1,0.9,0.8,0.9,1.3
					c0,0.3-0.1,0.6-0.2,0.8c-0.1,0.1-0.1,0.3-0.2,0.4c0,0.1-0.3,0.3-0.5,0.2c-0.1,0-0.2-0.1-0.3-0.2c-0.2-0.2-0.3-0.5-0.3-0.8
					C137.4,120.5,137.5,119.5,138.1,119.4L138.1,119.4z"/>
				<path id="Path_33_" class="st19" d="M142.8,121.5c0.3,0.1,0.6-0.2,0.7-0.5c0-0.1-0.2-0.2-0.2,0c0,0.1-0.1,0.1-0.1,0.2
					c0-0.2,0-0.4,0-0.5c0,0,0-0.1-0.1-0.1c0,0-0.1,0-0.1,0c-0.1,0.2,0,0.4,0,0.6c-0.1,0-0.2,0.1-0.2,0.1
					C142.8,121.3,142.8,121.4,142.8,121.5C142.8,121.5,142.8,121.5,142.8,121.5L142.8,121.5z"/>
				<path id="Path_32_" class="st19" d="M136.9,121.6c-0.3,0-0.5-0.3-0.5-0.6c0,0,0-0.1,0-0.1c0,0,0.1,0,0.1,0s0,0.1,0,0.1
					c0,0.1,0,0.1,0.1,0.2c0.1-0.2,0.1-0.3,0.1-0.5c0,0,0,0,0.1,0c0,0,0,0,0.1,0c0,0.2-0.1,0.4-0.2,0.6c0.1,0,0.1,0.1,0.2,0.1
					C137,121.4,137,121.6,136.9,121.6z"/>
				<path id="Path_31_" class="st14" d="M137.1,122.9c0.2,0.6,1.1,0.8,1.6,0.5c0.1,0,0-0.2-0.1-0.1c-0.2,0.1-0.5,0.1-0.7,0
					c-0.3-0.1-0.4-0.3-0.6-0.5c0,0-0.1,0-0.1,0S137.1,122.9,137.1,122.9L137.1,122.9z"/>
				<path id="Path_30_" class="st14" d="M140.8,123.5c0.2,0.1,0.6,0.1,0.9,0c0.3-0.1,0.6-0.2,0.8-0.5c0.1-0.1,0-0.2-0.1-0.1
					c-0.2,0.1-0.5,0.3-0.8,0.4c-0.3,0.1-0.5,0-0.8,0C140.8,123.3,140.8,123.4,140.8,123.5C140.8,123.4,140.8,123.5,140.8,123.5
					L140.8,123.5z"/>
				<path id="Rectangle_2_" class="st20" d="M145.8,111H134c-0.1,0-0.2-0.1-0.2-0.2v-7.9c0-0.1,0.1-0.2,0.2-0.2h11.7
					c0.1,0,0.2,0.1,0.2,0.2v7.9C146,110.9,145.9,111,145.8,111z"/>
				<path id="Rectangle_1_" d="M145.4,110.6h-11c-0.1,0-0.2-0.1-0.2-0.2v-7.8c0-0.1,0.1-0.2,0.2-0.2h11c0.1,0,0.2,0.1,0.2,0.2v7.8
					C145.6,110.5,145.5,110.6,145.4,110.6z"/>
				<path id="Path_29_" class="st21" d="M148.5,103.2h-17.2l0,0c0-0.4,0.4-0.8,0.8-0.8h15.6c0.2,0,0.4,0.1,0.6,0.2
					C148.4,102.8,148.5,103,148.5,103.2L148.5,103.2z"/>
				<path id="Path_28_" class="st22" d="M147.7,102.4h-15.6c-0.3,0-0.5,0.1-0.7,0.4h17C148.3,102.6,148,102.4,147.7,102.4
					L147.7,102.4z"/>
				<path id="Path_27_" class="st23" d="M144.5,125.7c0.2,0,0.3,0,0.4-0.1c0.2,0,0.2,0,0.3,0.1c0.1,0.2,0.2,0.5,0.5,0.5
					c0.1,0,0.3,0,0.4-0.1c0.2,0,0.3,0,0.3,0.2c0.1,0.3-0.1,0.6,0.2,0.8c0.2,0.2,0.6,0.1,0.8,0c0.1-0.1,0.3-0.2,0.4-0.2
					c0.2,0,0.2,0.3,0.2,0.5c0,0.4-0.2,0.7,0.1,1c0.1,0.1,0.3,0.1,0.2-0.1c-0.1-0.6,0.4-1.4-0.3-1.8c-0.3-0.1-0.5,0-0.8,0.1
					c-0.1,0.1-0.3,0.2-0.3,0c0-0.1,0-0.3,0-0.4c0-0.3-0.2-0.5-0.4-0.6c-0.1,0-0.3,0-0.4,0c-0.2,0-0.3,0.1-0.4,0
					c-0.1-0.2-0.2-0.4-0.4-0.6c-0.1-0.1-0.3-0.1-0.4,0c0,0-0.4,0.1-0.4,0.1c0-0.2-0.4-0.3-0.4-0.1
					C144,125.4,144.2,125.6,144.5,125.7z"/>
				<path id="Path_26_" class="st23" d="M144.7,122.3c0.3,0.2,0.6,0.2,0.9,0.2c0.2,0,0.4,0,0.5,0.1s0.1,0.3,0.2,0.5
					c0,0,0.1,0.1,0.1,0c0.4-0.2,0-0.8-0.2-0.9c-0.4-0.2-0.9,0.1-1.3-0.2C144.8,121.9,144.6,122.1,144.7,122.3z"/>
				<path id="Path_25_" class="st23" d="M133.3,122.7c0.2-0.1,0.4-0.3,0.6-0.3c0.2,0,0.3,0.2,0.6,0.3c0.2,0,0.4,0,0.5-0.1
					c0.1-0.1,0.5-0.5,0.6-0.2c0.1,0.2,0.4,0.1,0.3-0.1c-0.1-0.2-0.3-0.3-0.5-0.3c-0.3,0-0.6,0.5-0.9,0.3c-0.1-0.1-0.2-0.2-0.3-0.2
					c-0.1-0.1-0.3-0.1-0.4-0.1c-0.3,0-0.6,0.2-0.8,0.4C132.8,122.5,133.1,122.8,133.3,122.7z"/>
				<ellipse id="Oval_1_" class="st24" cx="138.3" cy="120.3" rx="0.5" ry="0.7"/>
				<path id="Path_24_" class="st25" d="M147.2,112.2c0.4-0.4,0.8-0.9,1.2-1.4c0-0.1,0-0.2,0-0.2c-0.1-0.1-0.2,0-0.2,0
					c-0.4,0.4-0.8,0.9-1.2,1.5C146.9,112.2,147.1,112.3,147.2,112.2z"/>
				<path id="Path_23_" class="st25" d="M149.1,109.6c0.3-0.2,0.5-0.5,0.6-0.8c0.2-0.3,0.2-0.7,0.2-1.1c0-0.2-0.3-0.3-0.3,0
					c0,0.3-0.1,0.6-0.2,0.9c-0.1,0.3-0.3,0.5-0.5,0.8C148.9,109.5,149,109.7,149.1,109.6z"/>
				<path id="Path_22_" class="st25" d="M150.4,105.8c0.3-0.7,0.5-1.5,0.5-2.3c0-0.2-0.3-0.2-0.3,0c-0.1,0.8-0.2,1.5-0.5,2.3
					C150.1,105.9,150.3,106,150.4,105.8z"/>
				<path id="Path_21_" class="st25" d="M132,111.7c0.5,0.5,1,1,1.6,1.5c0.1,0.1,0.1,0.1,0.2,0c0.1-0.1,0.1-0.1,0-0.2
					c-0.5-0.5-1-1.1-1.5-1.5c-0.1-0.1-0.2-0.1-0.2,0C131.9,111.5,131.9,111.6,132,111.7L132,111.7z"/>
				<path id="Path_20_" class="st25" d="M129.9,108c0.1,0.2,0.2,0.4,0.3,0.6c0.1,0.2,0.2,0.4,0.3,0.6c0.2,0.4,0.4,0.8,0.7,1.2
					c0,0,0.1,0.1,0.2,0c0.1,0,0.1-0.1,0.1-0.1c-0.2-0.4-0.4-0.8-0.6-1.2c-0.1-0.2-0.2-0.4-0.3-0.6c-0.1-0.2-0.2-0.4-0.3-0.6
					c0-0.1-0.1-0.1-0.2,0C129.9,107.9,129.9,107.9,129.9,108L129.9,108z"/>
				<path id="Path_19_" class="st25" d="M129.2,105.6c0.1,0.4,0.2,0.8,0.3,1.1c0.1,0.2,0.3,0.1,0.3-0.1c-0.1-0.4-0.2-0.8-0.3-1.1
					c-0.1-0.3-0.1-0.7-0.3-1c0,0-0.1,0-0.1,0s-0.1,0-0.1,0.1C129,104.9,129.2,105.3,129.2,105.6z"/>
				<path id="Path_18_" class="st25" d="M128.7,102.4l0.1,1.2c0,0.2,0.3,0.2,0.3,0l-0.1-1.2C128.9,102.5,128.8,102.4,128.7,102.4z"
					/>
				<path id="Path_17_" class="st25" d="M138.7,116.4c0.2-0.2,0.4-0.3,0.6-0.4c0.2-0.1,0.5-0.2,0.8-0.2c0.3,0,0.5,0,0.8,0.1
					c0.3,0.1,0.5,0.3,0.7,0.3c0.1,0,0.2-0.1,0.2-0.2c-0.1-0.3-0.4-0.5-0.7-0.6c-0.3-0.1-0.7-0.2-1-0.2c-0.7,0-1.4,0.3-1.8,0.8
					C138.1,116.2,138.5,116.5,138.7,116.4z"/>
				<path id="Path_16_" class="st10" d="M142.9,109.8c0.7,0,1.4,0.1,2.1,0c0.1,0,0.1-0.2,0-0.2c-0.7-0.1-1.4-0.1-2.1,0
					C142.6,109.5,142.7,109.8,142.9,109.8z"/>
				<path id="Path_15_" class="st10" d="M140.7,108.9c1,0,2,0,3,0c0.2,0,0.2-0.3,0-0.3c-1,0-2,0-3,0
					C140.5,108.5,140.5,108.9,140.7,108.9z"/>
				<path id="Path_14_" class="st10" d="M142.7,107.9c0.7,0,1.4,0,2.1,0c0.2,0,0.2-0.3,0-0.3c-0.7-0.1-1.4,0-2.1,0
					C142.4,107.5,142.4,107.9,142.7,107.9z"/>
				<path id="Path_13_" class="st10" d="M137.7,106.3c1,0.1,2,0,2.9,0l1.5,0c0.5,0,1,0,1.5-0.1c0.1,0,0.2-0.2,0-0.3
					c-0.5-0.1-0.9,0-1.4-0.1l-1.5,0c-1,0-2-0.1-3,0C137.5,106,137.4,106.3,137.7,106.3z"/>
				<path id="Path_12_" class="st10" d="M142.9,105c0.6,0,1.1,0,1.7,0c0.1,0,0.2-0.2,0-0.3c-0.6-0.1-1.2-0.1-1.7,0
					c-0.1,0-0.1,0.1-0.1,0.2C142.7,104.9,142.8,105,142.9,105z"/>
				<path id="Path_11_" class="st10" d="M139.1,105c0.6,0,1.2,0,1.8,0c0.2,0,0.2-0.3,0-0.3c-0.6,0-1.2,0-1.9,0
					C138.9,104.6,138.9,105,139.1,105z"/>
				<path id="Path_10_" class="st13" d="M144.2,106.3c0.3,0,0.6,0,0.9-0.1c0.1,0,0.2-0.2,0-0.2c-0.3,0-0.6-0.1-0.9-0.1
					C143.9,105.9,143.9,106.3,144.2,106.3z"/>
				<path id="Path_9_" class="st13" d="M144.2,108.9c0.2,0,0.5,0,0.7-0.1c0.1,0,0.1-0.1,0-0.2c-0.2-0.1-0.5-0.1-0.7-0.1
					C143.9,108.5,143.9,108.9,144.2,108.9z"/>
				<path id="Path_8_" class="st13" d="M141.5,105c0.3,0,0.6,0,0.8-0.1c0.1,0,0.1-0.2,0-0.2c-0.3,0-0.5-0.1-0.8-0.1
					C141.3,104.7,141.3,105,141.5,105z"/>
				<path id="Path_7_" class="st13" d="M138.8,107.9c0.5,0,1.1,0,1.6,0s1.1,0,1.6,0c0.2,0,0.2-0.3,0-0.3c-0.5,0-1.1,0-1.6,0
					c-0.5,0-1.1-0.1-1.6,0C138.6,107.5,138.6,107.9,138.8,107.9z"/>
				<path id="Path_6_" class="st23" d="M142.5,133.5c0.1,0.1,0.1,0.2,0.2,0.2c0.1,0.1,0.3,0.1,0.1,0.3c-0.2,0.4-0.1,0.7,0.2,0.9
					c0,0-0.1,0.1-0.1,0.1c0,0.1-0.1,0.1-0.1,0.2c0,0.1,0,0.3,0.1,0.4c0.1,0.2,0.2,0.2,0.4,0.3c0,0,0.1,0,0.1,0
					c-0.1,0.1-0.2,0.1-0.2,0.1c-0.2,0.1-0.1,0.4,0.1,0.3c0.3-0.1,0.9-0.3,0.6-0.7c-0.1-0.2-0.5-0.2-0.6-0.4
					c-0.1-0.1,0.3-0.3,0.2-0.5c0-0.2-0.1-0.3-0.3-0.3c-0.1,0-0.2-0.1-0.2-0.2c0-0.1,0.1-0.1,0.2-0.2c0.1-0.2,0.1-0.3,0-0.5
					c0-0.1-0.4-0.3-0.4-0.3c0.2-0.2-0.1-0.5-0.3-0.3C142.4,133.1,142.4,133.3,142.5,133.5z"/>
				<path id="Path_5_" class="st23" d="M137.1,133.4c0,0.1,0,0.2,0.1,0.3c0.1,0.1,0.2,0.2,0,0.3c-0.4,0.2-0.4,0.6-0.2,0.9
					c0,0-0.1,0-0.1,0c-0.1,0-0.1,0.1-0.1,0.1c-0.1,0.1-0.1,0.3-0.1,0.4c0,0.2,0.1,0.3,0.2,0.5c0,0,0,0,0.1,0.1c-0.1,0-0.3,0-0.3,0
					c-0.2,0-0.2,0.3,0,0.4c0.3,0.1,0.9,0.1,0.8-0.4c-0.1-0.2-0.4-0.4-0.4-0.6c0-0.2,0.3-0.1,0.4-0.3c0.1-0.2,0-0.3-0.1-0.4
					c-0.1-0.1-0.1-0.2,0-0.3c0.1-0.1,0.2-0.1,0.2-0.1c0.1-0.1,0.2-0.3,0.2-0.4c0-0.1-0.2-0.5-0.3-0.5c0.3-0.1,0.2-0.5-0.1-0.4
					C137.2,133,137.1,133.2,137.1,133.4z"/>
				<path id="Path_4_" class="st23" d="M142.4,127.9c0.2,0.3,0.5,0.5,0.8,0.6c0.1,0.1,0.4,0.1,0.4,0.2c0,0.1-0.1,0.3,0,0.4
					c0,0.3,0.3,0.5,0.6,0.5c0.1,0,0.3,0,0.4,0c0,0.1-0.1,0.3-0.1,0.4c0,0.3,0.2,0.4,0.4,0.5c0.1,0,0.3,0,0.4,0c0.1,0,0.2,0,0.2,0
					c0.1,0.1,0,0.2,0,0.3c-0.1,0.3-0.1,0.6,0.2,0.7c0.2,0.1,0.4,0,0.5,0.1c0.2,0.1,0,0.4-0.1,0.6c-0.1,0.2,0.2,0.3,0.3,0.2
					c0.2-0.3,0.4-0.6,0.2-1c-0.1-0.1-0.2-0.2-0.3-0.3c-0.1,0-0.2,0-0.3,0c-0.2,0-0.1-0.1-0.1-0.3c0.1-0.3,0.1-0.6-0.2-0.8
					c-0.1-0.1-0.3-0.1-0.5-0.1c-0.1,0-0.4,0.1-0.4-0.1c0-0.2,0.1-0.3,0.1-0.4c0-0.2-0.1-0.3-0.2-0.4c-0.1-0.1-0.3-0.1-0.4-0.1
					c-0.1,0-0.2,0.1-0.3,0c0,0,0-0.2,0-0.2c0.1-0.3,0-0.6-0.3-0.7c-0.2-0.1-0.4-0.1-0.6-0.3c-0.2-0.1-0.3-0.2-0.5-0.4
					C142.6,127.4,142.2,127.7,142.4,127.9z"/>
				<path id="Path_3_" class="st23" d="M134.5,132.8c0.4-0.1,1.4-0.3,1.2-0.9c0-0.1-0.1-0.2-0.2-0.3c-0.1-0.2-0.1-0.4,0.1-0.5
					c0.2-0.2,0.5-0.3,0.7-0.6c0.2-0.2,0.2-0.4,0-0.6c0,0-0.1-0.1-0.1-0.1l0,0c-0.1,0-0.1,0,0,0c0.1,0,0.1-0.1,0.2-0.2
					c0.1-0.1,0.2-0.1,0.2-0.2c0.2-0.2,0.4-0.4,0.3-0.7c-0.1-0.1-0.2-0.2-0.1-0.4s0.3-0.2,0.5-0.2c0.2-0.1,0.2-0.5-0.1-0.4
					c-0.3,0-0.7,0.2-0.8,0.5c-0.1,0.1-0.1,0.3-0.1,0.4c0,0.1,0,0.1,0.1,0.2c0,0,0,0,0,0.1l0,0c-0.1,0.2-0.3,0.3-0.5,0.5
					c-0.1,0.1-0.3,0.2-0.3,0.4c0,0.2,0.2,0.3,0.3,0.5c-0.3,0.4-0.9,0.5-1,1.1c0,0.3,0.1,0.4,0.2,0.6c0,0.1,0.1,0.1,0,0.2
					c-0.1,0-0.2,0.1-0.2,0.1c-0.2,0.1-0.4,0.1-0.5,0.2C134.2,132.5,134.3,132.8,134.5,132.8z"/>
				<path id="Path_2_" class="st23" d="M131.2,131.9c0-0.1,0.3-0.1,0.4-0.1c0.1,0,0.3-0.1,0.4-0.2c0.1-0.1,0-0.3,0.1-0.4
					c0-0.1,0-0.1,0.1,0c0.1,0,0.1,0.1,0.2,0.1c0.3,0.1,0.5,0,0.6-0.3c0.1-0.2,0-0.4,0-0.5c0-0.1,0-0.9,0.2-0.8
					c0.2,0.1,0.4-0.2,0.2-0.3c-0.4-0.3-0.7,0.2-0.7,0.5c0,0.3,0,0.6-0.1,0.8c0,0.1,0,0.2-0.2,0.1c-0.1,0-0.2-0.1-0.3-0.1
					c-0.1,0-0.3,0-0.4,0.1c-0.1,0.1-0.1,0.3-0.1,0.5c-0.1,0.2-0.4,0.1-0.5,0.2c-0.2,0.1-0.3,0.2-0.3,0.4
					C130.8,132.1,131.2,132.1,131.2,131.9z"/>
				<path id="Path_1_" class="st23" d="M130.6,128.2c0,0.2,0.3,0.2,0.4,0c0-0.1,0.1-0.3,0.2-0.5c0.1-0.1,0.3-0.1,0.4-0.1
					c0.2,0,0.3-0.1,0.4-0.3c0.1-0.2,0.1-0.4,0.2-0.6c0-0.1,0.1-0.3,0.3-0.3c0.1,0,0.3,0.2,0.4,0.2c0.4,0.3,0.8,0.2,1-0.3
					c0.1-0.3,0.2-0.5,0.4-0.8c0.1-0.2,0.1-0.1,0.3-0.1c0.1,0.1,0.2,0.1,0.4,0.1c0.2,0,0.3-0.3,0.1-0.4c-0.2-0.1-0.4-0.3-0.7-0.2
					c-0.3,0.1-0.4,0.3-0.5,0.5c-0.1,0.1-0.1,0.3-0.2,0.4c-0.1,0.2-0.1,0.3-0.3,0.3c-0.3-0.1-0.4-0.4-0.8-0.4c-0.6,0-0.6,0.7-0.8,1.1
					c-0.1,0.2-0.2,0.1-0.4,0.1c-0.1,0-0.2,0.1-0.3,0.1C130.7,127.6,130.6,127.9,130.6,128.2z"/>
			</g>
		</g>
	</g>
</g>
<path class="st1" d="M279.7,157.8h-59.6c-2.4,0-4.4-2-4.4-4.4V65.1c0-2.4,2-4.4,4.4-4.4h59.6c2.4,0,4.4,2,4.4,4.4v88.4
	C284.1,155.9,282.1,157.8,279.7,157.8z"/>
<path class="st1" d="M358.8,157.8h-59.6c-2.4,0-4.4-2-4.4-4.4V65.1c0-2.4,2-4.4,4.4-4.4h59.6c2.4,0,4.4,2,4.4,4.4v88.4
	C363.2,155.9,361.2,157.8,358.8,157.8z"/>
<path class="st10" d="M272.5,150.6h-59.6c-2.4,0-4.4-2-4.4-4.4V57.9c0-2.4,2-4.4,4.4-4.4h59.6c2.4,0,4.4,2,4.4,4.4v88.4
	C276.9,148.7,274.9,150.6,272.5,150.6z"/>
<text transform="matrix(1 0 0 1 212.1261 63.2625)" class="st59 st60">3</text>
<g>
	<defs>
		<path id="XMLID_53_" d="M218.3,71.3c1-0.9,1-2.4,0.1-3.3c-0.9-0.9-2.3-0.9-3.2-0.1c-0.9-0.9-2.3-0.9-3.2-0.1c-0.9,0.9-1,2.3,0,3.3
			l2.9,3.1c0.1,0.1,0.2,0.1,0.2,0L218.3,71.3z"/>
	</defs>
	<use xlink:href="#XMLID_53_"  style="overflow:visible;fill:#E72B78;"/>
	<clipPath id="XMLID_40_">
		<use xlink:href="#XMLID_53_"  style="overflow:visible;"/>
	</clipPath>
</g>
<text transform="matrix(-1 0 0 -1 272.9718 141.869)" class="st59 st60">3</text>
<g>
	<defs>
		<path id="XMLID_52_" d="M266.8,133.9c-1,1-1,2.4-0.1,3.3c0.9,0.9,2.3,0.9,3.2,0c0.9,0.9,2.3,0.9,3.2,0c0.9-0.9,0.9-2.3-0.1-3.3
			l-3-3c-0.1-0.1-0.2-0.1-0.2,0L266.8,133.9z"/>
	</defs>
	<use xlink:href="#XMLID_52_"  style="overflow:visible;fill:#E72B78;"/>
	<clipPath id="XMLID_41_">
		<use xlink:href="#XMLID_52_"  style="overflow:visible;"/>
	</clipPath>
</g>
<g>
	<defs>
		<path id="XMLID_50_" d="M351.6,150.6H292c-2.4,0-4.4-2-4.4-4.4V57.9c0-2.4,2-4.4,4.4-4.4h59.6c2.4,0,4.4,2,4.4,4.4v88.4
			C356,148.7,354,150.6,351.6,150.6z"/>
	</defs>
	<use xlink:href="#XMLID_50_"  style="overflow:visible;fill:#FFFFFF;"/>
	<clipPath id="XMLID_42_">
		<use xlink:href="#XMLID_50_"  style="overflow:visible;"/>
	</clipPath>
	<g style="clip-path:url(#XMLID_42_);">
		<defs>
			<rect id="XMLID_51_" x="272" y="52.6" width="98.6" height="98.6"/>
		</defs>
		<use xlink:href="#XMLID_51_"  style="overflow:visible;fill:#F9B443;"/>
		<clipPath id="XMLID_43_">
			<use xlink:href="#XMLID_51_"  style="overflow:visible;"/>
		</clipPath>
		<g style="clip-path:url(#XMLID_43_);">
			<rect x="255" y="52.3" class="st29" width="128.2" height="159.6"/>
			<g>
				<path class="st29" d="M383.1,52.4v159.4h-128V52.4H383.1 M383.3,52.2H254.9V212h128.4V52.2L383.3,52.2z"/>
			</g>
		</g>
		<g style="clip-path:url(#XMLID_43_);">
			<g>
				
					<linearGradient id="SVGID_1_" gradientUnits="userSpaceOnUse" x1="-3911.366" y1="-936.7249" x2="-4064.2488" y2="-936.7249" gradientTransform="matrix(1.346900e-10 -1 1 1.346900e-10 1263.5482 -3859.074)">
					<stop  offset="0" style="stop-color:#FFC465"/>
					<stop  offset="0.6022" style="stop-color:#FFB53F"/>
				</linearGradient>
				<polyline style="fill:none;stroke:url(#SVGID_1_);stroke-width:0.2702;stroke-miterlimit:10;" points="403.1,52.4 403.1,54.8 
					400.7,54.8 400.7,52.4 395.9,52.4 395.9,54.8 398.3,54.8 398.3,57.3 395.9,57.3 395.9,59.7 400.7,59.7 400.7,57.3 403.1,57.3 
					403.1,62.1 400.7,62.1 400.7,64.5 403.1,64.5 403.1,69.4 400.7,69.4 400.7,67 398.3,67 398.3,69.4 395.9,69.4 395.9,64.5 
					398.3,64.5 398.3,62.1 391,62.1 391,64.5 393.4,64.5 393.4,69.4 391,69.4 391,67 388.6,67 388.6,69.4 386.2,69.4 386.2,64.5 
					388.6,64.5 388.6,62.1 386.2,62.1 386.2,57.3 388.6,57.3 388.6,59.7 393.4,59.7 393.4,57.3 391,57.3 391,54.8 393.4,54.8 
					393.4,52.4 388.6,52.4 388.6,54.8 386.2,54.8 386.2,52.4 381.3,52.4 381.3,54.8 383.8,54.8 383.8,59.7 381.3,59.7 381.3,57.3 
					378.9,57.3 378.9,59.7 376.5,59.7 376.5,54.8 378.9,54.8 378.9,52.4 374.1,52.4 374.1,54.8 371.6,54.8 371.6,52.4 366.8,52.4 
					366.8,54.8 369.2,54.8 369.2,57.3 366.8,57.3 366.8,59.7 371.6,59.7 371.6,57.3 374.1,57.3 374.1,64.5 371.6,64.5 371.6,62.1 
					366.8,62.1 366.8,64.5 369.2,64.5 369.2,67 366.8,67 366.8,69.4 371.6,69.4 371.6,67 374.1,67 374.1,69.4 378.9,69.4 378.9,67 
					376.5,67 376.5,62.1 378.9,62.1 378.9,64.5 381.3,64.5 381.3,62.1 383.8,62.1 383.8,67 381.3,67 381.3,69.4 383.8,69.4 
					383.8,71.8 381.3,71.8 381.3,74.2 383.8,74.2 383.8,79.1 381.3,79.1 381.3,76.7 378.9,76.7 378.9,79.1 376.5,79.1 376.5,74.2 
					378.9,74.2 378.9,71.8 374.1,71.8 374.1,74.2 371.6,74.2 371.6,71.8 366.8,71.8 366.8,74.2 369.2,74.2 369.2,76.7 366.8,76.7 
					366.8,79.1 371.6,79.1 371.6,76.7 374.1,76.7 374.1,83.9 371.6,83.9 371.6,81.5 366.8,81.5 366.8,83.9 369.2,83.9 369.2,86.3 
					366.8,86.3 366.8,88.8 371.6,88.8 371.6,86.3 374.1,86.3 374.1,88.8 378.9,88.8 378.9,86.3 376.5,86.3 376.5,81.5 378.9,81.5 
					378.9,83.9 381.3,83.9 381.3,81.5 383.8,81.5 383.8,86.3 381.3,86.3 381.3,88.8 386.2,88.8 386.2,86.3 388.6,86.3 388.6,88.8 
					393.4,88.8 393.4,86.3 391,86.3 391,83.9 393.4,83.9 393.4,81.5 388.6,81.5 388.6,83.9 386.2,83.9 386.2,79.1 388.6,79.1 
					388.6,76.7 386.2,76.7 386.2,71.8 388.6,71.8 388.6,74.2 391,74.2 391,71.8 393.4,71.8 393.4,76.7 391,76.7 391,79.1 
					398.3,79.1 398.3,76.7 395.9,76.7 395.9,71.8 398.3,71.8 398.3,74.2 400.7,74.2 400.7,71.8 403.1,71.8 403.1,76.7 400.7,76.7 
					400.7,79.1 403.1,79.1 403.1,83.9 400.7,83.9 400.7,81.5 395.9,81.5 395.9,83.9 398.3,83.9 398.3,86.3 395.9,86.3 395.9,88.8 
					400.7,88.8 400.7,86.3 403.1,86.3 403.1,91.2 400.7,91.2 400.7,93.6 403.1,93.6 403.1,98.5 400.7,98.5 400.7,96 398.3,96 
					398.3,98.5 395.9,98.5 395.9,93.6 398.3,93.6 398.3,91.2 393.4,91.2 393.4,93.6 391,93.6 391,91.2 386.2,91.2 386.2,93.6 
					388.6,93.6 388.6,96 386.2,96 386.2,98.5 391,98.5 391,96 393.4,96 393.4,103.3 391,103.3 391,100.9 386.2,100.9 386.2,103.3 
					388.6,103.3 388.6,105.7 386.2,105.7 386.2,108.1 391,108.1 391,105.7 393.4,105.7 393.4,108.1 398.3,108.1 398.3,105.7 
					395.9,105.7 395.9,100.9 398.3,100.9 398.3,103.3 400.7,103.3 400.7,100.9 403.1,100.9 403.1,105.7 400.7,105.7 400.7,108.1 
					403.1,108.1 403.1,113 400.7,113 400.7,110.6 395.9,110.6 395.9,113 398.3,113 398.3,115.4 395.9,115.4 395.9,117.8 
					400.7,117.8 400.7,115.4 403.1,115.4 403.1,120.3 400.7,120.3 400.7,122.7 403.1,122.7 403.1,127.5 400.7,127.5 400.7,125.1 
					398.3,125.1 398.3,127.5 395.9,127.5 395.9,122.7 398.3,122.7 398.3,120.3 391,120.3 391,122.7 393.4,122.7 393.4,127.5 
					391,127.5 391,125.1 388.6,125.1 388.6,127.5 386.2,127.5 386.2,122.7 388.6,122.7 388.6,120.3 386.2,120.3 386.2,115.4 
					388.6,115.4 388.6,117.8 393.4,117.8 393.4,115.4 391,115.4 391,113 393.4,113 393.4,110.6 388.6,110.6 388.6,113 386.2,113 
					386.2,110.6 383.8,110.6 383.8,113 381.3,113 381.3,110.6 376.5,110.6 376.5,113 378.9,113 378.9,115.4 376.5,115.4 
					376.5,117.8 381.3,117.8 381.3,115.4 383.8,115.4 383.8,120.3 381.3,120.3 381.3,122.7 383.8,122.7 383.8,127.5 381.3,127.5 
					381.3,125.1 378.9,125.1 378.9,127.5 376.5,127.5 376.5,122.7 378.9,122.7 378.9,120.3 371.6,120.3 371.6,122.7 374.1,122.7 
					374.1,127.5 371.6,127.5 371.6,125.1 369.2,125.1 369.2,127.5 366.8,127.5 366.8,122.7 369.2,122.7 369.2,120.3 366.8,120.3 
					366.8,115.4 369.2,115.4 369.2,117.8 374.1,117.8 374.1,115.4 371.6,115.4 371.6,113 374.1,113 374.1,110.6 369.2,110.6 
					369.2,113 366.8,113 366.8,108.1 369.2,108.1 369.2,105.7 366.8,105.7 366.8,100.9 369.2,100.9 369.2,103.3 371.6,103.3 
					371.6,100.9 374.1,100.9 374.1,105.7 371.6,105.7 371.6,108.1 376.5,108.1 376.5,105.7 378.9,105.7 378.9,108.1 383.8,108.1 
					383.8,105.7 381.3,105.7 381.3,103.3 383.8,103.3 383.8,100.9 378.9,100.9 378.9,103.3 376.5,103.3 376.5,96 378.9,96 
					378.9,98.5 383.8,98.5 383.8,96 381.3,96 381.3,93.6 383.8,93.6 383.8,91.2 378.9,91.2 378.9,93.6 376.5,93.6 376.5,91.2 
					371.6,91.2 371.6,93.6 374.1,93.6 374.1,98.5 371.6,98.5 371.6,96 369.2,96 369.2,98.5 366.8,98.5 366.8,93.6 369.2,93.6 
					369.2,91.2 361.9,91.2 361.9,93.6 364.4,93.6 364.4,98.5 361.9,98.5 361.9,96 359.5,96 359.5,98.5 357.1,98.5 357.1,93.6 
					359.5,93.6 359.5,91.2 354.7,91.2 354.7,93.6 352.3,93.6 352.3,91.2 347.4,91.2 347.4,93.6 349.8,93.6 349.8,96 347.4,96 
					347.4,98.5 352.3,98.5 352.3,96 354.7,96 354.7,103.3 352.3,103.3 352.3,100.9 347.4,100.9 347.4,103.3 349.8,103.3 
					349.8,105.7 347.4,105.7 347.4,108.1 352.3,108.1 352.3,105.7 354.7,105.7 354.7,108.1 359.5,108.1 359.5,105.7 357.1,105.7 
					357.1,100.9 359.5,100.9 359.5,103.3 361.9,103.3 361.9,100.9 364.4,100.9 364.4,105.7 361.9,105.7 361.9,108.1 364.4,108.1 
					364.4,113 361.9,113 361.9,110.6 357.1,110.6 357.1,113 359.5,113 359.5,115.4 357.1,115.4 357.1,117.8 361.9,117.8 
					361.9,115.4 364.4,115.4 364.4,120.3 361.9,120.3 361.9,122.7 364.4,122.7 364.4,127.5 361.9,127.5 361.9,125.1 359.5,125.1 
					359.5,127.5 357.1,127.5 357.1,122.7 359.5,122.7 359.5,120.3 352.3,120.3 352.3,122.7 354.7,122.7 354.7,127.5 352.3,127.5 
					352.3,125.1 349.8,125.1 349.8,127.5 347.4,127.5 347.4,122.7 349.8,122.7 349.8,120.3 347.4,120.3 347.4,115.4 349.8,115.4 
					349.8,117.8 354.7,117.8 354.7,115.4 352.3,115.4 352.3,113 354.7,113 354.7,110.6 349.8,110.6 349.8,113 347.4,113 
					347.4,110.6 345,110.6 345,113 342.6,113 342.6,110.6 337.7,110.6 337.7,113 340.1,113 340.1,115.4 337.7,115.4 337.7,117.8 
					342.6,117.8 342.6,115.4 345,115.4 345,120.3 342.6,120.3 342.6,122.7 345,122.7 345,127.5 342.6,127.5 342.6,125.1 
					340.1,125.1 340.1,127.5 337.7,127.5 337.7,122.7 340.1,122.7 340.1,120.3 332.9,120.3 332.9,122.7 335.3,122.7 335.3,127.5 
					332.9,127.5 332.9,125.1 330.5,125.1 330.5,127.5 328,127.5 328,122.7 330.5,122.7 330.5,120.3 328,120.3 328,115.4 
					330.5,115.4 330.5,117.8 335.3,117.8 335.3,115.4 332.9,115.4 332.9,113 335.3,113 335.3,110.6 330.5,110.6 330.5,113 328,113 
					328,108.1 330.5,108.1 330.5,105.7 328,105.7 328,100.9 330.5,100.9 330.5,103.3 332.9,103.3 332.9,100.9 335.3,100.9 
					335.3,105.7 332.9,105.7 332.9,108.1 337.7,108.1 337.7,105.7 340.1,105.7 340.1,108.1 345,108.1 345,105.7 342.6,105.7 
					342.6,103.3 345,103.3 345,100.9 340.1,100.9 340.1,103.3 337.7,103.3 337.7,96 340.1,96 340.1,98.5 345,98.5 345,96 342.6,96 
					342.6,93.6 345,93.6 345,91.2 340.1,91.2 340.1,93.6 337.7,93.6 337.7,91.2 332.9,91.2 332.9,93.6 335.3,93.6 335.3,98.5 
					332.9,98.5 332.9,96 330.5,96 330.5,98.5 328,98.5 328,93.6 330.5,93.6 330.5,91.2 328,91.2 328,86.3 330.5,86.3 330.5,88.8 
					335.3,88.8 335.3,86.3 332.9,86.3 332.9,83.9 335.3,83.9 335.3,81.5 330.5,81.5 330.5,83.9 328,83.9 328,79.1 330.5,79.1 
					330.5,76.7 328,76.7 328,71.8 330.5,71.8 330.5,74.2 332.9,74.2 332.9,71.8 335.3,71.8 335.3,76.7 332.9,76.7 332.9,79.1 
					340.1,79.1 340.1,76.7 337.7,76.7 337.7,71.8 340.1,71.8 340.1,74.2 342.6,74.2 342.6,71.8 345,71.8 345,76.7 342.6,76.7 
					342.6,79.1 345,79.1 345,83.9 342.6,83.9 342.6,81.5 337.7,81.5 337.7,83.9 340.1,83.9 340.1,86.3 337.7,86.3 337.7,88.8 
					342.6,88.8 342.6,86.3 345,86.3 345,88.8 349.8,88.8 349.8,86.3 347.4,86.3 347.4,81.5 349.8,81.5 349.8,83.9 352.3,83.9 
					352.3,81.5 354.7,81.5 354.7,86.3 352.3,86.3 352.3,88.8 357.1,88.8 357.1,86.3 359.5,86.3 359.5,88.8 364.4,88.8 364.4,86.3 
					361.9,86.3 361.9,83.9 364.4,83.9 364.4,81.5 359.5,81.5 359.5,83.9 357.1,83.9 357.1,76.7 359.5,76.7 359.5,79.1 364.4,79.1 
					364.4,76.7 361.9,76.7 361.9,74.2 364.4,74.2 364.4,71.8 359.5,71.8 359.5,74.2 357.1,74.2 357.1,71.8 352.3,71.8 352.3,74.2 
					354.7,74.2 354.7,79.1 352.3,79.1 352.3,76.7 349.8,76.7 349.8,79.1 347.4,79.1 347.4,74.2 349.8,74.2 349.8,71.8 347.4,71.8 
					347.4,69.4 349.8,69.4 349.8,67 347.4,67 347.4,62.1 349.8,62.1 349.8,64.5 352.3,64.5 352.3,62.1 354.7,62.1 354.7,67 
					352.3,67 352.3,69.4 357.1,69.4 357.1,67 359.5,67 359.5,69.4 364.4,69.4 364.4,67 361.9,67 361.9,64.5 364.4,64.5 364.4,62.1 
					359.5,62.1 359.5,64.5 357.1,64.5 357.1,57.3 359.5,57.3 359.5,59.7 364.4,59.7 364.4,57.3 361.9,57.3 361.9,54.8 364.4,54.8 
					364.4,52.4 359.5,52.4 359.5,54.8 357.1,54.8 357.1,52.4 352.3,52.4 352.3,54.8 354.7,54.8 354.7,59.7 352.3,59.7 352.3,57.3 
					349.8,57.3 349.8,59.7 347.4,59.7 347.4,54.8 349.8,54.8 349.8,52.4 345,52.4 345,54.8 342.6,54.8 342.6,52.4 337.7,52.4 
					337.7,54.8 340.1,54.8 340.1,57.3 337.7,57.3 337.7,59.7 342.6,59.7 342.6,57.3 345,57.3 345,62.1 342.6,62.1 342.6,64.5 
					345,64.5 345,69.4 342.6,69.4 342.6,67 340.1,67 340.1,69.4 337.7,69.4 337.7,64.5 340.1,64.5 340.1,62.1 332.9,62.1 
					332.9,64.5 335.3,64.5 335.3,69.4 332.9,69.4 332.9,67 330.5,67 330.5,69.4 328,69.4 328,64.5 330.5,64.5 330.5,62.1 328,62.1 
					328,57.3 330.5,57.3 330.5,59.7 335.3,59.7 335.3,57.3 332.9,57.3 332.9,54.8 335.3,54.8 335.3,52.4 330.5,52.4 330.5,54.8 
					328,54.8 328,52.4 323.2,52.4 323.2,54.8 325.6,54.8 325.6,59.7 323.2,59.7 323.2,57.3 320.8,57.3 320.8,59.7 318.3,59.7 
					318.3,54.8 320.8,54.8 320.8,52.4 315.9,52.4 315.9,54.8 313.5,54.8 313.5,52.4 308.7,52.4 308.7,54.8 311.1,54.8 311.1,57.3 
					308.7,57.3 308.7,59.7 313.5,59.7 313.5,57.3 315.9,57.3 315.9,64.5 313.5,64.5 313.5,62.1 308.7,62.1 308.7,64.5 311.1,64.5 
					311.1,67 308.7,67 308.7,69.4 313.5,69.4 313.5,67 315.9,67 315.9,69.4 320.8,69.4 320.8,67 318.3,67 318.3,62.1 320.8,62.1 
					320.8,64.5 323.2,64.5 323.2,62.1 325.6,62.1 325.6,67 323.2,67 323.2,69.4 325.6,69.4 325.6,74.2 323.2,74.2 323.2,71.8 
					318.3,71.8 318.3,74.2 320.8,74.2 320.8,76.7 318.3,76.7 318.3,79.1 323.2,79.1 323.2,76.7 325.6,76.7 325.6,81.5 323.2,81.5 
					323.2,83.9 325.6,83.9 325.6,88.8 323.2,88.8 323.2,86.3 320.8,86.3 320.8,88.8 318.3,88.8 318.3,83.9 320.8,83.9 320.8,81.5 
					313.5,81.5 313.5,83.9 315.9,83.9 315.9,88.8 313.5,88.8 313.5,86.3 311.1,86.3 311.1,88.8 308.7,88.8 308.7,83.9 311.1,83.9 
					311.1,81.5 308.7,81.5 308.7,76.7 311.1,76.7 311.1,79.1 315.9,79.1 315.9,76.7 313.5,76.7 313.5,74.2 315.9,74.2 315.9,71.8 
					311.1,71.8 311.1,74.2 308.7,74.2 308.7,71.8 306.2,71.8 306.2,74.2 303.8,74.2 303.8,71.8 299,71.8 299,74.2 301.4,74.2 
					301.4,76.7 299,76.7 299,79.1 303.8,79.1 303.8,76.7 306.2,76.7 306.2,81.5 303.8,81.5 303.8,83.9 306.2,83.9 306.2,88.8 
					303.8,88.8 303.8,86.3 301.4,86.3 301.4,88.8 299,88.8 299,83.9 301.4,83.9 301.4,81.5 294.1,81.5 294.1,83.9 296.5,83.9 
					296.5,88.8 294.1,88.8 294.1,86.3 291.7,86.3 291.7,88.8 289.3,88.8 289.3,83.9 291.7,83.9 291.7,81.5 289.3,81.5 289.3,76.7 
					291.7,76.7 291.7,79.1 296.5,79.1 296.5,76.7 294.1,76.7 294.1,74.2 296.5,74.2 296.5,71.8 291.7,71.8 291.7,74.2 289.3,74.2 
					289.3,69.4 291.7,69.4 291.7,67 289.3,67 289.3,62.1 291.7,62.1 291.7,64.5 294.1,64.5 294.1,62.1 296.5,62.1 296.5,67 
					294.1,67 294.1,69.4 299,69.4 299,67 301.4,67 301.4,69.4 306.2,69.4 306.2,67 303.8,67 303.8,64.5 306.2,64.5 306.2,62.1 
					301.4,62.1 301.4,64.5 299,64.5 299,57.3 301.4,57.3 301.4,59.7 306.2,59.7 306.2,57.3 303.8,57.3 303.8,54.8 306.2,54.8 
					306.2,52.4 301.4,52.4 301.4,54.8 299,54.8 299,52.4 294.1,52.4 294.1,54.8 296.5,54.8 296.5,59.7 294.1,59.7 294.1,57.3 
					291.7,57.3 291.7,59.7 289.3,59.7 289.3,54.8 291.7,54.8 291.7,52.4 286.9,52.4 286.9,54.8 284.4,54.8 284.4,52.4 279.6,52.4 
					279.6,54.8 282,54.8 282,57.3 279.6,57.3 279.6,59.7 284.4,59.7 284.4,57.3 286.9,57.3 286.9,62.1 284.4,62.1 284.4,64.5 
					286.9,64.5 286.9,69.4 284.4,69.4 284.4,67 282,67 282,69.4 279.6,69.4 279.6,64.5 282,64.5 282,62.1 274.7,62.1 274.7,64.5 
					277.2,64.5 277.2,69.4 274.7,69.4 274.7,67 272.3,67 272.3,69.4 269.9,69.4 269.9,64.5 272.3,64.5 272.3,62.1 269.9,62.1 
					269.9,57.3 272.3,57.3 272.3,59.7 277.2,59.7 277.2,57.3 274.7,57.3 274.7,54.8 277.2,54.8 277.2,52.4 272.3,52.4 272.3,54.8 
					269.9,54.8 269.9,52.4 265.1,52.4 265.1,54.8 267.5,54.8 267.5,59.7 265.1,59.7 265.1,57.3 262.6,57.3 262.6,59.7 260.2,59.7 
					260.2,54.8 262.6,54.8 262.6,52.4 257.8,52.4 257.8,54.8 255.4,54.8 255.4,52.4 250.5,52.4 250.5,54.8 252.9,54.8 252.9,57.3 
					250.5,57.3 250.5,59.7 255.4,59.7 255.4,57.3 257.8,57.3 257.8,64.5 255.4,64.5 255.4,62.1 250.5,62.1 250.5,64.5 252.9,64.5 
					252.9,67 250.5,67 250.5,69.4 255.4,69.4 255.4,67 257.8,67 257.8,69.4 262.6,69.4 262.6,67 260.2,67 260.2,62.1 262.6,62.1 
					262.6,64.5 265.1,64.5 265.1,62.1 267.5,62.1 267.5,67 265.1,67 265.1,69.4 267.5,69.4 267.5,71.8 265.1,71.8 265.1,74.2 
					267.5,74.2 267.5,79.1 265.1,79.1 265.1,76.7 262.6,76.7 262.6,79.1 260.2,79.1 260.2,74.2 262.6,74.2 262.6,71.8 257.8,71.8 
					257.8,74.2 255.4,74.2 255.4,71.8 250.5,71.8 250.5,74.2 252.9,74.2 252.9,76.7 250.5,76.7 250.5,79.1 255.4,79.1 255.4,76.7 
					257.8,76.7 257.8,83.9 255.4,83.9 255.4,81.5 250.5,81.5 250.5,83.9 252.9,83.9 252.9,86.3 250.5,86.3 250.5,88.8 255.4,88.8 
					255.4,86.3 257.8,86.3 257.8,88.8 262.6,88.8 262.6,86.3 260.2,86.3 260.2,81.5 262.6,81.5 262.6,83.9 265.1,83.9 265.1,81.5 
					267.5,81.5 267.5,86.3 265.1,86.3 265.1,88.8 269.9,88.8 269.9,86.3 272.3,86.3 272.3,88.8 277.2,88.8 277.2,86.3 274.7,86.3 
					274.7,83.9 277.2,83.9 277.2,81.5 272.3,81.5 272.3,83.9 269.9,83.9 269.9,79.1 272.3,79.1 272.3,76.7 269.9,76.7 269.9,71.8 
					272.3,71.8 272.3,74.2 274.7,74.2 274.7,71.8 277.2,71.8 277.2,76.7 274.7,76.7 274.7,79.1 282,79.1 282,76.7 279.6,76.7 
					279.6,71.8 282,71.8 282,74.2 284.4,74.2 284.4,71.8 286.9,71.8 286.9,76.7 284.4,76.7 284.4,79.1 286.9,79.1 286.9,83.9 
					284.4,83.9 284.4,81.5 279.6,81.5 279.6,83.9 282,83.9 282,86.3 279.6,86.3 279.6,88.8 284.4,88.8 284.4,86.3 286.9,86.3 
					286.9,93.6 284.4,93.6 284.4,91.2 279.6,91.2 279.6,93.6 282,93.6 282,96 279.6,96 279.6,98.5 284.4,98.5 284.4,96 286.9,96 
					286.9,100.9 284.4,100.9 284.4,103.3 286.9,103.3 286.9,108.1 284.4,108.1 284.4,105.7 282,105.7 282,108.1 279.6,108.1 
					279.6,103.3 282,103.3 282,100.9 274.7,100.9 274.7,103.3 277.2,103.3 277.2,108.1 274.7,108.1 274.7,105.7 272.3,105.7 
					272.3,108.1 269.9,108.1 269.9,103.3 272.3,103.3 272.3,100.9 269.9,100.9 269.9,96 272.3,96 272.3,98.5 277.2,98.5 277.2,96 
					274.7,96 274.7,93.6 277.2,93.6 277.2,91.2 272.3,91.2 272.3,93.6 269.9,93.6 269.9,91.2 265.1,91.2 265.1,93.6 267.5,93.6 
					267.5,98.5 265.1,98.5 265.1,96 262.6,96 262.6,98.5 260.2,98.5 260.2,93.6 262.6,93.6 262.6,91.2 257.8,91.2 257.8,93.6 
					255.4,93.6 255.4,91.2 250.5,91.2 250.5,93.6 252.9,93.6 252.9,96 250.5,96 250.5,98.5 255.4,98.5 255.4,96 257.8,96 
					257.8,103.3 255.4,103.3 255.4,100.9 250.5,100.9 250.5,103.3 252.9,103.3 252.9,105.7 250.5,105.7 250.5,108.1 255.4,108.1 
					255.4,105.7 257.8,105.7 257.8,108.1 262.6,108.1 262.6,105.7 260.2,105.7 260.2,100.9 262.6,100.9 262.6,103.3 265.1,103.3 
					265.1,100.9 267.5,100.9 267.5,105.7 265.1,105.7 265.1,108.1 267.5,108.1 267.5,110.6 265.1,110.6 265.1,113 267.5,113 
					267.5,117.8 265.1,117.8 265.1,115.4 262.6,115.4 262.6,117.8 260.2,117.8 260.2,113 262.6,113 262.6,110.6 257.8,110.6 
					257.8,113 255.4,113 255.4,110.6 250.5,110.6 250.5,113 252.9,113 252.9,115.4 250.5,115.4 250.5,117.8 255.4,117.8 
					255.4,115.4 257.8,115.4 257.8,122.7 255.4,122.7 255.4,120.3 250.5,120.3 250.5,122.7 252.9,122.7 252.9,125.1 250.5,125.1 
					250.5,127.5 255.4,127.5 255.4,125.1 257.8,125.1 257.8,127.5 262.6,127.5 262.6,125.1 260.2,125.1 260.2,120.3 262.6,120.3 
					262.6,122.7 265.1,122.7 265.1,120.3 267.5,120.3 267.5,125.1 265.1,125.1 265.1,127.5 269.9,127.5 269.9,125.1 272.3,125.1 
					272.3,127.5 277.2,127.5 277.2,125.1 274.7,125.1 274.7,122.7 277.2,122.7 277.2,120.3 272.3,120.3 272.3,122.7 269.9,122.7 
					269.9,117.8 272.3,117.8 272.3,115.4 269.9,115.4 269.9,110.6 272.3,110.6 272.3,113 274.7,113 274.7,110.6 277.2,110.6 
					277.2,115.4 274.7,115.4 274.7,117.8 282,117.8 282,115.4 279.6,115.4 279.6,110.6 282,110.6 282,113 284.4,113 284.4,110.6 
					286.9,110.6 286.9,115.4 284.4,115.4 284.4,117.8 286.9,117.8 286.9,122.7 284.4,122.7 284.4,120.3 279.6,120.3 279.6,122.7 
					282,122.7 282,125.1 279.6,125.1 279.6,127.5 284.4,127.5 284.4,125.1 286.9,125.1 286.9,127.5 291.7,127.5 291.7,125.1 
					289.3,125.1 289.3,120.3 291.7,120.3 291.7,122.7 294.1,122.7 294.1,120.3 296.5,120.3 296.5,125.1 294.1,125.1 294.1,127.5 
					299,127.5 299,125.1 301.4,125.1 301.4,127.5 306.2,127.5 306.2,125.1 303.8,125.1 303.8,122.7 306.2,122.7 306.2,120.3 
					301.4,120.3 301.4,122.7 299,122.7 299,115.4 301.4,115.4 301.4,117.8 306.2,117.8 306.2,115.4 303.8,115.4 303.8,113 
					306.2,113 306.2,110.6 301.4,110.6 301.4,113 299,113 299,110.6 294.1,110.6 294.1,113 296.5,113 296.5,117.8 294.1,117.8 
					294.1,115.4 291.7,115.4 291.7,117.8 289.3,117.8 289.3,113 291.7,113 291.7,110.6 289.3,110.6 289.3,105.7 291.7,105.7 
					291.7,108.1 296.5,108.1 296.5,105.7 294.1,105.7 294.1,103.3 296.5,103.3 296.5,100.9 291.7,100.9 291.7,103.3 289.3,103.3 
					289.3,98.5 291.7,98.5 291.7,96 289.3,96 289.3,91.2 291.7,91.2 291.7,93.6 294.1,93.6 294.1,91.2 296.5,91.2 296.5,96 
					294.1,96 294.1,98.5 301.4,98.5 301.4,96 299,96 299,91.2 301.4,91.2 301.4,93.6 303.8,93.6 303.8,91.2 306.2,91.2 306.2,96 
					303.8,96 303.8,98.5 306.2,98.5 306.2,103.3 303.8,103.3 303.8,100.9 299,100.9 299,103.3 301.4,103.3 301.4,105.7 299,105.7 
					299,108.1 303.8,108.1 303.8,105.7 306.2,105.7 306.2,108.1 308.7,108.1 308.7,105.7 311.1,105.7 311.1,108.1 315.9,108.1 
					315.9,105.7 313.5,105.7 313.5,103.3 315.9,103.3 315.9,100.9 311.1,100.9 311.1,103.3 308.7,103.3 308.7,98.5 311.1,98.5 
					311.1,96 308.7,96 308.7,91.2 311.1,91.2 311.1,93.6 313.5,93.6 313.5,91.2 315.9,91.2 315.9,96 313.5,96 313.5,98.5 
					320.8,98.5 320.8,96 318.3,96 318.3,91.2 320.8,91.2 320.8,93.6 323.2,93.6 323.2,91.2 325.6,91.2 325.6,96 323.2,96 
					323.2,98.5 325.6,98.5 325.6,103.3 323.2,103.3 323.2,100.9 318.3,100.9 318.3,103.3 320.8,103.3 320.8,105.7 318.3,105.7 
					318.3,108.1 323.2,108.1 323.2,105.7 325.6,105.7 325.6,110.6 323.2,110.6 323.2,113 325.6,113 325.6,117.8 323.2,117.8 
					323.2,115.4 320.8,115.4 320.8,117.8 318.3,117.8 318.3,113 320.8,113 320.8,110.6 315.9,110.6 315.9,113 313.5,113 
					313.5,110.6 308.7,110.6 308.7,113 311.1,113 311.1,115.4 308.7,115.4 308.7,117.8 313.5,117.8 313.5,115.4 315.9,115.4 
					315.9,122.7 313.5,122.7 313.5,120.3 308.7,120.3 308.7,122.7 311.1,122.7 311.1,125.1 308.7,125.1 308.7,127.5 313.5,127.5 
					313.5,125.1 315.9,125.1 315.9,127.5 320.8,127.5 320.8,125.1 318.3,125.1 318.3,120.3 320.8,120.3 320.8,122.7 323.2,122.7 
					323.2,120.3 325.6,120.3 325.6,125.1 323.2,125.1 323.2,127.5 325.6,127.5 325.6,129.9 323.2,129.9 323.2,132.4 325.6,132.4 
					325.6,137.2 323.2,137.2 323.2,134.8 320.8,134.8 320.8,137.2 318.3,137.2 318.3,132.4 320.8,132.4 320.8,129.9 315.9,129.9 
					315.9,132.4 313.5,132.4 313.5,129.9 308.7,129.9 308.7,132.4 311.1,132.4 311.1,134.8 308.7,134.8 308.7,137.2 313.5,137.2 
					313.5,134.8 315.9,134.8 315.9,142.1 313.5,142.1 313.5,139.6 308.7,139.6 308.7,142.1 311.1,142.1 311.1,144.5 308.7,144.5 
					308.7,146.9 313.5,146.9 313.5,144.5 315.9,144.5 315.9,146.9 320.8,146.9 320.8,144.5 318.3,144.5 318.3,139.6 320.8,139.6 
					320.8,142.1 323.2,142.1 323.2,139.6 325.6,139.6 325.6,144.5 323.2,144.5 323.2,146.9 325.6,146.9 325.6,151.7 323.2,151.7 
					323.2,149.3 318.3,149.3 318.3,151.7 320.8,151.7 320.8,154.2 318.3,154.2 318.3,156.6 323.2,156.6 323.2,154.2 325.6,154.2 
					325.6,159 323.2,159 323.2,161.4 325.6,161.4 325.6,166.3 323.2,166.3 323.2,163.9 320.8,163.9 320.8,166.3 318.3,166.3 
					318.3,161.4 320.8,161.4 320.8,159 313.5,159 313.5,161.4 315.9,161.4 315.9,166.3 313.5,166.3 313.5,163.9 311.1,163.9 
					311.1,166.3 308.7,166.3 308.7,161.4 311.1,161.4 311.1,159 308.7,159 308.7,154.2 311.1,154.2 311.1,156.6 315.9,156.6 
					315.9,154.2 313.5,154.2 313.5,151.7 315.9,151.7 315.9,149.3 311.1,149.3 311.1,151.7 308.7,151.7 308.7,149.3 306.2,149.3 
					306.2,151.7 303.8,151.7 303.8,149.3 299,149.3 299,151.7 301.4,151.7 301.4,154.2 299,154.2 299,156.6 303.8,156.6 
					303.8,154.2 306.2,154.2 306.2,159 303.8,159 303.8,161.4 306.2,161.4 306.2,166.3 303.8,166.3 303.8,163.9 301.4,163.9 
					301.4,166.3 299,166.3 299,161.4 301.4,161.4 301.4,159 294.1,159 294.1,161.4 296.5,161.4 296.5,166.3 294.1,166.3 
					294.1,163.9 291.7,163.9 291.7,166.3 289.3,166.3 289.3,161.4 291.7,161.4 291.7,159 289.3,159 289.3,154.2 291.7,154.2 
					291.7,156.6 296.5,156.6 296.5,154.2 294.1,154.2 294.1,151.7 296.5,151.7 296.5,149.3 291.7,149.3 291.7,151.7 289.3,151.7 
					289.3,146.9 291.7,146.9 291.7,144.5 289.3,144.5 289.3,139.6 291.7,139.6 291.7,142.1 294.1,142.1 294.1,139.6 296.5,139.6 
					296.5,144.5 294.1,144.5 294.1,146.9 299,146.9 299,144.5 301.4,144.5 301.4,146.9 306.2,146.9 306.2,144.5 303.8,144.5 
					303.8,142.1 306.2,142.1 306.2,139.6 301.4,139.6 301.4,142.1 299,142.1 299,134.8 301.4,134.8 301.4,137.2 306.2,137.2 
					306.2,134.8 303.8,134.8 303.8,132.4 306.2,132.4 306.2,129.9 301.4,129.9 301.4,132.4 299,132.4 299,129.9 294.1,129.9 
					294.1,132.4 296.5,132.4 296.5,137.2 294.1,137.2 294.1,134.8 291.7,134.8 291.7,137.2 289.3,137.2 289.3,132.4 291.7,132.4 
					291.7,129.9 286.9,129.9 286.9,132.4 284.4,132.4 284.4,129.9 279.6,129.9 279.6,132.4 282,132.4 282,134.8 279.6,134.8 
					279.6,137.2 284.4,137.2 284.4,134.8 286.9,134.8 286.9,139.6 284.4,139.6 284.4,142.1 286.9,142.1 286.9,146.9 284.4,146.9 
					284.4,144.5 282,144.5 282,146.9 279.6,146.9 279.6,142.1 282,142.1 282,139.6 274.7,139.6 274.7,142.1 277.2,142.1 
					277.2,146.9 274.7,146.9 274.7,144.5 272.3,144.5 272.3,146.9 269.9,146.9 269.9,142.1 272.3,142.1 272.3,139.6 269.9,139.6 
					269.9,134.8 272.3,134.8 272.3,137.2 277.2,137.2 277.2,134.8 274.7,134.8 274.7,132.4 277.2,132.4 277.2,129.9 272.3,129.9 
					272.3,132.4 269.9,132.4 269.9,129.9 265.1,129.9 265.1,132.4 267.5,132.4 267.5,137.2 265.1,137.2 265.1,134.8 262.6,134.8 
					262.6,137.2 260.2,137.2 260.2,132.4 262.6,132.4 262.6,129.9 257.8,129.9 257.8,132.4 255.4,132.4 255.4,129.9 250.5,129.9 
					250.5,132.4 252.9,132.4 252.9,134.8 250.5,134.8 250.5,137.2 255.4,137.2 255.4,134.8 257.8,134.8 257.8,142.1 255.4,142.1 
					255.4,139.6 250.5,139.6 250.5,142.1 252.9,142.1 252.9,144.5 250.5,144.5 250.5,146.9 255.4,146.9 255.4,144.5 257.8,144.5 
					257.8,146.9 262.6,146.9 262.6,144.5 260.2,144.5 260.2,139.6 262.6,139.6 262.6,142.1 265.1,142.1 265.1,139.6 267.5,139.6 
					267.5,144.5 265.1,144.5 265.1,146.9 267.5,146.9 267.5,149.3 265.1,149.3 265.1,151.7 267.5,151.7 267.5,156.6 265.1,156.6 
					265.1,154.2 262.6,154.2 262.6,156.6 260.2,156.6 260.2,151.7 262.6,151.7 262.6,149.3 257.8,149.3 257.8,151.7 255.4,151.7 
					255.4,149.3 250.5,149.3 250.5,151.7 252.9,151.7 252.9,154.2 250.5,154.2 250.5,156.6 255.4,156.6 255.4,154.2 257.8,154.2 
					257.8,161.4 255.4,161.4 255.4,159 250.5,159 250.5,161.4 252.9,161.4 252.9,163.9 250.5,163.9 250.5,166.3 255.4,166.3 
					255.4,163.9 257.8,163.9 257.8,166.3 262.6,166.3 262.6,163.9 260.2,163.9 260.2,159 262.6,159 262.6,161.4 265.1,161.4 
					265.1,159 267.5,159 267.5,163.9 265.1,163.9 265.1,166.3 269.9,166.3 269.9,163.9 272.3,163.9 272.3,166.3 277.2,166.3 
					277.2,163.9 274.7,163.9 274.7,161.4 277.2,161.4 277.2,159 272.3,159 272.3,161.4 269.9,161.4 269.9,156.6 272.3,156.6 
					272.3,154.2 269.9,154.2 269.9,149.3 272.3,149.3 272.3,151.7 274.7,151.7 274.7,149.3 277.2,149.3 277.2,154.2 274.7,154.2 
					274.7,156.6 282,156.6 282,154.2 279.6,154.2 279.6,149.3 282,149.3 282,151.7 284.4,151.7 284.4,149.3 286.9,149.3 
					286.9,154.2 284.4,154.2 284.4,156.6 286.9,156.6 286.9,161.4 284.4,161.4 284.4,159 279.6,159 279.6,161.4 282,161.4 
					282,163.9 279.6,163.9 279.6,166.3 284.4,166.3 284.4,163.9 286.9,163.9 286.9,171.1 284.4,171.1 284.4,168.7 279.6,168.7 
					279.6,171.1 282,171.1 282,173.5 279.6,173.5 279.6,176 284.4,176 284.4,173.5 286.9,173.5 286.9,178.4 284.4,178.4 
					284.4,180.8 286.9,180.8 286.9,185.7 284.4,185.7 284.4,183.2 282,183.2 282,185.7 279.6,185.7 279.6,180.8 282,180.8 
					282,178.4 274.7,178.4 274.7,180.8 277.2,180.8 277.2,185.7 274.7,185.7 274.7,183.2 272.3,183.2 272.3,185.7 269.9,185.7 
					269.9,180.8 272.3,180.8 272.3,178.4 269.9,178.4 269.9,173.5 272.3,173.5 272.3,176 277.2,176 277.2,173.5 274.7,173.5 
					274.7,171.1 277.2,171.1 277.2,168.7 272.3,168.7 272.3,171.1 269.9,171.1 269.9,168.7 265.1,168.7 265.1,171.1 267.5,171.1 
					267.5,176 265.1,176 265.1,173.5 262.6,173.5 262.6,176 260.2,176 260.2,171.1 262.6,171.1 262.6,168.7 257.8,168.7 
					257.8,171.1 255.4,171.1 255.4,168.7 250.5,168.7 250.5,171.1 252.9,171.1 252.9,173.5 250.5,173.5 250.5,176 255.4,176 
					255.4,173.5 257.8,173.5 257.8,180.8 255.4,180.8 255.4,178.4 250.5,178.4 250.5,180.8 252.9,180.8 252.9,183.2 250.5,183.2 
					250.5,185.7 255.4,185.7 255.4,183.2 257.8,183.2 257.8,185.7 262.6,185.7 262.6,183.2 260.2,183.2 260.2,178.4 262.6,178.4 
					262.6,180.8 265.1,180.8 265.1,178.4 267.5,178.4 267.5,183.2 265.1,183.2 265.1,185.7 267.5,185.7 267.5,188.1 265.1,188.1 
					265.1,190.5 267.5,190.5 267.5,195.4 265.1,195.4 265.1,192.9 262.6,192.9 262.6,195.4 260.2,195.4 260.2,190.5 262.6,190.5 
					262.6,188.1 257.8,188.1 257.8,190.5 255.4,190.5 255.4,188.1 250.5,188.1 250.5,190.5 252.9,190.5 252.9,192.9 250.5,192.9 
					250.5,195.4 255.4,195.4 255.4,192.9 257.8,192.9 257.8,200.2 255.4,200.2 255.4,197.8 250.5,197.8 250.5,200.2 252.9,200.2 
					252.9,202.6 250.5,202.6 250.5,205 255.4,205 255.4,202.6 257.8,202.6 257.8,205 262.6,205 262.6,202.6 260.2,202.6 
					260.2,197.8 262.6,197.8 262.6,200.2 265.1,200.2 265.1,197.8 267.5,197.8 267.5,202.6 265.1,202.6 265.1,205 269.9,205 
					269.9,202.6 272.3,202.6 272.3,205 277.2,205 277.2,202.6 274.7,202.6 274.7,200.2 277.2,200.2 277.2,197.8 272.3,197.8 
					272.3,200.2 269.9,200.2 269.9,195.4 272.3,195.4 272.3,192.9 269.9,192.9 269.9,188.1 272.3,188.1 272.3,190.5 274.7,190.5 
					274.7,188.1 277.2,188.1 277.2,192.9 274.7,192.9 274.7,195.4 282,195.4 282,192.9 279.6,192.9 279.6,188.1 282,188.1 
					282,190.5 284.4,190.5 284.4,188.1 286.9,188.1 286.9,192.9 284.4,192.9 284.4,195.4 286.9,195.4 286.9,200.2 284.4,200.2 
					284.4,197.8 279.6,197.8 279.6,200.2 282,200.2 282,202.6 279.6,202.6 279.6,205 284.4,205 284.4,202.6 286.9,202.6 286.9,205 
					291.7,205 291.7,202.6 289.3,202.6 289.3,197.8 291.7,197.8 291.7,200.2 294.1,200.2 294.1,197.8 296.5,197.8 296.5,202.6 
					294.1,202.6 294.1,205 299,205 299,202.6 301.4,202.6 301.4,205 306.2,205 306.2,202.6 303.8,202.6 303.8,200.2 306.2,200.2 
					306.2,197.8 301.4,197.8 301.4,200.2 299,200.2 299,192.9 301.4,192.9 301.4,195.4 306.2,195.4 306.2,192.9 303.8,192.9 
					303.8,190.5 306.2,190.5 306.2,188.1 301.4,188.1 301.4,190.5 299,190.5 299,188.1 294.1,188.1 294.1,190.5 296.5,190.5 
					296.5,195.4 294.1,195.4 294.1,192.9 291.7,192.9 291.7,195.4 289.3,195.4 289.3,190.5 291.7,190.5 291.7,188.1 289.3,188.1 
					289.3,183.2 291.7,183.2 291.7,185.7 296.5,185.7 296.5,183.2 294.1,183.2 294.1,180.8 296.5,180.8 296.5,178.4 291.7,178.4 
					291.7,180.8 289.3,180.8 289.3,176 291.7,176 291.7,173.5 289.3,173.5 289.3,168.7 291.7,168.7 291.7,171.1 294.1,171.1 
					294.1,168.7 296.5,168.7 296.5,173.5 294.1,173.5 294.1,176 301.4,176 301.4,173.5 299,173.5 299,168.7 301.4,168.7 
					301.4,171.1 303.8,171.1 303.8,168.7 306.2,168.7 306.2,173.5 303.8,173.5 303.8,176 306.2,176 306.2,180.8 303.8,180.8 
					303.8,178.4 299,178.4 299,180.8 301.4,180.8 301.4,183.2 299,183.2 299,185.7 303.8,185.7 303.8,183.2 306.2,183.2 
					306.2,185.7 308.7,185.7 308.7,183.2 311.1,183.2 311.1,185.7 315.9,185.7 315.9,183.2 313.5,183.2 313.5,180.8 315.9,180.8 
					315.9,178.4 311.1,178.4 311.1,180.8 308.7,180.8 308.7,176 311.1,176 311.1,173.5 308.7,173.5 308.7,168.7 311.1,168.7 
					311.1,171.1 313.5,171.1 313.5,168.7 315.9,168.7 315.9,173.5 313.5,173.5 313.5,176 320.8,176 320.8,173.5 318.3,173.5 
					318.3,168.7 320.8,168.7 320.8,171.1 323.2,171.1 323.2,168.7 325.6,168.7 325.6,173.5 323.2,173.5 323.2,176 325.6,176 
					325.6,180.8 323.2,180.8 323.2,178.4 318.3,178.4 318.3,180.8 320.8,180.8 320.8,183.2 318.3,183.2 318.3,185.7 323.2,185.7 
					323.2,183.2 325.6,183.2 325.6,188.1 323.2,188.1 323.2,190.5 325.6,190.5 325.6,195.4 323.2,195.4 323.2,192.9 320.8,192.9 
					320.8,195.4 318.3,195.4 318.3,190.5 320.8,190.5 320.8,188.1 315.9,188.1 315.9,190.5 313.5,190.5 313.5,188.1 308.7,188.1 
					308.7,190.5 311.1,190.5 311.1,192.9 308.7,192.9 308.7,195.4 313.5,195.4 313.5,192.9 315.9,192.9 315.9,200.2 313.5,200.2 
					313.5,197.8 308.7,197.8 308.7,200.2 311.1,200.2 311.1,202.6 308.7,202.6 308.7,205 313.5,205 313.5,202.6 315.9,202.6 
					315.9,205 320.8,205 320.8,202.6 318.3,202.6 318.3,197.8 320.8,197.8 320.8,200.2 323.2,200.2 323.2,197.8 325.6,197.8 
					325.6,202.6 323.2,202.6 323.2,205 328,205 328,202.6 330.5,202.6 330.5,205 335.3,205 335.3,202.6 332.9,202.6 332.9,200.2 
					335.3,200.2 335.3,197.8 330.5,197.8 330.5,200.2 328,200.2 328,195.4 330.5,195.4 330.5,192.9 328,192.9 328,188.1 
					330.5,188.1 330.5,190.5 332.9,190.5 332.9,188.1 335.3,188.1 335.3,192.9 332.9,192.9 332.9,195.4 340.1,195.4 340.1,192.9 
					337.7,192.9 337.7,188.1 340.1,188.1 340.1,190.5 342.6,190.5 342.6,188.1 345,188.1 345,192.9 342.6,192.9 342.6,195.4 
					345,195.4 345,200.2 342.6,200.2 342.6,197.8 337.7,197.8 337.7,200.2 340.1,200.2 340.1,202.6 337.7,202.6 337.7,205 
					342.6,205 342.6,202.6 345,202.6 345,205 349.8,205 349.8,202.6 347.4,202.6 347.4,197.8 349.8,197.8 349.8,200.2 352.3,200.2 
					352.3,197.8 354.7,197.8 354.7,202.6 352.3,202.6 352.3,205 357.1,205 357.1,202.6 359.5,202.6 359.5,205 364.4,205 
					364.4,202.6 361.9,202.6 361.9,200.2 364.4,200.2 364.4,197.8 359.5,197.8 359.5,200.2 357.1,200.2 357.1,192.9 359.5,192.9 
					359.5,195.4 364.4,195.4 364.4,192.9 361.9,192.9 361.9,190.5 364.4,190.5 364.4,188.1 359.5,188.1 359.5,190.5 357.1,190.5 
					357.1,188.1 352.3,188.1 352.3,190.5 354.7,190.5 354.7,195.4 352.3,195.4 352.3,192.9 349.8,192.9 349.8,195.4 347.4,195.4 
					347.4,190.5 349.8,190.5 349.8,188.1 347.4,188.1 347.4,185.7 349.8,185.7 349.8,183.2 347.4,183.2 347.4,178.4 349.8,178.4 
					349.8,180.8 352.3,180.8 352.3,178.4 354.7,178.4 354.7,183.2 352.3,183.2 352.3,185.7 357.1,185.7 357.1,183.2 359.5,183.2 
					359.5,185.7 364.4,185.7 364.4,183.2 361.9,183.2 361.9,180.8 364.4,180.8 364.4,178.4 359.5,178.4 359.5,180.8 357.1,180.8 
					357.1,173.5 359.5,173.5 359.5,176 364.4,176 364.4,173.5 361.9,173.5 361.9,171.1 364.4,171.1 364.4,168.7 359.5,168.7 
					359.5,171.1 357.1,171.1 357.1,168.7 352.3,168.7 352.3,171.1 354.7,171.1 354.7,176 352.3,176 352.3,173.5 349.8,173.5 
					349.8,176 347.4,176 347.4,171.1 349.8,171.1 349.8,168.7 345,168.7 345,171.1 342.6,171.1 342.6,168.7 337.7,168.7 
					337.7,171.1 340.1,171.1 340.1,173.5 337.7,173.5 337.7,176 342.6,176 342.6,173.5 345,173.5 345,178.4 342.6,178.4 
					342.6,180.8 345,180.8 345,185.7 342.6,185.7 342.6,183.2 340.1,183.2 340.1,185.7 337.7,185.7 337.7,180.8 340.1,180.8 
					340.1,178.4 332.9,178.4 332.9,180.8 335.3,180.8 335.3,185.7 332.9,185.7 332.9,183.2 330.5,183.2 330.5,185.7 328,185.7 
					328,180.8 330.5,180.8 330.5,178.4 328,178.4 328,173.5 330.5,173.5 330.5,176 335.3,176 335.3,173.5 332.9,173.5 332.9,171.1 
					335.3,171.1 335.3,168.7 330.5,168.7 330.5,171.1 328,171.1 328,166.3 330.5,166.3 330.5,163.9 328,163.9 328,159 330.5,159 
					330.5,161.4 332.9,161.4 332.9,159 335.3,159 335.3,163.9 332.9,163.9 332.9,166.3 337.7,166.3 337.7,163.9 340.1,163.9 
					340.1,166.3 345,166.3 345,163.9 342.6,163.9 342.6,161.4 345,161.4 345,159 340.1,159 340.1,161.4 337.7,161.4 337.7,154.2 
					340.1,154.2 340.1,156.6 345,156.6 345,154.2 342.6,154.2 342.6,151.7 345,151.7 345,149.3 340.1,149.3 340.1,151.7 
					337.7,151.7 337.7,149.3 332.9,149.3 332.9,151.7 335.3,151.7 335.3,156.6 332.9,156.6 332.9,154.2 330.5,154.2 330.5,156.6 
					328,156.6 328,151.7 330.5,151.7 330.5,149.3 328,149.3 328,144.5 330.5,144.5 330.5,146.9 335.3,146.9 335.3,144.5 
					332.9,144.5 332.9,142.1 335.3,142.1 335.3,139.6 330.5,139.6 330.5,142.1 328,142.1 328,137.2 330.5,137.2 330.5,134.8 
					328,134.8 328,129.9 330.5,129.9 330.5,132.4 332.9,132.4 332.9,129.9 335.3,129.9 335.3,134.8 332.9,134.8 332.9,137.2 
					340.1,137.2 340.1,134.8 337.7,134.8 337.7,129.9 340.1,129.9 340.1,132.4 342.6,132.4 342.6,129.9 345,129.9 345,134.8 
					342.6,134.8 342.6,137.2 345,137.2 345,142.1 342.6,142.1 342.6,139.6 337.7,139.6 337.7,142.1 340.1,142.1 340.1,144.5 
					337.7,144.5 337.7,146.9 342.6,146.9 342.6,144.5 345,144.5 345,146.9 347.4,146.9 347.4,144.5 349.8,144.5 349.8,146.9 
					354.7,146.9 354.7,144.5 352.3,144.5 352.3,142.1 354.7,142.1 354.7,139.6 349.8,139.6 349.8,142.1 347.4,142.1 347.4,137.2 
					349.8,137.2 349.8,134.8 347.4,134.8 347.4,129.9 349.8,129.9 349.8,132.4 352.3,132.4 352.3,129.9 354.7,129.9 354.7,134.8 
					352.3,134.8 352.3,137.2 359.5,137.2 359.5,134.8 357.1,134.8 357.1,129.9 359.5,129.9 359.5,132.4 361.9,132.4 361.9,129.9 
					364.4,129.9 364.4,134.8 361.9,134.8 361.9,137.2 364.4,137.2 364.4,142.1 361.9,142.1 361.9,139.6 357.1,139.6 357.1,142.1 
					359.5,142.1 359.5,144.5 357.1,144.5 357.1,146.9 361.9,146.9 361.9,144.5 364.4,144.5 364.4,149.3 361.9,149.3 361.9,151.7 
					364.4,151.7 364.4,156.6 361.9,156.6 361.9,154.2 359.5,154.2 359.5,156.6 357.1,156.6 357.1,151.7 359.5,151.7 359.5,149.3 
					354.7,149.3 354.7,151.7 352.3,151.7 352.3,149.3 347.4,149.3 347.4,151.7 349.8,151.7 349.8,154.2 347.4,154.2 347.4,156.6 
					352.3,156.6 352.3,154.2 354.7,154.2 354.7,161.4 352.3,161.4 352.3,159 347.4,159 347.4,161.4 349.8,161.4 349.8,163.9 
					347.4,163.9 347.4,166.3 352.3,166.3 352.3,163.9 354.7,163.9 354.7,166.3 359.5,166.3 359.5,163.9 357.1,163.9 357.1,159 
					359.5,159 359.5,161.4 361.9,161.4 361.9,159 364.4,159 364.4,163.9 361.9,163.9 361.9,166.3 369.2,166.3 369.2,163.9 
					366.8,163.9 366.8,159 369.2,159 369.2,161.4 371.6,161.4 371.6,159 374.1,159 374.1,163.9 371.6,163.9 371.6,166.3 
					376.5,166.3 376.5,163.9 378.9,163.9 378.9,166.3 383.8,166.3 383.8,163.9 381.3,163.9 381.3,161.4 383.8,161.4 383.8,159 
					378.9,159 378.9,161.4 376.5,161.4 376.5,154.2 378.9,154.2 378.9,156.6 383.8,156.6 383.8,154.2 381.3,154.2 381.3,151.7 
					383.8,151.7 383.8,149.3 378.9,149.3 378.9,151.7 376.5,151.7 376.5,149.3 371.6,149.3 371.6,151.7 374.1,151.7 374.1,156.6 
					371.6,156.6 371.6,154.2 369.2,154.2 369.2,156.6 366.8,156.6 366.8,151.7 369.2,151.7 369.2,149.3 366.8,149.3 366.8,144.5 
					369.2,144.5 369.2,146.9 374.1,146.9 374.1,144.5 371.6,144.5 371.6,142.1 374.1,142.1 374.1,139.6 369.2,139.6 369.2,142.1 
					366.8,142.1 366.8,137.2 369.2,137.2 369.2,134.8 366.8,134.8 366.8,129.9 369.2,129.9 369.2,132.4 371.6,132.4 371.6,129.9 
					374.1,129.9 374.1,134.8 371.6,134.8 371.6,137.2 378.9,137.2 378.9,134.8 376.5,134.8 376.5,129.9 378.9,129.9 378.9,132.4 
					381.3,132.4 381.3,129.9 383.8,129.9 383.8,134.8 381.3,134.8 381.3,137.2 383.8,137.2 383.8,142.1 381.3,142.1 381.3,139.6 
					376.5,139.6 376.5,142.1 378.9,142.1 378.9,144.5 376.5,144.5 376.5,146.9 381.3,146.9 381.3,144.5 383.8,144.5 383.8,146.9 
					386.2,146.9 386.2,144.5 388.6,144.5 388.6,146.9 393.4,146.9 393.4,144.5 391,144.5 391,142.1 393.4,142.1 393.4,139.6 
					388.6,139.6 388.6,142.1 386.2,142.1 386.2,137.2 388.6,137.2 388.6,134.8 386.2,134.8 386.2,129.9 388.6,129.9 388.6,132.4 
					391,132.4 391,129.9 393.4,129.9 393.4,134.8 391,134.8 391,137.2 398.3,137.2 398.3,134.8 395.9,134.8 395.9,129.9 
					398.3,129.9 398.3,132.4 400.7,132.4 400.7,129.9 403.1,129.9 403.1,134.8 400.7,134.8 400.7,137.2 403.1,137.2 403.1,142.1 
					400.7,142.1 400.7,139.6 395.9,139.6 395.9,142.1 398.3,142.1 398.3,144.5 395.9,144.5 395.9,146.9 400.7,146.9 400.7,144.5 
					403.1,144.5 403.1,149.3 400.7,149.3 400.7,151.7 403.1,151.7 403.1,156.6 400.7,156.6 400.7,154.2 398.3,154.2 398.3,156.6 
					395.9,156.6 395.9,151.7 398.3,151.7 398.3,149.3 393.4,149.3 393.4,151.7 391,151.7 391,149.3 386.2,149.3 386.2,151.7 
					388.6,151.7 388.6,154.2 386.2,154.2 386.2,156.6 391,156.6 391,154.2 393.4,154.2 393.4,161.4 391,161.4 391,159 386.2,159 
					386.2,161.4 388.6,161.4 388.6,163.9 386.2,163.9 386.2,166.3 391,166.3 391,163.9 393.4,163.9 393.4,166.3 398.3,166.3 
					398.3,163.9 395.9,163.9 395.9,159 398.3,159 398.3,161.4 400.7,161.4 400.7,159 403.1,159 403.1,163.9 400.7,163.9 
					400.7,166.3 403.1,166.3 403.1,171.1 400.7,171.1 400.7,168.7 395.9,168.7 395.9,171.1 398.3,171.1 398.3,173.5 395.9,173.5 
					395.9,176 400.7,176 400.7,173.5 403.1,173.5 403.1,178.4 400.7,178.4 400.7,180.8 403.1,180.8 403.1,185.7 400.7,185.7 
					400.7,183.2 398.3,183.2 398.3,185.7 395.9,185.7 395.9,180.8 398.3,180.8 398.3,178.4 391,178.4 391,180.8 393.4,180.8 
					393.4,185.7 391,185.7 391,183.2 388.6,183.2 388.6,185.7 386.2,185.7 386.2,180.8 388.6,180.8 388.6,178.4 386.2,178.4 
					386.2,173.5 388.6,173.5 388.6,176 393.4,176 393.4,173.5 391,173.5 391,171.1 393.4,171.1 393.4,168.7 388.6,168.7 
					388.6,171.1 386.2,171.1 386.2,168.7 381.3,168.7 381.3,171.1 383.8,171.1 383.8,176 381.3,176 381.3,173.5 378.9,173.5 
					378.9,176 376.5,176 376.5,171.1 378.9,171.1 378.9,168.7 374.1,168.7 374.1,171.1 371.6,171.1 371.6,168.7 366.8,168.7 
					366.8,171.1 369.2,171.1 369.2,173.5 366.8,173.5 366.8,176 371.6,176 371.6,173.5 374.1,173.5 374.1,180.8 371.6,180.8 
					371.6,178.4 366.8,178.4 366.8,180.8 369.2,180.8 369.2,183.2 366.8,183.2 366.8,185.7 371.6,185.7 371.6,183.2 374.1,183.2 
					374.1,185.7 378.9,185.7 378.9,183.2 376.5,183.2 376.5,178.4 378.9,178.4 378.9,180.8 381.3,180.8 381.3,178.4 383.8,178.4 
					383.8,183.2 381.3,183.2 381.3,185.7 383.8,185.7 383.8,188.1 381.3,188.1 381.3,190.5 383.8,190.5 383.8,195.4 381.3,195.4 
					381.3,192.9 378.9,192.9 378.9,195.4 376.5,195.4 376.5,190.5 378.9,190.5 378.9,188.1 374.1,188.1 374.1,190.5 371.6,190.5 
					371.6,188.1 366.8,188.1 366.8,190.5 369.2,190.5 369.2,192.9 366.8,192.9 366.8,195.4 371.6,195.4 371.6,192.9 374.1,192.9 
					374.1,200.2 371.6,200.2 371.6,197.8 366.8,197.8 366.8,200.2 369.2,200.2 369.2,202.6 366.8,202.6 366.8,205 371.6,205 
					371.6,202.6 374.1,202.6 374.1,205 378.9,205 378.9,202.6 376.5,202.6 376.5,197.8 378.9,197.8 378.9,200.2 381.3,200.2 
					381.3,197.8 383.8,197.8 383.8,202.6 381.3,202.6 381.3,205 386.2,205 386.2,202.6 388.6,202.6 388.6,205 393.4,205 
					393.4,202.6 391,202.6 391,200.2 393.4,200.2 393.4,197.8 388.6,197.8 388.6,200.2 386.2,200.2 386.2,195.4 388.6,195.4 
					388.6,192.9 386.2,192.9 386.2,188.1 388.6,188.1 388.6,190.5 391,190.5 391,188.1 393.4,188.1 393.4,192.9 391,192.9 
					391,195.4 398.3,195.4 398.3,192.9 395.9,192.9 395.9,188.1 398.3,188.1 398.3,190.5 400.7,190.5 400.7,188.1 403.1,188.1 
					403.1,192.9 400.7,192.9 400.7,195.4 403.1,195.4 403.1,200.2 400.7,200.2 400.7,197.8 395.9,197.8 395.9,200.2 398.3,200.2 
					398.3,202.6 395.9,202.6 395.9,205 400.7,205 400.7,202.6 403.1,202.6 403.1,205 				"/>
			</g>
		</g>
	</g>
</g>
<rect x="295.7" y="91.1" class="st8" width="18.6" height="11.1"/>
<g id="Page-1_1_">
	<g id="Final-Logos-outlined-Copy_2_" transform="translate(-323.000000, -488.000000)">
		<g id="Hex-white_2_" transform="translate(323.000000, 488.000000)">
			<g id="Group_2_" transform="translate(85.000000, 11.000000)">
				<path id="isaac_1_" class="st31" d="M233.9,77.7c-0.2,0-0.4-0.2-0.4-0.4c0-0.2,0.2-0.3,0.4-0.3c0.2,0,0.3,0.2,0.3,0.3
					C234.3,77.6,234.1,77.7,233.9,77.7z M233.9,81.7L233.9,81.7c-0.2,0-0.3-0.1-0.3-0.2v-2.8c0-0.2,0.1-0.2,0.2-0.2h0
					c0.2,0,0.2,0.1,0.2,0.2v2.8C234.2,81.6,234.1,81.7,233.9,81.7z M237.1,79.2c-0.1,0-0.2-0.1-0.3-0.2c-0.1-0.1-0.3-0.2-0.6-0.2
					c-0.4,0-0.7,0.2-0.7,0.4s0.2,0.4,0.8,0.5c0.8,0.2,1.2,0.5,1.2,1c0,0.6-0.4,1-1.3,1c-0.6,0-1.1-0.3-1.2-0.7
					c-0.1-0.2,0.1-0.3,0.2-0.3c0.1,0,0.2,0.1,0.3,0.2c0.1,0.2,0.4,0.3,0.7,0.3c0.5,0,0.8-0.2,0.8-0.5c0-0.3-0.2-0.4-0.8-0.5
					c-0.8-0.2-1.1-0.4-1.1-1c0-0.5,0.4-0.9,1.1-0.9c0.5,0,0.9,0.2,1.1,0.6C237.4,79.1,237.3,79.2,237.1,79.2z M239.8,81.7
					c-0.9,0-1.7-0.8-1.7-1.7c0-0.9,0.8-1.7,1.7-1.7c0.5,0,0.9,0.2,1.2,0.6v-0.3c0-0.2,0.1-0.2,0.2-0.2h0c0.2,0,0.2,0.1,0.2,0.2v2.8
					c0,0.2-0.1,0.2-0.2,0.2h0c-0.2,0-0.2-0.1-0.2-0.2v-0.3C240.7,81.5,240.3,81.7,239.8,81.7z M239.8,81.3c0.6,0,1.2-0.6,1.2-1.2
					c0-0.7-0.6-1.2-1.2-1.2c-0.7,0-1.2,0.5-1.2,1.2C238.6,80.7,239.1,81.3,239.8,81.3z M244,81.7c-0.9,0-1.7-0.8-1.7-1.7
					c0-0.9,0.8-1.7,1.7-1.7c0.5,0,0.9,0.2,1.2,0.6v-0.3c0-0.2,0.1-0.2,0.2-0.2h0c0.2,0,0.2,0.1,0.2,0.2v2.8c0,0.2-0.1,0.2-0.2,0.2h0
					c-0.2,0-0.2-0.1-0.2-0.2v-0.3C244.9,81.5,244.5,81.7,244,81.7z M244,81.3c0.6,0,1.2-0.6,1.2-1.2c0-0.7-0.6-1.2-1.2-1.2
					c-0.7,0-1.2,0.5-1.2,1.2C242.8,80.7,243.3,81.3,244,81.3z M249.5,79.5L249.5,79.5c-0.2,0-0.3-0.1-0.3-0.2
					c-0.2-0.3-0.5-0.5-0.9-0.5c-0.7,0-1.2,0.5-1.2,1.2c0,0.6,0.5,1.2,1.2,1.2c0.4,0,0.7-0.2,0.9-0.5c0.1-0.1,0.2-0.2,0.3-0.2h0.1
					c0.2,0,0.3,0.1,0.2,0.3c-0.3,0.5-0.8,0.8-1.5,0.8c-0.9,0-1.7-0.8-1.7-1.7c0-0.9,0.8-1.7,1.7-1.7c0.6,0,1.2,0.3,1.5,0.8
					C249.7,79.3,249.7,79.5,249.5,79.5z"/>
				<path id="computer_1_" class="st31" d="M236.2,85L236.2,85c-0.2,0-0.3-0.1-0.3-0.2c-0.2-0.3-0.5-0.5-0.9-0.5
					c-0.7,0-1.2,0.5-1.2,1.2c0,0.6,0.5,1.2,1.2,1.2c0.4,0,0.7-0.2,0.9-0.5c0.1-0.1,0.2-0.2,0.3-0.2h0.1c0.2,0,0.3,0.1,0.2,0.3
					c-0.3,0.5-0.8,0.8-1.5,0.8c-0.9,0-1.7-0.8-1.7-1.7c0-0.9,0.8-1.7,1.7-1.7c0.6,0,1.2,0.3,1.5,0.8C236.5,84.9,236.4,85,236.2,85z
					 M238.8,87.3c-0.9,0-1.7-0.8-1.7-1.7c0-0.9,0.8-1.7,1.7-1.7c0.9,0,1.7,0.8,1.7,1.7C240.5,86.5,239.7,87.3,238.8,87.3z
					 M238.8,84.4c-0.7,0-1.2,0.5-1.2,1.2c0,0.6,0.5,1.2,1.2,1.2c0.7,0,1.2-0.6,1.2-1.2C240,84.9,239.5,84.4,238.8,84.4z M245,83.9
					c0.8,0,1.2,0.4,1.2,1.5V87c0,0.2-0.1,0.2-0.2,0.2h0c-0.2,0-0.2-0.1-0.2-0.2v-1.6c0-0.6-0.2-1-0.7-1c-0.6,0-1,0.3-1,1.1V87
					c0,0.2-0.1,0.2-0.2,0.2h0c-0.2,0-0.2-0.1-0.2-0.2v-1.6c0-0.6-0.2-1-0.7-1c-0.6,0-1,0.3-1,1.1V87c0,0.2-0.1,0.2-0.2,0.2h0
					c-0.2,0-0.2-0.1-0.2-0.2v-2.8c0-0.2,0.1-0.2,0.2-0.2h0c0.2,0,0.2,0.1,0.2,0.2v0.2c0.2-0.3,0.6-0.4,1-0.4c0.6,0,0.9,0.2,1.1,0.6
					C244.1,84.1,244.5,83.9,245,83.9z M248.9,83.9c0.9,0,1.7,0.8,1.7,1.7c0,0.9-0.8,1.7-1.7,1.7c-0.5,0-0.9-0.2-1.2-0.6v1.5
					c0,0.2-0.1,0.2-0.2,0.2h0c-0.2,0-0.2-0.1-0.2-0.2v-4c0-0.2,0.1-0.2,0.2-0.2h0c0.2,0,0.2,0.1,0.2,0.2v0.3
					C248,84.1,248.4,83.9,248.9,83.9z M249,86.8c0.7,0,1.2-0.6,1.2-1.2c0-0.7-0.5-1.2-1.2-1.2c-0.6,0-1.2,0.5-1.2,1.2
					C247.7,86.2,248.3,86.8,249,86.8z M254,83.9L254,83.9c0.2,0,0.3,0.1,0.3,0.2V87c0,0.2-0.1,0.2-0.2,0.2h0c-0.2,0-0.2-0.1-0.2-0.2
					v-0.2c-0.3,0.3-0.6,0.4-1.1,0.4c-0.9,0-1.3-0.4-1.3-1.5v-1.6c0-0.2,0.1-0.2,0.2-0.2h0c0.2,0,0.2,0.1,0.2,0.2v1.6
					c0,0.6,0.3,1,0.8,1c0.7,0,1.1-0.4,1.1-1.1v-1.5C253.8,84,253.8,83.9,254,83.9z M256.8,84.2c0,0.1-0.1,0.2-0.2,0.2H256V87
					c0,0.2-0.1,0.2-0.2,0.2h0c-0.2,0-0.2-0.1-0.2-0.2v-2.6h-0.3c-0.2,0-0.2-0.1-0.2-0.2c0-0.1,0.1-0.2,0.2-0.2h0.3v-1
					c0-0.2,0.1-0.2,0.2-0.2h0c0.2,0,0.2,0.1,0.2,0.2v1h0.5C256.7,83.9,256.8,84,256.8,84.2z M260.6,85.6v0.1c0,0.1-0.1,0.1-0.2,0.1
					h-2.6c0.1,0.5,0.6,1,1.2,1c0.3,0,0.6-0.1,0.8-0.3c0.1-0.1,0.2-0.1,0.3-0.1h0.1c0.2,0,0.3,0.1,0.2,0.3c-0.3,0.4-0.8,0.7-1.3,0.7
					c-0.9,0-1.7-0.8-1.7-1.7c0-0.9,0.8-1.7,1.7-1.7S260.6,84.7,260.6,85.6z M258.9,84.4c-0.6,0-1,0.4-1.2,1h2.3
					C260,84.8,259.5,84.4,258.9,84.4z M262,84.2v0.2c0.2-0.2,0.5-0.4,0.9-0.5c0.2,0,0.2,0.1,0.2,0.2v0c0,0.2-0.1,0.2-0.2,0.3
					c-0.5,0.1-0.9,0.4-0.9,1V87c0,0.2-0.1,0.2-0.2,0.2h0c-0.2,0-0.2-0.1-0.2-0.2v-2.8c0-0.2,0.1-0.2,0.2-0.2h0
					C261.9,83.9,262,84,262,84.2z"/>
				<path id="science_1_" class="st31" d="M235.3,90.5c-0.1,0-0.2-0.1-0.3-0.2c-0.1-0.1-0.3-0.2-0.6-0.2c-0.4,0-0.7,0.2-0.7,0.4
					s0.2,0.4,0.8,0.5c0.8,0.2,1.2,0.5,1.2,1c0,0.6-0.4,1-1.3,1c-0.6,0-1.1-0.3-1.2-0.7c-0.1-0.2,0.1-0.3,0.2-0.3
					c0.1,0,0.2,0.1,0.3,0.2c0.1,0.2,0.4,0.3,0.7,0.3c0.5,0,0.8-0.2,0.8-0.5c0-0.3-0.2-0.4-0.8-0.5c-0.8-0.2-1.1-0.4-1.1-1
					c0-0.5,0.4-0.9,1.1-0.9c0.5,0,0.9,0.2,1.1,0.6C235.6,90.4,235.5,90.5,235.3,90.5z M239.3,90.7L239.3,90.7
					c-0.2,0-0.3-0.1-0.3-0.2c-0.2-0.3-0.5-0.5-0.9-0.5c-0.7,0-1.2,0.5-1.2,1.2c0,0.6,0.5,1.2,1.2,1.2c0.4,0,0.7-0.2,0.9-0.5
					c0.1-0.1,0.2-0.2,0.3-0.2h0.1c0.2,0,0.3,0.1,0.2,0.3c-0.3,0.5-0.8,0.8-1.5,0.8c-0.9,0-1.7-0.8-1.7-1.7c0-0.9,0.8-1.7,1.7-1.7
					c0.6,0,1.2,0.3,1.5,0.8C239.6,90.6,239.5,90.7,239.3,90.7z M240.8,89c-0.2,0-0.4-0.2-0.4-0.4c0-0.2,0.2-0.3,0.4-0.3
					c0.2,0,0.3,0.2,0.3,0.3C241.1,88.9,240.9,89,240.8,89z M240.8,92.9L240.8,92.9c-0.2,0-0.3-0.1-0.3-0.2v-2.8
					c0-0.2,0.1-0.2,0.2-0.2h0c0.2,0,0.2,0.1,0.2,0.2v2.8C241,92.9,240.9,92.9,240.8,92.9z M245.3,91.3v0.1c0,0.1-0.1,0.1-0.2,0.1
					h-2.6c0.1,0.5,0.6,1,1.2,1c0.3,0,0.6-0.1,0.8-0.3c0.1-0.1,0.2-0.1,0.3-0.1h0.1c0.2,0,0.3,0.1,0.2,0.3c-0.3,0.4-0.8,0.7-1.3,0.7
					c-0.9,0-1.7-0.8-1.7-1.7c0-0.9,0.8-1.7,1.7-1.7C244.5,89.6,245.3,90.4,245.3,91.3z M243.6,90.1c-0.6,0-1,0.4-1.2,1h2.3
					C244.6,90.5,244.1,90.1,243.6,90.1z M246.4,92.9L246.4,92.9c-0.2,0-0.3-0.1-0.3-0.2v-2.8c0-0.2,0.1-0.2,0.2-0.2h0
					c0.2,0,0.2,0.1,0.2,0.2v0.2c0.3-0.3,0.6-0.4,1.1-0.4c0.9,0,1.3,0.4,1.3,1.5v1.6c0,0.2-0.1,0.2-0.2,0.2h0c-0.2,0-0.2-0.1-0.2-0.2
					v-1.6c0-0.6-0.3-1-0.8-1c-0.7,0-1.1,0.4-1.1,1.1v1.5C246.6,92.9,246.5,92.9,246.4,92.9z M252.7,90.7L252.7,90.7
					c-0.2,0-0.3-0.1-0.3-0.2c-0.2-0.3-0.5-0.5-0.9-0.5c-0.7,0-1.2,0.5-1.2,1.2c0,0.6,0.5,1.2,1.2,1.2c0.4,0,0.7-0.2,0.9-0.5
					c0.1-0.1,0.2-0.2,0.3-0.2h0.1c0.2,0,0.3,0.1,0.2,0.3c-0.3,0.5-0.8,0.8-1.5,0.8c-0.9,0-1.7-0.8-1.7-1.7c0-0.9,0.8-1.7,1.7-1.7
					c0.6,0,1.2,0.3,1.5,0.8C253,90.6,252.9,90.7,252.7,90.7z M257,91.3v0.1c0,0.1-0.1,0.1-0.2,0.1h-2.6c0.1,0.5,0.6,1,1.2,1
					c0.3,0,0.6-0.1,0.8-0.3c0.1-0.1,0.2-0.1,0.3-0.1h0.1c0.2,0,0.3,0.1,0.2,0.3c-0.3,0.4-0.8,0.7-1.3,0.7c-0.9,0-1.7-0.8-1.7-1.7
					c0-0.9,0.8-1.7,1.7-1.7C256.3,89.6,257,90.4,257,91.3z M255.3,90.1c-0.6,0-1,0.4-1.2,1h2.3C256.4,90.5,255.9,90.1,255.3,90.1z"
					/>
			</g>
			<g id="Logo-mark_2_">
				<path id="Combined-Shape_2_" class="st31" d="M305,108.4l-10.2-5.8l0-11.7L305,85l10.2,5.8l0,11.7L305,108.4z M312.7,92.4
					c-0.5,0-0.8,0.4-0.8,0.8c0,0.5,0.4,0.8,0.8,0.8c0.5,0,0.8-0.4,0.8-0.8C313.6,92.8,313.2,92.4,312.7,92.4z M309.7,92.4
					c-0.5,0-0.8,0.4-0.8,0.8c0,0.5,0.4,0.8,0.8,0.8c0.5,0,0.8-0.4,0.8-0.8C310.5,92.8,310.2,92.4,309.7,92.4z M312.7,95.7
					c-0.5,0-0.8,0.4-0.8,0.8c0,0.5,0.4,0.8,0.8,0.8c0.5,0,0.8-0.4,0.8-0.8C313.6,96.1,313.2,95.7,312.7,95.7z M309.8,95.7h-3.1
					c-0.4,0-0.8,0.4-0.8,0.8c0,0.5,0.3,0.8,0.8,0.8h3.1c0.4,0,0.8-0.4,0.8-0.8C310.5,96.1,310.2,95.7,309.8,95.7z M303.7,95.7
					c-0.5,0-0.8,0.4-0.8,0.8c0,0.5,0.4,0.8,0.8,0.8c0.5,0,0.8-0.4,0.8-0.8C304.5,96.1,304.1,95.7,303.7,95.7z M300.7,95.7h-3.1
					c-0.4,0-0.8,0.4-0.8,0.8c0,0.5,0.3,0.8,0.8,0.8h3.1c0.4,0,0.8-0.4,0.8-0.8C301.5,96.1,301.1,95.7,300.7,95.7z M312.7,99
					c-0.5,0-0.8,0.4-0.8,0.8c0,0.5,0.4,0.8,0.8,0.8c0.5,0,0.8-0.4,0.8-0.8C313.6,99.4,313.2,99,312.7,99z M306.7,99
					c-0.5,0-0.8,0.4-0.8,0.8c0,0.5,0.4,0.8,0.8,0.8c0.5,0,0.8-0.4,0.8-0.8C307.5,99.4,307.1,99,306.7,99z M309.7,99
					c-0.5,0-0.8,0.4-0.8,0.8c0,0.5,0.4,0.8,0.8,0.8c0.5,0,0.8-0.4,0.8-0.8C310.5,99.4,310.2,99,309.7,99z"/>
			</g>
		</g>
	</g>
</g>
<rect x="191.5" y="31.1" class="st64" width="0" height="138.1"/>
<rect x="24.3" y="21.8" width="66.5" height="18.6"/>
<text transform="matrix(1 0 0 1 31.4657 34.7313)" class="st10 st65 st66">Initial deal</text>
<g>
	<path d="M30.3,71.4c0,0.1,0,0.1,0,0.2c0,0.3,0.1,0.6,0.1,0.9c0.2,0.6,0.5,1.1,1.1,1.5c0.2,0.1,0.4,0.2,0.6,0.2
		c0.2,0.1,0.4,0.1,0.6,0.2c0.1,0,0.1,0,0.2,0.1c0,0.1,0,0.1,0,0.1c-0.1,0-0.2,0-0.3,0c-0.4,0-0.8,0-1.2,0c-0.8,0-1.6,0-2.4,0
		c-0.4,0-0.8,0-1.2,0c0,0-0.1,0-0.1,0c0,0,0,0,0,0c0,0,0-0.1,0.1-0.1c0.1,0,0.2-0.1,0.2-0.1c0.2-0.1,0.4-0.1,0.6-0.2
		c0.4-0.1,0.8-0.4,1-0.7c0.3-0.4,0.5-0.8,0.5-1.3c0-0.2,0-0.4,0-0.6c0,0,0,0,0-0.1c0,0,0,0,0,0c0,0,0,0,0,0c0,0,0,0,0,0
		c-0.1,0.2-0.2,0.4-0.4,0.5c-0.3,0.4-0.8,0.7-1.3,0.8c-0.7,0.1-1.5-0.2-1.8-0.9c-0.1-0.1-0.1-0.2-0.2-0.4c-0.1-0.2-0.1-0.4,0-0.6
		c0-0.4,0.2-0.8,0.5-1c0.1-0.2,0.3-0.3,0.5-0.4c0.1-0.1,0.2-0.1,0.3-0.1c0.2,0,0.5,0,0.7,0.1c0.1,0,0.2,0.1,0.3,0.1c0,0,0.1,0,0.1,0
		c0,0,0,0,0,0c0-0.1,0-0.1-0.1-0.1c0-0.1-0.1-0.2-0.2-0.3c-0.1-0.2-0.1-0.4-0.1-0.7c0-0.2,0.1-0.5,0.2-0.7c0.2-0.4,0.6-0.7,1-0.8
		c0.3-0.1,0.7-0.1,1,0c0.5,0.2,0.8,0.5,1,0.9c0.1,0.2,0.1,0.4,0.1,0.6c0,0.2,0,0.4-0.1,0.6c-0.1,0.1-0.1,0.3-0.2,0.4
		c0,0,0,0.1,0,0.1c0,0,0,0,0.1,0c0.1,0,0.2-0.1,0.4-0.2c0.5-0.2,1-0.1,1.4,0.2c0.3,0.2,0.5,0.6,0.6,0.9c0.1,0.2,0,0.4,0,0.7
		c0,0.1,0,0.2-0.1,0.4c-0.2,0.4-0.4,0.7-0.8,0.9c-0.5,0.3-0.9,0.3-1.4,0.1c-0.5-0.2-0.8-0.4-1.1-0.8C30.5,71.8,30.5,71.6,30.3,71.4
		C30.3,71.5,30.3,71.4,30.3,71.4z"/>
</g>
<g>
	<path d="M85.3,133.8c0-0.1,0-0.1,0-0.2c0-0.3-0.1-0.6-0.1-0.9c-0.2-0.6-0.5-1.1-1.1-1.5c-0.2-0.1-0.4-0.2-0.6-0.2
		c-0.2-0.1-0.4-0.1-0.6-0.2c-0.1,0-0.1,0-0.2-0.1c0-0.1,0-0.1,0-0.1c0.1,0,0.2,0,0.3,0c0.4,0,0.8,0,1.2,0c0.8,0,1.6,0,2.4,0
		c0.4,0,0.8,0,1.2,0c0,0,0.1,0,0.1,0c0,0,0,0,0,0c0,0,0,0.1-0.1,0.1c-0.1,0-0.2,0.1-0.2,0.1c-0.2,0.1-0.4,0.1-0.6,0.2
		c-0.4,0.1-0.8,0.4-1,0.7c-0.3,0.4-0.5,0.8-0.5,1.3c0,0.2,0,0.4,0,0.6c0,0,0,0,0,0.1c0,0,0,0,0,0c0,0,0,0,0,0c0,0,0,0,0,0
		c0.1-0.2,0.2-0.4,0.4-0.5c0.3-0.4,0.8-0.7,1.3-0.8c0.7-0.1,1.5,0.2,1.8,0.9c0.1,0.1,0.1,0.2,0.2,0.4c0.1,0.2,0.1,0.4,0,0.6
		c0,0.4-0.2,0.8-0.5,1c-0.1,0.2-0.3,0.3-0.5,0.4c-0.1,0.1-0.2,0.1-0.3,0.1c-0.2,0-0.5,0-0.7-0.1c-0.1,0-0.2-0.1-0.3-0.1
		c0,0-0.1,0-0.1,0c0,0,0,0,0,0c0,0.1,0,0.1,0.1,0.1c0,0.1,0.1,0.2,0.2,0.3c0.1,0.2,0.1,0.4,0.1,0.7c0,0.2-0.1,0.5-0.2,0.7
		c-0.2,0.4-0.6,0.7-1,0.8c-0.3,0.1-0.7,0.1-1,0c-0.5-0.2-0.8-0.5-1-0.9c-0.1-0.2-0.1-0.4-0.1-0.6c0-0.2,0-0.4,0.1-0.6
		c0.1-0.1,0.1-0.3,0.2-0.4c0,0,0-0.1,0-0.1c0,0,0,0-0.1,0c-0.1,0-0.2,0.1-0.4,0.2c-0.5,0.2-1,0.1-1.4-0.2c-0.3-0.2-0.5-0.6-0.6-0.9
		c-0.1-0.2,0-0.4,0-0.7c0-0.1,0-0.2,0.1-0.4c0.2-0.4,0.4-0.7,0.8-0.9c0.5-0.3,0.9-0.3,1.4-0.1c0.5,0.2,0.8,0.4,1.1,0.8
		C85,133.4,85.1,133.6,85.3,133.8C85.2,133.7,85.2,133.8,85.3,133.8z"/>
</g>
<g>
	<path d="M43.9,81.4c0,0.1,0,0.3,0,0.4c0.1,0.7,0.1,1.4,0.3,2.1c0.4,1.6,1.3,2.8,2.6,3.6c0.4,0.3,0.9,0.4,1.4,0.6
		c0.5,0.1,0.9,0.3,1.4,0.4c0.2,0,0.3,0.1,0.4,0.2c0.1,0.1,0.1,0.2-0.1,0.2c-0.2,0.1-0.5,0.1-0.7,0.1c-1,0-1.9,0-2.9,0
		c-2,0-3.9,0-5.9,0c-0.9,0-1.9,0-2.8,0c-0.1,0-0.2,0-0.3,0c-0.1,0-0.1,0-0.1-0.1c0-0.1,0.1-0.2,0.2-0.2c0.2-0.1,0.4-0.2,0.6-0.3
		c0.5-0.2,1-0.3,1.6-0.5c1-0.3,1.8-0.9,2.5-1.8c0.7-0.9,1.1-1.9,1.3-3.1c0.1-0.5,0.1-1,0.1-1.4c0-0.1,0-0.1,0-0.2c0,0,0-0.1,0-0.1
		c0,0-0.1,0-0.1,0.1c0,0,0,0.1-0.1,0.1c-0.3,0.4-0.5,0.9-0.9,1.3c-0.8,1-1.9,1.7-3.2,2c-1.8,0.3-3.7-0.6-4.5-2.2
		c-0.1-0.3-0.3-0.6-0.4-0.9c-0.1-0.5-0.1-0.9-0.1-1.4c0.1-1,0.6-1.8,1.2-2.6c0.4-0.4,0.8-0.7,1.2-0.9c0.3-0.1,0.5-0.2,0.8-0.2
		c0.6,0,1.2,0.1,1.7,0.2c0.3,0.1,0.5,0.2,0.7,0.3c0.1,0,0.1,0,0.2,0.1c0.1,0,0.1,0,0.1-0.1c0-0.1-0.1-0.2-0.1-0.4
		c-0.1-0.3-0.3-0.5-0.4-0.8c-0.2-0.5-0.3-1.1-0.2-1.6c0.1-0.6,0.2-1.2,0.5-1.7c0.5-1.1,1.4-1.7,2.5-2c0.8-0.2,1.7-0.2,2.5,0.1
		c1.1,0.4,1.9,1.2,2.3,2.3c0.2,0.5,0.3,1,0.3,1.5c0,0.6-0.1,1.1-0.3,1.6c-0.1,0.3-0.3,0.6-0.4,0.9c0,0.1-0.1,0.1,0,0.2
		c0,0,0.1,0,0.2,0c0.3-0.1,0.6-0.3,0.9-0.4c1.3-0.4,2.4-0.2,3.4,0.6c0.7,0.6,1.2,1.4,1.4,2.3c0.1,0.5,0.1,1.1,0.1,1.6
		c0,0.3-0.1,0.6-0.2,0.9c-0.4,0.9-1,1.7-1.9,2.2c-1.1,0.7-2.3,0.8-3.5,0.3c-1.1-0.4-2-1.1-2.7-2c-0.3-0.3-0.5-0.7-0.7-1.1
		C44,81.6,43.9,81.5,43.9,81.4z"/>
</g>
<g>
	<path d="M73.9,81.4c0,0.1,0,0.3,0,0.4c0.1,0.7,0.1,1.4,0.3,2.1c0.4,1.6,1.3,2.8,2.6,3.6c0.4,0.3,0.9,0.4,1.4,0.6
		c0.5,0.1,0.9,0.3,1.4,0.4c0.2,0,0.3,0.1,0.4,0.2c0.1,0.1,0.1,0.2-0.1,0.2c-0.2,0.1-0.5,0.1-0.7,0.1c-1,0-1.9,0-2.9,0
		c-2,0-3.9,0-5.9,0c-0.9,0-1.9,0-2.8,0c-0.1,0-0.2,0-0.3,0c-0.1,0-0.1,0-0.1-0.1c0-0.1,0.1-0.2,0.2-0.2c0.2-0.1,0.4-0.2,0.6-0.3
		c0.5-0.2,1-0.3,1.6-0.5c1-0.3,1.8-0.9,2.5-1.8c0.7-0.9,1.1-1.9,1.3-3.1c0.1-0.5,0.1-1,0.1-1.4c0-0.1,0-0.1,0-0.2c0,0,0-0.1,0-0.1
		c0,0-0.1,0-0.1,0.1c0,0,0,0.1-0.1,0.1c-0.3,0.4-0.5,0.9-0.9,1.3c-0.8,1-1.9,1.7-3.2,2c-1.8,0.3-3.7-0.6-4.5-2.2
		c-0.1-0.3-0.3-0.6-0.4-0.9c-0.1-0.5-0.1-0.9-0.1-1.4c0.1-1,0.6-1.8,1.2-2.6c0.4-0.4,0.8-0.7,1.2-0.9c0.3-0.1,0.5-0.2,0.8-0.2
		c0.6,0,1.2,0.1,1.7,0.2c0.3,0.1,0.5,0.2,0.7,0.3c0.1,0,0.1,0,0.2,0.1c0.1,0,0.1,0,0.1-0.1c0-0.1-0.1-0.2-0.1-0.4
		c-0.1-0.3-0.3-0.5-0.4-0.8c-0.2-0.5-0.3-1.1-0.2-1.6c0.1-0.6,0.2-1.2,0.5-1.7c0.5-1.1,1.4-1.7,2.5-2c0.8-0.2,1.7-0.2,2.5,0.1
		c1.1,0.4,1.9,1.2,2.3,2.3c0.2,0.5,0.3,1,0.3,1.5c0,0.6-0.1,1.1-0.3,1.6c-0.1,0.3-0.3,0.6-0.4,0.9c0,0.1-0.1,0.1,0,0.2
		c0,0,0.1,0,0.2,0c0.3-0.1,0.6-0.3,0.9-0.4c1.3-0.4,2.4-0.2,3.4,0.6c0.7,0.6,1.2,1.4,1.4,2.3c0.1,0.5,0.1,1.1,0.1,1.6
		c0,0.3-0.1,0.6-0.2,0.9c-0.4,0.9-1,1.7-1.9,2.2c-1.1,0.7-2.3,0.8-3.5,0.3c-1.1-0.4-2-1.1-2.7-2c-0.3-0.3-0.5-0.7-0.7-1.1
		C74,81.6,73.9,81.5,73.9,81.4z"/>
</g>
<g>
	<path d="M73.5,121.2c0-0.1,0-0.3,0-0.4c-0.1-0.7-0.1-1.4-0.3-2.1c-0.4-1.6-1.3-2.8-2.6-3.6c-0.4-0.3-0.9-0.4-1.4-0.6
		c-0.5-0.1-0.9-0.3-1.4-0.4c-0.2,0-0.3-0.1-0.4-0.2c-0.1-0.1-0.1-0.2,0.1-0.2c0.2-0.1,0.5-0.1,0.7-0.1c1,0,1.9,0,2.9,0
		c2,0,3.9,0,5.9,0c0.9,0,1.9,0,2.8,0c0.1,0,0.2,0,0.3,0c0.1,0,0.1,0,0.1,0.1c0,0.1-0.1,0.2-0.2,0.2c-0.2,0.1-0.4,0.2-0.6,0.3
		c-0.5,0.2-1,0.3-1.6,0.5c-1,0.3-1.8,0.9-2.5,1.8c-0.7,0.9-1.1,1.9-1.3,3.1c-0.1,0.5-0.1,1-0.1,1.4c0,0.1,0,0.1,0,0.2
		c0,0,0,0.1,0,0.1c0,0,0.1,0,0.1-0.1c0,0,0-0.1,0.1-0.1c0.3-0.4,0.5-0.9,0.9-1.3c0.8-1,1.9-1.7,3.2-2c1.8-0.3,3.7,0.6,4.5,2.2
		c0.1,0.3,0.3,0.6,0.4,0.9c0.1,0.5,0.1,0.9,0.1,1.4c-0.1,1-0.6,1.8-1.2,2.6c-0.4,0.4-0.8,0.7-1.2,0.9c-0.3,0.1-0.5,0.2-0.8,0.2
		c-0.6,0-1.2-0.1-1.7-0.2c-0.3-0.1-0.5-0.2-0.7-0.3c-0.1,0-0.1,0-0.2-0.1c-0.1,0-0.1,0-0.1,0.1c0,0.1,0.1,0.2,0.1,0.4
		c0.1,0.3,0.3,0.5,0.4,0.8c0.2,0.5,0.3,1.1,0.2,1.6c-0.1,0.6-0.2,1.2-0.5,1.7c-0.5,1.1-1.4,1.7-2.5,2c-0.8,0.2-1.7,0.2-2.5-0.1
		c-1.1-0.4-1.9-1.2-2.3-2.3c-0.2-0.5-0.3-1-0.3-1.5c0-0.6,0.1-1.1,0.3-1.6c0.1-0.3,0.3-0.6,0.4-0.9c0-0.1,0.1-0.1,0-0.2
		c0,0-0.1,0-0.2,0c-0.3,0.1-0.6,0.3-0.9,0.4c-1.3,0.4-2.4,0.2-3.4-0.6c-0.7-0.6-1.2-1.4-1.4-2.3c-0.1-0.5-0.1-1.1-0.1-1.6
		c0-0.3,0.1-0.6,0.2-0.9c0.4-0.9,1-1.7,1.9-2.2c1.1-0.7,2.3-0.8,3.5-0.3c1.1,0.4,2,1.1,2.7,2c0.3,0.3,0.5,0.7,0.7,1.1
		C73.4,121.1,73.5,121.2,73.5,121.2z"/>
</g>
<g>
	<path d="M43.5,121.2c0-0.1,0-0.3,0-0.4c-0.1-0.7-0.1-1.4-0.3-2.1c-0.4-1.6-1.3-2.8-2.6-3.6c-0.4-0.3-0.9-0.4-1.4-0.6
		c-0.5-0.1-0.9-0.3-1.4-0.4c-0.2,0-0.3-0.1-0.4-0.2c-0.1-0.1-0.1-0.2,0.1-0.2c0.2-0.1,0.5-0.1,0.7-0.1c1,0,1.9,0,2.9,0
		c2,0,3.9,0,5.9,0c0.9,0,1.9,0,2.8,0c0.1,0,0.2,0,0.3,0c0.1,0,0.1,0,0.1,0.1c0,0.1-0.1,0.2-0.2,0.2c-0.2,0.1-0.4,0.2-0.6,0.3
		c-0.5,0.2-1,0.3-1.6,0.5c-1,0.3-1.8,0.9-2.5,1.8c-0.7,0.9-1.1,1.9-1.3,3.1c-0.1,0.5-0.1,1-0.1,1.4c0,0.1,0,0.1,0,0.2
		c0,0,0,0.1,0,0.1c0,0,0.1,0,0.1-0.1c0,0,0-0.1,0.1-0.1c0.3-0.4,0.5-0.9,0.9-1.3c0.8-1,1.9-1.7,3.2-2c1.8-0.3,3.7,0.6,4.5,2.2
		c0.1,0.3,0.3,0.6,0.4,0.9c0.1,0.5,0.1,0.9,0.1,1.4c-0.1,1-0.6,1.8-1.2,2.6c-0.4,0.4-0.8,0.7-1.2,0.9c-0.3,0.1-0.5,0.2-0.8,0.2
		c-0.6,0-1.2-0.1-1.7-0.2c-0.3-0.1-0.5-0.2-0.7-0.3c-0.1,0-0.1,0-0.2-0.1c-0.1,0-0.1,0-0.1,0.1c0,0.1,0.1,0.2,0.1,0.4
		c0.1,0.3,0.3,0.5,0.4,0.8c0.2,0.5,0.3,1.1,0.2,1.6c-0.1,0.6-0.2,1.2-0.5,1.7c-0.5,1.1-1.4,1.7-2.5,2c-0.8,0.2-1.7,0.2-2.5-0.1
		c-1.1-0.4-1.9-1.2-2.3-2.3c-0.2-0.5-0.3-1-0.3-1.5c0-0.6,0.1-1.1,0.3-1.6c0.1-0.3,0.3-0.6,0.4-0.9c0-0.1,0.1-0.1,0-0.2
		c0,0-0.1,0-0.2,0c-0.3,0.1-0.6,0.3-0.9,0.4c-1.3,0.4-2.4,0.2-3.4-0.6c-0.7-0.6-1.2-1.4-1.4-2.3c-0.1-0.5-0.1-1.1-0.1-1.6
		c0-0.3,0.1-0.6,0.2-0.9c0.4-0.9,1-1.7,1.9-2.2c1.1-0.7,2.3-0.8,3.5-0.3c1.1,0.4,2,1.1,2.7,2c0.3,0.3,0.5,0.7,0.7,1.1
		C43.4,121.1,43.5,121.2,43.5,121.2z"/>
</g>
<text transform="matrix(1 0 0 1 80.0935 171.9033)"><tspan x="0" y="0" class="st65 st67">Player hand</tspan><tspan x="6.1" y="8.4" class="st65 st67">value 14</tspan></text>
<text transform="matrix(1 0 0 1 279.5311 171.9033)" class="st65 st67">AI</text>
<g>
	<defs>
		<path id="XMLID_38_" d="M249.8,74.1c2.3-2.2,2.3-5.4,0.3-7.5c-2-2.1-5.2-2.1-7.3-0.2c-2-2.1-5.2-2.1-7.3-0.2c-2.1,2-2.2,5.2,0,7.5
			l6.8,7.1c0.1,0.1,0.3,0.1,0.5,0L249.8,74.1z"/>
	</defs>
	<use xlink:href="#XMLID_38_"  style="overflow:visible;fill:#E72B78;"/>
	<clipPath id="XMLID_44_">
		<use xlink:href="#XMLID_38_"  style="overflow:visible;"/>
	</clipPath>
</g>
<g>
	<defs>
		<path id="XMLID_37_" d="M249.8,103.9c2.3-2.2,2.3-5.4,0.3-7.5c-2-2.1-5.2-2.1-7.3-0.2c-2-2.1-5.2-2.1-7.3-0.2
			c-2.1,2-2.2,5.2,0,7.5l6.8,7.1c0.1,0.1,0.3,0.1,0.5,0L249.8,103.9z"/>
	</defs>
	<use xlink:href="#XMLID_37_"  style="overflow:visible;fill:#E72B78;"/>
	<clipPath id="XMLID_45_">
		<use xlink:href="#XMLID_37_"  style="overflow:visible;"/>
	</clipPath>
</g>
<g>
	<defs>
		<path id="XMLID_15_" d="M235.7,130.7c-2.3,2.2-2.3,5.4-0.3,7.5c2,2.1,5.2,2.1,7.3,0.2c2,2.1,5.2,2.1,7.3,0.2c2.1-2,2.2-5.2,0-7.5
			l-6.8-7.1c-0.1-0.1-0.3-0.1-0.5,0L235.7,130.7z"/>
	</defs>
	<use xlink:href="#XMLID_15_"  style="overflow:visible;fill:#E72B78;"/>
	<clipPath id="XMLID_46_">
		<use xlink:href="#XMLID_15_"  style="overflow:visible;"/>
	</clipPath>
</g>
</svg>
