<?xml version="1.0" encoding="utf-8"?>
<!-- Generator: Adobe Illustrator 24.0.1, SVG Export Plug-In . SVG Version: 6.00 Build 0)  -->
<svg version="1.1" id="Layer_3" xmlns="http://www.w3.org/2000/svg" xmlns:xlink="http://www.w3.org/1999/xlink" x="0px" y="0px"
	 viewBox="0 0 383 200.3" style="enable-background:new 0 0 383 200.3;" xml:space="preserve">
<style type="text/css">
	.st0{fill:#EEEFED;}
	.st1{opacity:0.13;}
	.st2{fill:none;stroke:#999999;stroke-width:0.2348;stroke-miterlimit:10;}
	.st3{fill:#EEEFED;stroke:#999999;stroke-width:0.2348;stroke-miterlimit:10;}
	.st4{fill:#CCCCCC;stroke:#999999;stroke-width:0.2348;stroke-miterlimit:10;}
	.st5{fill:none;stroke:#999999;stroke-width:0.2348;stroke-miterlimit:10;stroke-dasharray:1.8784;}
	.st6{fill:none;stroke:#000000;stroke-width:1.2;stroke-miterlimit:10;}
	.st7{fill:#E72B78;}
	.st8{fill:#F9B443;}
	.st9{fill:none;stroke:#000000;stroke-width:1.414;stroke-miterlimit:10;}
	.st10{fill:#FFFFFF;}
	.st11{fill:#FFFFFF;stroke:#000000;stroke-width:0.6858;stroke-miterlimit:10;}
	.st12{opacity:0.91;}
	.st13{fill:#FF3369;}
	.st14{fill:#FFAE00;}
	.st15{fill:#723F33;}
	.st16{opacity:0.28;fill:#542C1C;enable-background:new    ;}
	.st17{opacity:0.6;fill:#603826;enable-background:new    ;}
	.st18{fill:#603826;}
	.st19{opacity:0.4;fill:#603826;enable-background:new    ;}
	.st20{fill:#F4F4F4;}
	.st21{fill:#DBDDDC;}
	.st22{fill:#B2B2B2;}
	.st23{fill:#E09220;}
	.st24{opacity:0.28;fill:#603826;enable-background:new    ;}
	.st25{fill:#C40E50;}
	.st26{fill:#FFFFFF;stroke:#000000;stroke-width:0.9534;stroke-miterlimit:10;}
	.st27{clip-path:url(#XMLID_5_);}
	.st28{clip-path:url(#XMLID_40_);}
	.st29{fill:#FFB53F;}
	.st30{fill:none;stroke:url(#SVGID_1_);stroke-width:0.3757;stroke-miterlimit:10;}
	.st31{fill:#0E0E0E;}
	.st32{font-family:'Exo2-Regular';}
	.st33{font-size:8.3271px;}
	.st34{font-family:'Exo2-Bold';}
	.st35{font-size:8.9649px;}
	.st36{fill:#010101;}
	.st37{fill:#E5E5E5;}
	.st38{fill:#EAEAEA;}
	.st39{fill:#E8E8E8;}
	.st40{fill:#FFFFFF;stroke:#000000;stroke-width:0.327;stroke-miterlimit:10;}
	.st41{opacity:0.44;}
	.st42{fill:#EA9628;}
	.st43{fill:#0D48CC;}
	.st44{fill:#AA0550;}
	.st45{fill:#BC1B5C;}
	.st46{fill:#DD891B;}
	.st47{fill:#002A75;}
	.st48{fill:#06307A;}
	.st49{fill:#CCCCCC;}
	.st50{fill:#71399F;}
	.st51{fill:#03347A;}
	.st52{fill:none;stroke:#EEEFED;stroke-width:3.1536;stroke-miterlimit:10;}
	.st53{opacity:0.24;fill:#56330A;}
	.st54{stroke:#000000;stroke-width:2.0888;stroke-miterlimit:10;}
	.st55{fill:#EEEFED;stroke:#000000;stroke-width:2.0888;stroke-miterlimit:10;}
	.st56{stroke:#000000;stroke-width:1.7;stroke-miterlimit:10;}
	.st57{fill:#EEEFED;stroke:#000000;stroke-width:1.7;stroke-miterlimit:10;}
	.st58{stroke:#000000;stroke-width:1.3;stroke-miterlimit:10;}
	.st59{fill:#EEEFED;stroke:#000000;stroke-width:1.3;stroke-miterlimit:10;}
	.st60{stroke:#000000;stroke-width:2;stroke-miterlimit:10;}
	.st61{stroke:#000000;stroke-width:1.912;stroke-miterlimit:10;}
	.st62{fill:none;stroke:#000000;stroke-width:1.912;stroke-miterlimit:10;}
	.st63{clip-path:url(#XMLID_211_);}
	.st64{clip-path:url(#XMLID_212_);}
	.st65{fill:none;stroke:url(#SVGID_2_);stroke-width:0.2702;stroke-miterlimit:10;}
	.st66{stroke:#000000;stroke-width:0.5;stroke-miterlimit:10;}
	.st67{fill:#FFFFFF;stroke:#000000;stroke-width:0.8987;stroke-miterlimit:10;}
	.st68{stroke:#000000;stroke-width:1.2;stroke-miterlimit:10;}
	.st69{fill:#EEEFED;stroke:#000000;stroke-width:1.2;stroke-miterlimit:10;}
	.st70{fill:#EEEFED;stroke:#000000;stroke-width:2;stroke-miterlimit:10;}
	.st71{fill:#EEEFED;stroke:#000000;stroke-width:1.912;stroke-miterlimit:10;}
</style>
<g>
	<defs>
		<path id="XMLID_33_" d="M288.8-49h-82.9c-3.3,0-6.1-2.7-6.1-6.1v-122.8c0-3.3,2.7-6.1,6.1-6.1h82.9c3.3,0,6.1,2.7,6.1,6.1v122.8
			C294.9-51.8,292.1-49,288.8-49z"/>
	</defs>
	<use xlink:href="#XMLID_33_"  style="overflow:visible;fill:#FFFFFF;"/>
	<clipPath id="XMLID_2_">
		<use xlink:href="#XMLID_33_"  style="overflow:visible;"/>
	</clipPath>
	<g style="clip-path:url(#XMLID_2_);">
		<defs>
			<rect id="XMLID_34_" x="178.1" y="-185.3" width="137" height="137"/>
		</defs>
		<use xlink:href="#XMLID_34_"  style="overflow:visible;fill:#F9B443;"/>
		<clipPath id="XMLID_3_">
			<use xlink:href="#XMLID_34_"  style="overflow:visible;"/>
		</clipPath>
		<g style="clip-path:url(#XMLID_3_);">
			<rect x="154.4" y="-185.7" class="st29" width="178.2" height="221.9"/>
			<g>
				<path class="st29" d="M332.5-185.6V36.1h-178v-221.6H332.5 M332.8-185.8H154.3V36.3h178.4V-185.8L332.8-185.8z"/>
			</g>
		</g>
		<g style="clip-path:url(#XMLID_3_);">
			<g>
				
					<linearGradient id="SVGID_1_" gradientUnits="userSpaceOnUse" x1="-846.2645" y1="1817.822" x2="-1058.8094" y2="1817.822" gradientTransform="matrix(1.346900e-10 -1 1 1.346900e-10 -1563.5265 -1031.9993)">
					<stop  offset="0" style="stop-color:#FFC465"/>
					<stop  offset="0.6022" style="stop-color:#FFB53F"/>
				</linearGradient>
				<polyline class="st30" points="360.4,-185.5 360.4,-182.2 357,-182.2 357,-185.5 350.3,-185.5 350.3,-182.2 353.6,-182.2 
					353.6,-178.8 350.3,-178.8 350.3,-175.4 357,-175.4 357,-178.8 360.4,-178.8 360.4,-172.1 357,-172.1 357,-168.7 360.4,-168.7 
					360.4,-162 357,-162 357,-165.3 353.6,-165.3 353.6,-162 350.3,-162 350.3,-168.7 353.6,-168.7 353.6,-172.1 343.5,-172.1 
					343.5,-168.7 346.9,-168.7 346.9,-162 343.5,-162 343.5,-165.3 340.2,-165.3 340.2,-162 336.8,-162 336.8,-168.7 340.2,-168.7 
					340.2,-172.1 336.8,-172.1 336.8,-178.8 340.2,-178.8 340.2,-175.4 346.9,-175.4 346.9,-178.8 343.5,-178.8 343.5,-182.2 
					346.9,-182.2 346.9,-185.5 340.2,-185.5 340.2,-182.2 336.8,-182.2 336.8,-185.5 330.1,-185.5 330.1,-182.2 333.4,-182.2 
					333.4,-175.4 330.1,-175.4 330.1,-178.8 326.7,-178.8 326.7,-175.4 323.3,-175.4 323.3,-182.2 326.7,-182.2 326.7,-185.5 
					320,-185.5 320,-182.2 316.6,-182.2 316.6,-185.5 309.9,-185.5 309.9,-182.2 313.2,-182.2 313.2,-178.8 309.9,-178.8 
					309.9,-175.4 316.6,-175.4 316.6,-178.8 320,-178.8 320,-168.7 316.6,-168.7 316.6,-172.1 309.9,-172.1 309.9,-168.7 
					313.2,-168.7 313.2,-165.3 309.9,-165.3 309.9,-162 316.6,-162 316.6,-165.3 320,-165.3 320,-162 326.7,-162 326.7,-165.3 
					323.3,-165.3 323.3,-172.1 326.7,-172.1 326.7,-168.7 330.1,-168.7 330.1,-172.1 333.4,-172.1 333.4,-165.3 330.1,-165.3 
					330.1,-162 333.4,-162 333.4,-158.6 330.1,-158.6 330.1,-155.2 333.4,-155.2 333.4,-148.5 330.1,-148.5 330.1,-151.9 
					326.7,-151.9 326.7,-148.5 323.3,-148.5 323.3,-155.2 326.7,-155.2 326.7,-158.6 320,-158.6 320,-155.2 316.6,-155.2 
					316.6,-158.6 309.9,-158.6 309.9,-155.2 313.2,-155.2 313.2,-151.9 309.9,-151.9 309.9,-148.5 316.6,-148.5 316.6,-151.9 
					320,-151.9 320,-141.8 316.6,-141.8 316.6,-145.1 309.9,-145.1 309.9,-141.8 313.2,-141.8 313.2,-138.4 309.9,-138.4 
					309.9,-135 316.6,-135 316.6,-138.4 320,-138.4 320,-135 326.7,-135 326.7,-138.4 323.3,-138.4 323.3,-145.1 326.7,-145.1 
					326.7,-141.8 330.1,-141.8 330.1,-145.1 333.4,-145.1 333.4,-138.4 330.1,-138.4 330.1,-135 336.8,-135 336.8,-138.4 
					340.2,-138.4 340.2,-135 346.9,-135 346.9,-138.4 343.5,-138.4 343.5,-141.8 346.9,-141.8 346.9,-145.1 340.2,-145.1 
					340.2,-141.8 336.8,-141.8 336.8,-148.5 340.2,-148.5 340.2,-151.9 336.8,-151.9 336.8,-158.6 340.2,-158.6 340.2,-155.2 
					343.5,-155.2 343.5,-158.6 346.9,-158.6 346.9,-151.9 343.5,-151.9 343.5,-148.5 353.6,-148.5 353.6,-151.9 350.3,-151.9 
					350.3,-158.6 353.6,-158.6 353.6,-155.2 357,-155.2 357,-158.6 360.4,-158.6 360.4,-151.9 357,-151.9 357,-148.5 360.4,-148.5 
					360.4,-141.8 357,-141.8 357,-145.1 350.3,-145.1 350.3,-141.8 353.6,-141.8 353.6,-138.4 350.3,-138.4 350.3,-135 357,-135 
					357,-138.4 360.4,-138.4 360.4,-131.7 357,-131.7 357,-128.3 360.4,-128.3 360.4,-121.6 357,-121.6 357,-124.9 353.6,-124.9 
					353.6,-121.6 350.3,-121.6 350.3,-128.3 353.6,-128.3 353.6,-131.7 346.9,-131.7 346.9,-128.3 343.5,-128.3 343.5,-131.7 
					336.8,-131.7 336.8,-128.3 340.2,-128.3 340.2,-124.9 336.8,-124.9 336.8,-121.6 343.5,-121.6 343.5,-124.9 346.9,-124.9 
					346.9,-114.8 343.5,-114.8 343.5,-118.2 336.8,-118.2 336.8,-114.8 340.2,-114.8 340.2,-111.5 336.8,-111.5 336.8,-108.1 
					343.5,-108.1 343.5,-111.5 346.9,-111.5 346.9,-108.1 353.6,-108.1 353.6,-111.5 350.3,-111.5 350.3,-118.2 353.6,-118.2 
					353.6,-114.8 357,-114.8 357,-118.2 360.4,-118.2 360.4,-111.5 357,-111.5 357,-108.1 360.4,-108.1 360.4,-101.4 357,-101.4 
					357,-104.7 350.3,-104.7 350.3,-101.4 353.6,-101.4 353.6,-98 350.3,-98 350.3,-94.6 357,-94.6 357,-98 360.4,-98 360.4,-91.2 
					357,-91.2 357,-87.9 360.4,-87.9 360.4,-81.1 357,-81.1 357,-84.5 353.6,-84.5 353.6,-81.1 350.3,-81.1 350.3,-87.9 
					353.6,-87.9 353.6,-91.2 343.5,-91.2 343.5,-87.9 346.9,-87.9 346.9,-81.1 343.5,-81.1 343.5,-84.5 340.2,-84.5 340.2,-81.1 
					336.8,-81.1 336.8,-87.9 340.2,-87.9 340.2,-91.2 336.8,-91.2 336.8,-98 340.2,-98 340.2,-94.6 346.9,-94.6 346.9,-98 
					343.5,-98 343.5,-101.4 346.9,-101.4 346.9,-104.7 340.2,-104.7 340.2,-101.4 336.8,-101.4 336.8,-104.7 333.4,-104.7 
					333.4,-101.4 330.1,-101.4 330.1,-104.7 323.3,-104.7 323.3,-101.4 326.7,-101.4 326.7,-98 323.3,-98 323.3,-94.6 330.1,-94.6 
					330.1,-98 333.4,-98 333.4,-91.2 330.1,-91.2 330.1,-87.9 333.4,-87.9 333.4,-81.1 330.1,-81.1 330.1,-84.5 326.7,-84.5 
					326.7,-81.1 323.3,-81.1 323.3,-87.9 326.7,-87.9 326.7,-91.2 316.6,-91.2 316.6,-87.9 320,-87.9 320,-81.1 316.6,-81.1 
					316.6,-84.5 313.2,-84.5 313.2,-81.1 309.9,-81.1 309.9,-87.9 313.2,-87.9 313.2,-91.2 309.9,-91.2 309.9,-98 313.2,-98 
					313.2,-94.6 320,-94.6 320,-98 316.6,-98 316.6,-101.4 320,-101.4 320,-104.7 313.2,-104.7 313.2,-101.4 309.9,-101.4 
					309.9,-108.1 313.2,-108.1 313.2,-111.5 309.9,-111.5 309.9,-118.2 313.2,-118.2 313.2,-114.8 316.6,-114.8 316.6,-118.2 
					320,-118.2 320,-111.5 316.6,-111.5 316.6,-108.1 323.3,-108.1 323.3,-111.5 326.7,-111.5 326.7,-108.1 333.4,-108.1 
					333.4,-111.5 330.1,-111.5 330.1,-114.8 333.4,-114.8 333.4,-118.2 326.7,-118.2 326.7,-114.8 323.3,-114.8 323.3,-124.9 
					326.7,-124.9 326.7,-121.6 333.4,-121.6 333.4,-124.9 330.1,-124.9 330.1,-128.3 333.4,-128.3 333.4,-131.7 326.7,-131.7 
					326.7,-128.3 323.3,-128.3 323.3,-131.7 316.6,-131.7 316.6,-128.3 320,-128.3 320,-121.6 316.6,-121.6 316.6,-124.9 
					313.2,-124.9 313.2,-121.6 309.9,-121.6 309.9,-128.3 313.2,-128.3 313.2,-131.7 303.1,-131.7 303.1,-128.3 306.5,-128.3 
					306.5,-121.6 303.1,-121.6 303.1,-124.9 299.8,-124.9 299.8,-121.6 296.4,-121.6 296.4,-128.3 299.8,-128.3 299.8,-131.7 
					293,-131.7 293,-128.3 289.7,-128.3 289.7,-131.7 282.9,-131.7 282.9,-128.3 286.3,-128.3 286.3,-124.9 282.9,-124.9 
					282.9,-121.6 289.7,-121.6 289.7,-124.9 293,-124.9 293,-114.8 289.7,-114.8 289.7,-118.2 282.9,-118.2 282.9,-114.8 
					286.3,-114.8 286.3,-111.5 282.9,-111.5 282.9,-108.1 289.7,-108.1 289.7,-111.5 293,-111.5 293,-108.1 299.8,-108.1 
					299.8,-111.5 296.4,-111.5 296.4,-118.2 299.8,-118.2 299.8,-114.8 303.1,-114.8 303.1,-118.2 306.5,-118.2 306.5,-111.5 
					303.1,-111.5 303.1,-108.1 306.5,-108.1 306.5,-101.4 303.1,-101.4 303.1,-104.7 296.4,-104.7 296.4,-101.4 299.8,-101.4 
					299.8,-98 296.4,-98 296.4,-94.6 303.1,-94.6 303.1,-98 306.5,-98 306.5,-91.2 303.1,-91.2 303.1,-87.9 306.5,-87.9 
					306.5,-81.1 303.1,-81.1 303.1,-84.5 299.8,-84.5 299.8,-81.1 296.4,-81.1 296.4,-87.9 299.8,-87.9 299.8,-91.2 289.7,-91.2 
					289.7,-87.9 293,-87.9 293,-81.1 289.7,-81.1 289.7,-84.5 286.3,-84.5 286.3,-81.1 282.9,-81.1 282.9,-87.9 286.3,-87.9 
					286.3,-91.2 282.9,-91.2 282.9,-98 286.3,-98 286.3,-94.6 293,-94.6 293,-98 289.7,-98 289.7,-101.4 293,-101.4 293,-104.7 
					286.3,-104.7 286.3,-101.4 282.9,-101.4 282.9,-104.7 279.6,-104.7 279.6,-101.4 276.2,-101.4 276.2,-104.7 269.5,-104.7 
					269.5,-101.4 272.8,-101.4 272.8,-98 269.5,-98 269.5,-94.6 276.2,-94.6 276.2,-98 279.6,-98 279.6,-91.2 276.2,-91.2 
					276.2,-87.9 279.6,-87.9 279.6,-81.1 276.2,-81.1 276.2,-84.5 272.8,-84.5 272.8,-81.1 269.5,-81.1 269.5,-87.9 272.8,-87.9 
					272.8,-91.2 262.7,-91.2 262.7,-87.9 266.1,-87.9 266.1,-81.1 262.7,-81.1 262.7,-84.5 259.3,-84.5 259.3,-81.1 256,-81.1 
					256,-87.9 259.3,-87.9 259.3,-91.2 256,-91.2 256,-98 259.3,-98 259.3,-94.6 266.1,-94.6 266.1,-98 262.7,-98 262.7,-101.4 
					266.1,-101.4 266.1,-104.7 259.3,-104.7 259.3,-101.4 256,-101.4 256,-108.1 259.3,-108.1 259.3,-111.5 256,-111.5 256,-118.2 
					259.3,-118.2 259.3,-114.8 262.7,-114.8 262.7,-118.2 266.1,-118.2 266.1,-111.5 262.7,-111.5 262.7,-108.1 269.5,-108.1 
					269.5,-111.5 272.8,-111.5 272.8,-108.1 279.6,-108.1 279.6,-111.5 276.2,-111.5 276.2,-114.8 279.6,-114.8 279.6,-118.2 
					272.8,-118.2 272.8,-114.8 269.5,-114.8 269.5,-124.9 272.8,-124.9 272.8,-121.6 279.6,-121.6 279.6,-124.9 276.2,-124.9 
					276.2,-128.3 279.6,-128.3 279.6,-131.7 272.8,-131.7 272.8,-128.3 269.5,-128.3 269.5,-131.7 262.7,-131.7 262.7,-128.3 
					266.1,-128.3 266.1,-121.6 262.7,-121.6 262.7,-124.9 259.3,-124.9 259.3,-121.6 256,-121.6 256,-128.3 259.3,-128.3 
					259.3,-131.7 256,-131.7 256,-138.4 259.3,-138.4 259.3,-135 266.1,-135 266.1,-138.4 262.7,-138.4 262.7,-141.8 266.1,-141.8 
					266.1,-145.1 259.3,-145.1 259.3,-141.8 256,-141.8 256,-148.5 259.3,-148.5 259.3,-151.9 256,-151.9 256,-158.6 259.3,-158.6 
					259.3,-155.2 262.7,-155.2 262.7,-158.6 266.1,-158.6 266.1,-151.9 262.7,-151.9 262.7,-148.5 272.8,-148.5 272.8,-151.9 
					269.5,-151.9 269.5,-158.6 272.8,-158.6 272.8,-155.2 276.2,-155.2 276.2,-158.6 279.6,-158.6 279.6,-151.9 276.2,-151.9 
					276.2,-148.5 279.6,-148.5 279.6,-141.8 276.2,-141.8 276.2,-145.1 269.5,-145.1 269.5,-141.8 272.8,-141.8 272.8,-138.4 
					269.5,-138.4 269.5,-135 276.2,-135 276.2,-138.4 279.6,-138.4 279.6,-135 286.3,-135 286.3,-138.4 282.9,-138.4 282.9,-145.1 
					286.3,-145.1 286.3,-141.8 289.7,-141.8 289.7,-145.1 293,-145.1 293,-138.4 289.7,-138.4 289.7,-135 296.4,-135 296.4,-138.4 
					299.8,-138.4 299.8,-135 306.5,-135 306.5,-138.4 303.1,-138.4 303.1,-141.8 306.5,-141.8 306.5,-145.1 299.8,-145.1 
					299.8,-141.8 296.4,-141.8 296.4,-151.9 299.8,-151.9 299.8,-148.5 306.5,-148.5 306.5,-151.9 303.1,-151.9 303.1,-155.2 
					306.5,-155.2 306.5,-158.6 299.8,-158.6 299.8,-155.2 296.4,-155.2 296.4,-158.6 289.7,-158.6 289.7,-155.2 293,-155.2 
					293,-148.5 289.7,-148.5 289.7,-151.9 286.3,-151.9 286.3,-148.5 282.9,-148.5 282.9,-155.2 286.3,-155.2 286.3,-158.6 
					282.9,-158.6 282.9,-162 286.3,-162 286.3,-165.3 282.9,-165.3 282.9,-172.1 286.3,-172.1 286.3,-168.7 289.7,-168.7 
					289.7,-172.1 293,-172.1 293,-165.3 289.7,-165.3 289.7,-162 296.4,-162 296.4,-165.3 299.8,-165.3 299.8,-162 306.5,-162 
					306.5,-165.3 303.1,-165.3 303.1,-168.7 306.5,-168.7 306.5,-172.1 299.8,-172.1 299.8,-168.7 296.4,-168.7 296.4,-178.8 
					299.8,-178.8 299.8,-175.4 306.5,-175.4 306.5,-178.8 303.1,-178.8 303.1,-182.2 306.5,-182.2 306.5,-185.5 299.8,-185.5 
					299.8,-182.2 296.4,-182.2 296.4,-185.5 289.7,-185.5 289.7,-182.2 293,-182.2 293,-175.4 289.7,-175.4 289.7,-178.8 
					286.3,-178.8 286.3,-175.4 282.9,-175.4 282.9,-182.2 286.3,-182.2 286.3,-185.5 279.6,-185.5 279.6,-182.2 276.2,-182.2 
					276.2,-185.5 269.5,-185.5 269.5,-182.2 272.8,-182.2 272.8,-178.8 269.5,-178.8 269.5,-175.4 276.2,-175.4 276.2,-178.8 
					279.6,-178.8 279.6,-172.1 276.2,-172.1 276.2,-168.7 279.6,-168.7 279.6,-162 276.2,-162 276.2,-165.3 272.8,-165.3 
					272.8,-162 269.5,-162 269.5,-168.7 272.8,-168.7 272.8,-172.1 262.7,-172.1 262.7,-168.7 266.1,-168.7 266.1,-162 262.7,-162 
					262.7,-165.3 259.3,-165.3 259.3,-162 256,-162 256,-168.7 259.3,-168.7 259.3,-172.1 256,-172.1 256,-178.8 259.3,-178.8 
					259.3,-175.4 266.1,-175.4 266.1,-178.8 262.7,-178.8 262.7,-182.2 266.1,-182.2 266.1,-185.5 259.3,-185.5 259.3,-182.2 
					256,-182.2 256,-185.5 249.2,-185.5 249.2,-182.2 252.6,-182.2 252.6,-175.4 249.2,-175.4 249.2,-178.8 245.9,-178.8 
					245.9,-175.4 242.5,-175.4 242.5,-182.2 245.9,-182.2 245.9,-185.5 239.1,-185.5 239.1,-182.2 235.8,-182.2 235.8,-185.5 
					229,-185.5 229,-182.2 232.4,-182.2 232.4,-178.8 229,-178.8 229,-175.4 235.8,-175.4 235.8,-178.8 239.1,-178.8 239.1,-168.7 
					235.8,-168.7 235.8,-172.1 229,-172.1 229,-168.7 232.4,-168.7 232.4,-165.3 229,-165.3 229,-162 235.8,-162 235.8,-165.3 
					239.1,-165.3 239.1,-162 245.9,-162 245.9,-165.3 242.5,-165.3 242.5,-172.1 245.9,-172.1 245.9,-168.7 249.2,-168.7 
					249.2,-172.1 252.6,-172.1 252.6,-165.3 249.2,-165.3 249.2,-162 252.6,-162 252.6,-155.2 249.2,-155.2 249.2,-158.6 
					242.5,-158.6 242.5,-155.2 245.9,-155.2 245.9,-151.9 242.5,-151.9 242.5,-148.5 249.2,-148.5 249.2,-151.9 252.6,-151.9 
					252.6,-145.1 249.2,-145.1 249.2,-141.8 252.6,-141.8 252.6,-135 249.2,-135 249.2,-138.4 245.9,-138.4 245.9,-135 242.5,-135 
					242.5,-141.8 245.9,-141.8 245.9,-145.1 235.8,-145.1 235.8,-141.8 239.1,-141.8 239.1,-135 235.8,-135 235.8,-138.4 
					232.4,-138.4 232.4,-135 229,-135 229,-141.8 232.4,-141.8 232.4,-145.1 229,-145.1 229,-151.9 232.4,-151.9 232.4,-148.5 
					239.1,-148.5 239.1,-151.9 235.8,-151.9 235.8,-155.2 239.1,-155.2 239.1,-158.6 232.4,-158.6 232.4,-155.2 229,-155.2 
					229,-158.6 225.7,-158.6 225.7,-155.2 222.3,-155.2 222.3,-158.6 215.6,-158.6 215.6,-155.2 218.9,-155.2 218.9,-151.9 
					215.6,-151.9 215.6,-148.5 222.3,-148.5 222.3,-151.9 225.7,-151.9 225.7,-145.1 222.3,-145.1 222.3,-141.8 225.7,-141.8 
					225.7,-135 222.3,-135 222.3,-138.4 218.9,-138.4 218.9,-135 215.6,-135 215.6,-141.8 218.9,-141.8 218.9,-145.1 208.8,-145.1 
					208.8,-141.8 212.2,-141.8 212.2,-135 208.8,-135 208.8,-138.4 205.5,-138.4 205.5,-135 202.1,-135 202.1,-141.8 205.5,-141.8 
					205.5,-145.1 202.1,-145.1 202.1,-151.9 205.5,-151.9 205.5,-148.5 212.2,-148.5 212.2,-151.9 208.8,-151.9 208.8,-155.2 
					212.2,-155.2 212.2,-158.6 205.5,-158.6 205.5,-155.2 202.1,-155.2 202.1,-162 205.5,-162 205.5,-165.3 202.1,-165.3 
					202.1,-172.1 205.5,-172.1 205.5,-168.7 208.8,-168.7 208.8,-172.1 212.2,-172.1 212.2,-165.3 208.8,-165.3 208.8,-162 
					215.6,-162 215.6,-165.3 218.9,-165.3 218.9,-162 225.7,-162 225.7,-165.3 222.3,-165.3 222.3,-168.7 225.7,-168.7 
					225.7,-172.1 218.9,-172.1 218.9,-168.7 215.6,-168.7 215.6,-178.8 218.9,-178.8 218.9,-175.4 225.7,-175.4 225.7,-178.8 
					222.3,-178.8 222.3,-182.2 225.7,-182.2 225.7,-185.5 218.9,-185.5 218.9,-182.2 215.6,-182.2 215.6,-185.5 208.8,-185.5 
					208.8,-182.2 212.2,-182.2 212.2,-175.4 208.8,-175.4 208.8,-178.8 205.5,-178.8 205.5,-175.4 202.1,-175.4 202.1,-182.2 
					205.5,-182.2 205.5,-185.5 198.7,-185.5 198.7,-182.2 195.4,-182.2 195.4,-185.5 188.6,-185.5 188.6,-182.2 192,-182.2 
					192,-178.8 188.6,-178.8 188.6,-175.4 195.4,-175.4 195.4,-178.8 198.7,-178.8 198.7,-172.1 195.4,-172.1 195.4,-168.7 
					198.7,-168.7 198.7,-162 195.4,-162 195.4,-165.3 192,-165.3 192,-162 188.6,-162 188.6,-168.7 192,-168.7 192,-172.1 
					181.9,-172.1 181.9,-168.7 185.3,-168.7 185.3,-162 181.9,-162 181.9,-165.3 178.5,-165.3 178.5,-162 175.2,-162 175.2,-168.7 
					178.5,-168.7 178.5,-172.1 175.2,-172.1 175.2,-178.8 178.5,-178.8 178.5,-175.4 185.3,-175.4 185.3,-178.8 181.9,-178.8 
					181.9,-182.2 185.3,-182.2 185.3,-185.5 178.5,-185.5 178.5,-182.2 175.2,-182.2 175.2,-185.5 168.4,-185.5 168.4,-182.2 
					171.8,-182.2 171.8,-175.4 168.4,-175.4 168.4,-178.8 165,-178.8 165,-175.4 161.7,-175.4 161.7,-182.2 165,-182.2 165,-185.5 
					158.3,-185.5 158.3,-182.2 154.9,-182.2 154.9,-185.5 148.2,-185.5 148.2,-182.2 151.6,-182.2 151.6,-178.8 148.2,-178.8 
					148.2,-175.4 154.9,-175.4 154.9,-178.8 158.3,-178.8 158.3,-168.7 154.9,-168.7 154.9,-172.1 148.2,-172.1 148.2,-168.7 
					151.6,-168.7 151.6,-165.3 148.2,-165.3 148.2,-162 154.9,-162 154.9,-165.3 158.3,-165.3 158.3,-162 165,-162 165,-165.3 
					161.7,-165.3 161.7,-172.1 165,-172.1 165,-168.7 168.4,-168.7 168.4,-172.1 171.8,-172.1 171.8,-165.3 168.4,-165.3 
					168.4,-162 171.8,-162 171.8,-158.6 168.4,-158.6 168.4,-155.2 171.8,-155.2 171.8,-148.5 168.4,-148.5 168.4,-151.9 
					165,-151.9 165,-148.5 161.7,-148.5 161.7,-155.2 165,-155.2 165,-158.6 158.3,-158.6 158.3,-155.2 154.9,-155.2 154.9,-158.6 
					148.2,-158.6 148.2,-155.2 151.6,-155.2 151.6,-151.9 148.2,-151.9 148.2,-148.5 154.9,-148.5 154.9,-151.9 158.3,-151.9 
					158.3,-141.8 154.9,-141.8 154.9,-145.1 148.2,-145.1 148.2,-141.8 151.6,-141.8 151.6,-138.4 148.2,-138.4 148.2,-135 
					154.9,-135 154.9,-138.4 158.3,-138.4 158.3,-135 165,-135 165,-138.4 161.7,-138.4 161.7,-145.1 165,-145.1 165,-141.8 
					168.4,-141.8 168.4,-145.1 171.8,-145.1 171.8,-138.4 168.4,-138.4 168.4,-135 175.2,-135 175.2,-138.4 178.5,-138.4 
					178.5,-135 185.3,-135 185.3,-138.4 181.9,-138.4 181.9,-141.8 185.3,-141.8 185.3,-145.1 178.5,-145.1 178.5,-141.8 
					175.2,-141.8 175.2,-148.5 178.5,-148.5 178.5,-151.9 175.2,-151.9 175.2,-158.6 178.5,-158.6 178.5,-155.2 181.9,-155.2 
					181.9,-158.6 185.3,-158.6 185.3,-151.9 181.9,-151.9 181.9,-148.5 192,-148.5 192,-151.9 188.6,-151.9 188.6,-158.6 
					192,-158.6 192,-155.2 195.4,-155.2 195.4,-158.6 198.7,-158.6 198.7,-151.9 195.4,-151.9 195.4,-148.5 198.7,-148.5 
					198.7,-141.8 195.4,-141.8 195.4,-145.1 188.6,-145.1 188.6,-141.8 192,-141.8 192,-138.4 188.6,-138.4 188.6,-135 195.4,-135 
					195.4,-138.4 198.7,-138.4 198.7,-128.3 195.4,-128.3 195.4,-131.7 188.6,-131.7 188.6,-128.3 192,-128.3 192,-124.9 
					188.6,-124.9 188.6,-121.6 195.4,-121.6 195.4,-124.9 198.7,-124.9 198.7,-118.2 195.4,-118.2 195.4,-114.8 198.7,-114.8 
					198.7,-108.1 195.4,-108.1 195.4,-111.5 192,-111.5 192,-108.1 188.6,-108.1 188.6,-114.8 192,-114.8 192,-118.2 181.9,-118.2 
					181.9,-114.8 185.3,-114.8 185.3,-108.1 181.9,-108.1 181.9,-111.5 178.5,-111.5 178.5,-108.1 175.2,-108.1 175.2,-114.8 
					178.5,-114.8 178.5,-118.2 175.2,-118.2 175.2,-124.9 178.5,-124.9 178.5,-121.6 185.3,-121.6 185.3,-124.9 181.9,-124.9 
					181.9,-128.3 185.3,-128.3 185.3,-131.7 178.5,-131.7 178.5,-128.3 175.2,-128.3 175.2,-131.7 168.4,-131.7 168.4,-128.3 
					171.8,-128.3 171.8,-121.6 168.4,-121.6 168.4,-124.9 165,-124.9 165,-121.6 161.7,-121.6 161.7,-128.3 165,-128.3 165,-131.7 
					158.3,-131.7 158.3,-128.3 154.9,-128.3 154.9,-131.7 148.2,-131.7 148.2,-128.3 151.6,-128.3 151.6,-124.9 148.2,-124.9 
					148.2,-121.6 154.9,-121.6 154.9,-124.9 158.3,-124.9 158.3,-114.8 154.9,-114.8 154.9,-118.2 148.2,-118.2 148.2,-114.8 
					151.6,-114.8 151.6,-111.5 148.2,-111.5 148.2,-108.1 154.9,-108.1 154.9,-111.5 158.3,-111.5 158.3,-108.1 165,-108.1 
					165,-111.5 161.7,-111.5 161.7,-118.2 165,-118.2 165,-114.8 168.4,-114.8 168.4,-118.2 171.8,-118.2 171.8,-111.5 
					168.4,-111.5 168.4,-108.1 171.8,-108.1 171.8,-104.7 168.4,-104.7 168.4,-101.4 171.8,-101.4 171.8,-94.6 168.4,-94.6 
					168.4,-98 165,-98 165,-94.6 161.7,-94.6 161.7,-101.4 165,-101.4 165,-104.7 158.3,-104.7 158.3,-101.4 154.9,-101.4 
					154.9,-104.7 148.2,-104.7 148.2,-101.4 151.6,-101.4 151.6,-98 148.2,-98 148.2,-94.6 154.9,-94.6 154.9,-98 158.3,-98 
					158.3,-87.9 154.9,-87.9 154.9,-91.2 148.2,-91.2 148.2,-87.9 151.6,-87.9 151.6,-84.5 148.2,-84.5 148.2,-81.1 154.9,-81.1 
					154.9,-84.5 158.3,-84.5 158.3,-81.1 165,-81.1 165,-84.5 161.7,-84.5 161.7,-91.2 165,-91.2 165,-87.9 168.4,-87.9 
					168.4,-91.2 171.8,-91.2 171.8,-84.5 168.4,-84.5 168.4,-81.1 175.2,-81.1 175.2,-84.5 178.5,-84.5 178.5,-81.1 185.3,-81.1 
					185.3,-84.5 181.9,-84.5 181.9,-87.9 185.3,-87.9 185.3,-91.2 178.5,-91.2 178.5,-87.9 175.2,-87.9 175.2,-94.6 178.5,-94.6 
					178.5,-98 175.2,-98 175.2,-104.7 178.5,-104.7 178.5,-101.4 181.9,-101.4 181.9,-104.7 185.3,-104.7 185.3,-98 181.9,-98 
					181.9,-94.6 192,-94.6 192,-98 188.6,-98 188.6,-104.7 192,-104.7 192,-101.4 195.4,-101.4 195.4,-104.7 198.7,-104.7 
					198.7,-98 195.4,-98 195.4,-94.6 198.7,-94.6 198.7,-87.9 195.4,-87.9 195.4,-91.2 188.6,-91.2 188.6,-87.9 192,-87.9 
					192,-84.5 188.6,-84.5 188.6,-81.1 195.4,-81.1 195.4,-84.5 198.7,-84.5 198.7,-81.1 205.5,-81.1 205.5,-84.5 202.1,-84.5 
					202.1,-91.2 205.5,-91.2 205.5,-87.9 208.8,-87.9 208.8,-91.2 212.2,-91.2 212.2,-84.5 208.8,-84.5 208.8,-81.1 215.6,-81.1 
					215.6,-84.5 218.9,-84.5 218.9,-81.1 225.7,-81.1 225.7,-84.5 222.3,-84.5 222.3,-87.9 225.7,-87.9 225.7,-91.2 218.9,-91.2 
					218.9,-87.9 215.6,-87.9 215.6,-98 218.9,-98 218.9,-94.6 225.7,-94.6 225.7,-98 222.3,-98 222.3,-101.4 225.7,-101.4 
					225.7,-104.7 218.9,-104.7 218.9,-101.4 215.6,-101.4 215.6,-104.7 208.8,-104.7 208.8,-101.4 212.2,-101.4 212.2,-94.6 
					208.8,-94.6 208.8,-98 205.5,-98 205.5,-94.6 202.1,-94.6 202.1,-101.4 205.5,-101.4 205.5,-104.7 202.1,-104.7 202.1,-111.5 
					205.5,-111.5 205.5,-108.1 212.2,-108.1 212.2,-111.5 208.8,-111.5 208.8,-114.8 212.2,-114.8 212.2,-118.2 205.5,-118.2 
					205.5,-114.8 202.1,-114.8 202.1,-121.6 205.5,-121.6 205.5,-124.9 202.1,-124.9 202.1,-131.7 205.5,-131.7 205.5,-128.3 
					208.8,-128.3 208.8,-131.7 212.2,-131.7 212.2,-124.9 208.8,-124.9 208.8,-121.6 218.9,-121.6 218.9,-124.9 215.6,-124.9 
					215.6,-131.7 218.9,-131.7 218.9,-128.3 222.3,-128.3 222.3,-131.7 225.7,-131.7 225.7,-124.9 222.3,-124.9 222.3,-121.6 
					225.7,-121.6 225.7,-114.8 222.3,-114.8 222.3,-118.2 215.6,-118.2 215.6,-114.8 218.9,-114.8 218.9,-111.5 215.6,-111.5 
					215.6,-108.1 222.3,-108.1 222.3,-111.5 225.7,-111.5 225.7,-108.1 229,-108.1 229,-111.5 232.4,-111.5 232.4,-108.1 
					239.1,-108.1 239.1,-111.5 235.8,-111.5 235.8,-114.8 239.1,-114.8 239.1,-118.2 232.4,-118.2 232.4,-114.8 229,-114.8 
					229,-121.6 232.4,-121.6 232.4,-124.9 229,-124.9 229,-131.7 232.4,-131.7 232.4,-128.3 235.8,-128.3 235.8,-131.7 
					239.1,-131.7 239.1,-124.9 235.8,-124.9 235.8,-121.6 245.9,-121.6 245.9,-124.9 242.5,-124.9 242.5,-131.7 245.9,-131.7 
					245.9,-128.3 249.2,-128.3 249.2,-131.7 252.6,-131.7 252.6,-124.9 249.2,-124.9 249.2,-121.6 252.6,-121.6 252.6,-114.8 
					249.2,-114.8 249.2,-118.2 242.5,-118.2 242.5,-114.8 245.9,-114.8 245.9,-111.5 242.5,-111.5 242.5,-108.1 249.2,-108.1 
					249.2,-111.5 252.6,-111.5 252.6,-104.7 249.2,-104.7 249.2,-101.4 252.6,-101.4 252.6,-94.6 249.2,-94.6 249.2,-98 245.9,-98 
					245.9,-94.6 242.5,-94.6 242.5,-101.4 245.9,-101.4 245.9,-104.7 239.1,-104.7 239.1,-101.4 235.8,-101.4 235.8,-104.7 
					229,-104.7 229,-101.4 232.4,-101.4 232.4,-98 229,-98 229,-94.6 235.8,-94.6 235.8,-98 239.1,-98 239.1,-87.9 235.8,-87.9 
					235.8,-91.2 229,-91.2 229,-87.9 232.4,-87.9 232.4,-84.5 229,-84.5 229,-81.1 235.8,-81.1 235.8,-84.5 239.1,-84.5 
					239.1,-81.1 245.9,-81.1 245.9,-84.5 242.5,-84.5 242.5,-91.2 245.9,-91.2 245.9,-87.9 249.2,-87.9 249.2,-91.2 252.6,-91.2 
					252.6,-84.5 249.2,-84.5 249.2,-81.1 252.6,-81.1 252.6,-77.8 249.2,-77.8 249.2,-74.4 252.6,-74.4 252.6,-67.7 249.2,-67.7 
					249.2,-71 245.9,-71 245.9,-67.7 242.5,-67.7 242.5,-74.4 245.9,-74.4 245.9,-77.8 239.1,-77.8 239.1,-74.4 235.8,-74.4 
					235.8,-77.8 229,-77.8 229,-74.4 232.4,-74.4 232.4,-71 229,-71 229,-67.7 235.8,-67.7 235.8,-71 239.1,-71 239.1,-60.9 
					235.8,-60.9 235.8,-64.3 229,-64.3 229,-60.9 232.4,-60.9 232.4,-57.6 229,-57.6 229,-54.2 235.8,-54.2 235.8,-57.6 
					239.1,-57.6 239.1,-54.2 245.9,-54.2 245.9,-57.6 242.5,-57.6 242.5,-64.3 245.9,-64.3 245.9,-60.9 249.2,-60.9 249.2,-64.3 
					252.6,-64.3 252.6,-57.6 249.2,-57.6 249.2,-54.2 252.6,-54.2 252.6,-47.5 249.2,-47.5 249.2,-50.8 242.5,-50.8 242.5,-47.5 
					245.9,-47.5 245.9,-44.1 242.5,-44.1 242.5,-40.7 249.2,-40.7 249.2,-44.1 252.6,-44.1 252.6,-37.4 249.2,-37.4 249.2,-34 
					252.6,-34 252.6,-27.3 249.2,-27.3 249.2,-30.6 245.9,-30.6 245.9,-27.3 242.5,-27.3 242.5,-34 245.9,-34 245.9,-37.4 
					235.8,-37.4 235.8,-34 239.1,-34 239.1,-27.3 235.8,-27.3 235.8,-30.6 232.4,-30.6 232.4,-27.3 229,-27.3 229,-34 232.4,-34 
					232.4,-37.4 229,-37.4 229,-44.1 232.4,-44.1 232.4,-40.7 239.1,-40.7 239.1,-44.1 235.8,-44.1 235.8,-47.5 239.1,-47.5 
					239.1,-50.8 232.4,-50.8 232.4,-47.5 229,-47.5 229,-50.8 225.7,-50.8 225.7,-47.5 222.3,-47.5 222.3,-50.8 215.6,-50.8 
					215.6,-47.5 218.9,-47.5 218.9,-44.1 215.6,-44.1 215.6,-40.7 222.3,-40.7 222.3,-44.1 225.7,-44.1 225.7,-37.4 222.3,-37.4 
					222.3,-34 225.7,-34 225.7,-27.3 222.3,-27.3 222.3,-30.6 218.9,-30.6 218.9,-27.3 215.6,-27.3 215.6,-34 218.9,-34 
					218.9,-37.4 208.8,-37.4 208.8,-34 212.2,-34 212.2,-27.3 208.8,-27.3 208.8,-30.6 205.5,-30.6 205.5,-27.3 202.1,-27.3 
					202.1,-34 205.5,-34 205.5,-37.4 202.1,-37.4 202.1,-44.1 205.5,-44.1 205.5,-40.7 212.2,-40.7 212.2,-44.1 208.8,-44.1 
					208.8,-47.5 212.2,-47.5 212.2,-50.8 205.5,-50.8 205.5,-47.5 202.1,-47.5 202.1,-54.2 205.5,-54.2 205.5,-57.6 202.1,-57.6 
					202.1,-64.3 205.5,-64.3 205.5,-60.9 208.8,-60.9 208.8,-64.3 212.2,-64.3 212.2,-57.6 208.8,-57.6 208.8,-54.2 215.6,-54.2 
					215.6,-57.6 218.9,-57.6 218.9,-54.2 225.7,-54.2 225.7,-57.6 222.3,-57.6 222.3,-60.9 225.7,-60.9 225.7,-64.3 218.9,-64.3 
					218.9,-60.9 215.6,-60.9 215.6,-71 218.9,-71 218.9,-67.7 225.7,-67.7 225.7,-71 222.3,-71 222.3,-74.4 225.7,-74.4 
					225.7,-77.8 218.9,-77.8 218.9,-74.4 215.6,-74.4 215.6,-77.8 208.8,-77.8 208.8,-74.4 212.2,-74.4 212.2,-67.7 208.8,-67.7 
					208.8,-71 205.5,-71 205.5,-67.7 202.1,-67.7 202.1,-74.4 205.5,-74.4 205.5,-77.8 198.7,-77.8 198.7,-74.4 195.4,-74.4 
					195.4,-77.8 188.6,-77.8 188.6,-74.4 192,-74.4 192,-71 188.6,-71 188.6,-67.7 195.4,-67.7 195.4,-71 198.7,-71 198.7,-64.3 
					195.4,-64.3 195.4,-60.9 198.7,-60.9 198.7,-54.2 195.4,-54.2 195.4,-57.6 192,-57.6 192,-54.2 188.6,-54.2 188.6,-60.9 
					192,-60.9 192,-64.3 181.9,-64.3 181.9,-60.9 185.3,-60.9 185.3,-54.2 181.9,-54.2 181.9,-57.6 178.5,-57.6 178.5,-54.2 
					175.2,-54.2 175.2,-60.9 178.5,-60.9 178.5,-64.3 175.2,-64.3 175.2,-71 178.5,-71 178.5,-67.7 185.3,-67.7 185.3,-71 
					181.9,-71 181.9,-74.4 185.3,-74.4 185.3,-77.8 178.5,-77.8 178.5,-74.4 175.2,-74.4 175.2,-77.8 168.4,-77.8 168.4,-74.4 
					171.8,-74.4 171.8,-67.7 168.4,-67.7 168.4,-71 165,-71 165,-67.7 161.7,-67.7 161.7,-74.4 165,-74.4 165,-77.8 158.3,-77.8 
					158.3,-74.4 154.9,-74.4 154.9,-77.8 148.2,-77.8 148.2,-74.4 151.6,-74.4 151.6,-71 148.2,-71 148.2,-67.7 154.9,-67.7 
					154.9,-71 158.3,-71 158.3,-60.9 154.9,-60.9 154.9,-64.3 148.2,-64.3 148.2,-60.9 151.6,-60.9 151.6,-57.6 148.2,-57.6 
					148.2,-54.2 154.9,-54.2 154.9,-57.6 158.3,-57.6 158.3,-54.2 165,-54.2 165,-57.6 161.7,-57.6 161.7,-64.3 165,-64.3 
					165,-60.9 168.4,-60.9 168.4,-64.3 171.8,-64.3 171.8,-57.6 168.4,-57.6 168.4,-54.2 171.8,-54.2 171.8,-50.8 168.4,-50.8 
					168.4,-47.5 171.8,-47.5 171.8,-40.7 168.4,-40.7 168.4,-44.1 165,-44.1 165,-40.7 161.7,-40.7 161.7,-47.5 165,-47.5 
					165,-50.8 158.3,-50.8 158.3,-47.5 154.9,-47.5 154.9,-50.8 148.2,-50.8 148.2,-47.5 151.6,-47.5 151.6,-44.1 148.2,-44.1 
					148.2,-40.7 154.9,-40.7 154.9,-44.1 158.3,-44.1 158.3,-34 154.9,-34 154.9,-37.4 148.2,-37.4 148.2,-34 151.6,-34 
					151.6,-30.6 148.2,-30.6 148.2,-27.3 154.9,-27.3 154.9,-30.6 158.3,-30.6 158.3,-27.3 165,-27.3 165,-30.6 161.7,-30.6 
					161.7,-37.4 165,-37.4 165,-34 168.4,-34 168.4,-37.4 171.8,-37.4 171.8,-30.6 168.4,-30.6 168.4,-27.3 175.2,-27.3 
					175.2,-30.6 178.5,-30.6 178.5,-27.3 185.3,-27.3 185.3,-30.6 181.9,-30.6 181.9,-34 185.3,-34 185.3,-37.4 178.5,-37.4 
					178.5,-34 175.2,-34 175.2,-40.7 178.5,-40.7 178.5,-44.1 175.2,-44.1 175.2,-50.8 178.5,-50.8 178.5,-47.5 181.9,-47.5 
					181.9,-50.8 185.3,-50.8 185.3,-44.1 181.9,-44.1 181.9,-40.7 192,-40.7 192,-44.1 188.6,-44.1 188.6,-50.8 192,-50.8 
					192,-47.5 195.4,-47.5 195.4,-50.8 198.7,-50.8 198.7,-44.1 195.4,-44.1 195.4,-40.7 198.7,-40.7 198.7,-34 195.4,-34 
					195.4,-37.4 188.6,-37.4 188.6,-34 192,-34 192,-30.6 188.6,-30.6 188.6,-27.3 195.4,-27.3 195.4,-30.6 198.7,-30.6 
					198.7,-20.5 195.4,-20.5 195.4,-23.9 188.6,-23.9 188.6,-20.5 192,-20.5 192,-17.2 188.6,-17.2 188.6,-13.8 195.4,-13.8 
					195.4,-17.2 198.7,-17.2 198.7,-10.4 195.4,-10.4 195.4,-7.1 198.7,-7.1 198.7,-0.3 195.4,-0.3 195.4,-3.7 192,-3.7 192,-0.3 
					188.6,-0.3 188.6,-7.1 192,-7.1 192,-10.4 181.9,-10.4 181.9,-7.1 185.3,-7.1 185.3,-0.3 181.9,-0.3 181.9,-3.7 178.5,-3.7 
					178.5,-0.3 175.2,-0.3 175.2,-7.1 178.5,-7.1 178.5,-10.4 175.2,-10.4 175.2,-17.2 178.5,-17.2 178.5,-13.8 185.3,-13.8 
					185.3,-17.2 181.9,-17.2 181.9,-20.5 185.3,-20.5 185.3,-23.9 178.5,-23.9 178.5,-20.5 175.2,-20.5 175.2,-23.9 168.4,-23.9 
					168.4,-20.5 171.8,-20.5 171.8,-13.8 168.4,-13.8 168.4,-17.2 165,-17.2 165,-13.8 161.7,-13.8 161.7,-20.5 165,-20.5 
					165,-23.9 158.3,-23.9 158.3,-20.5 154.9,-20.5 154.9,-23.9 148.2,-23.9 148.2,-20.5 151.6,-20.5 151.6,-17.2 148.2,-17.2 
					148.2,-13.8 154.9,-13.8 154.9,-17.2 158.3,-17.2 158.3,-7.1 154.9,-7.1 154.9,-10.4 148.2,-10.4 148.2,-7.1 151.6,-7.1 
					151.6,-3.7 148.2,-3.7 148.2,-0.3 154.9,-0.3 154.9,-3.7 158.3,-3.7 158.3,-0.3 165,-0.3 165,-3.7 161.7,-3.7 161.7,-10.4 
					165,-10.4 165,-7.1 168.4,-7.1 168.4,-10.4 171.8,-10.4 171.8,-3.7 168.4,-3.7 168.4,-0.3 171.8,-0.3 171.8,3 168.4,3 
					168.4,6.4 171.8,6.4 171.8,13.2 168.4,13.2 168.4,9.8 165,9.8 165,13.2 161.7,13.2 161.7,6.4 165,6.4 165,3 158.3,3 158.3,6.4 
					154.9,6.4 154.9,3 148.2,3 148.2,6.4 151.6,6.4 151.6,9.8 148.2,9.8 148.2,13.2 154.9,13.2 154.9,9.8 158.3,9.8 158.3,19.9 
					154.9,19.9 154.9,16.5 148.2,16.5 148.2,19.9 151.6,19.9 151.6,23.3 148.2,23.3 148.2,26.6 154.9,26.6 154.9,23.3 158.3,23.3 
					158.3,26.6 165,26.6 165,23.3 161.7,23.3 161.7,16.5 165,16.5 165,19.9 168.4,19.9 168.4,16.5 171.8,16.5 171.8,23.3 
					168.4,23.3 168.4,26.6 175.2,26.6 175.2,23.3 178.5,23.3 178.5,26.6 185.3,26.6 185.3,23.3 181.9,23.3 181.9,19.9 185.3,19.9 
					185.3,16.5 178.5,16.5 178.5,19.9 175.2,19.9 175.2,13.2 178.5,13.2 178.5,9.8 175.2,9.8 175.2,3 178.5,3 178.5,6.4 181.9,6.4 
					181.9,3 185.3,3 185.3,9.8 181.9,9.8 181.9,13.2 192,13.2 192,9.8 188.6,9.8 188.6,3 192,3 192,6.4 195.4,6.4 195.4,3 198.7,3 
					198.7,9.8 195.4,9.8 195.4,13.2 198.7,13.2 198.7,19.9 195.4,19.9 195.4,16.5 188.6,16.5 188.6,19.9 192,19.9 192,23.3 
					188.6,23.3 188.6,26.6 195.4,26.6 195.4,23.3 198.7,23.3 198.7,26.6 205.5,26.6 205.5,23.3 202.1,23.3 202.1,16.5 205.5,16.5 
					205.5,19.9 208.8,19.9 208.8,16.5 212.2,16.5 212.2,23.3 208.8,23.3 208.8,26.6 215.6,26.6 215.6,23.3 218.9,23.3 218.9,26.6 
					225.7,26.6 225.7,23.3 222.3,23.3 222.3,19.9 225.7,19.9 225.7,16.5 218.9,16.5 218.9,19.9 215.6,19.9 215.6,9.8 218.9,9.8 
					218.9,13.2 225.7,13.2 225.7,9.8 222.3,9.8 222.3,6.4 225.7,6.4 225.7,3 218.9,3 218.9,6.4 215.6,6.4 215.6,3 208.8,3 
					208.8,6.4 212.2,6.4 212.2,13.2 208.8,13.2 208.8,9.8 205.5,9.8 205.5,13.2 202.1,13.2 202.1,6.4 205.5,6.4 205.5,3 202.1,3 
					202.1,-3.7 205.5,-3.7 205.5,-0.3 212.2,-0.3 212.2,-3.7 208.8,-3.7 208.8,-7.1 212.2,-7.1 212.2,-10.4 205.5,-10.4 205.5,-7.1 
					202.1,-7.1 202.1,-13.8 205.5,-13.8 205.5,-17.2 202.1,-17.2 202.1,-23.9 205.5,-23.9 205.5,-20.5 208.8,-20.5 208.8,-23.9 
					212.2,-23.9 212.2,-17.2 208.8,-17.2 208.8,-13.8 218.9,-13.8 218.9,-17.2 215.6,-17.2 215.6,-23.9 218.9,-23.9 218.9,-20.5 
					222.3,-20.5 222.3,-23.9 225.7,-23.9 225.7,-17.2 222.3,-17.2 222.3,-13.8 225.7,-13.8 225.7,-7.1 222.3,-7.1 222.3,-10.4 
					215.6,-10.4 215.6,-7.1 218.9,-7.1 218.9,-3.7 215.6,-3.7 215.6,-0.3 222.3,-0.3 222.3,-3.7 225.7,-3.7 225.7,-0.3 229,-0.3 
					229,-3.7 232.4,-3.7 232.4,-0.3 239.1,-0.3 239.1,-3.7 235.8,-3.7 235.8,-7.1 239.1,-7.1 239.1,-10.4 232.4,-10.4 232.4,-7.1 
					229,-7.1 229,-13.8 232.4,-13.8 232.4,-17.2 229,-17.2 229,-23.9 232.4,-23.9 232.4,-20.5 235.8,-20.5 235.8,-23.9 239.1,-23.9 
					239.1,-17.2 235.8,-17.2 235.8,-13.8 245.9,-13.8 245.9,-17.2 242.5,-17.2 242.5,-23.9 245.9,-23.9 245.9,-20.5 249.2,-20.5 
					249.2,-23.9 252.6,-23.9 252.6,-17.2 249.2,-17.2 249.2,-13.8 252.6,-13.8 252.6,-7.1 249.2,-7.1 249.2,-10.4 242.5,-10.4 
					242.5,-7.1 245.9,-7.1 245.9,-3.7 242.5,-3.7 242.5,-0.3 249.2,-0.3 249.2,-3.7 252.6,-3.7 252.6,3 249.2,3 249.2,6.4 
					252.6,6.4 252.6,13.2 249.2,13.2 249.2,9.8 245.9,9.8 245.9,13.2 242.5,13.2 242.5,6.4 245.9,6.4 245.9,3 239.1,3 239.1,6.4 
					235.8,6.4 235.8,3 229,3 229,6.4 232.4,6.4 232.4,9.8 229,9.8 229,13.2 235.8,13.2 235.8,9.8 239.1,9.8 239.1,19.9 235.8,19.9 
					235.8,16.5 229,16.5 229,19.9 232.4,19.9 232.4,23.3 229,23.3 229,26.6 235.8,26.6 235.8,23.3 239.1,23.3 239.1,26.6 
					245.9,26.6 245.9,23.3 242.5,23.3 242.5,16.5 245.9,16.5 245.9,19.9 249.2,19.9 249.2,16.5 252.6,16.5 252.6,23.3 249.2,23.3 
					249.2,26.6 256,26.6 256,23.3 259.3,23.3 259.3,26.6 266.1,26.6 266.1,23.3 262.7,23.3 262.7,19.9 266.1,19.9 266.1,16.5 
					259.3,16.5 259.3,19.9 256,19.9 256,13.2 259.3,13.2 259.3,9.8 256,9.8 256,3 259.3,3 259.3,6.4 262.7,6.4 262.7,3 266.1,3 
					266.1,9.8 262.7,9.8 262.7,13.2 272.8,13.2 272.8,9.8 269.5,9.8 269.5,3 272.8,3 272.8,6.4 276.2,6.4 276.2,3 279.6,3 
					279.6,9.8 276.2,9.8 276.2,13.2 279.6,13.2 279.6,19.9 276.2,19.9 276.2,16.5 269.5,16.5 269.5,19.9 272.8,19.9 272.8,23.3 
					269.5,23.3 269.5,26.6 276.2,26.6 276.2,23.3 279.6,23.3 279.6,26.6 286.3,26.6 286.3,23.3 282.9,23.3 282.9,16.5 286.3,16.5 
					286.3,19.9 289.7,19.9 289.7,16.5 293,16.5 293,23.3 289.7,23.3 289.7,26.6 296.4,26.6 296.4,23.3 299.8,23.3 299.8,26.6 
					306.5,26.6 306.5,23.3 303.1,23.3 303.1,19.9 306.5,19.9 306.5,16.5 299.8,16.5 299.8,19.9 296.4,19.9 296.4,9.8 299.8,9.8 
					299.8,13.2 306.5,13.2 306.5,9.8 303.1,9.8 303.1,6.4 306.5,6.4 306.5,3 299.8,3 299.8,6.4 296.4,6.4 296.4,3 289.7,3 
					289.7,6.4 293,6.4 293,13.2 289.7,13.2 289.7,9.8 286.3,9.8 286.3,13.2 282.9,13.2 282.9,6.4 286.3,6.4 286.3,3 282.9,3 
					282.9,-0.3 286.3,-0.3 286.3,-3.7 282.9,-3.7 282.9,-10.4 286.3,-10.4 286.3,-7.1 289.7,-7.1 289.7,-10.4 293,-10.4 293,-3.7 
					289.7,-3.7 289.7,-0.3 296.4,-0.3 296.4,-3.7 299.8,-3.7 299.8,-0.3 306.5,-0.3 306.5,-3.7 303.1,-3.7 303.1,-7.1 306.5,-7.1 
					306.5,-10.4 299.8,-10.4 299.8,-7.1 296.4,-7.1 296.4,-17.2 299.8,-17.2 299.8,-13.8 306.5,-13.8 306.5,-17.2 303.1,-17.2 
					303.1,-20.5 306.5,-20.5 306.5,-23.9 299.8,-23.9 299.8,-20.5 296.4,-20.5 296.4,-23.9 289.7,-23.9 289.7,-20.5 293,-20.5 
					293,-13.8 289.7,-13.8 289.7,-17.2 286.3,-17.2 286.3,-13.8 282.9,-13.8 282.9,-20.5 286.3,-20.5 286.3,-23.9 279.6,-23.9 
					279.6,-20.5 276.2,-20.5 276.2,-23.9 269.5,-23.9 269.5,-20.5 272.8,-20.5 272.8,-17.2 269.5,-17.2 269.5,-13.8 276.2,-13.8 
					276.2,-17.2 279.6,-17.2 279.6,-10.4 276.2,-10.4 276.2,-7.1 279.6,-7.1 279.6,-0.3 276.2,-0.3 276.2,-3.7 272.8,-3.7 
					272.8,-0.3 269.5,-0.3 269.5,-7.1 272.8,-7.1 272.8,-10.4 262.7,-10.4 262.7,-7.1 266.1,-7.1 266.1,-0.3 262.7,-0.3 262.7,-3.7 
					259.3,-3.7 259.3,-0.3 256,-0.3 256,-7.1 259.3,-7.1 259.3,-10.4 256,-10.4 256,-17.2 259.3,-17.2 259.3,-13.8 266.1,-13.8 
					266.1,-17.2 262.7,-17.2 262.7,-20.5 266.1,-20.5 266.1,-23.9 259.3,-23.9 259.3,-20.5 256,-20.5 256,-27.3 259.3,-27.3 
					259.3,-30.6 256,-30.6 256,-37.4 259.3,-37.4 259.3,-34 262.7,-34 262.7,-37.4 266.1,-37.4 266.1,-30.6 262.7,-30.6 
					262.7,-27.3 269.5,-27.3 269.5,-30.6 272.8,-30.6 272.8,-27.3 279.6,-27.3 279.6,-30.6 276.2,-30.6 276.2,-34 279.6,-34 
					279.6,-37.4 272.8,-37.4 272.8,-34 269.5,-34 269.5,-44.1 272.8,-44.1 272.8,-40.7 279.6,-40.7 279.6,-44.1 276.2,-44.1 
					276.2,-47.5 279.6,-47.5 279.6,-50.8 272.8,-50.8 272.8,-47.5 269.5,-47.5 269.5,-50.8 262.7,-50.8 262.7,-47.5 266.1,-47.5 
					266.1,-40.7 262.7,-40.7 262.7,-44.1 259.3,-44.1 259.3,-40.7 256,-40.7 256,-47.5 259.3,-47.5 259.3,-50.8 256,-50.8 
					256,-57.6 259.3,-57.6 259.3,-54.2 266.1,-54.2 266.1,-57.6 262.7,-57.6 262.7,-60.9 266.1,-60.9 266.1,-64.3 259.3,-64.3 
					259.3,-60.9 256,-60.9 256,-67.7 259.3,-67.7 259.3,-71 256,-71 256,-77.8 259.3,-77.8 259.3,-74.4 262.7,-74.4 262.7,-77.8 
					266.1,-77.8 266.1,-71 262.7,-71 262.7,-67.7 272.8,-67.7 272.8,-71 269.5,-71 269.5,-77.8 272.8,-77.8 272.8,-74.4 
					276.2,-74.4 276.2,-77.8 279.6,-77.8 279.6,-71 276.2,-71 276.2,-67.7 279.6,-67.7 279.6,-60.9 276.2,-60.9 276.2,-64.3 
					269.5,-64.3 269.5,-60.9 272.8,-60.9 272.8,-57.6 269.5,-57.6 269.5,-54.2 276.2,-54.2 276.2,-57.6 279.6,-57.6 279.6,-54.2 
					282.9,-54.2 282.9,-57.6 286.3,-57.6 286.3,-54.2 293,-54.2 293,-57.6 289.7,-57.6 289.7,-60.9 293,-60.9 293,-64.3 
					286.3,-64.3 286.3,-60.9 282.9,-60.9 282.9,-67.7 286.3,-67.7 286.3,-71 282.9,-71 282.9,-77.8 286.3,-77.8 286.3,-74.4 
					289.7,-74.4 289.7,-77.8 293,-77.8 293,-71 289.7,-71 289.7,-67.7 299.8,-67.7 299.8,-71 296.4,-71 296.4,-77.8 299.8,-77.8 
					299.8,-74.4 303.1,-74.4 303.1,-77.8 306.5,-77.8 306.5,-71 303.1,-71 303.1,-67.7 306.5,-67.7 306.5,-60.9 303.1,-60.9 
					303.1,-64.3 296.4,-64.3 296.4,-60.9 299.8,-60.9 299.8,-57.6 296.4,-57.6 296.4,-54.2 303.1,-54.2 303.1,-57.6 306.5,-57.6 
					306.5,-50.8 303.1,-50.8 303.1,-47.5 306.5,-47.5 306.5,-40.7 303.1,-40.7 303.1,-44.1 299.8,-44.1 299.8,-40.7 296.4,-40.7 
					296.4,-47.5 299.8,-47.5 299.8,-50.8 293,-50.8 293,-47.5 289.7,-47.5 289.7,-50.8 282.9,-50.8 282.9,-47.5 286.3,-47.5 
					286.3,-44.1 282.9,-44.1 282.9,-40.7 289.7,-40.7 289.7,-44.1 293,-44.1 293,-34 289.7,-34 289.7,-37.4 282.9,-37.4 282.9,-34 
					286.3,-34 286.3,-30.6 282.9,-30.6 282.9,-27.3 289.7,-27.3 289.7,-30.6 293,-30.6 293,-27.3 299.8,-27.3 299.8,-30.6 
					296.4,-30.6 296.4,-37.4 299.8,-37.4 299.8,-34 303.1,-34 303.1,-37.4 306.5,-37.4 306.5,-30.6 303.1,-30.6 303.1,-27.3 
					313.2,-27.3 313.2,-30.6 309.9,-30.6 309.9,-37.4 313.2,-37.4 313.2,-34 316.6,-34 316.6,-37.4 320,-37.4 320,-30.6 
					316.6,-30.6 316.6,-27.3 323.3,-27.3 323.3,-30.6 326.7,-30.6 326.7,-27.3 333.4,-27.3 333.4,-30.6 330.1,-30.6 330.1,-34 
					333.4,-34 333.4,-37.4 326.7,-37.4 326.7,-34 323.3,-34 323.3,-44.1 326.7,-44.1 326.7,-40.7 333.4,-40.7 333.4,-44.1 
					330.1,-44.1 330.1,-47.5 333.4,-47.5 333.4,-50.8 326.7,-50.8 326.7,-47.5 323.3,-47.5 323.3,-50.8 316.6,-50.8 316.6,-47.5 
					320,-47.5 320,-40.7 316.6,-40.7 316.6,-44.1 313.2,-44.1 313.2,-40.7 309.9,-40.7 309.9,-47.5 313.2,-47.5 313.2,-50.8 
					309.9,-50.8 309.9,-57.6 313.2,-57.6 313.2,-54.2 320,-54.2 320,-57.6 316.6,-57.6 316.6,-60.9 320,-60.9 320,-64.3 
					313.2,-64.3 313.2,-60.9 309.9,-60.9 309.9,-67.7 313.2,-67.7 313.2,-71 309.9,-71 309.9,-77.8 313.2,-77.8 313.2,-74.4 
					316.6,-74.4 316.6,-77.8 320,-77.8 320,-71 316.6,-71 316.6,-67.7 326.7,-67.7 326.7,-71 323.3,-71 323.3,-77.8 326.7,-77.8 
					326.7,-74.4 330.1,-74.4 330.1,-77.8 333.4,-77.8 333.4,-71 330.1,-71 330.1,-67.7 333.4,-67.7 333.4,-60.9 330.1,-60.9 
					330.1,-64.3 323.3,-64.3 323.3,-60.9 326.7,-60.9 326.7,-57.6 323.3,-57.6 323.3,-54.2 330.1,-54.2 330.1,-57.6 333.4,-57.6 
					333.4,-54.2 336.8,-54.2 336.8,-57.6 340.2,-57.6 340.2,-54.2 346.9,-54.2 346.9,-57.6 343.5,-57.6 343.5,-60.9 346.9,-60.9 
					346.9,-64.3 340.2,-64.3 340.2,-60.9 336.8,-60.9 336.8,-67.7 340.2,-67.7 340.2,-71 336.8,-71 336.8,-77.8 340.2,-77.8 
					340.2,-74.4 343.5,-74.4 343.5,-77.8 346.9,-77.8 346.9,-71 343.5,-71 343.5,-67.7 353.6,-67.7 353.6,-71 350.3,-71 
					350.3,-77.8 353.6,-77.8 353.6,-74.4 357,-74.4 357,-77.8 360.4,-77.8 360.4,-71 357,-71 357,-67.7 360.4,-67.7 360.4,-60.9 
					357,-60.9 357,-64.3 350.3,-64.3 350.3,-60.9 353.6,-60.9 353.6,-57.6 350.3,-57.6 350.3,-54.2 357,-54.2 357,-57.6 
					360.4,-57.6 360.4,-50.8 357,-50.8 357,-47.5 360.4,-47.5 360.4,-40.7 357,-40.7 357,-44.1 353.6,-44.1 353.6,-40.7 
					350.3,-40.7 350.3,-47.5 353.6,-47.5 353.6,-50.8 346.9,-50.8 346.9,-47.5 343.5,-47.5 343.5,-50.8 336.8,-50.8 336.8,-47.5 
					340.2,-47.5 340.2,-44.1 336.8,-44.1 336.8,-40.7 343.5,-40.7 343.5,-44.1 346.9,-44.1 346.9,-34 343.5,-34 343.5,-37.4 
					336.8,-37.4 336.8,-34 340.2,-34 340.2,-30.6 336.8,-30.6 336.8,-27.3 343.5,-27.3 343.5,-30.6 346.9,-30.6 346.9,-27.3 
					353.6,-27.3 353.6,-30.6 350.3,-30.6 350.3,-37.4 353.6,-37.4 353.6,-34 357,-34 357,-37.4 360.4,-37.4 360.4,-30.6 357,-30.6 
					357,-27.3 360.4,-27.3 360.4,-20.5 357,-20.5 357,-23.9 350.3,-23.9 350.3,-20.5 353.6,-20.5 353.6,-17.2 350.3,-17.2 
					350.3,-13.8 357,-13.8 357,-17.2 360.4,-17.2 360.4,-10.4 357,-10.4 357,-7.1 360.4,-7.1 360.4,-0.3 357,-0.3 357,-3.7 
					353.6,-3.7 353.6,-0.3 350.3,-0.3 350.3,-7.1 353.6,-7.1 353.6,-10.4 343.5,-10.4 343.5,-7.1 346.9,-7.1 346.9,-0.3 343.5,-0.3 
					343.5,-3.7 340.2,-3.7 340.2,-0.3 336.8,-0.3 336.8,-7.1 340.2,-7.1 340.2,-10.4 336.8,-10.4 336.8,-17.2 340.2,-17.2 
					340.2,-13.8 346.9,-13.8 346.9,-17.2 343.5,-17.2 343.5,-20.5 346.9,-20.5 346.9,-23.9 340.2,-23.9 340.2,-20.5 336.8,-20.5 
					336.8,-23.9 330.1,-23.9 330.1,-20.5 333.4,-20.5 333.4,-13.8 330.1,-13.8 330.1,-17.2 326.7,-17.2 326.7,-13.8 323.3,-13.8 
					323.3,-20.5 326.7,-20.5 326.7,-23.9 320,-23.9 320,-20.5 316.6,-20.5 316.6,-23.9 309.9,-23.9 309.9,-20.5 313.2,-20.5 
					313.2,-17.2 309.9,-17.2 309.9,-13.8 316.6,-13.8 316.6,-17.2 320,-17.2 320,-7.1 316.6,-7.1 316.6,-10.4 309.9,-10.4 
					309.9,-7.1 313.2,-7.1 313.2,-3.7 309.9,-3.7 309.9,-0.3 316.6,-0.3 316.6,-3.7 320,-3.7 320,-0.3 326.7,-0.3 326.7,-3.7 
					323.3,-3.7 323.3,-10.4 326.7,-10.4 326.7,-7.1 330.1,-7.1 330.1,-10.4 333.4,-10.4 333.4,-3.7 330.1,-3.7 330.1,-0.3 
					333.4,-0.3 333.4,3 330.1,3 330.1,6.4 333.4,6.4 333.4,13.2 330.1,13.2 330.1,9.8 326.7,9.8 326.7,13.2 323.3,13.2 323.3,6.4 
					326.7,6.4 326.7,3 320,3 320,6.4 316.6,6.4 316.6,3 309.9,3 309.9,6.4 313.2,6.4 313.2,9.8 309.9,9.8 309.9,13.2 316.6,13.2 
					316.6,9.8 320,9.8 320,19.9 316.6,19.9 316.6,16.5 309.9,16.5 309.9,19.9 313.2,19.9 313.2,23.3 309.9,23.3 309.9,26.6 
					316.6,26.6 316.6,23.3 320,23.3 320,26.6 326.7,26.6 326.7,23.3 323.3,23.3 323.3,16.5 326.7,16.5 326.7,19.9 330.1,19.9 
					330.1,16.5 333.4,16.5 333.4,23.3 330.1,23.3 330.1,26.6 336.8,26.6 336.8,23.3 340.2,23.3 340.2,26.6 346.9,26.6 346.9,23.3 
					343.5,23.3 343.5,19.9 346.9,19.9 346.9,16.5 340.2,16.5 340.2,19.9 336.8,19.9 336.8,13.2 340.2,13.2 340.2,9.8 336.8,9.8 
					336.8,3 340.2,3 340.2,6.4 343.5,6.4 343.5,3 346.9,3 346.9,9.8 343.5,9.8 343.5,13.2 353.6,13.2 353.6,9.8 350.3,9.8 350.3,3 
					353.6,3 353.6,6.4 357,6.4 357,3 360.4,3 360.4,9.8 357,9.8 357,13.2 360.4,13.2 360.4,19.9 357,19.9 357,16.5 350.3,16.5 
					350.3,19.9 353.6,19.9 353.6,23.3 350.3,23.3 350.3,26.6 357,26.6 357,23.3 360.4,23.3 360.4,26.6 				"/>
			</g>
		</g>
	</g>
</g>
<path class="st0" d="M357.4,194.1H25.6c-10.6,0-19.3-8.7-19.3-19.3V25.6c0-10.6,8.7-19.3,19.3-19.3h331.9c10.6,0,19.3,8.7,19.3,19.3
	v149.1C376.8,185.4,368.1,194.1,357.4,194.1z"/>
<path class="st1" d="M246.8,182.7h-90.4c-3.6,0-6.6-3-6.6-6.6V42c0-3.6,3-6.6,6.6-6.6h90.4c3.6,0,6.6,3,6.6,6.6v134.1
	C253.5,179.7,250.5,182.7,246.8,182.7z"/>
<path class="st8" d="M236.7,173.8h-90.4c-3.6,0-6.6-3-6.6-6.6V33.1c0-3.6,3-6.6,6.6-6.6h90.4c3.6,0,6.6,3,6.6,6.6v134.1
	C243.4,170.8,240.4,173.8,236.7,173.8z"/>
<path class="st7" d="M139.6,44.2V33.1c0-3.6,3-6.6,6.6-6.6h90.4c3.6,0,6.6,3,6.6,6.6v11.1"/>
<rect x="139.6" y="44.2" class="st10" width="103.7" height="70.5"/>
<text transform="matrix(1 0 0 1 145.0686 58.4779)"><tspan x="0" y="0" class="st32 st33">name: string</tspan><tspan x="0" y="10" class="st32 st33">score: integer</tspan></text>
<text transform="matrix(1 0 0 1 177.905 38.889)" class="st10 st34 st35">Player</text>
<rect x="158" y="136" class="st8" width="24.3" height="14.5"/>
</svg>
