<?xml version="1.0" encoding="utf-8"?>
<!-- Generator: Adobe Illustrator 24.0.1, SVG Export Plug-In . SVG Version: 6.00 Build 0)  -->
<svg version="1.1" id="Layer_3" xmlns="http://www.w3.org/2000/svg" xmlns:xlink="http://www.w3.org/1999/xlink" x="0px" y="0px"
	 viewBox="0 0 383 200.3" style="enable-background:new 0 0 383 200.3;" xml:space="preserve">
<style type="text/css">
	.st0{fill:#EEEFED;}
	.st1{opacity:0.13;}
	.st2{fill:none;stroke:#999999;stroke-width:0.2348;stroke-miterlimit:10;}
	.st3{fill:#EEEFED;stroke:#999999;stroke-width:0.2348;stroke-miterlimit:10;}
	.st4{fill:#CCCCCC;stroke:#999999;stroke-width:0.2348;stroke-miterlimit:10;}
	.st5{fill:none;stroke:#999999;stroke-width:0.2348;stroke-miterlimit:10;stroke-dasharray:1.8784;}
	.st6{fill:none;stroke:#000000;stroke-width:1.2;stroke-miterlimit:10;}
	.st7{fill:#E72B78;}
	.st8{fill:#F9B443;}
	.st9{fill:none;stroke:#000000;stroke-width:1.414;stroke-miterlimit:10;}
	.st10{fill:#FFFFFF;}
	.st11{fill:#FFFFFF;stroke:#000000;stroke-width:0.6858;stroke-miterlimit:10;}
	.st12{opacity:0.91;}
	.st13{fill:#FF3369;}
	.st14{fill:#FFAE00;}
	.st15{fill:#723F33;}
	.st16{opacity:0.28;fill:#542C1C;enable-background:new    ;}
	.st17{opacity:0.6;fill:#603826;enable-background:new    ;}
	.st18{fill:#603826;}
	.st19{opacity:0.4;fill:#603826;enable-background:new    ;}
	.st20{fill:#F4F4F4;}
	.st21{fill:#DBDDDC;}
	.st22{fill:#B2B2B2;}
	.st23{fill:#E09220;}
	.st24{opacity:0.28;fill:#603826;enable-background:new    ;}
	.st25{fill:#C40E50;}
	.st26{fill:#FFFFFF;stroke:#000000;stroke-width:0.9534;stroke-miterlimit:10;}
	.st27{font-family:'Exo2-Black';}
	.st28{font-size:12px;}
	.st29{clip-path:url(#XMLID_5_);}
	.st30{clip-path:url(#XMLID_40_);}
	.st31{fill:#FFB53F;}
	.st32{fill:none;stroke:url(#SVGID_1_);stroke-width:0.3757;stroke-miterlimit:10;}
	.st33{fill:#0E0E0E;}
	.st34{fill:#010101;}
	.st35{fill:#E5E5E5;}
	.st36{fill:#EAEAEA;}
	.st37{fill:#E8E8E8;}
	.st38{fill:#FFFFFF;stroke:#000000;stroke-width:0.327;stroke-miterlimit:10;}
	.st39{opacity:0.44;}
	.st40{fill:#EA9628;}
	.st41{fill:#0D48CC;}
	.st42{fill:#AA0550;}
	.st43{fill:#BC1B5C;}
	.st44{fill:#DD891B;}
	.st45{fill:#002A75;}
	.st46{fill:#06307A;}
	.st47{fill:#CCCCCC;}
	.st48{fill:#71399F;}
	.st49{fill:#03347A;}
	.st50{fill:none;stroke:#EEEFED;stroke-width:3.1536;stroke-miterlimit:10;}
	.st51{opacity:0.24;fill:#56330A;}
	.st52{stroke:#000000;stroke-width:2.0888;stroke-miterlimit:10;}
	.st53{fill:#EEEFED;stroke:#000000;stroke-width:2.0888;stroke-miterlimit:10;}
	.st54{stroke:#000000;stroke-width:1.7;stroke-miterlimit:10;}
	.st55{fill:#EEEFED;stroke:#000000;stroke-width:1.7;stroke-miterlimit:10;}
	.st56{stroke:#000000;stroke-width:1.3;stroke-miterlimit:10;}
	.st57{fill:#EEEFED;stroke:#000000;stroke-width:1.3;stroke-miterlimit:10;}
	.st58{stroke:#000000;stroke-width:2;stroke-miterlimit:10;}
	.st59{stroke:#000000;stroke-width:1.912;stroke-miterlimit:10;}
	.st60{fill:none;stroke:#000000;stroke-width:1.912;stroke-miterlimit:10;}
	.st61{clip-path:url(#XMLID_211_);}
	.st62{clip-path:url(#XMLID_212_);}
	.st63{fill:none;stroke:url(#SVGID_2_);stroke-width:0.2702;stroke-miterlimit:10;}
	.st64{stroke:#000000;stroke-width:0.5;stroke-miterlimit:10;}
	.st65{fill:#FFFFFF;stroke:#000000;stroke-width:0.8987;stroke-miterlimit:10;}
	.st66{stroke:#000000;stroke-width:1.2;stroke-miterlimit:10;}
	.st67{fill:#EEEFED;stroke:#000000;stroke-width:1.2;stroke-miterlimit:10;}
	.st68{fill:#EEEFED;stroke:#000000;stroke-width:2;stroke-miterlimit:10;}
	.st69{fill:#EEEFED;stroke:#000000;stroke-width:1.912;stroke-miterlimit:10;}
</style>
<path class="st0" d="M357.4,194.1H25.6c-10.6,0-19.3-8.7-19.3-19.3V25.6c0-10.6,8.7-19.3,19.3-19.3h331.9c10.6,0,19.3,8.7,19.3,19.3
	v149.1C376.8,185.4,368.1,194.1,357.4,194.1z"/>
<path class="st1" d="M188.8,177.6h-82.9c-3.3,0-6.1-2.7-6.1-6.1V48.7c0-3.3,2.7-6.1,6.1-6.1h82.9c3.3,0,6.1,2.7,6.1,6.1v122.8
	C194.9,174.9,192.1,177.6,188.8,177.6z"/>
<path class="st1" d="M298.8,177.6h-82.9c-3.3,0-6.1-2.7-6.1-6.1V48.7c0-3.3,2.7-6.1,6.1-6.1h82.9c3.3,0,6.1,2.7,6.1,6.1v122.8
	C304.9,174.9,302.1,177.6,298.8,177.6z"/>
<path class="st10" d="M178.8,167.6H95.9c-3.3,0-6.1-2.7-6.1-6.1V38.7c0-3.3,2.7-6.1,6.1-6.1h82.9c3.3,0,6.1,2.7,6.1,6.1v122.8
	C184.9,164.9,182.1,167.6,178.8,167.6z"/>
<path class="st26" d="M163,155.5h-51.2c-2.4,0-4.4-2-4.4-4.4v-102c0-2.4,2-4.4,4.4-4.4H163c2.4,0,4.4,2,4.4,4.4v102
	C167.4,153.5,165.4,155.5,163,155.5z"/>
<text transform="matrix(1 0 0 1 94.8369 46.1773)" class="st27 st28">Q</text>
<text transform="matrix(1 0 0 1 94.8369 46.1773)" class="st27 st28">Q</text>
<g>
	<defs>
		<path id="XMLID_36_" d="M103.4,57.3c1.4-1.3,1.4-3.3,0.2-4.5c-1.2-1.2-3.2-1.3-4.4-0.1c-1.2-1.2-3.2-1.3-4.4-0.1
			c-1.3,1.2-1.3,3.2,0,4.5l4.1,4.3c0.1,0.1,0.2,0.1,0.3,0L103.4,57.3z"/>
	</defs>
	<use xlink:href="#XMLID_36_"  style="overflow:visible;fill:#E72B78;"/>
	<clipPath id="XMLID_2_">
		<use xlink:href="#XMLID_36_"  style="overflow:visible;"/>
	</clipPath>
</g>
<text transform="matrix(-1 0 0 -1 179.4296 155.4642)" class="st27 st28">Q</text>
<g>
	<defs>
		<path id="XMLID_35_" d="M170.9,144.4c-1.3,1.3-1.3,3.3-0.1,4.5c1.2,1.2,3.2,1.2,4.4,0c1.2,1.2,3.2,1.2,4.4,0
			c1.2-1.2,1.3-3.2-0.1-4.5l-4.2-4.2c-0.1-0.1-0.2-0.1-0.3,0L170.9,144.4z"/>
	</defs>
	<use xlink:href="#XMLID_35_"  style="overflow:visible;fill:#E72B78;"/>
	<clipPath id="XMLID_3_">
		<use xlink:href="#XMLID_35_"  style="overflow:visible;"/>
	</clipPath>
</g>
<g>
	<defs>
		<path id="XMLID_33_" d="M288.8,167.6h-82.9c-3.3,0-6.1-2.7-6.1-6.1V38.7c0-3.3,2.7-6.1,6.1-6.1h82.9c3.3,0,6.1,2.7,6.1,6.1v122.8
			C294.9,164.9,292.1,167.6,288.8,167.6z"/>
	</defs>
	<use xlink:href="#XMLID_33_"  style="overflow:visible;fill:#FFFFFF;"/>
	<clipPath id="XMLID_4_">
		<use xlink:href="#XMLID_33_"  style="overflow:visible;"/>
	</clipPath>
	<g style="clip-path:url(#XMLID_4_);">
		<defs>
			<rect id="XMLID_34_" x="178.1" y="31.3" width="137" height="137"/>
		</defs>
		<use xlink:href="#XMLID_34_"  style="overflow:visible;fill:#F9B443;"/>
		<clipPath id="XMLID_5_">
			<use xlink:href="#XMLID_34_"  style="overflow:visible;"/>
		</clipPath>
		<g class="st29">
			<rect x="154.4" y="31" class="st31" width="178.2" height="221.9"/>
			<g>
				<path class="st31" d="M332.5,31.1v221.6h-178V31.1H332.5 M332.8,30.9H154.3V253h178.4V30.9L332.8,30.9z"/>
			</g>
		</g>
		<g class="st29">
			<g>
				
					<linearGradient id="SVGID_1_" gradientUnits="userSpaceOnUse" x1="-846.2645" y1="2034.4821" x2="-1058.8094" y2="2034.4821" gradientTransform="matrix(1.346900e-10 -1 1 1.346900e-10 -1780.1866 -815.3391)">
					<stop  offset="0" style="stop-color:#FFC465"/>
					<stop  offset="0.6022" style="stop-color:#FFB53F"/>
				</linearGradient>
				<polyline class="st32" points="360.4,31.1 360.4,34.5 357,34.5 357,31.1 350.3,31.1 350.3,34.5 353.6,34.5 353.6,37.8 
					350.3,37.8 350.3,41.2 357,41.2 357,37.8 360.4,37.8 360.4,44.6 357,44.6 357,48 360.4,48 360.4,54.7 357,54.7 357,51.3 
					353.6,51.3 353.6,54.7 350.3,54.7 350.3,48 353.6,48 353.6,44.6 343.5,44.6 343.5,48 346.9,48 346.9,54.7 343.5,54.7 
					343.5,51.3 340.2,51.3 340.2,54.7 336.8,54.7 336.8,48 340.2,48 340.2,44.6 336.8,44.6 336.8,37.8 340.2,37.8 340.2,41.2 
					346.9,41.2 346.9,37.8 343.5,37.8 343.5,34.5 346.9,34.5 346.9,31.1 340.2,31.1 340.2,34.5 336.8,34.5 336.8,31.1 330.1,31.1 
					330.1,34.5 333.4,34.5 333.4,41.2 330.1,41.2 330.1,37.8 326.7,37.8 326.7,41.2 323.3,41.2 323.3,34.5 326.7,34.5 326.7,31.1 
					320,31.1 320,34.5 316.6,34.5 316.6,31.1 309.9,31.1 309.9,34.5 313.2,34.5 313.2,37.8 309.9,37.8 309.9,41.2 316.6,41.2 
					316.6,37.8 320,37.8 320,48 316.6,48 316.6,44.6 309.9,44.6 309.9,48 313.2,48 313.2,51.3 309.9,51.3 309.9,54.7 316.6,54.7 
					316.6,51.3 320,51.3 320,54.7 326.7,54.7 326.7,51.3 323.3,51.3 323.3,44.6 326.7,44.6 326.7,48 330.1,48 330.1,44.6 
					333.4,44.6 333.4,51.3 330.1,51.3 330.1,54.7 333.4,54.7 333.4,58.1 330.1,58.1 330.1,61.4 333.4,61.4 333.4,68.2 330.1,68.2 
					330.1,64.8 326.7,64.8 326.7,68.2 323.3,68.2 323.3,61.4 326.7,61.4 326.7,58.1 320,58.1 320,61.4 316.6,61.4 316.6,58.1 
					309.9,58.1 309.9,61.4 313.2,61.4 313.2,64.8 309.9,64.8 309.9,68.2 316.6,68.2 316.6,64.8 320,64.8 320,74.9 316.6,74.9 
					316.6,71.5 309.9,71.5 309.9,74.9 313.2,74.9 313.2,78.3 309.9,78.3 309.9,81.6 316.6,81.6 316.6,78.3 320,78.3 320,81.6 
					326.7,81.6 326.7,78.3 323.3,78.3 323.3,71.5 326.7,71.5 326.7,74.9 330.1,74.9 330.1,71.5 333.4,71.5 333.4,78.3 330.1,78.3 
					330.1,81.6 336.8,81.6 336.8,78.3 340.2,78.3 340.2,81.6 346.9,81.6 346.9,78.3 343.5,78.3 343.5,74.9 346.9,74.9 346.9,71.5 
					340.2,71.5 340.2,74.9 336.8,74.9 336.8,68.2 340.2,68.2 340.2,64.8 336.8,64.8 336.8,58.1 340.2,58.1 340.2,61.4 343.5,61.4 
					343.5,58.1 346.9,58.1 346.9,64.8 343.5,64.8 343.5,68.2 353.6,68.2 353.6,64.8 350.3,64.8 350.3,58.1 353.6,58.1 353.6,61.4 
					357,61.4 357,58.1 360.4,58.1 360.4,64.8 357,64.8 357,68.2 360.4,68.2 360.4,74.9 357,74.9 357,71.5 350.3,71.5 350.3,74.9 
					353.6,74.9 353.6,78.3 350.3,78.3 350.3,81.6 357,81.6 357,78.3 360.4,78.3 360.4,85 357,85 357,88.4 360.4,88.4 360.4,95.1 
					357,95.1 357,91.7 353.6,91.7 353.6,95.1 350.3,95.1 350.3,88.4 353.6,88.4 353.6,85 346.9,85 346.9,88.4 343.5,88.4 343.5,85 
					336.8,85 336.8,88.4 340.2,88.4 340.2,91.7 336.8,91.7 336.8,95.1 343.5,95.1 343.5,91.7 346.9,91.7 346.9,101.8 343.5,101.8 
					343.5,98.5 336.8,98.5 336.8,101.8 340.2,101.8 340.2,105.2 336.8,105.2 336.8,108.6 343.5,108.6 343.5,105.2 346.9,105.2 
					346.9,108.6 353.6,108.6 353.6,105.2 350.3,105.2 350.3,98.5 353.6,98.5 353.6,101.8 357,101.8 357,98.5 360.4,98.5 
					360.4,105.2 357,105.2 357,108.6 360.4,108.6 360.4,115.3 357,115.3 357,111.9 350.3,111.9 350.3,115.3 353.6,115.3 
					353.6,118.7 350.3,118.7 350.3,122 357,122 357,118.7 360.4,118.7 360.4,125.4 357,125.4 357,128.8 360.4,128.8 360.4,135.5 
					357,135.5 357,132.1 353.6,132.1 353.6,135.5 350.3,135.5 350.3,128.8 353.6,128.8 353.6,125.4 343.5,125.4 343.5,128.8 
					346.9,128.8 346.9,135.5 343.5,135.5 343.5,132.1 340.2,132.1 340.2,135.5 336.8,135.5 336.8,128.8 340.2,128.8 340.2,125.4 
					336.8,125.4 336.8,118.7 340.2,118.7 340.2,122 346.9,122 346.9,118.7 343.5,118.7 343.5,115.3 346.9,115.3 346.9,111.9 
					340.2,111.9 340.2,115.3 336.8,115.3 336.8,111.9 333.4,111.9 333.4,115.3 330.1,115.3 330.1,111.9 323.3,111.9 323.3,115.3 
					326.7,115.3 326.7,118.7 323.3,118.7 323.3,122 330.1,122 330.1,118.7 333.4,118.7 333.4,125.4 330.1,125.4 330.1,128.8 
					333.4,128.8 333.4,135.5 330.1,135.5 330.1,132.1 326.7,132.1 326.7,135.5 323.3,135.5 323.3,128.8 326.7,128.8 326.7,125.4 
					316.6,125.4 316.6,128.8 320,128.8 320,135.5 316.6,135.5 316.6,132.1 313.2,132.1 313.2,135.5 309.9,135.5 309.9,128.8 
					313.2,128.8 313.2,125.4 309.9,125.4 309.9,118.7 313.2,118.7 313.2,122 320,122 320,118.7 316.6,118.7 316.6,115.3 320,115.3 
					320,111.9 313.2,111.9 313.2,115.3 309.9,115.3 309.9,108.6 313.2,108.6 313.2,105.2 309.9,105.2 309.9,98.5 313.2,98.5 
					313.2,101.8 316.6,101.8 316.6,98.5 320,98.5 320,105.2 316.6,105.2 316.6,108.6 323.3,108.6 323.3,105.2 326.7,105.2 
					326.7,108.6 333.4,108.6 333.4,105.2 330.1,105.2 330.1,101.8 333.4,101.8 333.4,98.5 326.7,98.5 326.7,101.8 323.3,101.8 
					323.3,91.7 326.7,91.7 326.7,95.1 333.4,95.1 333.4,91.7 330.1,91.7 330.1,88.4 333.4,88.4 333.4,85 326.7,85 326.7,88.4 
					323.3,88.4 323.3,85 316.6,85 316.6,88.4 320,88.4 320,95.1 316.6,95.1 316.6,91.7 313.2,91.7 313.2,95.1 309.9,95.1 
					309.9,88.4 313.2,88.4 313.2,85 303.1,85 303.1,88.4 306.5,88.4 306.5,95.1 303.1,95.1 303.1,91.7 299.8,91.7 299.8,95.1 
					296.4,95.1 296.4,88.4 299.8,88.4 299.8,85 293,85 293,88.4 289.7,88.4 289.7,85 282.9,85 282.9,88.4 286.3,88.4 286.3,91.7 
					282.9,91.7 282.9,95.1 289.7,95.1 289.7,91.7 293,91.7 293,101.8 289.7,101.8 289.7,98.5 282.9,98.5 282.9,101.8 286.3,101.8 
					286.3,105.2 282.9,105.2 282.9,108.6 289.7,108.6 289.7,105.2 293,105.2 293,108.6 299.8,108.6 299.8,105.2 296.4,105.2 
					296.4,98.5 299.8,98.5 299.8,101.8 303.1,101.8 303.1,98.5 306.5,98.5 306.5,105.2 303.1,105.2 303.1,108.6 306.5,108.6 
					306.5,115.3 303.1,115.3 303.1,111.9 296.4,111.9 296.4,115.3 299.8,115.3 299.8,118.7 296.4,118.7 296.4,122 303.1,122 
					303.1,118.7 306.5,118.7 306.5,125.4 303.1,125.4 303.1,128.8 306.5,128.8 306.5,135.5 303.1,135.5 303.1,132.1 299.8,132.1 
					299.8,135.5 296.4,135.5 296.4,128.8 299.8,128.8 299.8,125.4 289.7,125.4 289.7,128.8 293,128.8 293,135.5 289.7,135.5 
					289.7,132.1 286.3,132.1 286.3,135.5 282.9,135.5 282.9,128.8 286.3,128.8 286.3,125.4 282.9,125.4 282.9,118.7 286.3,118.7 
					286.3,122 293,122 293,118.7 289.7,118.7 289.7,115.3 293,115.3 293,111.9 286.3,111.9 286.3,115.3 282.9,115.3 282.9,111.9 
					279.6,111.9 279.6,115.3 276.2,115.3 276.2,111.9 269.5,111.9 269.5,115.3 272.8,115.3 272.8,118.7 269.5,118.7 269.5,122 
					276.2,122 276.2,118.7 279.6,118.7 279.6,125.4 276.2,125.4 276.2,128.8 279.6,128.8 279.6,135.5 276.2,135.5 276.2,132.1 
					272.8,132.1 272.8,135.5 269.5,135.5 269.5,128.8 272.8,128.8 272.8,125.4 262.7,125.4 262.7,128.8 266.1,128.8 266.1,135.5 
					262.7,135.5 262.7,132.1 259.3,132.1 259.3,135.5 256,135.5 256,128.8 259.3,128.8 259.3,125.4 256,125.4 256,118.7 
					259.3,118.7 259.3,122 266.1,122 266.1,118.7 262.7,118.7 262.7,115.3 266.1,115.3 266.1,111.9 259.3,111.9 259.3,115.3 
					256,115.3 256,108.6 259.3,108.6 259.3,105.2 256,105.2 256,98.5 259.3,98.5 259.3,101.8 262.7,101.8 262.7,98.5 266.1,98.5 
					266.1,105.2 262.7,105.2 262.7,108.6 269.5,108.6 269.5,105.2 272.8,105.2 272.8,108.6 279.6,108.6 279.6,105.2 276.2,105.2 
					276.2,101.8 279.6,101.8 279.6,98.5 272.8,98.5 272.8,101.8 269.5,101.8 269.5,91.7 272.8,91.7 272.8,95.1 279.6,95.1 
					279.6,91.7 276.2,91.7 276.2,88.4 279.6,88.4 279.6,85 272.8,85 272.8,88.4 269.5,88.4 269.5,85 262.7,85 262.7,88.4 
					266.1,88.4 266.1,95.1 262.7,95.1 262.7,91.7 259.3,91.7 259.3,95.1 256,95.1 256,88.4 259.3,88.4 259.3,85 256,85 256,78.3 
					259.3,78.3 259.3,81.6 266.1,81.6 266.1,78.3 262.7,78.3 262.7,74.9 266.1,74.9 266.1,71.5 259.3,71.5 259.3,74.9 256,74.9 
					256,68.2 259.3,68.2 259.3,64.8 256,64.8 256,58.1 259.3,58.1 259.3,61.4 262.7,61.4 262.7,58.1 266.1,58.1 266.1,64.8 
					262.7,64.8 262.7,68.2 272.8,68.2 272.8,64.8 269.5,64.8 269.5,58.1 272.8,58.1 272.8,61.4 276.2,61.4 276.2,58.1 279.6,58.1 
					279.6,64.8 276.2,64.8 276.2,68.2 279.6,68.2 279.6,74.9 276.2,74.9 276.2,71.5 269.5,71.5 269.5,74.9 272.8,74.9 272.8,78.3 
					269.5,78.3 269.5,81.6 276.2,81.6 276.2,78.3 279.6,78.3 279.6,81.6 286.3,81.6 286.3,78.3 282.9,78.3 282.9,71.5 286.3,71.5 
					286.3,74.9 289.7,74.9 289.7,71.5 293,71.5 293,78.3 289.7,78.3 289.7,81.6 296.4,81.6 296.4,78.3 299.8,78.3 299.8,81.6 
					306.5,81.6 306.5,78.3 303.1,78.3 303.1,74.9 306.5,74.9 306.5,71.5 299.8,71.5 299.8,74.9 296.4,74.9 296.4,64.8 299.8,64.8 
					299.8,68.2 306.5,68.2 306.5,64.8 303.1,64.8 303.1,61.4 306.5,61.4 306.5,58.1 299.8,58.1 299.8,61.4 296.4,61.4 296.4,58.1 
					289.7,58.1 289.7,61.4 293,61.4 293,68.2 289.7,68.2 289.7,64.8 286.3,64.8 286.3,68.2 282.9,68.2 282.9,61.4 286.3,61.4 
					286.3,58.1 282.9,58.1 282.9,54.7 286.3,54.7 286.3,51.3 282.9,51.3 282.9,44.6 286.3,44.6 286.3,48 289.7,48 289.7,44.6 
					293,44.6 293,51.3 289.7,51.3 289.7,54.7 296.4,54.7 296.4,51.3 299.8,51.3 299.8,54.7 306.5,54.7 306.5,51.3 303.1,51.3 
					303.1,48 306.5,48 306.5,44.6 299.8,44.6 299.8,48 296.4,48 296.4,37.8 299.8,37.8 299.8,41.2 306.5,41.2 306.5,37.8 
					303.1,37.8 303.1,34.5 306.5,34.5 306.5,31.1 299.8,31.1 299.8,34.5 296.4,34.5 296.4,31.1 289.7,31.1 289.7,34.5 293,34.5 
					293,41.2 289.7,41.2 289.7,37.8 286.3,37.8 286.3,41.2 282.9,41.2 282.9,34.5 286.3,34.5 286.3,31.1 279.6,31.1 279.6,34.5 
					276.2,34.5 276.2,31.1 269.5,31.1 269.5,34.5 272.8,34.5 272.8,37.8 269.5,37.8 269.5,41.2 276.2,41.2 276.2,37.8 279.6,37.8 
					279.6,44.6 276.2,44.6 276.2,48 279.6,48 279.6,54.7 276.2,54.7 276.2,51.3 272.8,51.3 272.8,54.7 269.5,54.7 269.5,48 
					272.8,48 272.8,44.6 262.7,44.6 262.7,48 266.1,48 266.1,54.7 262.7,54.7 262.7,51.3 259.3,51.3 259.3,54.7 256,54.7 256,48 
					259.3,48 259.3,44.6 256,44.6 256,37.8 259.3,37.8 259.3,41.2 266.1,41.2 266.1,37.8 262.7,37.8 262.7,34.5 266.1,34.5 
					266.1,31.1 259.3,31.1 259.3,34.5 256,34.5 256,31.1 249.2,31.1 249.2,34.5 252.6,34.5 252.6,41.2 249.2,41.2 249.2,37.8 
					245.9,37.8 245.9,41.2 242.5,41.2 242.5,34.5 245.9,34.5 245.9,31.1 239.1,31.1 239.1,34.5 235.8,34.5 235.8,31.1 229,31.1 
					229,34.5 232.4,34.5 232.4,37.8 229,37.8 229,41.2 235.8,41.2 235.8,37.8 239.1,37.8 239.1,48 235.8,48 235.8,44.6 229,44.6 
					229,48 232.4,48 232.4,51.3 229,51.3 229,54.7 235.8,54.7 235.8,51.3 239.1,51.3 239.1,54.7 245.9,54.7 245.9,51.3 242.5,51.3 
					242.5,44.6 245.9,44.6 245.9,48 249.2,48 249.2,44.6 252.6,44.6 252.6,51.3 249.2,51.3 249.2,54.7 252.6,54.7 252.6,61.4 
					249.2,61.4 249.2,58.1 242.5,58.1 242.5,61.4 245.9,61.4 245.9,64.8 242.5,64.8 242.5,68.2 249.2,68.2 249.2,64.8 252.6,64.8 
					252.6,71.5 249.2,71.5 249.2,74.9 252.6,74.9 252.6,81.6 249.2,81.6 249.2,78.3 245.9,78.3 245.9,81.6 242.5,81.6 242.5,74.9 
					245.9,74.9 245.9,71.5 235.8,71.5 235.8,74.9 239.1,74.9 239.1,81.6 235.8,81.6 235.8,78.3 232.4,78.3 232.4,81.6 229,81.6 
					229,74.9 232.4,74.9 232.4,71.5 229,71.5 229,64.8 232.4,64.8 232.4,68.2 239.1,68.2 239.1,64.8 235.8,64.8 235.8,61.4 
					239.1,61.4 239.1,58.1 232.4,58.1 232.4,61.4 229,61.4 229,58.1 225.7,58.1 225.7,61.4 222.3,61.4 222.3,58.1 215.6,58.1 
					215.6,61.4 218.9,61.4 218.9,64.8 215.6,64.8 215.6,68.2 222.3,68.2 222.3,64.8 225.7,64.8 225.7,71.5 222.3,71.5 222.3,74.9 
					225.7,74.9 225.7,81.6 222.3,81.6 222.3,78.3 218.9,78.3 218.9,81.6 215.6,81.6 215.6,74.9 218.9,74.9 218.9,71.5 208.8,71.5 
					208.8,74.9 212.2,74.9 212.2,81.6 208.8,81.6 208.8,78.3 205.5,78.3 205.5,81.6 202.1,81.6 202.1,74.9 205.5,74.9 205.5,71.5 
					202.1,71.5 202.1,64.8 205.5,64.8 205.5,68.2 212.2,68.2 212.2,64.8 208.8,64.8 208.8,61.4 212.2,61.4 212.2,58.1 205.5,58.1 
					205.5,61.4 202.1,61.4 202.1,54.7 205.5,54.7 205.5,51.3 202.1,51.3 202.1,44.6 205.5,44.6 205.5,48 208.8,48 208.8,44.6 
					212.2,44.6 212.2,51.3 208.8,51.3 208.8,54.7 215.6,54.7 215.6,51.3 218.9,51.3 218.9,54.7 225.7,54.7 225.7,51.3 222.3,51.3 
					222.3,48 225.7,48 225.7,44.6 218.9,44.6 218.9,48 215.6,48 215.6,37.8 218.9,37.8 218.9,41.2 225.7,41.2 225.7,37.8 
					222.3,37.8 222.3,34.5 225.7,34.5 225.7,31.1 218.9,31.1 218.9,34.5 215.6,34.5 215.6,31.1 208.8,31.1 208.8,34.5 212.2,34.5 
					212.2,41.2 208.8,41.2 208.8,37.8 205.5,37.8 205.5,41.2 202.1,41.2 202.1,34.5 205.5,34.5 205.5,31.1 198.7,31.1 198.7,34.5 
					195.4,34.5 195.4,31.1 188.6,31.1 188.6,34.5 192,34.5 192,37.8 188.6,37.8 188.6,41.2 195.4,41.2 195.4,37.8 198.7,37.8 
					198.7,44.6 195.4,44.6 195.4,48 198.7,48 198.7,54.7 195.4,54.7 195.4,51.3 192,51.3 192,54.7 188.6,54.7 188.6,48 192,48 
					192,44.6 181.9,44.6 181.9,48 185.3,48 185.3,54.7 181.9,54.7 181.9,51.3 178.5,51.3 178.5,54.7 175.2,54.7 175.2,48 178.5,48 
					178.5,44.6 175.2,44.6 175.2,37.8 178.5,37.8 178.5,41.2 185.3,41.2 185.3,37.8 181.9,37.8 181.9,34.5 185.3,34.5 185.3,31.1 
					178.5,31.1 178.5,34.5 175.2,34.5 175.2,31.1 168.4,31.1 168.4,34.5 171.8,34.5 171.8,41.2 168.4,41.2 168.4,37.8 165,37.8 
					165,41.2 161.7,41.2 161.7,34.5 165,34.5 165,31.1 158.3,31.1 158.3,34.5 154.9,34.5 154.9,31.1 148.2,31.1 148.2,34.5 
					151.6,34.5 151.6,37.8 148.2,37.8 148.2,41.2 154.9,41.2 154.9,37.8 158.3,37.8 158.3,48 154.9,48 154.9,44.6 148.2,44.6 
					148.2,48 151.6,48 151.6,51.3 148.2,51.3 148.2,54.7 154.9,54.7 154.9,51.3 158.3,51.3 158.3,54.7 165,54.7 165,51.3 
					161.7,51.3 161.7,44.6 165,44.6 165,48 168.4,48 168.4,44.6 171.8,44.6 171.8,51.3 168.4,51.3 168.4,54.7 171.8,54.7 
					171.8,58.1 168.4,58.1 168.4,61.4 171.8,61.4 171.8,68.2 168.4,68.2 168.4,64.8 165,64.8 165,68.2 161.7,68.2 161.7,61.4 
					165,61.4 165,58.1 158.3,58.1 158.3,61.4 154.9,61.4 154.9,58.1 148.2,58.1 148.2,61.4 151.6,61.4 151.6,64.8 148.2,64.8 
					148.2,68.2 154.9,68.2 154.9,64.8 158.3,64.8 158.3,74.9 154.9,74.9 154.9,71.5 148.2,71.5 148.2,74.9 151.6,74.9 151.6,78.3 
					148.2,78.3 148.2,81.6 154.9,81.6 154.9,78.3 158.3,78.3 158.3,81.6 165,81.6 165,78.3 161.7,78.3 161.7,71.5 165,71.5 
					165,74.9 168.4,74.9 168.4,71.5 171.8,71.5 171.8,78.3 168.4,78.3 168.4,81.6 175.2,81.6 175.2,78.3 178.5,78.3 178.5,81.6 
					185.3,81.6 185.3,78.3 181.9,78.3 181.9,74.9 185.3,74.9 185.3,71.5 178.5,71.5 178.5,74.9 175.2,74.9 175.2,68.2 178.5,68.2 
					178.5,64.8 175.2,64.8 175.2,58.1 178.5,58.1 178.5,61.4 181.9,61.4 181.9,58.1 185.3,58.1 185.3,64.8 181.9,64.8 181.9,68.2 
					192,68.2 192,64.8 188.6,64.8 188.6,58.1 192,58.1 192,61.4 195.4,61.4 195.4,58.1 198.7,58.1 198.7,64.8 195.4,64.8 
					195.4,68.2 198.7,68.2 198.7,74.9 195.4,74.9 195.4,71.5 188.6,71.5 188.6,74.9 192,74.9 192,78.3 188.6,78.3 188.6,81.6 
					195.4,81.6 195.4,78.3 198.7,78.3 198.7,88.4 195.4,88.4 195.4,85 188.6,85 188.6,88.4 192,88.4 192,91.7 188.6,91.7 
					188.6,95.1 195.4,95.1 195.4,91.7 198.7,91.7 198.7,98.5 195.4,98.5 195.4,101.8 198.7,101.8 198.7,108.6 195.4,108.6 
					195.4,105.2 192,105.2 192,108.6 188.6,108.6 188.6,101.8 192,101.8 192,98.5 181.9,98.5 181.9,101.8 185.3,101.8 185.3,108.6 
					181.9,108.6 181.9,105.2 178.5,105.2 178.5,108.6 175.2,108.6 175.2,101.8 178.5,101.8 178.5,98.5 175.2,98.5 175.2,91.7 
					178.5,91.7 178.5,95.1 185.3,95.1 185.3,91.7 181.9,91.7 181.9,88.4 185.3,88.4 185.3,85 178.5,85 178.5,88.4 175.2,88.4 
					175.2,85 168.4,85 168.4,88.4 171.8,88.4 171.8,95.1 168.4,95.1 168.4,91.7 165,91.7 165,95.1 161.7,95.1 161.7,88.4 165,88.4 
					165,85 158.3,85 158.3,88.4 154.9,88.4 154.9,85 148.2,85 148.2,88.4 151.6,88.4 151.6,91.7 148.2,91.7 148.2,95.1 154.9,95.1 
					154.9,91.7 158.3,91.7 158.3,101.8 154.9,101.8 154.9,98.5 148.2,98.5 148.2,101.8 151.6,101.8 151.6,105.2 148.2,105.2 
					148.2,108.6 154.9,108.6 154.9,105.2 158.3,105.2 158.3,108.6 165,108.6 165,105.2 161.7,105.2 161.7,98.5 165,98.5 165,101.8 
					168.4,101.8 168.4,98.5 171.8,98.5 171.8,105.2 168.4,105.2 168.4,108.6 171.8,108.6 171.8,111.9 168.4,111.9 168.4,115.3 
					171.8,115.3 171.8,122 168.4,122 168.4,118.7 165,118.7 165,122 161.7,122 161.7,115.3 165,115.3 165,111.9 158.3,111.9 
					158.3,115.3 154.9,115.3 154.9,111.9 148.2,111.9 148.2,115.3 151.6,115.3 151.6,118.7 148.2,118.7 148.2,122 154.9,122 
					154.9,118.7 158.3,118.7 158.3,128.8 154.9,128.8 154.9,125.4 148.2,125.4 148.2,128.8 151.6,128.8 151.6,132.1 148.2,132.1 
					148.2,135.5 154.9,135.5 154.9,132.1 158.3,132.1 158.3,135.5 165,135.5 165,132.1 161.7,132.1 161.7,125.4 165,125.4 
					165,128.8 168.4,128.8 168.4,125.4 171.8,125.4 171.8,132.1 168.4,132.1 168.4,135.5 175.2,135.5 175.2,132.1 178.5,132.1 
					178.5,135.5 185.3,135.5 185.3,132.1 181.9,132.1 181.9,128.8 185.3,128.8 185.3,125.4 178.5,125.4 178.5,128.8 175.2,128.8 
					175.2,122 178.5,122 178.5,118.7 175.2,118.7 175.2,111.9 178.5,111.9 178.5,115.3 181.9,115.3 181.9,111.9 185.3,111.9 
					185.3,118.7 181.9,118.7 181.9,122 192,122 192,118.7 188.6,118.7 188.6,111.9 192,111.9 192,115.3 195.4,115.3 195.4,111.9 
					198.7,111.9 198.7,118.7 195.4,118.7 195.4,122 198.7,122 198.7,128.8 195.4,128.8 195.4,125.4 188.6,125.4 188.6,128.8 
					192,128.8 192,132.1 188.6,132.1 188.6,135.5 195.4,135.5 195.4,132.1 198.7,132.1 198.7,135.5 205.5,135.5 205.5,132.1 
					202.1,132.1 202.1,125.4 205.5,125.4 205.5,128.8 208.8,128.8 208.8,125.4 212.2,125.4 212.2,132.1 208.8,132.1 208.8,135.5 
					215.6,135.5 215.6,132.1 218.9,132.1 218.9,135.5 225.7,135.5 225.7,132.1 222.3,132.1 222.3,128.8 225.7,128.8 225.7,125.4 
					218.9,125.4 218.9,128.8 215.6,128.8 215.6,118.7 218.9,118.7 218.9,122 225.7,122 225.7,118.7 222.3,118.7 222.3,115.3 
					225.7,115.3 225.7,111.9 218.9,111.9 218.9,115.3 215.6,115.3 215.6,111.9 208.8,111.9 208.8,115.3 212.2,115.3 212.2,122 
					208.8,122 208.8,118.7 205.5,118.7 205.5,122 202.1,122 202.1,115.3 205.5,115.3 205.5,111.9 202.1,111.9 202.1,105.2 
					205.5,105.2 205.5,108.6 212.2,108.6 212.2,105.2 208.8,105.2 208.8,101.8 212.2,101.8 212.2,98.5 205.5,98.5 205.5,101.8 
					202.1,101.8 202.1,95.1 205.5,95.1 205.5,91.7 202.1,91.7 202.1,85 205.5,85 205.5,88.4 208.8,88.4 208.8,85 212.2,85 
					212.2,91.7 208.8,91.7 208.8,95.1 218.9,95.1 218.9,91.7 215.6,91.7 215.6,85 218.9,85 218.9,88.4 222.3,88.4 222.3,85 
					225.7,85 225.7,91.7 222.3,91.7 222.3,95.1 225.7,95.1 225.7,101.8 222.3,101.8 222.3,98.5 215.6,98.5 215.6,101.8 218.9,101.8 
					218.9,105.2 215.6,105.2 215.6,108.6 222.3,108.6 222.3,105.2 225.7,105.2 225.7,108.6 229,108.6 229,105.2 232.4,105.2 
					232.4,108.6 239.1,108.6 239.1,105.2 235.8,105.2 235.8,101.8 239.1,101.8 239.1,98.5 232.4,98.5 232.4,101.8 229,101.8 
					229,95.1 232.4,95.1 232.4,91.7 229,91.7 229,85 232.4,85 232.4,88.4 235.8,88.4 235.8,85 239.1,85 239.1,91.7 235.8,91.7 
					235.8,95.1 245.9,95.1 245.9,91.7 242.5,91.7 242.5,85 245.9,85 245.9,88.4 249.2,88.4 249.2,85 252.6,85 252.6,91.7 
					249.2,91.7 249.2,95.1 252.6,95.1 252.6,101.8 249.2,101.8 249.2,98.5 242.5,98.5 242.5,101.8 245.9,101.8 245.9,105.2 
					242.5,105.2 242.5,108.6 249.2,108.6 249.2,105.2 252.6,105.2 252.6,111.9 249.2,111.9 249.2,115.3 252.6,115.3 252.6,122 
					249.2,122 249.2,118.7 245.9,118.7 245.9,122 242.5,122 242.5,115.3 245.9,115.3 245.9,111.9 239.1,111.9 239.1,115.3 
					235.8,115.3 235.8,111.9 229,111.9 229,115.3 232.4,115.3 232.4,118.7 229,118.7 229,122 235.8,122 235.8,118.7 239.1,118.7 
					239.1,128.8 235.8,128.8 235.8,125.4 229,125.4 229,128.8 232.4,128.8 232.4,132.1 229,132.1 229,135.5 235.8,135.5 
					235.8,132.1 239.1,132.1 239.1,135.5 245.9,135.5 245.9,132.1 242.5,132.1 242.5,125.4 245.9,125.4 245.9,128.8 249.2,128.8 
					249.2,125.4 252.6,125.4 252.6,132.1 249.2,132.1 249.2,135.5 252.6,135.5 252.6,138.9 249.2,138.9 249.2,142.2 252.6,142.2 
					252.6,149 249.2,149 249.2,145.6 245.9,145.6 245.9,149 242.5,149 242.5,142.2 245.9,142.2 245.9,138.9 239.1,138.9 
					239.1,142.2 235.8,142.2 235.8,138.9 229,138.9 229,142.2 232.4,142.2 232.4,145.6 229,145.6 229,149 235.8,149 235.8,145.6 
					239.1,145.6 239.1,155.7 235.8,155.7 235.8,152.4 229,152.4 229,155.7 232.4,155.7 232.4,159.1 229,159.1 229,162.5 
					235.8,162.5 235.8,159.1 239.1,159.1 239.1,162.5 245.9,162.5 245.9,159.1 242.5,159.1 242.5,152.4 245.9,152.4 245.9,155.7 
					249.2,155.7 249.2,152.4 252.6,152.4 252.6,159.1 249.2,159.1 249.2,162.5 252.6,162.5 252.6,169.2 249.2,169.2 249.2,165.8 
					242.5,165.8 242.5,169.2 245.9,169.2 245.9,172.6 242.5,172.6 242.5,175.9 249.2,175.9 249.2,172.6 252.6,172.6 252.6,179.3 
					249.2,179.3 249.2,182.7 252.6,182.7 252.6,189.4 249.2,189.4 249.2,186 245.9,186 245.9,189.4 242.5,189.4 242.5,182.7 
					245.9,182.7 245.9,179.3 235.8,179.3 235.8,182.7 239.1,182.7 239.1,189.4 235.8,189.4 235.8,186 232.4,186 232.4,189.4 
					229,189.4 229,182.7 232.4,182.7 232.4,179.3 229,179.3 229,172.6 232.4,172.6 232.4,175.9 239.1,175.9 239.1,172.6 
					235.8,172.6 235.8,169.2 239.1,169.2 239.1,165.8 232.4,165.8 232.4,169.2 229,169.2 229,165.8 225.7,165.8 225.7,169.2 
					222.3,169.2 222.3,165.8 215.6,165.8 215.6,169.2 218.9,169.2 218.9,172.6 215.6,172.6 215.6,175.9 222.3,175.9 222.3,172.6 
					225.7,172.6 225.7,179.3 222.3,179.3 222.3,182.7 225.7,182.7 225.7,189.4 222.3,189.4 222.3,186 218.9,186 218.9,189.4 
					215.6,189.4 215.6,182.7 218.9,182.7 218.9,179.3 208.8,179.3 208.8,182.7 212.2,182.7 212.2,189.4 208.8,189.4 208.8,186 
					205.5,186 205.5,189.4 202.1,189.4 202.1,182.7 205.5,182.7 205.5,179.3 202.1,179.3 202.1,172.6 205.5,172.6 205.5,175.9 
					212.2,175.9 212.2,172.6 208.8,172.6 208.8,169.2 212.2,169.2 212.2,165.8 205.5,165.8 205.5,169.2 202.1,169.2 202.1,162.5 
					205.5,162.5 205.5,159.1 202.1,159.1 202.1,152.4 205.5,152.4 205.5,155.7 208.8,155.7 208.8,152.4 212.2,152.4 212.2,159.1 
					208.8,159.1 208.8,162.5 215.6,162.5 215.6,159.1 218.9,159.1 218.9,162.5 225.7,162.5 225.7,159.1 222.3,159.1 222.3,155.7 
					225.7,155.7 225.7,152.4 218.9,152.4 218.9,155.7 215.6,155.7 215.6,145.6 218.9,145.6 218.9,149 225.7,149 225.7,145.6 
					222.3,145.6 222.3,142.2 225.7,142.2 225.7,138.9 218.9,138.9 218.9,142.2 215.6,142.2 215.6,138.9 208.8,138.9 208.8,142.2 
					212.2,142.2 212.2,149 208.8,149 208.8,145.6 205.5,145.6 205.5,149 202.1,149 202.1,142.2 205.5,142.2 205.5,138.9 
					198.7,138.9 198.7,142.2 195.4,142.2 195.4,138.9 188.6,138.9 188.6,142.2 192,142.2 192,145.6 188.6,145.6 188.6,149 
					195.4,149 195.4,145.6 198.7,145.6 198.7,152.4 195.4,152.4 195.4,155.7 198.7,155.7 198.7,162.5 195.4,162.5 195.4,159.1 
					192,159.1 192,162.5 188.6,162.5 188.6,155.7 192,155.7 192,152.4 181.9,152.4 181.9,155.7 185.3,155.7 185.3,162.5 
					181.9,162.5 181.9,159.1 178.5,159.1 178.5,162.5 175.2,162.5 175.2,155.7 178.5,155.7 178.5,152.4 175.2,152.4 175.2,145.6 
					178.5,145.6 178.5,149 185.3,149 185.3,145.6 181.9,145.6 181.9,142.2 185.3,142.2 185.3,138.9 178.5,138.9 178.5,142.2 
					175.2,142.2 175.2,138.9 168.4,138.9 168.4,142.2 171.8,142.2 171.8,149 168.4,149 168.4,145.6 165,145.6 165,149 161.7,149 
					161.7,142.2 165,142.2 165,138.9 158.3,138.9 158.3,142.2 154.9,142.2 154.9,138.9 148.2,138.9 148.2,142.2 151.6,142.2 
					151.6,145.6 148.2,145.6 148.2,149 154.9,149 154.9,145.6 158.3,145.6 158.3,155.7 154.9,155.7 154.9,152.4 148.2,152.4 
					148.2,155.7 151.6,155.7 151.6,159.1 148.2,159.1 148.2,162.5 154.9,162.5 154.9,159.1 158.3,159.1 158.3,162.5 165,162.5 
					165,159.1 161.7,159.1 161.7,152.4 165,152.4 165,155.7 168.4,155.7 168.4,152.4 171.8,152.4 171.8,159.1 168.4,159.1 
					168.4,162.5 171.8,162.5 171.8,165.8 168.4,165.8 168.4,169.2 171.8,169.2 171.8,175.9 168.4,175.9 168.4,172.6 165,172.6 
					165,175.9 161.7,175.9 161.7,169.2 165,169.2 165,165.8 158.3,165.8 158.3,169.2 154.9,169.2 154.9,165.8 148.2,165.8 
					148.2,169.2 151.6,169.2 151.6,172.6 148.2,172.6 148.2,175.9 154.9,175.9 154.9,172.6 158.3,172.6 158.3,182.7 154.9,182.7 
					154.9,179.3 148.2,179.3 148.2,182.7 151.6,182.7 151.6,186 148.2,186 148.2,189.4 154.9,189.4 154.9,186 158.3,186 
					158.3,189.4 165,189.4 165,186 161.7,186 161.7,179.3 165,179.3 165,182.7 168.4,182.7 168.4,179.3 171.8,179.3 171.8,186 
					168.4,186 168.4,189.4 175.2,189.4 175.2,186 178.5,186 178.5,189.4 185.3,189.4 185.3,186 181.9,186 181.9,182.7 185.3,182.7 
					185.3,179.3 178.5,179.3 178.5,182.7 175.2,182.7 175.2,175.9 178.5,175.9 178.5,172.6 175.2,172.6 175.2,165.8 178.5,165.8 
					178.5,169.2 181.9,169.2 181.9,165.8 185.3,165.8 185.3,172.6 181.9,172.6 181.9,175.9 192,175.9 192,172.6 188.6,172.6 
					188.6,165.8 192,165.8 192,169.2 195.4,169.2 195.4,165.8 198.7,165.8 198.7,172.6 195.4,172.6 195.4,175.9 198.7,175.9 
					198.7,182.7 195.4,182.7 195.4,179.3 188.6,179.3 188.6,182.7 192,182.7 192,186 188.6,186 188.6,189.4 195.4,189.4 195.4,186 
					198.7,186 198.7,196.1 195.4,196.1 195.4,192.8 188.6,192.8 188.6,196.1 192,196.1 192,199.5 188.6,199.5 188.6,202.9 
					195.4,202.9 195.4,199.5 198.7,199.5 198.7,206.2 195.4,206.2 195.4,209.6 198.7,209.6 198.7,216.3 195.4,216.3 195.4,213 
					192,213 192,216.3 188.6,216.3 188.6,209.6 192,209.6 192,206.2 181.9,206.2 181.9,209.6 185.3,209.6 185.3,216.3 181.9,216.3 
					181.9,213 178.5,213 178.5,216.3 175.2,216.3 175.2,209.6 178.5,209.6 178.5,206.2 175.2,206.2 175.2,199.5 178.5,199.5 
					178.5,202.9 185.3,202.9 185.3,199.5 181.9,199.5 181.9,196.1 185.3,196.1 185.3,192.8 178.5,192.8 178.5,196.1 175.2,196.1 
					175.2,192.8 168.4,192.8 168.4,196.1 171.8,196.1 171.8,202.9 168.4,202.9 168.4,199.5 165,199.5 165,202.9 161.7,202.9 
					161.7,196.1 165,196.1 165,192.8 158.3,192.8 158.3,196.1 154.9,196.1 154.9,192.8 148.2,192.8 148.2,196.1 151.6,196.1 
					151.6,199.5 148.2,199.5 148.2,202.9 154.9,202.9 154.9,199.5 158.3,199.5 158.3,209.6 154.9,209.6 154.9,206.2 148.2,206.2 
					148.2,209.6 151.6,209.6 151.6,213 148.2,213 148.2,216.3 154.9,216.3 154.9,213 158.3,213 158.3,216.3 165,216.3 165,213 
					161.7,213 161.7,206.2 165,206.2 165,209.6 168.4,209.6 168.4,206.2 171.8,206.2 171.8,213 168.4,213 168.4,216.3 171.8,216.3 
					171.8,219.7 168.4,219.7 168.4,223.1 171.8,223.1 171.8,229.8 168.4,229.8 168.4,226.4 165,226.4 165,229.8 161.7,229.8 
					161.7,223.1 165,223.1 165,219.7 158.3,219.7 158.3,223.1 154.9,223.1 154.9,219.7 148.2,219.7 148.2,223.1 151.6,223.1 
					151.6,226.4 148.2,226.4 148.2,229.8 154.9,229.8 154.9,226.4 158.3,226.4 158.3,236.5 154.9,236.5 154.9,233.2 148.2,233.2 
					148.2,236.5 151.6,236.5 151.6,239.9 148.2,239.9 148.2,243.3 154.9,243.3 154.9,239.9 158.3,239.9 158.3,243.3 165,243.3 
					165,239.9 161.7,239.9 161.7,233.2 165,233.2 165,236.5 168.4,236.5 168.4,233.2 171.8,233.2 171.8,239.9 168.4,239.9 
					168.4,243.3 175.2,243.3 175.2,239.9 178.5,239.9 178.5,243.3 185.3,243.3 185.3,239.9 181.9,239.9 181.9,236.5 185.3,236.5 
					185.3,233.2 178.5,233.2 178.5,236.5 175.2,236.5 175.2,229.8 178.5,229.8 178.5,226.4 175.2,226.4 175.2,219.7 178.5,219.7 
					178.5,223.1 181.9,223.1 181.9,219.7 185.3,219.7 185.3,226.4 181.9,226.4 181.9,229.8 192,229.8 192,226.4 188.6,226.4 
					188.6,219.7 192,219.7 192,223.1 195.4,223.1 195.4,219.7 198.7,219.7 198.7,226.4 195.4,226.4 195.4,229.8 198.7,229.8 
					198.7,236.5 195.4,236.5 195.4,233.2 188.6,233.2 188.6,236.5 192,236.5 192,239.9 188.6,239.9 188.6,243.3 195.4,243.3 
					195.4,239.9 198.7,239.9 198.7,243.3 205.5,243.3 205.5,239.9 202.1,239.9 202.1,233.2 205.5,233.2 205.5,236.5 208.8,236.5 
					208.8,233.2 212.2,233.2 212.2,239.9 208.8,239.9 208.8,243.3 215.6,243.3 215.6,239.9 218.9,239.9 218.9,243.3 225.7,243.3 
					225.7,239.9 222.3,239.9 222.3,236.5 225.7,236.5 225.7,233.2 218.9,233.2 218.9,236.5 215.6,236.5 215.6,226.4 218.9,226.4 
					218.9,229.8 225.7,229.8 225.7,226.4 222.3,226.4 222.3,223.1 225.7,223.1 225.7,219.7 218.9,219.7 218.9,223.1 215.6,223.1 
					215.6,219.7 208.8,219.7 208.8,223.1 212.2,223.1 212.2,229.8 208.8,229.8 208.8,226.4 205.5,226.4 205.5,229.8 202.1,229.8 
					202.1,223.1 205.5,223.1 205.5,219.7 202.1,219.7 202.1,213 205.5,213 205.5,216.3 212.2,216.3 212.2,213 208.8,213 
					208.8,209.6 212.2,209.6 212.2,206.2 205.5,206.2 205.5,209.6 202.1,209.6 202.1,202.9 205.5,202.9 205.5,199.5 202.1,199.5 
					202.1,192.8 205.5,192.8 205.5,196.1 208.8,196.1 208.8,192.8 212.2,192.8 212.2,199.5 208.8,199.5 208.8,202.9 218.9,202.9 
					218.9,199.5 215.6,199.5 215.6,192.8 218.9,192.8 218.9,196.1 222.3,196.1 222.3,192.8 225.7,192.8 225.7,199.5 222.3,199.5 
					222.3,202.9 225.7,202.9 225.7,209.6 222.3,209.6 222.3,206.2 215.6,206.2 215.6,209.6 218.9,209.6 218.9,213 215.6,213 
					215.6,216.3 222.3,216.3 222.3,213 225.7,213 225.7,216.3 229,216.3 229,213 232.4,213 232.4,216.3 239.1,216.3 239.1,213 
					235.8,213 235.8,209.6 239.1,209.6 239.1,206.2 232.4,206.2 232.4,209.6 229,209.6 229,202.9 232.4,202.9 232.4,199.5 
					229,199.5 229,192.8 232.4,192.8 232.4,196.1 235.8,196.1 235.8,192.8 239.1,192.8 239.1,199.5 235.8,199.5 235.8,202.9 
					245.9,202.9 245.9,199.5 242.5,199.5 242.5,192.8 245.9,192.8 245.9,196.1 249.2,196.1 249.2,192.8 252.6,192.8 252.6,199.5 
					249.2,199.5 249.2,202.9 252.6,202.9 252.6,209.6 249.2,209.6 249.2,206.2 242.5,206.2 242.5,209.6 245.9,209.6 245.9,213 
					242.5,213 242.5,216.3 249.2,216.3 249.2,213 252.6,213 252.6,219.7 249.2,219.7 249.2,223.1 252.6,223.1 252.6,229.8 
					249.2,229.8 249.2,226.4 245.9,226.4 245.9,229.8 242.5,229.8 242.5,223.1 245.9,223.1 245.9,219.7 239.1,219.7 239.1,223.1 
					235.8,223.1 235.8,219.7 229,219.7 229,223.1 232.4,223.1 232.4,226.4 229,226.4 229,229.8 235.8,229.8 235.8,226.4 
					239.1,226.4 239.1,236.5 235.8,236.5 235.8,233.2 229,233.2 229,236.5 232.4,236.5 232.4,239.9 229,239.9 229,243.3 
					235.8,243.3 235.8,239.9 239.1,239.9 239.1,243.3 245.9,243.3 245.9,239.9 242.5,239.9 242.5,233.2 245.9,233.2 245.9,236.5 
					249.2,236.5 249.2,233.2 252.6,233.2 252.6,239.9 249.2,239.9 249.2,243.3 256,243.3 256,239.9 259.3,239.9 259.3,243.3 
					266.1,243.3 266.1,239.9 262.7,239.9 262.7,236.5 266.1,236.5 266.1,233.2 259.3,233.2 259.3,236.5 256,236.5 256,229.8 
					259.3,229.8 259.3,226.4 256,226.4 256,219.7 259.3,219.7 259.3,223.1 262.7,223.1 262.7,219.7 266.1,219.7 266.1,226.4 
					262.7,226.4 262.7,229.8 272.8,229.8 272.8,226.4 269.5,226.4 269.5,219.7 272.8,219.7 272.8,223.1 276.2,223.1 276.2,219.7 
					279.6,219.7 279.6,226.4 276.2,226.4 276.2,229.8 279.6,229.8 279.6,236.5 276.2,236.5 276.2,233.2 269.5,233.2 269.5,236.5 
					272.8,236.5 272.8,239.9 269.5,239.9 269.5,243.3 276.2,243.3 276.2,239.9 279.6,239.9 279.6,243.3 286.3,243.3 286.3,239.9 
					282.9,239.9 282.9,233.2 286.3,233.2 286.3,236.5 289.7,236.5 289.7,233.2 293,233.2 293,239.9 289.7,239.9 289.7,243.3 
					296.4,243.3 296.4,239.9 299.8,239.9 299.8,243.3 306.5,243.3 306.5,239.9 303.1,239.9 303.1,236.5 306.5,236.5 306.5,233.2 
					299.8,233.2 299.8,236.5 296.4,236.5 296.4,226.4 299.8,226.4 299.8,229.8 306.5,229.8 306.5,226.4 303.1,226.4 303.1,223.1 
					306.5,223.1 306.5,219.7 299.8,219.7 299.8,223.1 296.4,223.1 296.4,219.7 289.7,219.7 289.7,223.1 293,223.1 293,229.8 
					289.7,229.8 289.7,226.4 286.3,226.4 286.3,229.8 282.9,229.8 282.9,223.1 286.3,223.1 286.3,219.7 282.9,219.7 282.9,216.3 
					286.3,216.3 286.3,213 282.9,213 282.9,206.2 286.3,206.2 286.3,209.6 289.7,209.6 289.7,206.2 293,206.2 293,213 289.7,213 
					289.7,216.3 296.4,216.3 296.4,213 299.8,213 299.8,216.3 306.5,216.3 306.5,213 303.1,213 303.1,209.6 306.5,209.6 
					306.5,206.2 299.8,206.2 299.8,209.6 296.4,209.6 296.4,199.5 299.8,199.5 299.8,202.9 306.5,202.9 306.5,199.5 303.1,199.5 
					303.1,196.1 306.5,196.1 306.5,192.8 299.8,192.8 299.8,196.1 296.4,196.1 296.4,192.8 289.7,192.8 289.7,196.1 293,196.1 
					293,202.9 289.7,202.9 289.7,199.5 286.3,199.5 286.3,202.9 282.9,202.9 282.9,196.1 286.3,196.1 286.3,192.8 279.6,192.8 
					279.6,196.1 276.2,196.1 276.2,192.8 269.5,192.8 269.5,196.1 272.8,196.1 272.8,199.5 269.5,199.5 269.5,202.9 276.2,202.9 
					276.2,199.5 279.6,199.5 279.6,206.2 276.2,206.2 276.2,209.6 279.6,209.6 279.6,216.3 276.2,216.3 276.2,213 272.8,213 
					272.8,216.3 269.5,216.3 269.5,209.6 272.8,209.6 272.8,206.2 262.7,206.2 262.7,209.6 266.1,209.6 266.1,216.3 262.7,216.3 
					262.7,213 259.3,213 259.3,216.3 256,216.3 256,209.6 259.3,209.6 259.3,206.2 256,206.2 256,199.5 259.3,199.5 259.3,202.9 
					266.1,202.9 266.1,199.5 262.7,199.5 262.7,196.1 266.1,196.1 266.1,192.8 259.3,192.8 259.3,196.1 256,196.1 256,189.4 
					259.3,189.4 259.3,186 256,186 256,179.3 259.3,179.3 259.3,182.7 262.7,182.7 262.7,179.3 266.1,179.3 266.1,186 262.7,186 
					262.7,189.4 269.5,189.4 269.5,186 272.8,186 272.8,189.4 279.6,189.4 279.6,186 276.2,186 276.2,182.7 279.6,182.7 
					279.6,179.3 272.8,179.3 272.8,182.7 269.5,182.7 269.5,172.6 272.8,172.6 272.8,175.9 279.6,175.9 279.6,172.6 276.2,172.6 
					276.2,169.2 279.6,169.2 279.6,165.8 272.8,165.8 272.8,169.2 269.5,169.2 269.5,165.8 262.7,165.8 262.7,169.2 266.1,169.2 
					266.1,175.9 262.7,175.9 262.7,172.6 259.3,172.6 259.3,175.9 256,175.9 256,169.2 259.3,169.2 259.3,165.8 256,165.8 
					256,159.1 259.3,159.1 259.3,162.5 266.1,162.5 266.1,159.1 262.7,159.1 262.7,155.7 266.1,155.7 266.1,152.4 259.3,152.4 
					259.3,155.7 256,155.7 256,149 259.3,149 259.3,145.6 256,145.6 256,138.9 259.3,138.9 259.3,142.2 262.7,142.2 262.7,138.9 
					266.1,138.9 266.1,145.6 262.7,145.6 262.7,149 272.8,149 272.8,145.6 269.5,145.6 269.5,138.9 272.8,138.9 272.8,142.2 
					276.2,142.2 276.2,138.9 279.6,138.9 279.6,145.6 276.2,145.6 276.2,149 279.6,149 279.6,155.7 276.2,155.7 276.2,152.4 
					269.5,152.4 269.5,155.7 272.8,155.7 272.8,159.1 269.5,159.1 269.5,162.5 276.2,162.5 276.2,159.1 279.6,159.1 279.6,162.5 
					282.9,162.5 282.9,159.1 286.3,159.1 286.3,162.5 293,162.5 293,159.1 289.7,159.1 289.7,155.7 293,155.7 293,152.4 
					286.3,152.4 286.3,155.7 282.9,155.7 282.9,149 286.3,149 286.3,145.6 282.9,145.6 282.9,138.9 286.3,138.9 286.3,142.2 
					289.7,142.2 289.7,138.9 293,138.9 293,145.6 289.7,145.6 289.7,149 299.8,149 299.8,145.6 296.4,145.6 296.4,138.9 
					299.8,138.9 299.8,142.2 303.1,142.2 303.1,138.9 306.5,138.9 306.5,145.6 303.1,145.6 303.1,149 306.5,149 306.5,155.7 
					303.1,155.7 303.1,152.4 296.4,152.4 296.4,155.7 299.8,155.7 299.8,159.1 296.4,159.1 296.4,162.5 303.1,162.5 303.1,159.1 
					306.5,159.1 306.5,165.8 303.1,165.8 303.1,169.2 306.5,169.2 306.5,175.9 303.1,175.9 303.1,172.6 299.8,172.6 299.8,175.9 
					296.4,175.9 296.4,169.2 299.8,169.2 299.8,165.8 293,165.8 293,169.2 289.7,169.2 289.7,165.8 282.9,165.8 282.9,169.2 
					286.3,169.2 286.3,172.6 282.9,172.6 282.9,175.9 289.7,175.9 289.7,172.6 293,172.6 293,182.7 289.7,182.7 289.7,179.3 
					282.9,179.3 282.9,182.7 286.3,182.7 286.3,186 282.9,186 282.9,189.4 289.7,189.4 289.7,186 293,186 293,189.4 299.8,189.4 
					299.8,186 296.4,186 296.4,179.3 299.8,179.3 299.8,182.7 303.1,182.7 303.1,179.3 306.5,179.3 306.5,186 303.1,186 
					303.1,189.4 313.2,189.4 313.2,186 309.9,186 309.9,179.3 313.2,179.3 313.2,182.7 316.6,182.7 316.6,179.3 320,179.3 320,186 
					316.6,186 316.6,189.4 323.3,189.4 323.3,186 326.7,186 326.7,189.4 333.4,189.4 333.4,186 330.1,186 330.1,182.7 333.4,182.7 
					333.4,179.3 326.7,179.3 326.7,182.7 323.3,182.7 323.3,172.6 326.7,172.6 326.7,175.9 333.4,175.9 333.4,172.6 330.1,172.6 
					330.1,169.2 333.4,169.2 333.4,165.8 326.7,165.8 326.7,169.2 323.3,169.2 323.3,165.8 316.6,165.8 316.6,169.2 320,169.2 
					320,175.9 316.6,175.9 316.6,172.6 313.2,172.6 313.2,175.9 309.9,175.9 309.9,169.2 313.2,169.2 313.2,165.8 309.9,165.8 
					309.9,159.1 313.2,159.1 313.2,162.5 320,162.5 320,159.1 316.6,159.1 316.6,155.7 320,155.7 320,152.4 313.2,152.4 
					313.2,155.7 309.9,155.7 309.9,149 313.2,149 313.2,145.6 309.9,145.6 309.9,138.9 313.2,138.9 313.2,142.2 316.6,142.2 
					316.6,138.9 320,138.9 320,145.6 316.6,145.6 316.6,149 326.7,149 326.7,145.6 323.3,145.6 323.3,138.9 326.7,138.9 
					326.7,142.2 330.1,142.2 330.1,138.9 333.4,138.9 333.4,145.6 330.1,145.6 330.1,149 333.4,149 333.4,155.7 330.1,155.7 
					330.1,152.4 323.3,152.4 323.3,155.7 326.7,155.7 326.7,159.1 323.3,159.1 323.3,162.5 330.1,162.5 330.1,159.1 333.4,159.1 
					333.4,162.5 336.8,162.5 336.8,159.1 340.2,159.1 340.2,162.5 346.9,162.5 346.9,159.1 343.5,159.1 343.5,155.7 346.9,155.7 
					346.9,152.4 340.2,152.4 340.2,155.7 336.8,155.7 336.8,149 340.2,149 340.2,145.6 336.8,145.6 336.8,138.9 340.2,138.9 
					340.2,142.2 343.5,142.2 343.5,138.9 346.9,138.9 346.9,145.6 343.5,145.6 343.5,149 353.6,149 353.6,145.6 350.3,145.6 
					350.3,138.9 353.6,138.9 353.6,142.2 357,142.2 357,138.9 360.4,138.9 360.4,145.6 357,145.6 357,149 360.4,149 360.4,155.7 
					357,155.7 357,152.4 350.3,152.4 350.3,155.7 353.6,155.7 353.6,159.1 350.3,159.1 350.3,162.5 357,162.5 357,159.1 
					360.4,159.1 360.4,165.8 357,165.8 357,169.2 360.4,169.2 360.4,175.9 357,175.9 357,172.6 353.6,172.6 353.6,175.9 
					350.3,175.9 350.3,169.2 353.6,169.2 353.6,165.8 346.9,165.8 346.9,169.2 343.5,169.2 343.5,165.8 336.8,165.8 336.8,169.2 
					340.2,169.2 340.2,172.6 336.8,172.6 336.8,175.9 343.5,175.9 343.5,172.6 346.9,172.6 346.9,182.7 343.5,182.7 343.5,179.3 
					336.8,179.3 336.8,182.7 340.2,182.7 340.2,186 336.8,186 336.8,189.4 343.5,189.4 343.5,186 346.9,186 346.9,189.4 
					353.6,189.4 353.6,186 350.3,186 350.3,179.3 353.6,179.3 353.6,182.7 357,182.7 357,179.3 360.4,179.3 360.4,186 357,186 
					357,189.4 360.4,189.4 360.4,196.1 357,196.1 357,192.8 350.3,192.8 350.3,196.1 353.6,196.1 353.6,199.5 350.3,199.5 
					350.3,202.9 357,202.9 357,199.5 360.4,199.5 360.4,206.2 357,206.2 357,209.6 360.4,209.6 360.4,216.3 357,216.3 357,213 
					353.6,213 353.6,216.3 350.3,216.3 350.3,209.6 353.6,209.6 353.6,206.2 343.5,206.2 343.5,209.6 346.9,209.6 346.9,216.3 
					343.5,216.3 343.5,213 340.2,213 340.2,216.3 336.8,216.3 336.8,209.6 340.2,209.6 340.2,206.2 336.8,206.2 336.8,199.5 
					340.2,199.5 340.2,202.9 346.9,202.9 346.9,199.5 343.5,199.5 343.5,196.1 346.9,196.1 346.9,192.8 340.2,192.8 340.2,196.1 
					336.8,196.1 336.8,192.8 330.1,192.8 330.1,196.1 333.4,196.1 333.4,202.9 330.1,202.9 330.1,199.5 326.7,199.5 326.7,202.9 
					323.3,202.9 323.3,196.1 326.7,196.1 326.7,192.8 320,192.8 320,196.1 316.6,196.1 316.6,192.8 309.9,192.8 309.9,196.1 
					313.2,196.1 313.2,199.5 309.9,199.5 309.9,202.9 316.6,202.9 316.6,199.5 320,199.5 320,209.6 316.6,209.6 316.6,206.2 
					309.9,206.2 309.9,209.6 313.2,209.6 313.2,213 309.9,213 309.9,216.3 316.6,216.3 316.6,213 320,213 320,216.3 326.7,216.3 
					326.7,213 323.3,213 323.3,206.2 326.7,206.2 326.7,209.6 330.1,209.6 330.1,206.2 333.4,206.2 333.4,213 330.1,213 
					330.1,216.3 333.4,216.3 333.4,219.7 330.1,219.7 330.1,223.1 333.4,223.1 333.4,229.8 330.1,229.8 330.1,226.4 326.7,226.4 
					326.7,229.8 323.3,229.8 323.3,223.1 326.7,223.1 326.7,219.7 320,219.7 320,223.1 316.6,223.1 316.6,219.7 309.9,219.7 
					309.9,223.1 313.2,223.1 313.2,226.4 309.9,226.4 309.9,229.8 316.6,229.8 316.6,226.4 320,226.4 320,236.5 316.6,236.5 
					316.6,233.2 309.9,233.2 309.9,236.5 313.2,236.5 313.2,239.9 309.9,239.9 309.9,243.3 316.6,243.3 316.6,239.9 320,239.9 
					320,243.3 326.7,243.3 326.7,239.9 323.3,239.9 323.3,233.2 326.7,233.2 326.7,236.5 330.1,236.5 330.1,233.2 333.4,233.2 
					333.4,239.9 330.1,239.9 330.1,243.3 336.8,243.3 336.8,239.9 340.2,239.9 340.2,243.3 346.9,243.3 346.9,239.9 343.5,239.9 
					343.5,236.5 346.9,236.5 346.9,233.2 340.2,233.2 340.2,236.5 336.8,236.5 336.8,229.8 340.2,229.8 340.2,226.4 336.8,226.4 
					336.8,219.7 340.2,219.7 340.2,223.1 343.5,223.1 343.5,219.7 346.9,219.7 346.9,226.4 343.5,226.4 343.5,229.8 353.6,229.8 
					353.6,226.4 350.3,226.4 350.3,219.7 353.6,219.7 353.6,223.1 357,223.1 357,219.7 360.4,219.7 360.4,226.4 357,226.4 
					357,229.8 360.4,229.8 360.4,236.5 357,236.5 357,233.2 350.3,233.2 350.3,236.5 353.6,236.5 353.6,239.9 350.3,239.9 
					350.3,243.3 357,243.3 357,239.9 360.4,239.9 360.4,243.3 				"/>
			</g>
		</g>
	</g>
</g>
<g>
	<defs>
		<path id="XMLID_32_" d="M121.8,55.1c1.7-1.6,1.7-4.1,0.2-5.6c-1.5-1.5-3.9-1.6-5.5-0.1c-1.5-1.5-3.9-1.6-5.5-0.1
			c-1.5,1.5-1.6,3.9,0,5.6l5,5.3c0.1,0.1,0.3,0.1,0.4,0L121.8,55.1z"/>
	</defs>
	<use xlink:href="#XMLID_32_"  style="overflow:visible;fill:#E72B78;"/>
	<clipPath id="XMLID_40_">
		<use xlink:href="#XMLID_32_"  style="overflow:visible;"/>
	</clipPath>
</g>
<g>
	<defs>
		<path id="XMLID_31_" d="M153.2,146.2c-1.7,1.6-1.7,4.1-0.2,5.6c1.5,1.5,3.9,1.6,5.5,0.1c1.5,1.5,3.9,1.6,5.5,0.1
			c1.5-1.5,1.6-3.9,0-5.6l-5-5.3c-0.1-0.1-0.3-0.1-0.4,0L153.2,146.2z"/>
	</defs>
	<use xlink:href="#XMLID_31_"  style="overflow:visible;fill:#E72B78;"/>
	<clipPath id="XMLID_41_">
		<use xlink:href="#XMLID_31_"  style="overflow:visible;"/>
	</clipPath>
</g>
<g id="Page-1_7_" class="st12">
	<g id="Homepage---Desktop_5_" transform="translate(-581.000000, -1466.000000)">
		<g id="illo_spot_5_" transform="translate(580.000000, 1465.000000)">
			<g id="Layer_14_5_" transform="translate(0.971660, 0.971660)">
				<path id="Path_234_" class="st13" d="M148.1,86.2c-3.8-3.6-6.7-4-8-4.8l-2.4,0l-2.4,0c-1.3,0.8-4.2,1.1-8,4.8
					c-5.7,5.5-6,14.4-6,14.4H154C154,100.6,153.8,91.7,148.1,86.2z"/>
				<circle id="Oval_18_" class="st14" cx="138.1" cy="63.3" r="14.8"/>
				<path id="Path_233_" class="st15" d="M135.9,77.1c0.7,1.5,0.7,3.5-0.5,4.4c0,0,0.5,0.8,2.2,0.8s2.3-0.7,2.3-0.7
					s-0.9-0.6-0.9-2.1c0-1.5,0.3-2.4,0.3-2.4H135.9z"/>
				<path id="Path_232_" class="st16" d="M139,78l-0.1,0.1c-1.3,2-3.1,3.1-3.6,3.4c0,0,0.9-0.8,0.9-1.8c0-0.7-0.1-1.4-0.3-2.1l1.6,1
					L139,78z"/>
				<ellipse id="Oval_17_" class="st17" cx="135.6" cy="75.9" rx="0.7" ry="1"/>
				<path id="Path_231_" class="st18" d="M133.9,75c0-0.2,0-0.4,0-0.7c0-0.2,0-0.4,0-0.6c0,0,0-0.1,0-0.1c-0.2-0.3-0.7-0.4-1-0.2
					c-0.4,0.2-0.6,0.9-0.5,1.3c0,0.5,0.3,0.9,0.7,1.1c0.2,0.1,0.4,0,0.6-0.1c0.2-0.1,0.3-0.3,0.4-0.5C134.1,75.1,134,75.1,133.9,75
					L133.9,75z"/>
				<path id="Path_230_" class="st15" d="M142.6,73.7c-0.1-0.2-0.3-0.3-0.5-0.3c0.1-1.1,0.1-2.3-0.2-3.4c-0.2-1.1-0.9-1.5-0.9-1.5
					s-1.7,1.3-3.2,1.3s-3.2-1.3-3.2-1.3s-0.7,0.5-0.9,1.5c-0.5,2.1-0.4,4.8,1,6.4c1.5,1.6,3,2.1,3,2.1s1.6-0.6,3-2.1
					c0.2-0.3,0.4-0.5,0.6-0.8c0.1,0.1,0.3,0.2,0.5,0.1c0.4-0.1,0.5-0.5,0.7-0.8C142.8,74.5,142.8,74.1,142.6,73.7z"/>
				<path id="Path_229_" class="st16" d="M138.6,75.5l-0.9,0.4c0-0.1-0.1-0.6-0.1-2.1c0-1-2.2-1.4-2.2-2.3c-0.1-1,0.1-1.7,1.4-1.9
					c0,0-0.7-0.3-1.2-0.5c-0.3-0.2-0.7-0.4-1-0.6c0,0-0.6,0.3-0.8,1.2c-0.3,1.2-0.4,2-0.3,4.3c0.2,2.7,4.2,4.5,4.2,4.5
					s-0.2-0.2-0.7-1.3c0,0,0,0,0,0c0.2-0.1,0.4-0.2,0.6-0.2C138.5,76.5,138.6,75.5,138.6,75.5z"/>
				<path id="Shape_6_" class="st13" d="M141.4,74.2c-0.1-0.3-0.2-0.5-0.3-0.7c-0.1-0.2-0.3-0.4-0.5-0.5c-0.5-0.2-1.1-0.2-1.5,0.3
					c-0.2,0.3-0.3,0.6-0.5,1c-0.6-0.4-1.3-0.5-1.9-0.2c0-0.4-0.5-1.1-0.9-1.4c-0.6-0.3-1.2-0.3-1.7,0.2c-0.4,0.5-0.5,1.3-0.5,1.9
					c0,0.9,0.6,2.2,1.7,2.1c1.2-0.2,1.5-1.7,1.4-2.6c0,0,0,0,0,0c0.6-0.3,1.3-0.2,1.8,0.3c0,0,0,0,0,0c-0.2,0.8,0,1.8,0.6,2.3
					c0.6,0.5,1.4,0.3,1.8-0.3C141.6,76,141.6,75,141.4,74.2z M135,76.7c-0.8-0.3-1-1.5-1-2.1c0-0.5,0.1-1,0.5-1.4
					c0.6-0.6,1.7,0.2,1.9,1.3c0,0,0,0.1,0,0.1C136.6,75.7,136,77,135,76.7z M140.2,77c-0.9,0.2-1.3-1.1-1.2-1.8
					c0-0.4,0.1-0.8,0.3-1.1c0.1-0.2,0.2-0.4,0.3-0.5c0.1-0.1,0.4-0.4,0.8-0.2c0.2,0.1,0.3,0.2,0.4,0.3c0.3,0.3,0.4,0.7,0.4,1.1
					C141.2,75.5,141.1,76.8,140.2,77L140.2,77z"/>
				<path id="Path_228_" class="st19" d="M133.6,74.1c-0.4-0.1-0.9,0.2-1,0.6c0,0.2,0.2,0.2,0.3,0.1c0-0.1,0.1-0.2,0.2-0.3
					c0,0.3,0,0.5,0,0.7c0,0,0,0.1,0.1,0.1c0,0,0.1,0,0.1-0.1c0.1-0.3,0-0.6,0-0.9c0.1,0,0.2-0.1,0.3-0.1c0.1,0,0.1,0,0.1-0.1
					C133.7,74.1,133.7,74.1,133.6,74.1L133.6,74.1z"/>
				<path id="Path_227_" class="st19" d="M141.8,74c0.4,0,0.7,0.4,0.7,0.8c0,0,0,0.1,0,0.1s-0.1,0-0.1,0c0,0-0.1-0.1-0.1-0.1
					c0-0.1,0-0.2-0.1-0.3c-0.1,0.2-0.1,0.5-0.2,0.7c0,0,0,0.1-0.1,0.1s-0.1,0-0.1-0.1c0-0.3,0.1-0.6,0.2-0.8
					c-0.1-0.1-0.2-0.1-0.2-0.1C141.7,74.1,141.7,74,141.8,74z"/>
				<path id="Path_226_" class="st14" d="M141.6,72.1c-0.3-0.8-1.5-1.1-2.2-0.7c-0.1,0.1,0,0.2,0.1,0.2c0.3-0.1,0.7-0.2,1,0
					c0.4,0.1,0.5,0.4,0.8,0.7c0.1,0,0.1,0,0.2,0S141.7,72.2,141.6,72.1L141.6,72.1z"/>
				<path id="Path_225_" class="st14" d="M136.4,71.3c-0.3-0.2-0.9-0.1-1.2,0c-0.4,0.1-0.8,0.3-1.1,0.6c-0.1,0.1,0,0.2,0.1,0.2
					c0.3-0.2,0.7-0.4,1.1-0.5c0.4-0.1,0.7,0,1.1-0.1c0.1,0,0.1-0.1,0.1-0.1C136.5,71.4,136.5,71.3,136.4,71.3L136.4,71.3z"/>
				<path id="Rectangle_12_" class="st20" d="M129.5,88.7h16.3c0.2,0,0.3,0.1,0.3,0.3V100c0,0.2-0.1,0.3-0.3,0.3h-16.3
					c-0.2,0-0.3-0.1-0.3-0.3V89C129.2,88.8,129.4,88.7,129.5,88.7z"/>
				<path id="Rectangle_11_" d="M130.1,89.2h15.3c0.2,0,0.3,0.1,0.3,0.3v10.8c0,0.2-0.1,0.3-0.3,0.3h-15.3c-0.2,0-0.3-0.1-0.3-0.3
					V89.5C129.7,89.3,129.9,89.2,130.1,89.2z"/>
				<path id="Path_224_" class="st21" d="M125.7,99.5h23.9l0,0c0,0.6-0.5,1.1-1.1,1.1h-21.7c-0.3,0-0.6-0.1-0.8-0.3
					S125.7,99.8,125.7,99.5L125.7,99.5z"/>
				<path id="Path_223_" class="st22" d="M126.9,100.6h21.7c0.4,0,0.7-0.2,1-0.5h-23.6C126.1,100.4,126.5,100.6,126.9,100.6
					L126.9,100.6z"/>
				<path id="Path_222_" class="st23" d="M131.4,68.3c-0.2,0-0.4,0-0.6,0.1c-0.2,0.1-0.3,0-0.4-0.2c-0.2-0.3-0.3-0.6-0.7-0.7
					c-0.2,0-0.4,0-0.6,0.1c-0.3,0.1-0.4,0.1-0.4-0.2c-0.1-0.4,0.1-0.8-0.2-1.1c-0.3-0.3-0.8-0.2-1.1,0c-0.2,0.1-0.4,0.3-0.6,0.3
					c-0.3-0.1-0.3-0.5-0.3-0.7c0-0.5,0.2-1-0.1-1.4c-0.1-0.2-0.4-0.1-0.3,0.1c0.2,0.8-0.6,2,0.4,2.5c0.4,0.2,0.8,0,1.1-0.2
					c0.2-0.1,0.4-0.3,0.4,0c0,0.2,0,0.4,0,0.6c0.1,0.4,0.2,0.7,0.6,0.8c0.2,0,0.4,0,0.6,0c0.2,0,0.4-0.2,0.5,0
					c0.2,0.3,0.2,0.6,0.6,0.8c0.2,0.1,0.4,0.1,0.6,0.1c0.1,0,0.5-0.2,0.5-0.1c0,0.3,0.5,0.4,0.6,0.1
					C132.1,68.6,131.8,68.3,131.4,68.3z"/>
				<path id="Path_221_" class="st23" d="M131,73c-0.4-0.3-0.8-0.3-1.3-0.2c-0.2,0-0.5,0-0.7-0.2c-0.2-0.2-0.1-0.4-0.2-0.7
					c0-0.1-0.1-0.1-0.2,0c-0.5,0.3-0.1,1.1,0.3,1.2c0.6,0.3,1.2-0.1,1.8,0.2C130.9,73.5,131.2,73.2,131,73z"/>
				<path id="Path_220_" class="st23" d="M146.9,72.4c-0.2,0.2-0.5,0.5-0.9,0.5c-0.3,0-0.5-0.3-0.8-0.4c-0.2,0-0.5,0-0.7,0.2
					c-0.1,0.1-0.7,0.6-0.9,0.3c-0.1-0.2-0.5-0.1-0.4,0.2c0.1,0.3,0.4,0.4,0.7,0.4c0.4-0.1,0.8-0.7,1.2-0.5c0.2,0.1,0.2,0.2,0.4,0.3
					c0.2,0.1,0.4,0.1,0.5,0.1c0.4,0,0.8-0.3,1.1-0.6C147.6,72.6,147.2,72.2,146.9,72.4z"/>
				<ellipse id="Oval_16_" class="st24" cx="140" cy="75.7" rx="0.7" ry="1"/>
				<path id="Path_219_" class="st25" d="M127.5,87c-0.6,0.6-1.2,1.2-1.7,1.9c-0.1,0.1-0.1,0.2,0,0.3s0.2,0.1,0.3,0
					c0.6-0.6,1.2-1.3,1.7-2C128,87,127.7,86.9,127.5,87z"/>
				<path id="Path_218_" class="st25" d="M124.9,90.7c-0.4,0.3-0.7,0.8-0.9,1.2c-0.2,0.5-0.3,1-0.3,1.5c0,0.3,0.4,0.4,0.5,0.1
					c0-0.4,0.1-0.9,0.3-1.3c0.2-0.4,0.5-0.7,0.7-1.1C125.3,90.7,125.1,90.5,124.9,90.7z"/>
				<path id="Path_217_" class="st25" d="M123.2,95.9c-0.4,1-0.7,2.1-0.7,3.2c0,0.3,0.4,0.3,0.4,0c0.1-1.1,0.3-2.1,0.6-3.2
					C123.6,95.8,123.3,95.7,123.2,95.9z"/>
				<path id="Path_216_" class="st25" d="M148.7,87.8c-0.7-0.7-1.4-1.4-2.2-2c-0.1-0.1-0.2-0.1-0.3,0c-0.1,0.1-0.1,0.2,0,0.3
					c0.7,0.7,1.4,1.5,2.1,2.1c0.1,0.1,0.2,0.1,0.3,0C148.8,88,148.8,87.8,148.7,87.8L148.7,87.8z"/>
				<path id="Path_215_" class="st25" d="M151.6,92.8c-0.1-0.3-0.3-0.6-0.4-0.8c-0.1-0.3-0.3-0.6-0.4-0.8c-0.3-0.5-0.6-1.1-0.9-1.6
					c-0.1-0.1-0.1-0.1-0.2,0c-0.1,0-0.1,0.1-0.1,0.2c0.2,0.6,0.5,1.2,0.8,1.7c0.1,0.3,0.3,0.5,0.4,0.8s0.3,0.6,0.4,0.8
					c0.1,0.1,0.2,0.1,0.3,0.1C151.6,93,151.6,92.9,151.6,92.8L151.6,92.8z"/>
				<path id="Path_214_" class="st25" d="M152.5,96.2c-0.1-0.5-0.2-1-0.4-1.6c-0.1-0.3-0.5-0.2-0.4,0.1c0.1,0.5,0.2,1.1,0.4,1.6
					c0.1,0.4,0.1,1,0.4,1.4c0,0,0.1,0.1,0.2,0s0.1-0.1,0.1-0.1C152.9,97.2,152.7,96.6,152.5,96.2z"/>
				<path id="Path_213_" class="st25" d="M153.3,100.6l-0.1-1.7c0-0.2-0.4-0.2-0.4,0l0.1,1.7C153,100.5,153.2,100.6,153.3,100.6z"/>
				<path id="Path_212_" class="st25" d="M139.4,81.2c-0.3,0.2-0.6,0.5-0.9,0.6c-0.3,0.2-0.7,0.3-1.1,0.3c-0.4,0-0.7,0-1.1-0.1
					c-0.4-0.1-0.7-0.4-1-0.4c-0.1,0-0.3,0.1-0.3,0.3c0.1,0.4,0.6,0.6,0.9,0.8c0.4,0.2,0.9,0.3,1.4,0.3c0.9,0,2-0.4,2.6-1.1
					C140.2,81.5,139.7,81,139.4,81.2z"/>
				<path id="Path_211_" class="st10" d="M133.6,90.4c-0.9,0-2-0.1-2.9,0.1c-0.2,0-0.2,0.3,0,0.3c1,0.2,2,0.1,3,0.1
					C133.9,90.8,133.9,90.4,133.6,90.4z"/>
				<path id="Path_210_" class="st10" d="M136.6,91.6c-1.4,0-2.8,0.1-4.2,0.1c-0.2,0-0.3,0.4,0,0.4c1.4,0,2.8,0,4.2,0.1
					C136.9,92.1,136.9,91.6,136.6,91.6z"/>
				<path id="Path_209_" class="st10" d="M133.9,93c-1,0-2-0.1-2.9,0c-0.3,0-0.3,0.4,0,0.5c1,0.1,1.9,0.1,2.9,0
					C134.2,93.5,134.2,93,133.9,93z"/>
				<path id="Path_208_" class="st10" d="M140.9,95.1c-1.3-0.1-2.7,0-4.1,0l-2,0c-0.7,0-1.4,0-2.1,0.1c-0.2,0-0.2,0.3,0,0.4
					c0.6,0.1,1.3,0.1,1.9,0.1l2.1,0c1.4,0,2.8,0.1,4.1,0C141.1,95.6,141.2,95.2,140.9,95.1z"/>
				<path id="Path_207_" class="st10" d="M133.6,97c-0.8-0.1-1.6,0-2.4,0c-0.2,0-0.3,0.3,0,0.4c0.8,0.1,1.6,0.1,2.4,0.1
					c0.1,0,0.2-0.1,0.2-0.2C133.8,97.1,133.7,97,133.6,97z"/>
				<path id="Path_206_" class="st10" d="M138.8,97c-0.8,0-1.7,0-2.5,0.1c-0.2,0-0.2,0.4,0,0.4c0.9,0.1,1.7,0.1,2.6,0.1
					C139.2,97.5,139.1,97,138.8,97z"/>
				<path id="Path_205_" class="st13" d="M131.8,95.2c-0.4,0-0.8,0-1.2,0.1c-0.2,0-0.2,0.3,0,0.3c0.4,0.1,0.8,0.1,1.3,0.1
					C132.2,95.7,132.1,95.2,131.8,95.2z"/>
				<path id="Path_204_" class="st13" d="M131.8,91.6c-0.3,0-0.7,0.1-1,0.2c-0.1,0-0.2,0.2,0,0.2c0.3,0.1,0.7,0.1,1,0.2
					C132.2,92.1,132.2,91.6,131.8,91.6z"/>
				<path id="Path_203_" class="st13" d="M135.5,97c-0.4,0-0.8,0-1.2,0.1c-0.2,0-0.2,0.3,0,0.3c0.4,0.1,0.7,0.1,1.1,0.1
					C135.7,97.5,135.8,96.9,135.5,97z"/>
				<path id="Path_202_" class="st13" d="M139.2,93c-0.7-0.1-1.5,0-2.2,0c-0.7,0-1.5,0-2.2,0.1c-0.3,0-0.2,0.4,0,0.4
					c0.7,0,1.5,0,2.2,0.1c0.7,0,1.5,0.1,2.2,0C139.6,93.5,139.6,93,139.2,93z"/>
				<path id="Path_201_" class="st23" d="M134.1,57.3c-0.1-0.1-0.2-0.2-0.3-0.3c-0.2-0.1-0.3-0.2-0.2-0.4c0.3-0.5,0.1-0.9-0.3-1.2
					c0.1,0,0.1-0.1,0.1-0.1c0.1-0.1,0.1-0.2,0.1-0.3c0-0.2,0-0.4-0.1-0.6c-0.1-0.2-0.3-0.3-0.6-0.4c0,0-0.1,0-0.1-0.1
					c0.1-0.1,0.3-0.2,0.3-0.2c0.3-0.1,0.1-0.5-0.2-0.5c-0.4,0.1-1.2,0.4-0.8,1c0.2,0.2,0.7,0.3,0.8,0.5c0.1,0.2-0.3,0.4-0.3,0.7
					c0,0.3,0.2,0.4,0.4,0.4c0.2,0.1,0.3,0.1,0.2,0.3c0,0.1-0.2,0.2-0.2,0.3c-0.1,0.2-0.1,0.5,0,0.7c0.1,0.1,0.5,0.5,0.6,0.4
					c-0.3,0.2,0.1,0.7,0.4,0.5C134.2,57.9,134.2,57.6,134.1,57.3z"/>
				<path id="Path_200_" class="st23" d="M141.6,57.5c0-0.1-0.1-0.3-0.2-0.4c-0.1-0.2-0.2-0.3,0-0.5c0.5-0.3,0.5-0.8,0.2-1.2
					c0.1,0,0.1,0,0.2-0.1c0.1,0,0.1-0.1,0.2-0.2c0.1-0.2,0.2-0.4,0.1-0.6c0-0.3-0.2-0.4-0.3-0.6c0,0,0-0.1-0.1-0.1
					c0.2,0,0.3,0,0.4,0c0.3,0,0.3-0.4,0.1-0.5c-0.4-0.1-1.3-0.1-1.1,0.5c0.1,0.3,0.5,0.6,0.5,0.8c0,0.2-0.5,0.2-0.6,0.4
					c-0.1,0.3,0,0.4,0.2,0.6c0.1,0.1,0.2,0.2,0.1,0.4c-0.1,0.1-0.2,0.1-0.3,0.2c-0.2,0.1-0.3,0.4-0.2,0.6c0,0.1,0.3,0.7,0.3,0.6
					c-0.4,0.1-0.2,0.7,0.2,0.6C141.5,58.1,141.6,57.8,141.6,57.5z"/>
				<path id="Path_199_" class="st23" d="M134.2,65.2c-0.3-0.4-0.7-0.7-1.1-0.9c-0.2-0.1-0.5-0.1-0.6-0.3c0-0.2,0.1-0.4,0.1-0.6
					c0-0.4-0.4-0.6-0.8-0.6c-0.1,0-0.5,0.1-0.5,0c0-0.1,0.2-0.4,0.2-0.6c0-0.4-0.3-0.6-0.6-0.7c-0.2,0-0.4,0-0.6,0
					c-0.1,0-0.3,0-0.3,0c-0.1-0.1-0.1-0.3,0-0.4c0.1-0.4,0.1-0.8-0.2-1c-0.2-0.2-0.5,0-0.7-0.2c-0.3-0.2,0-0.6,0.1-0.8
					s-0.2-0.4-0.4-0.2c-0.3,0.4-0.6,0.8-0.3,1.3c0.1,0.2,0.2,0.3,0.4,0.4c0.1,0,0.3,0,0.4,0c0.3,0.1,0.2,0.2,0.2,0.4
					c-0.1,0.4-0.1,0.9,0.3,1.1c0.2,0.1,0.4,0.1,0.6,0.1c0.2,0,0.5-0.1,0.5,0.1c0,0.2-0.2,0.4-0.2,0.6c0,0.2,0.1,0.4,0.3,0.5
					c0.2,0.1,0.4,0.1,0.5,0.1c0.1,0,0.3-0.1,0.4,0c0.1,0.1,0,0.2,0,0.3c-0.1,0.4,0,0.8,0.4,1c0.3,0.1,0.5,0.2,0.8,0.4
					c0.2,0.2,0.5,0.3,0.7,0.5C134,65.9,134.5,65.4,134.2,65.2z"/>
				<path id="Path_198_" class="st23" d="M145.2,58.4c-0.6,0.1-2,0.4-1.7,1.3c0.1,0.1,0.1,0.3,0.2,0.4c0.2,0.3,0.1,0.5-0.1,0.7
					c-0.3,0.3-0.7,0.4-1,0.8c-0.2,0.3-0.3,0.6,0,0.8c0.1,0.1,0.1,0.1,0.2,0.2l0.1,0c0.1,0.1,0.1,0.1,0,0c-0.1,0.1-0.2,0.1-0.3,0.2
					c-0.1,0.1-0.2,0.2-0.3,0.3c-0.3,0.2-0.6,0.5-0.4,0.9c0.1,0.2,0.2,0.3,0.1,0.5c-0.2,0.2-0.5,0.2-0.7,0.3
					c-0.3,0.1-0.2,0.7,0.1,0.6c0.4-0.1,0.9-0.3,1.2-0.7c0.1-0.2,0.1-0.4,0.1-0.6c0-0.1-0.1-0.2-0.1-0.3c0,0,0,0-0.1-0.1l0,0
					c0.2-0.2,0.5-0.4,0.7-0.6c0.2-0.2,0.4-0.3,0.4-0.6c0-0.3-0.2-0.4-0.4-0.6c0.4-0.6,1.2-0.8,1.3-1.6c0-0.4-0.2-0.5-0.3-0.8
					c-0.1-0.1-0.1-0.2,0.1-0.3c0.1-0.1,0.2-0.1,0.3-0.1c0.2-0.1,0.5-0.2,0.7-0.3C145.6,58.8,145.5,58.3,145.2,58.4z"/>
				<path id="Path_197_" class="st23" d="M149.8,59.6c-0.1,0.2-0.5,0.1-0.6,0.1c-0.2,0-0.4,0.2-0.5,0.3c-0.1,0.2,0,0.4-0.1,0.6
					c-0.1,0.1,0,0.1-0.1,0.1c-0.1,0-0.2-0.1-0.3-0.1c-0.4-0.1-0.7,0-0.9,0.4c-0.1,0.2-0.1,0.5-0.1,0.8c0,0.1-0.1,1.2-0.3,1.1
					c-0.3-0.2-0.5,0.2-0.3,0.4c0.5,0.4,0.9-0.2,1-0.7c0.1-0.4,0-0.8,0.1-1.2c0-0.2,0.1-0.3,0.3-0.2c0.1,0,0.2,0.1,0.3,0.2
					c0.2,0.1,0.4,0,0.6-0.2c0.2-0.2,0.1-0.4,0.2-0.7c0.1-0.3,0.5-0.2,0.8-0.3c0.2-0.1,0.4-0.3,0.4-0.5
					C150.3,59.3,149.8,59.3,149.8,59.6z"/>
				<path id="Path_196_" class="st23" d="M150.7,64.8c0-0.3-0.4-0.3-0.5-0.1c-0.1,0.2-0.1,0.5-0.2,0.6c-0.2,0.2-0.4,0.1-0.6,0.1
					c-0.2,0-0.5,0.2-0.6,0.4c-0.2,0.3-0.2,0.6-0.3,0.9c-0.1,0.2-0.1,0.4-0.4,0.4c-0.2,0-0.3-0.2-0.5-0.3c-0.6-0.4-1.1-0.3-1.4,0.4
					c-0.1,0.4-0.3,0.7-0.5,1.1c-0.1,0.2-0.2,0.2-0.4,0.1c-0.2-0.1-0.3-0.1-0.5-0.2c-0.3-0.1-0.5,0.4-0.1,0.5c0.3,0.1,0.6,0.4,1,0.3
					c0.4-0.1,0.5-0.5,0.7-0.8c0.1-0.2,0.2-0.4,0.3-0.6c0.1-0.2,0.1-0.5,0.4-0.4c0.4,0.1,0.6,0.5,1.1,0.5c0.9,0,0.8-0.9,1.1-1.5
					c0.1-0.3,0.3-0.1,0.6-0.2c0.2,0,0.3-0.1,0.4-0.2C150.6,65.6,150.7,65.2,150.7,64.8z"/>
			</g>
		</g>
	</g>
</g>
<g id="Page-1_6_" class="st12">
	<g id="Homepage---Desktop_4_" transform="translate(-581.000000, -1466.000000)">
		<g id="illo_spot_4_" transform="translate(580.000000, 1465.000000)">
			<g id="Layer_14_4_" transform="translate(0.971660, 0.971660)">
				<path id="Path_195_" class="st13" d="M127.3,115c3.8,3.6,6.7,4,8,4.8l2.4,0l2.4,0c1.3-0.8,4.2-1.1,8-4.8c5.7-5.5,6-14.4,6-14.4
					h-32.8C121.3,100.6,121.6,109.5,127.3,115z"/>
				<circle id="Oval_15_" class="st14" cx="137.3" cy="137.9" r="14.8"/>
				<path id="Path_194_" class="st15" d="M139.5,124.1c-0.7-1.5-0.7-3.5,0.5-4.4c0,0-0.5-0.8-2.2-0.8s-2.3,0.7-2.3,0.7
					s0.9,0.6,0.9,2.1c0,1.5-0.3,2.4-0.3,2.4H139.5z"/>
				<path id="Path_193_" class="st16" d="M136.3,123.2l0.1-0.1c1.3-2,3.1-3.1,3.6-3.4c0,0-0.9,0.8-0.9,1.8c0,0.7,0.1,1.4,0.3,2.1
					l-1.6-1L136.3,123.2z"/>
				<ellipse id="Oval_14_" class="st17" cx="139.7" cy="125.3" rx="0.7" ry="1"/>
				<path id="Path_192_" class="st18" d="M141.4,126.2c0,0.2,0,0.4,0,0.7c0,0.2,0,0.4,0,0.6c0,0,0,0.1,0,0.1c0.2,0.3,0.7,0.4,1,0.2
					c0.4-0.2,0.6-0.9,0.5-1.3c0-0.5-0.3-0.9-0.7-1.1c-0.2-0.1-0.4,0-0.6,0.1c-0.2,0.1-0.3,0.3-0.4,0.5
					C141.3,126,141.3,126.1,141.4,126.2L141.4,126.2z"/>
				<path id="Path_191_" class="st15" d="M132.8,127.4c0.1,0.2,0.3,0.3,0.5,0.3c-0.1,1.1-0.1,2.3,0.2,3.4c0.2,1.1,0.9,1.5,0.9,1.5
					s1.7-1.3,3.2-1.3s3.2,1.3,3.2,1.3s0.7-0.5,0.9-1.5c0.5-2.1,0.4-4.8-1-6.4c-1.5-1.6-3-2.1-3-2.1s-1.6,0.6-3,2.1
					c-0.2,0.3-0.4,0.5-0.6,0.8c-0.1-0.1-0.3-0.2-0.5-0.1c-0.4,0.1-0.5,0.5-0.7,0.8C132.6,126.7,132.5,127.1,132.8,127.4z"/>
				<path id="Path_190_" class="st16" d="M136.7,125.7l0.9-0.4c0,0.1,0.1,0.6,0.1,2.1c0,1,2.2,1.4,2.2,2.3c0.1,1-0.1,1.7-1.4,1.9
					c0,0,0.7,0.3,1.2,0.5c0.3,0.2,0.7,0.4,1,0.6c0,0,0.6-0.3,0.8-1.2c0.3-1.2,0.4-2,0.3-4.3c-0.2-2.7-4.2-4.5-4.2-4.5
					s0.2,0.2,0.7,1.3c0,0,0,0,0,0c-0.2,0.1-0.4,0.2-0.6,0.2C136.9,124.7,136.7,125.7,136.7,125.7z"/>
				<path id="Shape_5_" class="st13" d="M133.9,127c0.1,0.3,0.2,0.5,0.3,0.7c0.1,0.2,0.3,0.4,0.5,0.5c0.5,0.2,1.1,0.2,1.5-0.3
					c0.2-0.3,0.3-0.6,0.5-1c0.6,0.4,1.3,0.5,1.9,0.2c0,0.4,0.5,1.1,0.9,1.4c0.6,0.3,1.2,0.3,1.7-0.2c0.4-0.5,0.5-1.3,0.5-1.9
					c0-0.9-0.6-2.2-1.7-2.1c-1.2,0.2-1.5,1.7-1.4,2.6c0,0,0,0,0,0c-0.6,0.3-1.3,0.2-1.8-0.3c0,0,0,0,0,0c0.2-0.8,0-1.8-0.6-2.3
					c-0.6-0.5-1.4-0.3-1.8,0.3C133.8,125.2,133.7,126.2,133.9,127z M140.3,124.5c0.8,0.3,1,1.5,1,2.1c0,0.5-0.1,1-0.5,1.4
					c-0.6,0.6-1.7-0.2-1.9-1.3c0,0,0-0.1,0-0.1C138.8,125.5,139.4,124.2,140.3,124.5z M135.2,124.2c0.9-0.2,1.3,1.1,1.2,1.8
					c0,0.4-0.1,0.8-0.3,1.1c-0.1,0.2-0.2,0.4-0.3,0.5c-0.1,0.1-0.4,0.4-0.8,0.2c-0.2-0.1-0.3-0.2-0.4-0.3c-0.3-0.3-0.4-0.7-0.4-1.1
					C134.1,125.7,134.3,124.4,135.2,124.2L135.2,124.2z"/>
				<path id="Path_189_" class="st19" d="M141.7,127.1c0.4,0.1,0.9-0.2,1-0.6c0-0.2-0.2-0.2-0.3-0.1c0,0.1-0.1,0.2-0.2,0.3
					c0-0.3,0-0.5,0-0.7c0,0,0-0.1-0.1-0.1c0,0-0.1,0-0.1,0.1c-0.1,0.3,0,0.6,0,0.9c-0.1,0-0.2,0.1-0.3,0.1c-0.1,0-0.1,0-0.1,0.1
					C141.6,127.1,141.6,127.1,141.7,127.1L141.7,127.1z"/>
				<path id="Path_188_" class="st19" d="M133.5,127.2c-0.4,0-0.7-0.4-0.7-0.8c0,0,0-0.1,0-0.1s0.1,0,0.1,0c0,0,0.1,0.1,0.1,0.1
					c0,0.1,0,0.2,0.1,0.3c0.1-0.2,0.1-0.5,0.2-0.7c0,0,0-0.1,0.1-0.1s0.1,0,0.1,0.1c0,0.3-0.1,0.6-0.2,0.8c0.1,0.1,0.2,0.1,0.2,0.1
					C133.6,127.1,133.6,127.2,133.5,127.2z"/>
				<path id="Path_187_" class="st14" d="M133.7,129.1c0.3,0.8,1.5,1.1,2.2,0.7c0.1-0.1,0-0.2-0.1-0.2c-0.3,0.1-0.7,0.2-1,0
					c-0.4-0.1-0.5-0.4-0.8-0.7c-0.1,0-0.1,0-0.2,0C133.7,128.9,133.7,129,133.7,129.1L133.7,129.1z"/>
				<path id="Path_186_" class="st14" d="M138.9,129.9c0.3,0.2,0.9,0.1,1.2,0c0.4-0.1,0.8-0.3,1.1-0.6c0.1-0.1,0-0.2-0.1-0.2
					c-0.3,0.2-0.7,0.4-1.1,0.5c-0.4,0.1-0.7,0-1.1,0.1c-0.1,0-0.1,0.1-0.1,0.1C138.8,129.8,138.9,129.9,138.9,129.9L138.9,129.9z"/>
				<path id="Rectangle_10_" class="st20" d="M145.8,112.5h-16.3c-0.2,0-0.3-0.1-0.3-0.3v-10.9c0-0.2,0.1-0.3,0.3-0.3h16.3
					c0.2,0,0.3,0.1,0.3,0.3v10.9C146.1,112.3,146,112.5,145.8,112.5z"/>
				<path id="Rectangle_9_" d="M145.3,112h-15.3c-0.2,0-0.3-0.1-0.3-0.3v-10.8c0-0.2,0.1-0.3,0.3-0.3h15.3c0.2,0,0.3,0.1,0.3,0.3
					v10.8C145.6,111.9,145.5,112,145.3,112z"/>
				<path id="Path_185_" class="st21" d="M149.6,101.7h-23.9l0,0c0-0.6,0.5-1.1,1.1-1.1h21.7c0.3,0,0.6,0.1,0.8,0.3
					C149.5,101.1,149.6,101.4,149.6,101.7L149.6,101.7z"/>
				<path id="Path_184_" class="st22" d="M148.5,100.6h-21.7c-0.4,0-0.7,0.2-1,0.5h23.6C149.2,100.8,148.9,100.6,148.5,100.6
					L148.5,100.6z"/>
				<path id="Path_183_" class="st23" d="M144,132.9c0.2,0,0.4,0,0.6-0.1c0.2-0.1,0.3,0,0.4,0.2c0.2,0.3,0.3,0.6,0.7,0.7
					c0.2,0,0.4,0,0.6-0.1c0.3-0.1,0.4-0.1,0.4,0.2c0.1,0.4-0.1,0.8,0.2,1.1c0.3,0.3,0.8,0.2,1.1,0c0.2-0.1,0.4-0.3,0.6-0.3
					c0.3,0.1,0.3,0.5,0.3,0.7c0,0.5-0.2,1,0.1,1.4c0.1,0.2,0.4,0.1,0.3-0.1c-0.2-0.8,0.6-2-0.4-2.5c-0.4-0.2-0.8,0-1.1,0.2
					c-0.2,0.1-0.4,0.3-0.4,0c0-0.2,0-0.4,0-0.6c-0.1-0.4-0.2-0.7-0.6-0.8c-0.2,0-0.4,0-0.6,0c-0.2,0-0.4,0.2-0.5,0
					c-0.2-0.3-0.2-0.6-0.6-0.8c-0.2-0.1-0.4-0.1-0.6-0.1c-0.1,0-0.5,0.2-0.5,0.1c0-0.3-0.5-0.4-0.6-0.1
					C143.3,132.6,143.6,132.9,144,132.9z"/>
				<path id="Path_182_" class="st23" d="M144.3,128.2c0.4,0.3,0.8,0.3,1.3,0.2c0.2,0,0.5,0,0.7,0.2c0.2,0.2,0.1,0.4,0.2,0.7
					c0,0.1,0.1,0.1,0.2,0c0.5-0.3,0.1-1.1-0.3-1.2c-0.6-0.3-1.2,0.1-1.8-0.2C144.4,127.7,144.1,128,144.3,128.2z"/>
				<path id="Path_181_" class="st23" d="M128.4,128.8c0.2-0.2,0.5-0.5,0.9-0.5c0.3,0,0.5,0.3,0.8,0.4c0.2,0,0.5,0,0.7-0.2
					c0.1-0.1,0.7-0.6,0.9-0.3c0.1,0.2,0.5,0.1,0.4-0.2c-0.1-0.3-0.4-0.4-0.7-0.4c-0.4,0.1-0.8,0.7-1.2,0.5c-0.2-0.1-0.2-0.2-0.4-0.3
					c-0.2-0.1-0.4-0.1-0.5-0.1c-0.4,0-0.8,0.3-1.1,0.6C127.8,128.6,128.1,129,128.4,128.8z"/>
				<ellipse id="Oval_13_" class="st24" cx="135.3" cy="125.5" rx="0.7" ry="1"/>
				<path id="Path_180_" class="st25" d="M147.8,114.2c0.6-0.6,1.2-1.2,1.7-1.9c0.1-0.1,0.1-0.2,0-0.3c-0.1-0.1-0.2-0.1-0.3,0
					c-0.6,0.6-1.2,1.3-1.7,2C147.4,114.2,147.7,114.3,147.8,114.2z"/>
				<path id="Path_179_" class="st25" d="M150.4,110.5c0.4-0.3,0.7-0.8,0.9-1.2c0.2-0.5,0.3-1,0.3-1.5c0-0.3-0.4-0.4-0.5-0.1
					c0,0.4-0.1,0.9-0.3,1.3c-0.2,0.4-0.5,0.7-0.7,1.1C150.1,110.4,150.3,110.7,150.4,110.5z"/>
				<path id="Path_178_" class="st25" d="M152.2,105.3c0.4-1,0.7-2.1,0.7-3.2c0-0.3-0.4-0.3-0.4,0c-0.1,1.1-0.3,2.1-0.6,3.2
					C151.8,105.4,152.1,105.5,152.2,105.3z"/>
				<path id="Path_177_" class="st25" d="M126.6,113.4c0.7,0.7,1.4,1.4,2.2,2c0.1,0.1,0.2,0.1,0.3,0c0.1-0.1,0.1-0.2,0-0.3
					c-0.7-0.7-1.4-1.5-2.1-2.1c-0.1-0.1-0.2-0.1-0.3,0C126.5,113.2,126.5,113.4,126.6,113.4L126.6,113.4z"/>
				<path id="Path_176_" class="st25" d="M123.7,108.4c0.1,0.3,0.3,0.6,0.4,0.8c0.1,0.3,0.3,0.6,0.4,0.8c0.3,0.5,0.6,1.1,0.9,1.6
					c0.1,0.1,0.1,0.1,0.2,0s0.1-0.1,0.1-0.2c-0.2-0.6-0.5-1.2-0.8-1.7c-0.1-0.3-0.3-0.5-0.4-0.8c-0.1-0.3-0.3-0.6-0.4-0.8
					c-0.1-0.1-0.2-0.1-0.3-0.1C123.7,108.2,123.7,108.3,123.7,108.4L123.7,108.4z"/>
				<path id="Path_175_" class="st25" d="M122.8,105c0.1,0.5,0.2,1,0.4,1.6c0.1,0.3,0.5,0.2,0.4-0.1c-0.1-0.5-0.2-1.1-0.4-1.6
					c-0.1-0.4-0.1-1-0.4-1.4c0,0-0.1-0.1-0.2,0c-0.1,0-0.1,0.1-0.1,0.1C122.4,104,122.7,104.6,122.8,105z"/>
				<path id="Path_174_" class="st25" d="M122,100.6l0.1,1.7c0,0.2,0.4,0.2,0.4,0l-0.1-1.7C122.3,100.7,122.2,100.6,122,100.6z"/>
				<path id="Path_173_" class="st25" d="M135.9,120c0.3-0.2,0.6-0.5,0.9-0.6c0.3-0.2,0.7-0.3,1.1-0.3c0.4,0,0.7,0,1.1,0.1
					c0.4,0.1,0.7,0.4,1,0.4c0.1,0,0.3-0.1,0.3-0.3c-0.1-0.4-0.6-0.6-0.9-0.8c-0.4-0.2-0.9-0.3-1.4-0.3c-0.9,0-2,0.4-2.6,1.1
					C135.2,119.7,135.6,120.2,135.9,120z"/>
				<path id="Path_172_" class="st10" d="M141.7,110.8c0.9,0,2,0.1,2.9-0.1c0.2,0,0.2-0.3,0-0.3c-1-0.2-2-0.1-3-0.1
					C141.4,110.4,141.5,110.8,141.7,110.8z"/>
				<path id="Path_171_" class="st10" d="M138.7,109.6c1.4,0,2.8-0.1,4.2-0.1c0.2,0,0.3-0.4,0-0.4c-1.4,0-2.8,0-4.2-0.1
					C138.4,109.1,138.4,109.6,138.7,109.6z"/>
				<path id="Path_170_" class="st10" d="M141.4,108.2c1,0,2,0.1,2.9,0c0.3,0,0.3-0.4,0-0.5c-1-0.1-1.9-0.1-2.9,0
					C141.1,107.7,141.1,108.2,141.4,108.2z"/>
				<path id="Path_169_" class="st10" d="M134.5,106.1c1.3,0.1,2.7,0,4.1,0l2,0c0.7,0,1.4,0,2.1-0.1c0.2,0,0.2-0.3,0-0.4
					c-0.6-0.1-1.3-0.1-1.9-0.1l-2.1,0c-1.4,0-2.8-0.1-4.1,0C134.2,105.6,134.2,106,134.5,106.1z"/>
				<path id="Path_168_" class="st10" d="M141.7,104.2c0.8,0.1,1.6,0,2.4,0c0.2,0,0.3-0.3,0-0.4c-0.8-0.1-1.6-0.1-2.4-0.1
					c-0.1,0-0.2,0.1-0.2,0.2C141.5,104.1,141.6,104.2,141.7,104.2z"/>
				<path id="Path_167_" class="st10" d="M136.5,104.1c0.8,0,1.7,0,2.5-0.1c0.2,0,0.2-0.4,0-0.4c-0.9-0.1-1.7-0.1-2.6-0.1
					C136.2,103.7,136.2,104.1,136.5,104.1z"/>
				<path id="Path_166_" class="st13" d="M143.5,106c0.4,0,0.8,0,1.2-0.1c0.2,0,0.2-0.3,0-0.3c-0.4-0.1-0.8-0.1-1.3-0.1
					C143.2,105.5,143.2,106,143.5,106z"/>
				<path id="Path_165_" class="st13" d="M143.6,109.6c0.3,0,0.7-0.1,1-0.2c0.1,0,0.2-0.2,0-0.2c-0.3-0.1-0.7-0.1-1-0.2
					C143.2,109.1,143.2,109.6,143.6,109.6z"/>
				<path id="Path_164_" class="st13" d="M139.9,104.2c0.4,0,0.8,0,1.2-0.1c0.2,0,0.2-0.3,0-0.3c-0.4-0.1-0.7-0.1-1.1-0.1
					C139.6,103.7,139.6,104.2,139.9,104.2z"/>
				<path id="Path_163_" class="st13" d="M136.1,108.2c0.7,0.1,1.5,0,2.2,0c0.7,0,1.5,0,2.2-0.1c0.3,0,0.2-0.4,0-0.4
					c-0.7,0-1.5,0-2.2-0.1s-1.5-0.1-2.2,0C135.7,107.7,135.8,108.2,136.1,108.2z"/>
				<path id="Path_162_" class="st23" d="M141.3,143.8c0.1,0.1,0.2,0.2,0.3,0.3c0.2,0.1,0.3,0.2,0.2,0.4c-0.3,0.5-0.1,0.9,0.3,1.2
					c-0.1,0-0.1,0.1-0.1,0.1c-0.1,0.1-0.1,0.2-0.1,0.3c0,0.2,0,0.4,0.1,0.6c0.1,0.2,0.3,0.3,0.6,0.4c0,0,0.1,0,0.1,0.1
					c-0.1,0.1-0.3,0.2-0.3,0.2c-0.3,0.1-0.1,0.5,0.2,0.5c0.4-0.1,1.2-0.4,0.8-1c-0.2-0.2-0.7-0.3-0.8-0.5c-0.1-0.2,0.3-0.4,0.3-0.7
					c0-0.3-0.2-0.4-0.4-0.4c-0.2-0.1-0.3-0.1-0.2-0.3c0-0.1,0.2-0.2,0.2-0.3c0.1-0.2,0.1-0.5,0-0.7c-0.1-0.1-0.5-0.5-0.6-0.4
					c0.3-0.2-0.1-0.7-0.4-0.5C141.1,143.3,141.1,143.6,141.3,143.8z"/>
				<path id="Path_161_" class="st23" d="M133.7,143.7c0,0.1,0.1,0.3,0.2,0.4c0.1,0.2,0.2,0.3,0,0.5c-0.5,0.3-0.5,0.8-0.2,1.2
					c-0.1,0-0.1,0-0.2,0.1c-0.1,0-0.1,0.1-0.2,0.2c-0.1,0.2-0.2,0.4-0.1,0.6c0,0.3,0.2,0.4,0.3,0.6c0,0,0,0.1,0.1,0.1
					c-0.2,0-0.3,0-0.4,0c-0.3,0-0.3,0.4-0.1,0.5c0.4,0.1,1.3,0.1,1.1-0.5c-0.1-0.3-0.5-0.6-0.5-0.8c0-0.2,0.5-0.2,0.6-0.4
					c0.1-0.3,0-0.4-0.2-0.6c-0.1-0.1-0.2-0.2-0.1-0.4c0.1-0.1,0.2-0.1,0.3-0.2c0.2-0.1,0.3-0.4,0.2-0.6c0-0.1-0.3-0.7-0.3-0.6
					c0.4-0.1,0.2-0.7-0.2-0.6C133.8,143.1,133.7,143.4,133.7,143.7z"/>
				<path id="Path_160_" class="st23" d="M141.1,136c0.3,0.4,0.7,0.7,1.1,0.9c0.2,0.1,0.5,0.1,0.6,0.3c0,0.2-0.1,0.4-0.1,0.6
					c0,0.4,0.4,0.6,0.8,0.6c0.1,0,0.5-0.1,0.5,0c0,0.1-0.2,0.4-0.2,0.6c0,0.4,0.3,0.6,0.6,0.7c0.2,0,0.4,0,0.6,0c0.1,0,0.3,0,0.3,0
					c0.1,0.1,0.1,0.3,0,0.4c-0.1,0.4-0.1,0.8,0.2,1c0.2,0.2,0.5,0,0.7,0.2c0.3,0.2,0,0.6-0.1,0.8s0.2,0.4,0.4,0.2
					c0.3-0.4,0.6-0.8,0.3-1.3c-0.1-0.2-0.2-0.3-0.4-0.4c-0.1,0-0.3,0-0.4,0c-0.3-0.1-0.2-0.2-0.2-0.4c0.1-0.4,0.1-0.9-0.3-1.1
					c-0.2-0.1-0.4-0.1-0.6-0.1c-0.2,0-0.5,0.1-0.5-0.1c0-0.2,0.2-0.4,0.2-0.6c0-0.2-0.1-0.4-0.3-0.5c-0.2-0.1-0.4-0.1-0.5-0.1
					c-0.1,0-0.3,0.1-0.4,0c-0.1-0.1,0-0.2,0-0.3c0.1-0.4,0-0.8-0.4-1c-0.3-0.1-0.5-0.2-0.8-0.4c-0.2-0.2-0.5-0.3-0.7-0.5
					C141.3,135.3,140.9,135.8,141.1,136z"/>
				<path id="Path_159_" class="st23" d="M130.1,142.8c0.6-0.1,2-0.4,1.7-1.3c-0.1-0.1-0.1-0.3-0.2-0.4c-0.2-0.3-0.1-0.5,0.1-0.7
					c0.3-0.3,0.7-0.4,1-0.8c0.2-0.3,0.3-0.6,0-0.8c-0.1-0.1-0.1-0.1-0.2-0.2l-0.1,0c-0.1-0.1-0.1-0.1,0,0c0.1-0.1,0.2-0.1,0.3-0.2
					c0.1-0.1,0.2-0.2,0.3-0.3c0.3-0.2,0.6-0.5,0.4-0.9c-0.1-0.2-0.2-0.3-0.1-0.5c0.2-0.2,0.5-0.2,0.7-0.3c0.3-0.1,0.2-0.7-0.1-0.6
					c-0.4,0.1-0.9,0.3-1.2,0.7c-0.1,0.2-0.1,0.4-0.1,0.6c0,0.1,0.1,0.2,0.1,0.3c0,0,0,0,0.1,0.1l0,0c-0.2,0.2-0.5,0.4-0.7,0.6
					c-0.2,0.2-0.4,0.3-0.4,0.6c0,0.3,0.2,0.4,0.4,0.6c-0.4,0.6-1.2,0.8-1.3,1.6c0,0.4,0.2,0.5,0.3,0.8c0.1,0.1,0.1,0.2-0.1,0.3
					c-0.1,0.1-0.2,0.1-0.3,0.1c-0.2,0.1-0.5,0.2-0.7,0.3C129.7,142.4,129.8,142.9,130.1,142.8z"/>
				<path id="Path_158_" class="st23" d="M125.6,141.6c0.1-0.2,0.5-0.1,0.6-0.1c0.2,0,0.4-0.2,0.5-0.3c0.1-0.2,0-0.4,0.1-0.6
					c0.1-0.1,0-0.1,0.1-0.1c0.1,0,0.2,0.1,0.3,0.1c0.4,0.1,0.7,0,0.9-0.4c0.1-0.2,0.1-0.5,0.1-0.8c0-0.1,0.1-1.2,0.3-1.1
					c0.3,0.2,0.5-0.2,0.3-0.4c-0.5-0.4-0.9,0.2-1,0.7c-0.1,0.4,0,0.8-0.1,1.2c0,0.2-0.1,0.3-0.3,0.2c-0.1,0-0.2-0.1-0.3-0.2
					c-0.2-0.1-0.4,0-0.6,0.2c-0.2,0.2-0.1,0.4-0.2,0.7c-0.1,0.3-0.5,0.2-0.8,0.3c-0.2,0.1-0.4,0.3-0.4,0.5
					C125,141.8,125.5,141.9,125.6,141.6z"/>
				<path id="Path_157_" class="st23" d="M124.7,136.4c0,0.3,0.4,0.3,0.5,0.1c0.1-0.2,0.1-0.5,0.2-0.6c0.2-0.2,0.4-0.1,0.6-0.1
					c0.2,0,0.5-0.2,0.6-0.4c0.2-0.3,0.2-0.6,0.3-0.9c0.1-0.2,0.1-0.4,0.4-0.4c0.2,0,0.3,0.2,0.5,0.3c0.6,0.4,1.1,0.3,1.4-0.4
					c0.1-0.4,0.3-0.7,0.5-1.1c0.1-0.2,0.2-0.2,0.4-0.1c0.2,0.1,0.3,0.1,0.5,0.2c0.3,0.1,0.5-0.4,0.1-0.5c-0.3-0.1-0.6-0.4-1-0.3
					c-0.4,0.1-0.5,0.5-0.7,0.8c-0.1,0.2-0.2,0.4-0.3,0.6c-0.1,0.2-0.1,0.5-0.4,0.4c-0.4-0.1-0.6-0.5-1.1-0.5c-0.9,0-0.8,0.9-1.1,1.5
					c-0.1,0.3-0.3,0.1-0.6,0.2c-0.2,0-0.3,0.1-0.4,0.2C124.8,135.6,124.7,136,124.7,136.4z"/>
			</g>
		</g>
	</g>
</g>
<rect x="211.1" y="84.9" class="st8" width="25.9" height="15.5"/>
<g id="Page-1_5_">
	<g id="Final-Logos-outlined-Copy_1_" transform="translate(-323.000000, -488.000000)">
		<g id="Hex-white_1_" transform="translate(323.000000, 488.000000)">
			<g id="Group_1_" transform="translate(85.000000, 11.000000)">
				<path id="isaac_2_" class="st33" d="M158.3,70.6c-0.3,0-0.5-0.2-0.5-0.5c0-0.2,0.2-0.5,0.5-0.5c0.3,0,0.5,0.2,0.5,0.5
					C158.8,70.4,158.6,70.6,158.3,70.6z M158.3,76L158.3,76c-0.3,0-0.4-0.1-0.4-0.3v-3.9c0-0.2,0.1-0.3,0.3-0.3h0.1
					c0.2,0,0.3,0.1,0.3,0.3v3.9C158.7,75.9,158.6,76,158.3,76z M162.8,72.6c-0.2,0-0.3-0.1-0.4-0.2c-0.2-0.2-0.4-0.3-0.8-0.3
					c-0.5,0-0.9,0.3-0.9,0.6s0.3,0.5,1,0.7c1.2,0.2,1.6,0.6,1.6,1.4c0,0.8-0.6,1.4-1.7,1.4c-0.9,0-1.5-0.4-1.7-1
					c-0.1-0.2,0.1-0.4,0.3-0.4c0.2,0,0.3,0.1,0.4,0.2c0.2,0.3,0.6,0.5,1,0.5c0.7,0,1.1-0.3,1.1-0.7c0-0.4-0.3-0.6-1.1-0.7
					c-1.1-0.2-1.6-0.6-1.6-1.3c0-0.7,0.5-1.3,1.6-1.3c0.7,0,1.3,0.3,1.5,0.8C163.1,72.5,163,72.6,162.8,72.6z M166.4,76.2
					c-1.3,0-2.4-1.1-2.4-2.4c0-1.3,1.1-2.4,2.4-2.4c0.7,0,1.3,0.3,1.7,0.8v-0.4c0-0.2,0.1-0.3,0.3-0.3h0c0.2,0,0.3,0.1,0.3,0.3v3.9
					c0,0.2-0.1,0.3-0.3,0.3h0c-0.2,0-0.3-0.1-0.3-0.3v-0.4C167.7,75.8,167.1,76.2,166.4,76.2z M166.4,75.5c0.9,0,1.7-0.8,1.7-1.7
					c0-0.9-0.8-1.7-1.7-1.7c-0.9,0-1.6,0.8-1.6,1.7C164.8,74.7,165.5,75.5,166.4,75.5z M172.3,76.2c-1.3,0-2.4-1.1-2.4-2.4
					c0-1.3,1.1-2.4,2.4-2.4c0.7,0,1.3,0.3,1.7,0.8v-0.4c0-0.2,0.1-0.3,0.3-0.3h0c0.2,0,0.3,0.1,0.3,0.3v3.9c0,0.2-0.1,0.3-0.3,0.3h0
					c-0.2,0-0.3-0.1-0.3-0.3v-0.4C173.6,75.8,173,76.2,172.3,76.2z M172.3,75.5c0.9,0,1.7-0.8,1.7-1.7c0-0.9-0.8-1.7-1.7-1.7
					c-0.9,0-1.6,0.8-1.6,1.7C170.7,74.7,171.4,75.5,172.3,75.5z M179.9,73L179.9,73c-0.3,0-0.4-0.1-0.5-0.2
					c-0.3-0.4-0.8-0.7-1.3-0.7c-0.9,0-1.6,0.8-1.6,1.7c0,0.9,0.7,1.7,1.6,1.7c0.5,0,1-0.3,1.3-0.7c0.1-0.1,0.2-0.2,0.4-0.2h0.1
					c0.2,0,0.4,0.2,0.2,0.4c-0.4,0.7-1.2,1.2-2,1.2c-1.3,0-2.4-1.1-2.4-2.4c0-1.3,1.1-2.4,2.4-2.4c0.9,0,1.6,0.5,2,1.2
					C180.3,72.8,180.2,73,179.9,73z"/>
				<path id="computer_2_" class="st33" d="M161.5,80.7L161.5,80.7c-0.3,0-0.4-0.1-0.5-0.2c-0.3-0.4-0.8-0.7-1.3-0.7
					c-0.9,0-1.6,0.8-1.6,1.7c0,0.9,0.7,1.7,1.6,1.7c0.5,0,1-0.3,1.3-0.7c0.1-0.1,0.2-0.2,0.4-0.2h0.1c0.2,0,0.4,0.2,0.2,0.4
					c-0.4,0.7-1.2,1.2-2,1.2c-1.3,0-2.4-1.1-2.4-2.4c0-1.3,1.1-2.4,2.4-2.4c0.9,0,1.6,0.5,2,1.2C161.9,80.5,161.8,80.7,161.5,80.7z
					 M165.1,83.9c-1.3,0-2.4-1.1-2.4-2.4c0-1.3,1.1-2.4,2.4-2.4s2.4,1.1,2.4,2.4C167.5,82.8,166.4,83.9,165.1,83.9z M165.1,79.8
					c-0.9,0-1.6,0.8-1.6,1.7c0,0.9,0.7,1.7,1.6,1.7s1.6-0.8,1.6-1.7C166.7,80.6,166,79.8,165.1,79.8z M173.7,79.1
					c1.2,0,1.7,0.6,1.7,2v2.3c0,0.2-0.1,0.3-0.3,0.3h0c-0.2,0-0.3-0.1-0.3-0.3v-2.3c0-0.9-0.3-1.3-1-1.3c-0.8,0-1.4,0.5-1.4,1.6v2
					c0,0.2-0.1,0.3-0.3,0.3h0c-0.2,0-0.3-0.1-0.3-0.3v-2.3c0-0.9-0.3-1.3-1-1.3c-0.8,0-1.4,0.5-1.4,1.6v2c0,0.2-0.1,0.3-0.3,0.3h0
					c-0.2,0-0.3-0.1-0.3-0.3v-3.9c0-0.2,0.1-0.3,0.3-0.3h0c0.2,0,0.3,0.1,0.3,0.3v0.2c0.3-0.4,0.8-0.6,1.4-0.6
					c0.8,0,1.3,0.3,1.5,0.9C172.5,79.5,173,79.1,173.7,79.1z M179.2,79.1c1.3,0,2.4,1.1,2.4,2.4c0,1.3-1.1,2.4-2.4,2.4
					c-0.7,0-1.3-0.3-1.7-0.8v2.1c0,0.2-0.1,0.3-0.3,0.3h0c-0.2,0-0.3-0.1-0.3-0.3v-5.6c0-0.2,0.1-0.3,0.3-0.3h0
					c0.2,0,0.3,0.1,0.3,0.3V80C177.9,79.5,178.5,79.1,179.2,79.1z M179.2,83.2c0.9,0,1.6-0.8,1.6-1.7c0-0.9-0.7-1.7-1.6-1.7
					c-0.9,0-1.7,0.8-1.7,1.7C177.5,82.4,178.3,83.2,179.2,83.2z M186.2,79.2L186.2,79.2c0.2,0,0.4,0.1,0.4,0.3v3.9
					c0,0.2-0.1,0.3-0.3,0.3h0c-0.2,0-0.3-0.1-0.3-0.3v-0.2c-0.4,0.4-0.9,0.6-1.5,0.6c-1.3,0-1.9-0.6-1.9-2v-2.3
					c0-0.2,0.1-0.3,0.3-0.3h0c0.2,0,0.3,0.1,0.3,0.3v2.3c0,0.9,0.4,1.3,1.2,1.3c0.9,0,1.5-0.5,1.5-1.5v-2.1
					C185.9,79.3,186,79.2,186.2,79.2z M190.1,79.5c0,0.2-0.1,0.3-0.3,0.3h-0.7v3.6c0,0.2-0.1,0.3-0.3,0.3h0c-0.2,0-0.3-0.1-0.3-0.3
					v-3.6H188c-0.2,0-0.3-0.1-0.3-0.3c0-0.2,0.1-0.3,0.3-0.3h0.4v-1.5c0-0.2,0.1-0.3,0.3-0.3h0c0.2,0,0.3,0.1,0.3,0.3v1.5h0.7
					C190,79.2,190.1,79.3,190.1,79.5z M195.5,81.5v0.2c0,0.1-0.1,0.2-0.3,0.2h-3.6c0.1,0.8,0.8,1.4,1.6,1.4c0.4,0,0.8-0.2,1.1-0.4
					c0.1-0.1,0.2-0.2,0.4-0.2h0.1c0.3,0,0.4,0.2,0.2,0.4c-0.4,0.6-1.1,0.9-1.9,0.9c-1.3,0-2.4-1.1-2.4-2.4c0-1.3,1.1-2.4,2.4-2.4
					S195.5,80.2,195.5,81.5z M193.1,79.8c-0.8,0-1.4,0.6-1.6,1.3h3.2C194.5,80.4,193.9,79.8,193.1,79.8z M197.3,79.6v0.3
					c0.3-0.3,0.7-0.6,1.2-0.7c0.2,0,0.3,0.1,0.3,0.3v0c0,0.2-0.1,0.3-0.3,0.4c-0.7,0.1-1.2,0.6-1.2,1.4v2.2c0,0.2-0.1,0.3-0.3,0.3h0
					c-0.2,0-0.3-0.1-0.3-0.3v-3.9c0-0.2,0.1-0.3,0.3-0.3h0C197.2,79.2,197.3,79.3,197.3,79.6z"/>
				<path id="science_2_" class="st33" d="M160.3,88.3c-0.2,0-0.3-0.1-0.4-0.2c-0.2-0.2-0.4-0.3-0.8-0.3c-0.5,0-0.9,0.3-0.9,0.6
					c0,0.3,0.3,0.5,1,0.7c1.2,0.2,1.6,0.6,1.6,1.4c0,0.8-0.6,1.4-1.7,1.4c-0.9,0-1.5-0.4-1.7-1c-0.1-0.2,0.1-0.4,0.3-0.4
					c0.2,0,0.3,0.1,0.4,0.2c0.2,0.3,0.6,0.5,1,0.5c0.7,0,1.1-0.3,1.1-0.7c0-0.4-0.3-0.6-1.1-0.7c-1.1-0.2-1.6-0.6-1.6-1.3
					c0-0.7,0.5-1.3,1.6-1.3c0.7,0,1.3,0.3,1.5,0.8C160.6,88.2,160.5,88.3,160.3,88.3z M165.8,88.7L165.8,88.7
					c-0.3,0-0.4-0.1-0.5-0.2c-0.3-0.4-0.8-0.7-1.3-0.7c-0.9,0-1.6,0.8-1.6,1.7c0,0.9,0.7,1.7,1.6,1.7c0.5,0,1-0.3,1.3-0.7
					c0.1-0.1,0.2-0.2,0.4-0.2h0.1c0.2,0,0.4,0.2,0.2,0.4c-0.4,0.7-1.2,1.2-2,1.2c-1.3,0-2.4-1.1-2.4-2.4c0-1.3,1.1-2.4,2.4-2.4
					c0.9,0,1.6,0.5,2,1.2C166.2,88.5,166.1,88.7,165.8,88.7z M167.8,86.3c-0.3,0-0.5-0.2-0.5-0.5c0-0.2,0.2-0.5,0.5-0.5
					c0.3,0,0.5,0.2,0.5,0.5C168.3,86.1,168.1,86.3,167.8,86.3z M167.9,91.7L167.9,91.7c-0.3,0-0.4-0.1-0.4-0.3v-3.9
					c0-0.2,0.1-0.3,0.3-0.3h0.1c0.2,0,0.3,0.1,0.3,0.3v3.9C168.2,91.6,168.1,91.7,167.9,91.7z M174.1,89.5v0.2
					c0,0.1-0.1,0.2-0.3,0.2h-3.6c0.1,0.8,0.8,1.4,1.6,1.4c0.4,0,0.8-0.2,1.1-0.4c0.1-0.1,0.2-0.2,0.4-0.2h0.1c0.3,0,0.4,0.2,0.2,0.4
					c-0.4,0.6-1.1,0.9-1.9,0.9c-1.3,0-2.4-1.1-2.4-2.4c0-1.3,1.1-2.4,2.4-2.4C173,87.1,174.1,88.2,174.1,89.5z M171.7,87.8
					c-0.8,0-1.4,0.6-1.6,1.3h3.2C173.2,88.4,172.5,87.8,171.7,87.8z M175.6,91.7L175.6,91.7c-0.2,0-0.4-0.1-0.4-0.3v-3.9
					c0-0.2,0.1-0.3,0.3-0.3h0c0.2,0,0.3,0.1,0.3,0.3v0.2c0.4-0.4,0.9-0.6,1.5-0.6c1.3,0,1.9,0.6,1.9,2v2.3c0,0.2-0.1,0.3-0.3,0.3h0
					c-0.2,0-0.3-0.1-0.3-0.3v-2.3c0-0.9-0.4-1.3-1.2-1.3c-0.9,0-1.5,0.5-1.5,1.5v2.1C175.9,91.6,175.8,91.7,175.6,91.7z M184.5,88.7
					L184.5,88.7c-0.3,0-0.4-0.1-0.5-0.2c-0.3-0.4-0.8-0.7-1.3-0.7c-0.9,0-1.6,0.8-1.6,1.7c0,0.9,0.7,1.7,1.6,1.7
					c0.5,0,1-0.3,1.3-0.7c0.1-0.1,0.2-0.2,0.4-0.2h0.1c0.2,0,0.4,0.2,0.2,0.4c-0.4,0.7-1.2,1.2-2,1.2c-1.3,0-2.4-1.1-2.4-2.4
					c0-1.3,1.1-2.4,2.4-2.4c0.9,0,1.6,0.5,2,1.2C184.8,88.5,184.7,88.7,184.5,88.7z M190.4,89.5v0.2c0,0.1-0.1,0.2-0.3,0.2h-3.6
					c0.1,0.8,0.8,1.4,1.6,1.4c0.4,0,0.8-0.2,1.1-0.4c0.1-0.1,0.2-0.2,0.4-0.2h0.1c0.3,0,0.4,0.2,0.2,0.4c-0.4,0.6-1.1,0.9-1.9,0.9
					c-1.3,0-2.4-1.1-2.4-2.4c0-1.3,1.1-2.4,2.4-2.4S190.4,88.2,190.4,89.5z M188.1,87.8c-0.8,0-1.4,0.6-1.6,1.3h3.2
					C189.5,88.4,188.9,87.8,188.1,87.8z"/>
			</g>
			<g id="Logo-mark_1_">
				<path id="Combined-Shape_1_" class="st33" d="M224,108.9l-14.2-8.1l0-16.3l14.2-8.1l14.2,8.1l0,16.3L224,108.9z M234.7,86.7
					c-0.6,0-1.1,0.5-1.1,1.1c0,0.6,0.5,1.1,1.1,1.1c0.6,0,1.1-0.5,1.1-1.1C235.9,87.2,235.4,86.7,234.7,86.7z M230.5,86.7
					c-0.6,0-1.1,0.5-1.1,1.1c0,0.6,0.5,1.1,1.1,1.1c0.6,0,1.1-0.5,1.1-1.1C231.7,87.2,231.1,86.7,230.5,86.7z M234.7,91.3
					c-0.6,0-1.1,0.5-1.1,1.1s0.5,1.1,1.1,1.1c0.6,0,1.1-0.5,1.1-1.1S235.4,91.3,234.7,91.3z M230.6,91.3h-4.3
					c-0.6,0-1.1,0.5-1.1,1.1s0.5,1.1,1.1,1.1h4.3c0.6,0,1.1-0.5,1.1-1.1S231.2,91.3,230.6,91.3z M222.1,91.3c-0.6,0-1.1,0.5-1.1,1.1
					s0.5,1.1,1.1,1.1c0.6,0,1.1-0.5,1.1-1.1S222.7,91.3,222.1,91.3z M217.9,91.3h-4.3c-0.6,0-1.1,0.5-1.1,1.1s0.5,1.1,1.1,1.1h4.3
					c0.6,0,1.1-0.5,1.1-1.1S218.5,91.3,217.9,91.3z M234.7,95.9c-0.6,0-1.1,0.5-1.1,1.1c0,0.6,0.5,1.1,1.1,1.1
					c0.6,0,1.1-0.5,1.1-1.1C235.9,96.4,235.4,95.9,234.7,95.9z M226.3,95.9c-0.6,0-1.1,0.5-1.1,1.1c0,0.6,0.5,1.1,1.1,1.1
					c0.6,0,1.1-0.5,1.1-1.1C227.4,96.4,226.9,95.9,226.3,95.9z M230.5,95.9c-0.6,0-1.1,0.5-1.1,1.1c0,0.6,0.5,1.1,1.1,1.1
					c0.6,0,1.1-0.5,1.1-1.1C231.7,96.4,231.1,95.9,230.5,95.9z"/>
			</g>
		</g>
	</g>
</g>
</svg>
